#N canvas 0 50 454 529 10;
#X obj 78 19 inlet;
#X obj 140 133 list length;
#X floatatom 140 155 5 0 0 0 - - -, f 5;
#X obj 140 270 t f f;
#X obj 214 247 + 1;
#X floatatom 140 305 5 0 0 0 - - -, f 5;
#X msg 219 206 1;
#X msg 140 374 adddollar \$1;
#X msg 140 406 add2 \$1 \$2 \$3;
#X obj 140 448 outlet;
#X obj 78 41 list;
#X msg 298 204 set add2;
#X obj 78 81 trigger anything anything;
#X obj 140 176 trigger float bang bang;
#X obj 78 313 t a;
#X obj 140 206 until;
#X obj 140 248 float;
#X connect 0 0 10 0;
#X connect 1 0 2 0;
#X connect 2 0 13 0;
#X connect 3 0 5 0;
#X connect 3 1 4 0;
#X connect 4 0 16 1;
#X connect 5 0 7 0;
#X connect 6 0 16 1;
#X connect 7 0 8 0;
#X connect 8 0 9 0;
#X connect 10 0 12 0;
#X connect 11 0 8 0;
#X connect 12 0 14 0;
#X connect 12 1 1 0;
#X connect 13 0 15 0;
#X connect 13 1 6 0;
#X connect 13 2 11 0;
#X connect 14 0 8 0;
#X connect 15 0 16 0;
#X connect 16 0 3 0;
