#N canvas 790 53 640 563 10;
#X obj 483 527 easyflow-info;
#N canvas 0 50 274 128 subpatch1 0;
#X obj 44 41 colorCnv \$0-value1;
#X obj 44 66 colorCnv \$0-value2;
#X obj 44 93 colorCnv \$0-value3;
#X obj 55 41 v \$0-value1;
#X obj 55 66 v \$0-value2;
#X obj 55 93 v \$0-value3;
#X restore 87 357 pd subpatch1;
#N canvas 323 265 306 208 subpatch2 0;
#N canvas 0 50 289 237 subpatch3 0;
#X obj 55 61 colorCnv \$0-value1;
#X obj 66 61 v \$0-value1;
#X obj 37 111 colorCirc \$0-value4;
#X obj 51 111 colorCirc \$0-value5;
#N canvas 312 176 304 179 subpatch5 0;
#X obj 42 71 colorCnv \$0-value4;
#X obj 42 96 colorCnv \$0-value5;
#X obj 53 71 v \$0-value4;
#X obj 53 96 v \$0-value5;
#X restore 66 109 pd subpatch5;
#X restore 100 69 pd subpatch3;
#N canvas 0 50 282 120 subpatch4 0;
#X obj 43 50 colorCnv \$0-value6;
#X obj 54 50 v \$0-value6;
#X restore 100 103 pd subpatch4;
#X obj 52 71 colorCirc \$0-value1;
#X obj 81 106 colorCirc \$0-value6;
#X obj 67 71 colorCirc \$0-value4;
#X obj 81 71 colorCirc \$0-value5;
#X restore 267 358 pd subpatch2;
#X text 20 84 It is used to mark send/receive names and [value] objects
that are inside subpatches. It allows for quickly navigating the hierarchy
of your patch when you are following the data flow of your wireless
connections.;
#X text 27 316 Try using the circles to find the [v] boxes;
#X obj 43 450 for;
#X text 38 418 Example of usage: see [for] and [GOPTool], f 62;
#X obj 307 525 colorHighlighting-info;
#N canvas 0 50 450 300 GOPTool 0;
#X obj 41 29 GOPTool;
#X restore 87 450 pd GOPTool;
#X obj 307 497 cnv 11 164 17 empty empty complete information 2 9
0 14 -1 -262144 0;
#X text 37 515 see also:;
#X obj 36 200 colorHighlighting;
#N canvas 29 521 354 208 colorDefinitions 1;
#X obj 35 39 colorDef \$0-value1 red;
#X obj 35 63 colorDef \$0-value2 green;
#X obj 35 88 colorDef \$0-value3 blue;
#X obj 35 114 colorDef \$0-value4 purple;
#X obj 34 138 colorDef \$0-value5 gold;
#X obj 34 163 colorDef \$0-value6 pink;
#X restore 258 203 pd colorDefinitions;
#X text 258 164 colors are defined with [colorDef], f 18;
#X text 40 167 this abstraction makes the colors, f 17;
#X text 19 42 [colorCirc] creates a colored circle of fixed size. It's
color is read automatically..;
#X obj 384 321 colorCnv \$0-value1;
#X obj 384 346 colorCnv \$0-value2;
#X obj 384 373 colorCnv \$0-value3;
#X obj 492 321 colorCnv \$0-value4;
#X obj 492 346 colorCnv \$0-value5;
#X obj 493 370 colorCnv \$0-value6;
#X obj 395 321 v \$0-value1;
#X obj 395 346 v \$0-value2;
#X obj 395 373 v \$0-value3;
#X obj 503 321 v \$0-value4;
#X obj 503 346 v \$0-value5;
#X obj 504 370 v \$0-value6;
#X obj 50 360 colorCirc \$0-value1;
#X obj 63 360 colorCirc \$0-value2;
#X obj 75 360 colorCirc \$0-value3;
#X obj 203 363 colorCirc \$0-value1;
#X obj 247 363 colorCirc \$0-value6;
#X obj 218 363 colorCirc \$0-value4;
#X obj 232 363 colorCirc \$0-value5;
#X obj 118 516 colorCircF;
#X text 141 513 [colorCircF];
#X coords 0 563 1 562 10 17 0;
