#N canvas 909 178 549 300 10;
#X obj 100 100 cnv 10 10 17 empty \$0-cnv ▲ 1 5 0 18 -262144 -1 0
;
#X obj 40 177 inlet;
#X obj 183 47 loadbang;
#X obj 183 69 bng 15 250 50 0 empty empty empty 17 7 0 10 -262144 -1
-1;
#X obj 183 100 easyflow/colorSyntax \$1 \$2 \$3 \$4;
#X obj 183 173 s \$0-cnv;
#X obj 40 199 route set;
#X obj 40 245 s \$0-cnv;
#X msg 183 138 color 0 \$1 \$1;
#X msg 40 223 color 0 \$1 \$1;
#X connect 1 0 6 0;
#X connect 2 0 3 0;
#X connect 3 0 4 0;
#X connect 4 0 8 0;
#X connect 6 0 9 0;
#X connect 8 0 5 0;
#X connect 9 0 7 0;
#X coords 0 1 1 10 10 17 2 100 100;
