#N canvas 130 50 1008 572 10;
#X obj 132 47 trigger anything anything;
#X obj 230 446 list append;
#N canvas 0 50 450 300 for 0;
#X obj 76 28 inlet;
#X obj 76 100 until;
#X obj 76 133 f;
#X obj 76 50 trigger float bang;
#X obj 111 133 + 1;
#X obj 76 231 outlet leftmost = bang;
#X obj 76 155 trigger bang float;
#X obj 199 186 outlet rightmost = index;
#X msg 181 79 1;
#X connect 0 0 3 0;
#X connect 1 0 2 0;
#X connect 2 0 4 0;
#X connect 2 0 6 0;
#X connect 3 0 1 0;
#X connect 3 1 8 0;
#X connect 4 0 2 1;
#X connect 6 0 5 0;
#X connect 6 1 7 0;
#X connect 8 0 2 1;
#X restore 132 143 pd for;
#X obj 132 69 list length;
#X floatatom 132 91 5 0 0 0 - - -, f 5;
#X floatatom 165 168 5 0 0 0 - - -, f 5;
#X obj 165 387 trigger bang float;
#X floatatom 325 448 5 0 0 0 - - -, f 5;
#X obj 230 537 outlet;
#X obj 132 110 trigger f f;
#X obj 165 321 expr $f2+1-$f1;
#X floatatom 165 343 5 0 0 0 - - -, f 5;
#X obj 132 25 inlet left;
#X obj 450 31 inlet right;
#X obj 204 251 tgl 15 0 empty empty empty 17 7 0 10 -262144 -1 -1 1
1;
#X obj 165 272 spigot;
#X obj 204 228 r \$0-r2l;
#X obj 411 251 tgl 15 0 empty empty empty 17 7 0 10 -262144 -1 -1 0
1;
#X obj 372 272 spigot;
#X obj 411 228 r \$0-l2r;
#X obj 489 130 s \$0-r2l;
#X obj 450 152 s \$0-l2r;
#X msg 450 108 1;
#X msg 489 108 0;
#X msg 555 108 1;
#X msg 594 108 0;
#X obj 594 130 s \$0-l2r;
#X obj 555 152 s \$0-r2l;
#X obj 450 85 t b b;
#X obj 555 85 t b b;
#X text 434 272 left 2 right;
#X msg 665 108 1;
#X msg 704 108 0;
#X obj 704 130 s \$0-l2r;
#X obj 665 152 s \$0-r2l;
#X obj 665 85 t b b;
#X obj 665 63 sel 1;
#X obj 829 130 s \$0-r2l;
#X obj 790 152 s \$0-l2r;
#X msg 790 108 1;
#X msg 829 108 0;
#X obj 790 85 t b b;
#X obj 640 241 loadbang;
#X obj 450 63 route l2r;
#X obj 555 63 route r2l;
#X obj 439 152 cnv 10 10 17 empty empty empty 20 12 0 14 -225470 -225470
0;
#X obj 544 152 cnv 10 10 17 empty empty empty 20 12 0 14 -40346 -225470
0;
#X obj 654 152 cnv 10 10 17 empty empty empty 20 12 0 14 -40346 -225470
0;
#X obj 583 130 cnv 10 10 17 empty empty empty 20 12 0 14 -225470 -225470
0;
#X obj 693 130 cnv 10 10 17 empty empty empty 20 12 0 14 -225470 -225470
0;
#X obj 780 152 cnv 10 10 17 empty empty empty 20 12 0 14 -225470 -225470
0;
#X obj 478 130 cnv 10 10 17 empty empty empty 20 12 0 14 -40346 -225470
0;
#X obj 819 130 cnv 10 10 17 empty empty empty 20 12 0 14 -40346 -225470
0;
#X obj 401 228 cnv 10 10 17 empty empty empty 20 12 0 14 -225470 -225470
0;
#X obj 193 228 cnv 10 10 17 empty empty empty 20 12 0 14 -40346 -225470
0;
#X text 61 273 right 2 left;
#X obj 165 409 bng 15 250 50 0 empty empty empty 17 7 0 10 -262144
-1 -1;
#X obj 230 515 passNthElement;
#X obj 165 187 pack f f;
#X obj 165 294 unpack f f;
#X obj 640 263 bng 15 250 50 0 empty empty empty 17 7 0 10 -262144
-1 -1;
#X obj 640 285 list append arg \$1;
#X obj 707 501 s \$0-r2l;
#X obj 640 523 s \$0-l2r;
#X obj 630 523 cnv 10 10 17 empty empty empty 20 12 0 14 -225470 -225470
0;
#X obj 697 501 cnv 10 10 17 empty empty empty 20 12 0 14 -40346 -225470
0;
#X obj 640 447 unpack f f;
#X obj 640 329 select s1 sr2l sR2L;
#X msg 640 307 symbol s\$2;
#X msg 640 401 0 1;
#X msg 770 397 1 0;
#X connect 0 0 3 0;
#X connect 0 1 1 1;
#X connect 1 0 57 0;
#X connect 2 1 5 0;
#X connect 3 0 4 0;
#X connect 4 0 9 0;
#X connect 5 0 18 0;
#X connect 5 0 58 0;
#X connect 6 0 56 0;
#X connect 6 1 7 0;
#X connect 7 0 57 1;
#X connect 9 0 2 0;
#X connect 9 1 58 1;
#X connect 10 0 11 0;
#X connect 11 0 6 0;
#X connect 12 0 0 0;
#X connect 13 0 43 0;
#X connect 14 0 15 1;
#X connect 15 0 59 0;
#X connect 16 0 14 0;
#X connect 17 0 18 1;
#X connect 18 0 6 0;
#X connect 19 0 17 0;
#X connect 22 0 21 0;
#X connect 23 0 20 0;
#X connect 24 0 27 0;
#X connect 25 0 26 0;
#X connect 28 0 22 0;
#X connect 28 1 23 0;
#X connect 29 0 24 0;
#X connect 29 1 25 0;
#X connect 31 0 34 0;
#X connect 32 0 33 0;
#X connect 35 0 31 0;
#X connect 35 1 32 0;
#X connect 36 0 35 0;
#X connect 36 1 41 0;
#X connect 39 0 38 0;
#X connect 40 0 37 0;
#X connect 41 0 39 0;
#X connect 41 1 40 0;
#X connect 42 0 60 0;
#X connect 43 0 28 0;
#X connect 43 1 44 0;
#X connect 44 0 29 0;
#X connect 44 1 36 0;
#X connect 56 0 1 0;
#X connect 57 0 8 0;
#X connect 58 0 15 0;
#X connect 59 0 10 0;
#X connect 59 1 10 1;
#X connect 60 0 61 0;
#X connect 61 0 68 0;
#X connect 66 0 63 0;
#X connect 66 1 62 0;
#X connect 67 0 69 0;
#X connect 67 1 69 0;
#X connect 67 2 69 0;
#X connect 67 3 70 0;
#X connect 68 0 67 0;
#X connect 69 0 66 0;
#X connect 70 0 66 0;
