#N canvas 336 269 799 597 10;
#X symbolatom 68 198 10 0 0 0 - - -, f 10;
#X obj 68 220 list fromsymbol;
#X obj 108 309 trigger list list list;
#N canvas 0 50 483 462 getBlue 0;
#X msg 38 43 \$5 \$6;
#X obj 38 292 unpack f f;
#X obj 38 314 * 16;
#X obj 38 336 +;
#X floatatom 38 358 5 0 0 0 - - -, f 5;
#X obj 105 102 list tosymbol;
#X obj 38 72 unpack f f;
#X obj 38 174 list tosymbol;
#X floatatom 106 146 5 0 0 0 - - -, f 5;
#X floatatom 38 226 5 0 0 0 - - -, f 5;
#X obj 106 124 easyflow/hexCharToDec;
#X obj 38 204 easyflow/hexCharToDec;
#X obj 38 245 pack float float;
#X obj 38 19 inlet;
#X obj 38 377 outlet;
#X connect 0 0 6 0;
#X connect 1 0 2 0;
#X connect 1 1 3 1;
#X connect 2 0 3 0;
#X connect 3 0 4 0;
#X connect 4 0 14 0;
#X connect 5 0 10 0;
#X connect 6 0 7 0;
#X connect 6 1 5 0;
#X connect 7 0 11 0;
#X connect 8 0 12 1;
#X connect 9 0 12 0;
#X connect 10 0 8 0;
#X connect 11 0 9 0;
#X connect 12 0 1 0;
#X connect 13 0 0 0;
#X restore 269 335 pd getBlue;
#X floatatom 269 357 5 0 0 0 - - -, f 5;
#X obj 68 242 list split 1;
#X text 166 243 removes #;
#X floatatom 183 357 5 0 0 0 - - -, f 5;
#X floatatom 108 357 5 0 0 0 - - -, f 5;
#N canvas 0 50 483 462 getRed 0;
#X obj 38 292 unpack f f;
#X obj 38 314 * 16;
#X obj 38 336 +;
#X floatatom 38 358 5 0 0 0 - - -, f 5;
#X obj 105 102 list tosymbol;
#X obj 38 72 unpack f f;
#X obj 38 174 list tosymbol;
#X floatatom 106 146 5 0 0 0 - - -, f 5;
#X floatatom 38 226 5 0 0 0 - - -, f 5;
#X obj 106 124 easyflow/hexCharToDec;
#X obj 38 204 easyflow/hexCharToDec;
#X obj 38 245 pack float float;
#X obj 38 19 inlet;
#X obj 38 377 outlet;
#X msg 38 43 \$1 \$2;
#X connect 0 0 1 0;
#X connect 0 1 2 1;
#X connect 1 0 2 0;
#X connect 2 0 3 0;
#X connect 3 0 13 0;
#X connect 4 0 9 0;
#X connect 5 0 6 0;
#X connect 5 1 4 0;
#X connect 6 0 10 0;
#X connect 7 0 11 1;
#X connect 8 0 11 0;
#X connect 9 0 7 0;
#X connect 10 0 8 0;
#X connect 11 0 0 0;
#X connect 12 0 14 0;
#X connect 14 0 5 0;
#X restore 108 335 pd getRed;
#N canvas 0 50 483 462 getGreen 0;
#X obj 38 292 unpack f f;
#X obj 38 314 * 16;
#X obj 38 336 +;
#X floatatom 38 358 5 0 0 0 - - -, f 5;
#X obj 105 102 list tosymbol;
#X obj 38 72 unpack f f;
#X obj 38 174 list tosymbol;
#X floatatom 106 146 5 0 0 0 - - -, f 5;
#X floatatom 38 226 5 0 0 0 - - -, f 5;
#X obj 106 124 easyflow/hexCharToDec;
#X obj 38 204 easyflow/hexCharToDec;
#X obj 38 245 pack float float;
#X obj 38 19 inlet;
#X obj 38 377 outlet;
#X msg 38 43 \$3 \$4;
#X connect 0 0 1 0;
#X connect 0 1 2 1;
#X connect 1 0 2 0;
#X connect 2 0 3 0;
#X connect 3 0 13 0;
#X connect 4 0 9 0;
#X connect 5 0 6 0;
#X connect 5 1 4 0;
#X connect 6 0 10 0;
#X connect 7 0 11 1;
#X connect 8 0 11 0;
#X connect 9 0 7 0;
#X connect 10 0 8 0;
#X connect 11 0 0 0;
#X connect 12 0 14 0;
#X connect 14 0 5 0;
#X restore 183 335 pd getGreen;
#X obj 108 406 pack float float float;
#X obj 108 428 trigger list list;
#X obj 224 456 outlet RGBvalues;
#X obj 108 555 outlet DecColor;
#X obj 108 460 unpack f f f;
#X obj 108 522 easyflow/redGreenBlue;
#X obj 108 482 t b f;
#X obj 68 39 inlet;
#X obj 68 151 easyflow/symbolize;
#X obj 242 17 loadbang;
#X obj 242 69 symbol \$1;
#X symbolatom 242 91 10 0 0 0 - - -, f 10;
#X obj 242 39 bng 15 250 50 0 empty empty empty 17 7 0 10 -262144 -1
-1;
#X obj 68 81 route bang;
#X obj 68 123 symbol;
#X connect 0 0 1 0;
#X connect 1 0 5 0;
#X connect 2 0 9 0;
#X connect 2 1 10 0;
#X connect 2 2 3 0;
#X connect 3 0 4 0;
#X connect 4 0 11 2;
#X connect 5 1 2 0;
#X connect 7 0 11 1;
#X connect 8 0 11 0;
#X connect 9 0 8 0;
#X connect 10 0 7 0;
#X connect 11 0 12 0;
#X connect 12 0 15 0;
#X connect 12 1 13 0;
#X connect 15 0 17 0;
#X connect 15 1 16 2;
#X connect 15 2 16 3;
#X connect 16 0 14 0;
#X connect 17 0 16 0;
#X connect 17 1 16 1;
#X connect 18 0 24 0;
#X connect 19 0 0 0;
#X connect 20 0 23 0;
#X connect 21 0 22 0;
#X connect 22 0 25 1;
#X connect 23 0 21 0;
#X connect 24 0 25 0;
#X connect 24 1 19 0;
#X connect 25 0 19 0;
