#N canvas 337 194 379 323 10;
#X obj 43 15 keyname;
#X floatatom 43 37 5 0 0 0 - - -, f 5;
#X symbolatom 96 37 10 0 0 0 - - -, f 10;
#X obj 76 145 r \$0-SymbolChange;
#X obj 76 167 tgl 15 0 empty empty empty 17 7 0 10 -262144 -1 -1 0
1;
#X obj 43 187 spigot;
#X obj 231 167 tgl 15 0 empty empty empty 17 7 0 10 -262144 -1 -1 1
1;
#X obj 192 187 spigot;
#X obj 231 145 r \$0-FloatChange;
#X obj 43 58 pack f s;
#X obj 43 80 trigger anything anything;
#N canvas 967 110 313 331 DetectAnyChange 0;
#X obj 47 29 inlet;
#N canvas 686 226 450 300 DetectSymbolChange 0;
#X obj 68 7 inlet;
#X obj 68 115 route lastsymbol;
#X obj 68 29 t s s;
#X obj 68 51 pack s s;
#X symbolatom 203 88 10 0 0 0 - - -, f 10;
#N canvas 799 417 450 300 Symbolize 0;
#X obj 38 21 inlet;
#X obj 38 43 list prepend symbol;
#X obj 38 65 list trim;
#X obj 38 87 outlet;
#X connect 0 0 1 0;
#X connect 1 0 2 0;
#X connect 2 0 3 0;
#X restore 68 147 pd Symbolize;
#X symbolatom 68 169 10 0 0 0 - - -, f 10;
#X obj 68 73 list trim;
#X obj 203 63 unpack s s;
#X obj 203 109 outlet new symbol;
#X obj 68 190 outlet oldsymbol;
#X connect 0 0 2 0;
#X connect 1 0 5 0;
#X connect 1 1 8 0;
#X connect 2 0 3 0;
#X connect 2 1 3 1;
#X connect 3 0 7 0;
#X connect 4 0 1 1;
#X connect 4 0 9 0;
#X connect 5 0 6 0;
#X connect 6 0 10 0;
#X connect 7 0 1 0;
#X connect 8 0 4 0;
#X restore 86 91 pd DetectSymbolChange;
#N canvas 686 226 450 300 DetectFloatChange 0;
#X obj 68 7 inlet;
#X obj 68 73 list trim;
#X obj 68 29 t f f;
#X obj 68 51 pack f f;
#X obj 68 115 route 666;
#X obj 203 63 unpack f f;
#X obj 203 139 outlet new float;
#X floatatom 203 88 5 0 0 0 - - -, f 5;
#X floatatom 68 144 5 0 0 0 - - -, f 5;
#X obj 68 190 outlet oldfloat;
#X connect 0 0 2 0;
#X connect 1 0 4 0;
#X connect 2 0 3 0;
#X connect 2 1 3 1;
#X connect 3 0 1 0;
#X connect 4 0 8 0;
#X connect 4 1 5 0;
#X connect 5 0 7 0;
#X connect 7 0 6 0;
#X connect 7 0 4 1;
#X connect 8 0 9 0;
#X restore 47 191 pd DetectFloatChange;
#X msg 209 120 1;
#X obj 147 149 s \$0-SymbolChange;
#X msg 86 113 0;
#X obj 107 271 s \$0-FloatChange;
#X msg 47 226 0;
#X obj 47 56 unpack f s;
#X msg 164 226 1;
#X obj 96 271 cnv 10 10 17 empty empty empty 20 12 0 14 -108745 -1
0;
#X obj 136 149 cnv 10 10 17 empty empty empty 20 12 0 14 -135232 -1
0;
#X connect 0 0 8 0;
#X connect 1 0 5 0;
#X connect 1 1 3 0;
#X connect 2 0 7 0;
#X connect 2 1 9 0;
#X connect 3 0 4 0;
#X connect 5 0 4 0;
#X connect 7 0 6 0;
#X connect 8 0 2 0;
#X connect 8 1 1 0;
#X connect 9 0 6 0;
#X restore 215 107 pd DetectAnyChange;
#X obj 123 249 unpack float symbol;
#X obj 123 277 outlet;
#X obj 253 277 outlet;
#X obj 220 145 cnv 10 10 17 empty empty empty 20 12 0 14 -108745 -1
0;
#X obj 65 145 cnv 10 10 17 empty empty empty 20 12 0 14 -135232 -1
0;
#X obj 188 110 cnv 10 10 17 empty empty ● 1 5 0 15 -262144 -135232
0;
#X obj 200 110 cnv 10 10 17 empty empty ● 1 5 0 15 -262144 -108745
0;
#X connect 0 0 1 0;
#X connect 0 1 2 0;
#X connect 1 0 9 0;
#X connect 2 0 9 1;
#X connect 3 0 4 0;
#X connect 4 0 5 1;
#X connect 5 0 12 0;
#X connect 6 0 7 1;
#X connect 7 0 12 0;
#X connect 8 0 6 0;
#X connect 9 0 10 0;
#X connect 10 0 5 0;
#X connect 10 0 7 0;
#X connect 10 1 11 0;
#X connect 12 0 13 0;
#X connect 12 1 14 0;
