#N canvas 268 178 475 583 10;
#X obj 50 30 inlet;
#X obj 50 52 route list;
#X obj 125 192 easyflow/left2right;
#X obj 125 306 list 666 \$2;
#X msg 125 338 \$2;
#X obj 271 501 outlet;
#X msg 271 169 set;
#X msg 271 466 sub;
#X msg 192 420 add2 \$1;
#X obj 50 134 trigger bang list bang;
#X obj 50 84 list;
#X obj 50 416 t b;
#X obj 256 551 easyflow/easyflow-info;
#X obj 125 360 route float;
#X obj 199 384 easyflow/symbolize;
#X obj 192 227 inlet;
#X obj 37 30 cnv 11 12 17 empty empty 1 2 9 0 14 -1 -262144 0;
#X obj 179 227 cnv 11 12 17 empty empty 2 2 9 0 14 -1 -262144 0;
#X obj 331 202 inlet;
#X obj 318 202 cnv 11 12 17 empty empty 3 2 9 0 14 -1 -262144 0;
#X obj 258 501 cnv 11 12 17 empty empty 1 2 9 0 14 -1 -262144 0;
#X obj 331 224 list prepend 666;
#X obj 125 265 compare \$1;
#X connect 0 0 1 0;
#X connect 1 0 10 0;
#X connect 1 1 10 0;
#X connect 2 0 22 0;
#X connect 3 0 4 0;
#X connect 4 0 13 0;
#X connect 6 0 7 0;
#X connect 7 0 5 0;
#X connect 8 0 7 0;
#X connect 9 0 11 0;
#X connect 9 1 2 0;
#X connect 9 2 6 0;
#X connect 10 0 9 0;
#X connect 11 0 7 0;
#X connect 13 0 8 0;
#X connect 13 1 14 0;
#X connect 14 0 8 0;
#X connect 15 0 22 1;
#X connect 18 0 21 0;
#X connect 21 0 3 1;
#X connect 22 0 3 0;
#X connect 22 1 8 0;
