#N canvas 178 274 384 508 10;
#X obj 52 26 inlet;
#X obj 127 465 outlet;
#X obj 127 208 easyflow/left2right;
#X obj 127 270 select \$1;
#X obj 127 352 bng 15 250 50 0 empty empty empty 17 7 0 10 -262144
-1 -1;
#X msg 127 374 addcomma;
#X msg 127 416 a b c \, d e f \, g h i;
#X msg 187 335 add2 \$1;
#X msg 203 294 set;
#X obj 128 26 list;
#X obj 52 127 list;
#X obj 52 165 trigger bang list bang;
#X obj 52 347 bng 15 250 50 0 empty empty empty 17 7 0 10 -262144 -1
-1;
#X obj 187 237 inlet;
#X obj 52 55 route list float symbol;
#X obj 39 26 cnv 11 12 17 empty empty 1 2 9 0 14 -1 -262144 0;
#X obj 175 237 cnv 11 12 17 empty empty 2 2 9 0 14 -1 -262144 0;
#X obj 114 465 cnv 11 12 17 empty empty 1 2 9 0 14 -1 -262144 0;
#X connect 0 0 14 0;
#X connect 2 0 3 0;
#X connect 3 0 4 0;
#X connect 3 1 7 0;
#X connect 4 0 5 0;
#X connect 5 0 6 0;
#X connect 6 0 1 0;
#X connect 7 0 6 0;
#X connect 8 0 6 0;
#X connect 9 0 14 0;
#X connect 10 0 11 0;
#X connect 11 0 12 0;
#X connect 11 1 2 0;
#X connect 11 2 8 0;
#X connect 12 0 6 0;
#X connect 13 0 3 1;
#X connect 14 0 10 0;
#X connect 14 1 10 0;
#X connect 14 2 10 0;
#X connect 14 3 9 0;
#X coords 0 508 1 507 20 17 0;
