#N canvas 405 56 503 752 10;
#X obj 63 27 inlet;
#X obj 125 136 list length;
#X floatatom 125 158 5 0 0 0 - - -, f 5;
#X obj 64 305 list;
#N canvas 0 50 450 300 for 0;
#X obj 26 18 inlet;
#X obj 26 132 f;
#X obj 61 132 + 1;
#X obj 156 217 outlet rightmost = index;
#X msg 191 69 1;
#X text 231 37 This is part of EasyFlow library of abstractions.;
#X text 231 67 Created by Henri Augusto - v1.0 - 11 July 2015;
#X text 231 86 henriaugusto.github.io;
#X obj 26 291 outlet leftmost = bang when finished;
#X obj 26 188 trigger float float;
#X obj 26 247 select;
#X obj 26 40 trigger float float bang;
#X obj 26 80 until 0;
#X text 381 157 from 1 to X;
#X msg 354 157 X;
#X msg 353 182 X Y;
#X text 388 181 from X to Y;
#X text 346 133 idea for a new version;
#X connect 0 0 11 0;
#X connect 1 0 2 0;
#X connect 1 0 9 0;
#X connect 2 0 1 1;
#X connect 4 0 1 1;
#X connect 9 0 10 0;
#X connect 9 1 3 0;
#X connect 10 0 8 0;
#X connect 11 0 12 0;
#X connect 11 1 10 1;
#X connect 11 2 4 0;
#X connect 12 0 1 0;
#X restore 125 177 pd for;
#X obj 64 223 trigger bang float bang;
#X msg 126 254 adddollar \$1;
#X obj 126 450 list append 194 160;
#X obj 63 99 trigger bang list list bang;
#X obj 126 421 list fromsymbol;
#N canvas 0 50 450 300 addList 0;
#X obj 108 19 inlet;
#X obj 182 113 list length;
#X floatatom 182 135 5 0 0 0 - - -, f 5;
#X obj 182 208 f;
#X obj 182 230 t f f;
#X obj 182 252 + 1;
#X floatatom 214 283 5 0 0 0 - - -, f 5;
#X msg 246 184 1;
#X msg 214 304 adddollar \$1;
#X msg 209 446 add2 \$1 \$2 \$3;
#X obj 374 517 outlet;
#X obj 108 41 list;
#X obj 182 156 trigger float bang bang bang;
#X msg 310 184 set add2;
#X obj 182 186 until;
#X obj 108 81 trigger a a;
#X connect 0 0 11 0;
#X connect 1 0 2 0;
#X connect 2 0 12 0;
#X connect 3 0 4 0;
#X connect 4 0 5 0;
#X connect 4 1 6 0;
#X connect 5 0 3 1;
#X connect 6 0 8 0;
#X connect 7 0 3 1;
#X connect 8 0 9 0;
#X connect 9 0 10 0;
#X connect 11 0 15 0;
#X connect 12 0 14 0;
#X connect 12 1 7 0;
#X connect 12 2 13 0;
#X connect 13 0 9 0;
#X connect 14 0 3 0;
#X connect 15 0 9 0;
#X connect 15 1 1 0;
#X restore 126 479 pd addList;
#X obj 126 606 list tosymbol;
#X msg 249 170 set;
#X symbolatom 126 638 30 0 0 0 - - -, f 30;
#X obj 126 667 outlet;
#X msg 126 370 \$4;
#X msg 222 302 set;
#N canvas 0 50 313 300 numberSymbol 0;
#X obj 67 126 list fromsymbol;
#X obj 107 176 list tosymbol;
#X symbolatom 107 198 10 0 0 0 - - -, f 10;
#X obj 67 34 inlet;
#X obj 107 217 outlet;
#X msg 67 101 symbol s\$1;
#X obj 67 148 list split 1;
#N canvas 935 188 450 300 dealWithTypes 0;
#X obj 70 30 inlet;
#X obj 70 52 route bang float symbol list;
#X obj 70 75 f \$1;
#X obj 160 276 outlet;
#X obj 263 75 list prepend symbol;
#X obj 263 97 list trim;
#X floatatom 118 78 5 0 0 0 - - -, f 5;
#X symbolatom 166 179 10 0 0 0 - - -, f 10;
#X symbolatom 263 119 10 0 0 0 - - -, f 10;
#X obj 214 144 list split 1;
#X connect 0 0 1 0;
#X connect 1 0 2 0;
#X connect 1 1 6 0;
#X connect 1 2 7 0;
#X connect 1 3 9 0;
#X connect 1 4 4 0;
#X connect 2 0 3 0;
#X connect 4 0 5 0;
#X connect 5 0 8 0;
#X connect 6 0 3 0;
#X connect 7 0 3 0;
#X connect 8 0 3 0;
#X connect 9 0 3 0;
#X restore 67 64 pd dealWithTypes;
#X connect 0 0 6 0;
#X connect 1 0 2 0;
#X connect 2 0 4 0;
#X connect 3 0 7 0;
#X connect 5 0 0 0;
#X connect 6 1 1 0;
#X connect 7 0 5 0;
#X restore 126 394 pd numberSymbol;
#N canvas 0 50 450 300 deal 0;
#X obj 57 34 inlet;
#X obj 57 216 outlet;
#X obj 266 82 list;
#X obj 230 41 t a;
#X obj 57 151 list;
#X obj 57 79 route list symbol float;
#X connect 0 0 5 0;
#X connect 2 0 3 0;
#X connect 3 0 5 0;
#X connect 4 0 1 0;
#X connect 5 0 4 0;
#X connect 5 1 4 0;
#X connect 5 2 4 0;
#X connect 5 3 2 0;
#X restore 63 69 pd deal with types;
#N canvas 0 50 450 300 list 0;
#X obj 69 42 inlet;
#X msg 69 64 97 194 160 98 194 160 99 194 160 100 194 160;
#X obj 69 176 outlet;
#X connect 0 0 1 0;
#X connect 1 0 2 0;
#X restore 126 536 pd list;
#X text 272 449 append a " " char;
#X obj 126 568 popLastN 2;
#X text 213 565 removes the last " " char;
#X connect 0 0 18 0;
#X connect 1 0 2 0;
#X connect 2 0 4 0;
#X connect 3 0 15 0;
#X connect 4 1 5 0;
#X connect 5 0 3 0;
#X connect 5 1 6 0;
#X connect 5 2 16 0;
#X connect 6 0 15 0;
#X connect 7 0 10 0;
#X connect 8 0 19 0;
#X connect 8 1 1 0;
#X connect 8 2 3 1;
#X connect 8 3 12 0;
#X connect 9 0 7 0;
#X connect 10 0 19 0;
#X connect 11 0 13 0;
#X connect 12 0 19 0;
#X connect 13 0 14 0;
#X connect 15 0 17 0;
#X connect 16 0 15 0;
#X connect 17 0 9 0;
#X connect 18 0 8 0;
#X connect 19 0 21 0;
#X connect 21 0 11 0;
