#N canvas 229 161 460 425 10;
#X obj 49 18 inlet;
#X obj 49 223 list split;
#X obj 225 233 inlet;
#X obj 116 166 inlet;
#X obj 82 249 list split 1;
#X obj 49 328 list append;
#X obj 49 370 outlet;
#X obj 280 382 easyflow-info;
#X obj 123 281 list prepend \$2;
#N canvas 262 521 450 359 checkLength 0;
#X obj 109 54 list length;
#X obj 109 29 inlet;
#X obj 109 76 trigger float bang;
#X obj 221 109 colorcnv 0 255 255;
#X obj 232 109 v \$0-index;
#X obj 109 160 sel 1;
#X obj 109 332 print [listReplaceAtIndex] error;
#X obj 98 254 colorcnv 0 255 255;
#X obj 109 254 v \$0-index;
#X msg 109 302 list doesn't have index \$1;
#X obj 109 276 + 1;
#X obj 109 138 <;
#X obj 232 131 + 1;
#X floatatom 109 98 5 0 0 0 - - -, f 5;
#X floatatom 232 153 5 0 0 0 - - -, f 5;
#X obj 141 223 outlet;
#X obj 141 182 bng 15 250 50 0 empty empty empty 17 7 0 10 -262144
-1 -1;
#X msg 141 202 1;
#X connect 0 0 2 0;
#X connect 1 0 0 0;
#X connect 2 0 13 0;
#X connect 2 1 4 0;
#X connect 4 0 12 0;
#X connect 5 0 8 0;
#X connect 5 1 16 0;
#X connect 8 0 10 0;
#X connect 9 0 6 0;
#X connect 10 0 9 0;
#X connect 11 0 5 0;
#X connect 12 0 11 1;
#X connect 12 0 14 0;
#X connect 13 0 11 0;
#X connect 16 0 17 0;
#X connect 17 0 15 0;
#X restore 93 72 pd checkLength;
#N canvas 0 50 450 374 checkIndex 1;
#X floatatom 57 169 5 0 0 0 - - -, f 5;
#X obj 103 248 - 1;
#X obj 72 51 loadbang;
#X obj 72 73 f \$1;
#X obj 124 295 colorcnv 0 255 255;
#X obj 135 295 v \$0-index;
#X obj 103 270 t f f;
#X obj 57 196 moses 1;
#X obj 57 20 inlet;
#X obj 103 319 outlet;
#X msg 57 218 cant use index \$1. The first index is 1;
#X obj 57 350 print [listReplaceAtIndex] error;
#X obj 72 95 moses 1;
#X obj 72 116 bng 15 250 50 0 empty empty empty 17 7 0 10 -262144 -1
-1;
#X msg 72 138 1;
#X connect 0 0 7 0;
#X connect 1 0 6 0;
#X connect 2 0 3 0;
#X connect 3 0 12 0;
#X connect 6 0 9 0;
#X connect 6 1 5 0;
#X connect 7 0 10 0;
#X connect 7 1 1 0;
#X connect 8 0 0 0;
#X connect 10 0 11 0;
#X connect 12 0 13 0;
#X connect 12 1 0 0;
#X connect 13 0 14 0;
#X connect 14 0 0 0;
#X restore 116 191 pd checkIndex;
#X obj 37 18 cnv 8 11 17 empty empty 1 2 9 0 14 -1 -262144 0;
#X obj 105 166 cnv 8 11 17 empty empty 2 2 9 0 14 -1 -262144 0;
#X obj 213 233 cnv 8 11 17 empty empty 3 2 9 0 14 -1 -262144 0;
#X obj 49 134 spigot;
#X obj 93 103 tgl 15 0 empty empty empty 17 7 0 10 -262144 -1 -1 0
1;
#X obj 49 40 trigger a a b;
#X msg 137 110 0;
#X connect 0 0 16 0;
#X connect 1 0 5 0;
#X connect 1 1 4 0;
#X connect 2 0 8 1;
#X connect 3 0 10 0;
#X connect 4 1 8 0;
#X connect 5 0 6 0;
#X connect 8 0 5 1;
#X connect 9 0 15 0;
#X connect 10 0 1 1;
#X connect 14 0 1 0;
#X connect 15 0 14 1;
#X connect 16 0 14 0;
#X connect 16 1 9 0;
#X connect 16 2 17 0;
#X connect 17 0 15 0;
