#N canvas 514 138 450 211 10;
#X obj 73 115 ListPlus 10;
#X msg 73 66 1 2 3 4 5;
#X obj 73 137 print;
#X text 34 28 Sums a number (argument 1) to every element of a list
;
#X floatatom 126 91 5 0 0 0 - - -, f 5;
#X obj 296 160 easyflow-info;
#X text 167 89 set addend;
#X connect 0 0 2 0;
#X connect 1 0 0 0;
#X connect 4 0 0 1;
