#N canvas 1316 221 386 519 10;
#X obj 77 244 hsl 128 15 0 1 0 0 empty empty empty -2 -8 0 10 -262144
-1 -1 6350 0;
#X obj 74 286 trigger float float;
#X obj 74 358 expr 1-$f1;
#X floatatom 74 380 5 0 0 0 - - -, f 5;
#X floatatom 204 328 5 0 0 0 - - -, f 5;
#X obj 74 429 outlet;
#X obj 204 418 outlet;
#X obj 74 399 t f f;
#X obj 106 330 s \$0-line1;
#X obj 204 347 t f f;
#X obj 236 377 s \$0-line2;
#X obj 234 78 inlet;
#X obj 234 102 pack f 1;
#X obj 287 78 r \$0-line2;
#X obj 74 10 inlet;
#X obj 74 204 line 0 10;
#X obj 74 102 pack f 0;
#X obj 127 78 r \$0-line1;
#X obj 74 308 t f f;
#X obj 116 78 cnv 10 10 17 empty empty empty 20 12 0 14 -51135 -66577
0;
#X obj 96 330 cnv 10 10 17 empty empty empty 20 12 0 14 -51135 -66577
0;
#X obj 226 377 cnv 10 10 17 empty empty empty 20 12 0 14 -57106 -66577
0;
#X obj 276 78 cnv 10 10 17 empty empty empty 20 12 0 14 -57106 -66577
0;
#X obj 74 32 route set float;
#X msg 74 132 set \$2 \, 0 \$1;
#X msg 234 132 set \$2 \, 1 \$1;
#X obj 61 10 cnv 11 12 17 empty empty 1 2 9 0 14 -1 -262144 0;
#X obj 221 78 cnv 11 12 17 empty empty 2 2 9 0 14 -1 -262144 0;
#X obj 61 429 cnv 11 12 17 empty empty 1 2 9 0 14 -1 -262144 0;
#X obj 191 418 cnv 11 12 17 empty empty 2 2 9 0 14 -1 -262144 0;
#X obj 16 133 t f b;
#X msg 48 162 stop;
#X connect 0 0 1 0;
#X connect 1 0 18 0;
#X connect 1 1 4 0;
#X connect 2 0 3 0;
#X connect 3 0 7 0;
#X connect 4 0 9 0;
#X connect 7 0 5 0;
#X connect 9 0 6 0;
#X connect 9 1 10 0;
#X connect 11 0 12 0;
#X connect 12 0 25 0;
#X connect 13 0 12 1;
#X connect 14 0 23 0;
#X connect 15 0 0 0;
#X connect 16 0 24 0;
#X connect 17 0 16 1;
#X connect 18 0 2 0;
#X connect 18 1 8 0;
#X connect 23 0 30 0;
#X connect 23 1 16 0;
#X connect 24 0 15 0;
#X connect 25 0 15 0;
#X connect 30 0 0 0;
#X connect 30 1 31 0;
#X connect 31 0 15 0;
#X coords 0 -1 1 1 150 40 1 65 225;
