#N canvas 308 145 561 693 10;
#X floatatom 146 335 5 0 0 0 - - -, f 5;
#X floatatom 289 335 5 0 0 0 - - -, f 5;
#X obj 128 464 * 1;
#X obj 271 463 * 1;
#X floatatom 54 515 5 0 0 0 - - -, f 5;
#X floatatom 197 516 5 0 0 0 - - -, f 5;
#N canvas 877 265 450 498 C melody 0;
#X obj 63 67 tgl 15 0 empty empty empty 17 7 0 10 -262144 -1 -1 0 1
;
#X obj 63 193 + 1;
#X obj 63 220 trigger b f;
#N canvas 0 50 249 193 pick 0;
#X obj 48 35 inlet;
#X obj 116 33 inlet;
#X obj 48 87 list split;
#X obj 116 55 - 1;
#X obj 81 114 list split 1;
#X obj 81 136 outlet;
#X connect 0 0 2 0;
#X connect 1 0 3 0;
#X connect 2 1 4 0;
#X connect 3 0 2 1;
#X connect 4 0 5 0;
#X restore 63 278 pd pick;
#X msg 63 242 48 50 52 53 55 57 59 60;
#X obj 63 171 random 8;
#X floatatom 63 300 5 0 0 0 - - -, f 5;
#X obj 63 111 trigger bang bang;
#X floatatom 243 300 5 0 0 0 - - -, f 5;
#X obj 243 319 outlet;
#X obj 63 319 outlet;
#X msg 243 175 127;
#X obj 63 89 metro 350;
#X obj 52 42 cnv 10 10 17 empty empty empty 20 12 0 14 -218876 -66577
0;
#X obj 63 42 r \$0-mixAB-help;
#X connect 0 0 12 0;
#X connect 1 0 2 0;
#X connect 2 0 4 0;
#X connect 2 1 3 1;
#X connect 3 0 6 0;
#X connect 4 0 3 0;
#X connect 5 0 1 0;
#X connect 6 0 10 0;
#X connect 7 0 5 0;
#X connect 7 1 11 0;
#X connect 8 0 9 0;
#X connect 11 0 8 0;
#X connect 12 0 7 0;
#X connect 14 0 0 0;
#X restore 54 363 pd C melody;
#X floatatom 128 516 5 0 0 0 - - -, f 5;
#X floatatom 271 515 5 0 0 0 - - -, f 5;
#X text 134 495 vel;
#X text 62 495 note;
#X text 274 495 vel;
#X text 202 495 note;
#X obj 54 601 noteout;
#X obj 197 599 noteout;
#N canvas 877 265 450 498 E melody 0;
#X obj 63 67 tgl 15 0 empty empty empty 17 7 0 10 -262144 -1 -1 0 1
;
#X obj 63 193 + 1;
#X obj 63 220 trigger b f;
#N canvas 0 50 249 193 pick 0;
#X obj 48 35 inlet;
#X obj 116 33 inlet;
#X obj 48 87 list split;
#X obj 116 55 - 1;
#X obj 81 114 list split 1;
#X obj 81 136 outlet;
#X connect 0 0 2 0;
#X connect 1 0 3 0;
#X connect 2 1 4 0;
#X connect 3 0 2 1;
#X connect 4 0 5 0;
#X restore 63 278 pd pick;
#X obj 63 171 random 8;
#X floatatom 63 300 5 0 0 0 - - -, f 5;
#X obj 63 111 trigger bang bang;
#X floatatom 243 300 5 0 0 0 - - -, f 5;
#X obj 243 319 outlet;
#X obj 63 319 outlet;
#X msg 63 242 52 54 56 57 59 60 62 63;
#X obj 63 89 metro 350;
#X obj 243 171 f 127;
#X obj 52 42 cnv 10 10 17 empty empty empty 20 12 0 14 -218876 -66577
0;
#X obj 63 42 r \$0-mixAB-help;
#X connect 0 0 11 0;
#X connect 1 0 2 0;
#X connect 2 0 10 0;
#X connect 2 1 3 1;
#X connect 3 0 5 0;
#X connect 4 0 1 0;
#X connect 5 0 9 0;
#X connect 6 0 4 0;
#X connect 6 1 12 0;
#X connect 7 0 8 0;
#X connect 10 0 3 0;
#X connect 11 0 6 0;
#X connect 12 0 7 0;
#X connect 14 0 0 0;
#X restore 197 363 pd E melody;
#X obj 54 557 makenote 127 200;
#X obj 197 557 makenote 127 200;
#X floatatom 46 165 5 0 0 0 - - -, f 5;
#X floatatom 189 165 5 0 0 0 - - -, f 5;
#X text 43 28 Provides a slider for mixing streams and etc;
#X text 33 220 Example: Mix between a random melody in C major and
a random melody in E major.;
#X text 46 635 (don't forget to set up your midi output);
#X obj 425 635 easyflow-info;
#X obj 46 119 mixAB;
#X msg 46 61 1000;
#X msg 189 92 1000;
#X msg 61 93 set 0.5;
#X obj 359 346 cnv 10 10 17 empty empty empty 20 12 0 14 -218876 -66577
0;
#X obj 370 346 s \$0-mixAB-help;
#X obj 370 319 tgl 15 0 empty empty start/stop -18 -8 0 12 -4034 -1
-1 0 1;
#X text 88 58 ramp to right in 1000 ms;
#X text 229 91 ramp to left in 1000 ms;
#X obj 146 289 mixAB;
#X connect 0 0 2 1;
#X connect 1 0 3 1;
#X connect 2 0 7 0;
#X connect 3 0 8 0;
#X connect 4 0 16 0;
#X connect 5 0 17 0;
#X connect 6 0 4 0;
#X connect 6 1 2 0;
#X connect 7 0 16 1;
#X connect 8 0 17 1;
#X connect 15 0 5 0;
#X connect 15 1 3 0;
#X connect 16 0 13 0;
#X connect 16 1 13 1;
#X connect 17 0 14 0;
#X connect 17 1 14 1;
#X connect 24 0 18 0;
#X connect 24 1 19 0;
#X connect 25 0 24 0;
#X connect 26 0 24 1;
#X connect 27 0 24 0;
#X connect 30 0 29 0;
#X connect 33 0 0 0;
#X connect 33 1 1 0;
#X coords 0 693 1 692 150 40 0;
