#N canvas 0 50 430 199 10;
#X obj 80 30 inlet;
#X obj 201 28 inlet;
#X obj 120 166 outlet;
#X floatatom 201 80 5 0 0 0 - - -, f 5;
#X obj 120 139 list split 1;
#X obj 201 101 - 1;
#X obj 80 102 list split 0;
#X obj 266 26 loadbang;
#X obj 266 48 f \$1;
#X connect 0 0 6 0;
#X connect 1 0 3 0;
#X connect 3 0 5 0;
#X connect 4 0 2 0;
#X connect 5 0 6 1;
#X connect 6 1 4 0;
#X connect 7 0 8 0;
#X connect 8 0 3 0;
