#N canvas 786 223 512 430 10;
#X text 27 12 This abstraction searches a list for a specific;
#X text 26 28 value and outputs the found indexes.;
#X obj 403 400 easyflow-info;
#X text 29 58 If it doesn't find the symbol it outputs -1;
#X msg 60 134 a b c a b c a b c;
#X msg 62 261 a b c a b c a b c;
#X msg 143 305 symbol b;
#X msg 156 335 c;
#X text 193 335 custom selectors are treated like symbols;
#X text 27 77 The first index is 1;
#X obj 60 164 searchElem a;
#X obj 60 186 easyflow/printHere -s;
#X obj 62 383 easyflow/printHere -s;
#X obj 62 361 searchElem a;
#X connect 4 0 10 0;
#X connect 5 0 13 0;
#X connect 6 0 13 1;
#X connect 7 0 13 1;
#X connect 10 0 11 0;
#X connect 13 0 12 0;
