#N canvas 568 125 494 383 10;
#X text 45 20 Switch passes it's input through it's left or right outlet
depending on what you send on it's cold inlet.;
#X obj 54 100 noise~;
#X obj 55 279 env~;
#X floatatom 55 301 5 0 0 0 - - -, f 5;
#X obj 141 234 env~;
#X floatatom 141 256 5 0 0 0 - - -, f 5;
#X obj 349 166 tgl 15 0 empty empty empty 17 7 0 10 -262144 -1 -1 1
1;
#X msg 349 188 dsp \$1;
#X obj 349 210 s pd;
#X obj 349 118 loadbang;
#X msg 349 140 1;
#X obj 142 166 tgl 15 0 empty empty empty 17 7 0 10 -262144 -1 -1 0
1;
#X obj 54 192 switch2~ 1000;
#X text 43 58 like [easyflow/switch] but for audio;
#X floatatom 98 132 5 30 1000 0 - - -, f 5;
#X text 137 132 fade time (ms);
#X text 166 192 arg 1 = fade time (ms);
#X text 117 301 note that you need to use [switch2~] because [switch~]
is a vanilla object., f 24;
#X connect 1 0 12 0;
#X connect 2 0 3 0;
#X connect 4 0 5 0;
#X connect 6 0 7 0;
#X connect 7 0 8 0;
#X connect 9 0 10 0;
#X connect 10 0 6 0;
#X connect 11 0 12 2;
#X connect 12 0 2 0;
#X connect 12 1 4 0;
#X connect 14 0 12 1;
