#N canvas 598 93 676 263 10;
#N canvas 0 50 450 250 (subpatch) 0;
#X array \$0-table1 100 float 0;
#X coords 0 1 99 -1 100 70 1 0 0;
#X restore 388 35 graph;
#X obj 505 225 easyflow-info;
#N canvas 0 50 450 250 (subpatch) 0;
#X array \$0-table2 50 float 0;
#X coords 0 1 49 -1 100 70 1 0 0;
#X restore 508 35 graph;
#X text 398 117 size = 100;
#X obj 60 95 bng 15 250 50 0 empty empty empty 17 7 0 10 -262144 -1
-1;
#N canvas 1045 87 446 304 initializeTable 0;
#X obj 59 20 loadbang;
#X obj 59 43 bng 15 250 50 0 empty empty empty 17 7 0 10 -262144 -1
-1;
#X obj 121 192 array size \$0-table1;
#X msg 121 167 100;
#X msg 245 110 50;
#X obj 245 135 array size \$0-table2;
#N canvas 0 50 388 225 write 0;
#X msg 27 49 set 0 \, 100;
#X obj 27 71 easyflow/counter;
#X floatatom 27 93 5 0 0 0 - - -, f 5;
#X obj 27 112 trigger float float;
#X obj 27 165 tabwrite \$0-table1;
#X obj 27 134 expr sin(2*3.14159*$f1/100*4)*(1-$f1/100);
#X obj 27 18 inlet;
#X connect 0 0 1 0;
#X connect 1 0 2 0;
#X connect 2 0 3 0;
#X connect 3 0 5 0;
#X connect 3 1 4 1;
#X connect 5 0 4 0;
#X connect 6 0 0 0;
#X restore 59 224 pd write table 1;
#X obj 59 63 trigger bang bang bang bang;
#X obj 183 155 s \$0-table2;
#X msg 183 133 const 0;
#X obj 133 20 inlet;
#X connect 0 0 1 0;
#X connect 1 0 7 0;
#X connect 3 0 2 0;
#X connect 4 0 5 0;
#X connect 7 0 6 0;
#X connect 7 1 3 0;
#X connect 7 2 9 0;
#X connect 7 3 4 0;
#X connect 9 0 8 0;
#X connect 10 0 1 0;
#X restore 276 220 pd initializeTable;
#X obj 60 120 tabCopy \$0-table1 \$0-table2;
#X text 510 118 initial size = 50;
#X obj 276 195 bng 15 250 50 0 empty empty empty 17 7 0 10 -262144
-1 -1;
#X text 301 191 reset;
#X text 52 25 [taCopy] copies an array into another \, resizing the
destination when needed., f 38;
#X text 25 203 see also:;
#X obj 105 204 tabReverse;
#X obj 105 224 tabReverseCopy;
#X connect 4 0 6 0;
#X connect 8 0 5 0;
