#N canvas 979 63 419 575 10;
#X obj 51 61 inlet;
#X obj 39 61 cnv 8 11 17 empty empty 1 2 9 0 14 -1 -262144 0;
#X obj 51 83 route bang;
#X obj 51 105 trigger bang bang;
#X obj 51 137 list append \$1 \$2;
#X floatatom 51 229 5 0 0 0 - - -, f 5;
#X floatatom 51 314 5 0 0 0 - - -, f 5;
#X obj 51 424 tabread \$1;
#X obj 51 391 trigger float float;
#X msg 51 333 set 0 \, \$1;
#X obj 51 355 easyflow/counter;
#X obj 181 416 list append \$2;
#X obj 181 442 expr size("$s2")-1-$f1;
#X floatatom 181 464 5 0 0 0 - - -, f 5;
#X obj 51 486 tabwrite \$2;
#X obj 51 177 expr size("$s1") \; size("$s2");
#X floatatom 167 228 5 0 0 0 - - -, f 5;
#X obj 51 268 min;
#X connect 0 0 2 0;
#X connect 2 0 3 0;
#X connect 3 0 4 0;
#X connect 4 0 15 0;
#X connect 5 0 17 0;
#X connect 6 0 9 0;
#X connect 7 0 14 0;
#X connect 8 0 7 0;
#X connect 8 1 11 0;
#X connect 9 0 10 0;
#X connect 10 0 8 0;
#X connect 11 0 12 0;
#X connect 12 0 13 0;
#X connect 13 0 14 1;
#X connect 15 0 5 0;
#X connect 15 1 16 0;
#X connect 16 0 17 1;
#X connect 17 0 6 0;
