#N canvas 832 161 524 476 10;
#X obj 69 261 addList;
#X msg 69 393 a b c d e f g h i j k l m n o p;
#X msg 69 158 d e f;
#X obj 111 312 loadbang;
#X msg 111 334 set a b c;
#X msg 79 188 g h i j k l;
#X msg 89 218 m n o p;
#X text 46 17 [AddList] adds a list to a msgbox;
#X text 48 63 It works like using;
#X msg 216 70 add2 \$1;
#X floatatom 216 46 5 0 0 0 - - -, f 5;
#X obj 406 435 easyflow-info;
#X text 50 95 But instead of passing a float like in the example you
can pass a list.;
#X connect 0 0 1 0;
#X connect 2 0 0 0;
#X connect 3 0 4 0;
#X connect 4 0 1 0;
#X connect 5 0 0 0;
#X connect 6 0 0 0;
#X connect 10 0 9 0;
