#N canvas 0 50 398 301 10;
#X obj 37 37 inlet;
#X obj 37 199 +;
#X obj 149 131 inlet;
#X obj 37 230 outlet;
#X obj 37 58 t f b b, f 31;
#X obj 220 154 random 1000;
#X obj 220 175 moses 500;
#X msg 220 196 1;
#X msg 271 196 -1;
#X obj 205 234 *;
#X obj 128 86 random 10000;
#X obj 128 158 * \$1;
#X floatatom 90 127 5 0 0 0 - - -;
#X obj 128 107 / 10000;
#X floatatom 128 179 5 0 0 0 - - -;
#X connect 0 0 4 0;
#X connect 1 0 3 0;
#X connect 2 0 11 1;
#X connect 4 0 1 0;
#X connect 4 1 10 0;
#X connect 4 2 5 0;
#X connect 5 0 6 0;
#X connect 6 0 7 0;
#X connect 6 1 8 0;
#X connect 7 0 9 1;
#X connect 8 0 9 1;
#X connect 9 0 1 1;
#X connect 10 0 13 0;
#X connect 11 0 9 0;
#X connect 11 0 14 0;
#X connect 13 0 11 0;
#X connect 13 0 12 0;
