#N canvas 550 183 456 289 10;
#X obj 333 254 easyflow-info;
#X floatatom 57 42 5 0 0 0 - - -;
#X obj 57 62 t f f, f 16;
#X obj 57 156 -, f 16;
#X floatatom 57 177 12 0 0 0 - - -;
#X floatatom 57 135 5 0 0 0 - - -;
#X obj 57 114 addNoise 3;
#X obj 57 219 keepMax;
#X floatatom 57 240 5 0 0 0 - - -;
#X text 140 176 => noise;
#X text 139 238 => max noise;
#X msg 125 215 -1;
#X text 157 214 restart max noite;
#X floatatom 114 92 5 0 10 0 - - -;
#X obj 57 197 abs;
#X text 243 11 [addNoise] takes and number and sums a random number
between -X and X where X is the object's noise amplitude., f 30;
#X text 157 91 set amplitude;
#X text 125 113 arg: initialize amplitude;
#X connect 1 0 2 0;
#X connect 2 0 6 0;
#X connect 2 1 3 1;
#X connect 3 0 4 0;
#X connect 4 0 14 0;
#X connect 5 0 3 0;
#X connect 6 0 5 0;
#X connect 7 0 8 0;
#X connect 11 0 7 1;
#X connect 13 0 6 1;
#X connect 14 0 7 0;
