#N canvas 34 64 455 384 10;
#X obj 50 33 inlet;
#X obj 50 340 outlet;
#X obj 179 340 outlet;
#X obj 50 314 easyflow/switch2, f 22;
#X obj 179 189 tgl 15 0 empty empty empty 17 7 0 10 -262144 -1 -1 1
1;
#X obj 179 33 loadbang;
#X msg 179 54 0;
#X obj 274 34 inlet;
#X obj 77 141 f 1;
#X msg 77 193 1;
#X msg 110 193 0;
#X floatatom 77 224 5 0 0 0 - - -;
#X obj 274 55 sel 0;
#X msg 274 76 1;
#X msg 301 76 0;
#X obj 77 162 sel 0, f 6;
#X obj 77 244 t f f;
#X obj 77 265 s \$0-f;
#X obj 92 111 r \$0-f;
#X obj 274 104 s \$0-f;
#X obj 50 55 t a b;
#X connect 0 0 20 0;
#X connect 3 0 1 0;
#X connect 3 1 2 0;
#X connect 4 0 3 1;
#X connect 5 0 6 0;
#X connect 6 0 4 0;
#X connect 7 0 12 0;
#X connect 8 0 15 0;
#X connect 9 0 11 0;
#X connect 10 0 11 0;
#X connect 11 0 16 0;
#X connect 12 0 13 0;
#X connect 12 1 14 0;
#X connect 13 0 19 0;
#X connect 14 0 19 0;
#X connect 15 0 9 0;
#X connect 15 1 10 0;
#X connect 16 0 17 0;
#X connect 16 1 4 0;
#X connect 18 0 8 1;
#X connect 20 0 3 0;
#X connect 20 1 8 0;
