#N canvas 313 50 599 571 10;
#X obj 51 18 inlet;
#X obj 99 386 float;
#X obj 51 150 route bang float symbol list, f 40;
#X obj 182 416 symbol;
#X obj 286 421 list;
#X obj 99 184 t b f;
#X obj 278 274 cnv 10 10 17 empty empty empty 20 12 0 14 -225470 -225470
0;
#X obj 289 274 r \$0-type;
#X obj 289 296 hradio 15 1 0 4 empty empty empty 0 -8 0 10 -262144
-1 -1 3;
#X obj 196 335 easyflow/switch4;
#X obj 88 230 cnv 10 10 17 empty empty empty 20 12 0 14 -225470 -225470
0;
#X obj 99 230 s \$0-type;
#X msg 99 206 0;
#X obj 178 230 cnv 10 10 17 empty empty empty 20 12 0 14 -225470 -225470
0;
#X obj 189 230 s \$0-type;
#X msg 189 206 1;
#X obj 189 184 t b s;
#X obj 268 230 cnv 10 10 17 empty empty empty 20 12 0 14 -225470 -225470
0;
#X obj 279 230 s \$0-type;
#X msg 279 206 2;
#X obj 279 184 t b a;
#X obj 99 488 outlet;
#X obj 128 112 inlet;
#X obj 108 63 t b a;
#X obj 51 40 route bang;
#X obj 38 18 cnv 11 12 17 empty empty 1 2 9 0 14 -1 -262144 0;
#X obj 115 112 cnv 11 12 17 empty empty 2 2 9 0 14 -1 -262144 0;
#X obj 87 488 cnv 11 12 17 empty empty 1 2 9 0 14 -1 -262144 0;
#X obj 358 230 cnv 10 10 17 empty empty empty 20 12 0 14 -225470 -225470
0;
#X obj 369 230 s \$0-type;
#X obj 369 184 t b a;
#X msg 369 206 3;
#X text 399 434 custom selector;
#X obj 362 500 list trim;
#X obj 362 429 list;
#X connect 0 0 24 0;
#X connect 1 0 21 0;
#X connect 2 0 9 0;
#X connect 2 1 5 0;
#X connect 2 2 16 0;
#X connect 2 3 20 0;
#X connect 2 4 30 0;
#X connect 3 0 21 0;
#X connect 4 0 21 0;
#X connect 5 0 12 0;
#X connect 5 1 1 1;
#X connect 7 0 8 0;
#X connect 8 0 9 1;
#X connect 9 0 1 0;
#X connect 9 1 3 0;
#X connect 9 2 4 0;
#X connect 9 3 34 0;
#X connect 12 0 11 0;
#X connect 15 0 14 0;
#X connect 16 0 15 0;
#X connect 16 1 3 1;
#X connect 19 0 18 0;
#X connect 20 0 19 0;
#X connect 20 1 4 1;
#X connect 22 0 2 0;
#X connect 23 0 2 0;
#X connect 23 1 2 0;
#X connect 24 0 2 0;
#X connect 24 1 23 0;
#X connect 30 0 31 0;
#X connect 30 1 34 1;
#X connect 31 0 29 0;
#X connect 33 0 21 0;
#X connect 34 0 33 0;
