#N canvas 469 16 611 611 10;
#X obj 86 13 inlet;
#X obj 104 515 outlet;
#X obj 86 314 list prepend;
#X obj 122 390 cnv 10 10 17 empty empty empty 20 12 0 14 -159808 -1
0;
#X obj 75 195 cnv 10 10 17 empty empty empty 20 12 0 14 -2097 -1 0
;
#X obj 86 195 r \$0-listStore;
#X obj 447 108 cnv 10 10 17 empty empty empty 20 12 0 14 -2097 -1 0
;
#X obj 458 108 s \$0-listStore;
#X obj 71 123 cnv 10 10 12 empty empty ● 1 5 0 15 -262144 -159808
0;
#X obj 57 123 cnv 10 10 12 empty empty ● 1 5 0 15 -262144 -2097 0
;
#N canvas 0 50 331 232 getList 0;
#X obj 48 25 inlet;
#X obj 48 55 trigger bang bang bang;
#X msg 199 89 1;
#X obj 105 167 cnv 10 10 17 empty empty empty 20 12 0 14 -159808 -1
0;
#X msg 48 87 0;
#X obj 112 122 cnv 10 10 17 empty empty empty 20 12 0 14 -2097 -1 0
;
#X obj 123 122 s \$0-listStore;
#X obj 115 167 s \$0-outputSwitch;
#X connect 0 0 1 0;
#X connect 1 0 4 0;
#X connect 1 1 6 0;
#X connect 1 2 2 0;
#X connect 2 0 7 0;
#X connect 4 0 7 0;
#X restore 86 120 pd getList;
#X obj 167 275 t a a;
#X obj 199 302 list length;
#X floatatom 199 324 5 0 0 0 - - -, f 5;
#X obj 199 343 v \$0-length;
#X obj 188 343 cnv 10 10 17 empty empty empty 20 12 0 14 -203904 -1
0;
#X obj 86 35 route getList get;
#X obj 239 35 route clear set;
#N canvas 569 297 437 479 get 0;
#X obj 48 25 inlet;
#X obj 48 47 route float;
#X obj 301 155 v \$0-length;
#X obj 290 155 cnv 10 10 17 empty empty empty 20 12 0 14 -203904 -1
0;
#X obj 122 68 print error;
#X obj 48 99 trigger float float;
#X obj 178 131 trigger float bang;
#X floatatom 301 177 5 0 0 0 - - -, f 5;
#X obj 178 191 tgl 15 0 empty empty empty 17 7 0 10 -262144 -1 -1 0
1;
#X obj 48 211 switch2;
#X obj 94 240 print [arrayList] OutOfBounds exception;
#X obj 165 359 cnv 10 10 17 empty empty empty 20 12 0 14 -260145 -1
0;
#X obj 38 418 cnv 10 10 17 empty empty empty 20 12 0 14 -159808 -1
0;
#X obj 48 418 s \$0-outputSwitch;
#X msg 241 314 2;
#X msg 48 314 0;
#X obj 101 384 cnv 10 10 17 empty empty empty 20 12 0 14 -2097 -1 0
;
#X obj 48 282 trigger bang bang float bang;
#X obj 112 384 s \$0-listStore;
#X obj 178 164 >;
#X obj 176 359 s \$0-operationIndex;
#X obj 48 131 select 0;
#X msg 48 153 0;
#X connect 0 0 1 0;
#X connect 1 0 5 0;
#X connect 1 1 4 0;
#X connect 2 0 7 0;
#X connect 5 0 21 0;
#X connect 5 1 6 0;
#X connect 6 0 19 0;
#X connect 6 1 2 0;
#X connect 7 0 19 1;
#X connect 8 0 9 1;
#X connect 9 0 17 0;
#X connect 9 1 10 0;
#X connect 14 0 13 0;
#X connect 15 0 13 0;
#X connect 17 0 15 0;
#X connect 17 1 18 0;
#X connect 17 2 20 0;
#X connect 17 3 14 0;
#X connect 19 0 8 0;
#X connect 21 0 22 0;
#X connect 21 1 9 0;
#X connect 22 0 10 0;
#X restore 144 90 pd get;
#X obj 220 157 cnv 10 10 12 empty empty ❴❵ -3 5 0 18 -262144 -260097
0;
#X obj 105 230 cnv 10 10 12 empty empty ❴❵ -3 5 0 18 -262144 -260097
0;
#X obj 132 390 r \$0-outputSwitch;
#X obj 132 412 hradio 15 1 0 5 empty empty empty 0 -8 0 10 -262144
-1 -1 0;
#N canvas 0 50 450 300 get 0;
#X obj 41 35 inlet;
#X obj 41 217 outlet;
#X obj 109 44 cnv 10 10 17 empty empty empty 20 12 0 14 -260145 -1
0;
#X floatatom 120 66 5 0 0 0 - - -, f 5;
#X msg 120 85 set \, adddollar \$1;
#X msg 41 129 \$1;
#X obj 120 44 r \$0-operationIndex;
#X connect 0 0 5 0;
#X connect 3 0 4 0;
#X connect 4 0 5 0;
#X connect 5 0 1 0;
#X connect 6 0 3 0;
#X restore 123 478 pd get;
#X obj 128 94 cnv 10 10 12 empty empty ● 1 5 0 15 -262144 -260145
0;
#X obj 109 481 cnv 10 10 12 empty empty ● 1 5 0 15 -262144 -260145
0;
#X obj 113 94 cnv 10 10 12 empty empty ● 1 5 0 15 -262144 -159808
0;
#X obj 128 82 cnv 10 10 12 empty empty ● 1 5 0 15 -262144 -2097 0
;
#X obj 113 82 cnv 10 10 12 empty empty ● 1 5 0 15 -262144 -203904
0;
#X obj 275 97 cnv 10 10 12 empty empty ● 1 5 0 15 -262144 -260145
0;
#X obj 262 97 cnv 10 10 12 empty empty ● 1 5 0 15 -262144 -159808
0;
#X obj 270 86 cnv 10 10 12 empty empty ● 1 5 0 15 -262144 -2097 0
;
#X obj 249 97 cnv 10 10 12 empty empty ● 1 5 0 15 -262144 -203904
0;
#N canvas 1179 158 447 546 set 0;
#X obj 48 25 inlet;
#X obj 301 155 v \$0-length;
#X obj 290 155 cnv 10 10 17 empty empty empty 20 12 0 14 -203904 -1
0;
#X obj 48 99 trigger float float;
#X obj 178 131 trigger float bang;
#X floatatom 301 177 5 0 0 0 - - -, f 5;
#X obj 178 191 tgl 15 0 empty empty empty 17 7 0 10 -262144 -1 -1 0
1;
#X obj 48 211 switch2;
#X obj 94 240 print [arrayList] OutOfBounds exception;
#X obj 165 359 cnv 10 10 17 empty empty empty 20 12 0 14 -260145 -1
0;
#X obj 38 418 cnv 10 10 17 empty empty empty 20 12 0 14 -159808 -1
0;
#X obj 48 418 s \$0-outputSwitch;
#X msg 48 314 0;
#X obj 101 384 cnv 10 10 17 empty empty empty 20 12 0 14 -2097 -1 0
;
#X obj 48 282 trigger bang bang float bang;
#X obj 112 384 s \$0-listStore;
#X obj 178 164 >;
#X obj 176 359 s \$0-operationIndex;
#X obj 48 47 unpack float symbol;
#X obj 167 70 cnv 10 10 17 empty empty empty 20 12 0 14 -51491 -1 0
;
#X obj 178 70 s \$0-setNewValue;
#X msg 241 314 3;
#X obj 48 131 select 0;
#X msg 48 153 0;
#X floatatom 102 163 5 0 0 0 - - -, f 5;
#X connect 0 0 18 0;
#X connect 1 0 5 0;
#X connect 3 0 22 0;
#X connect 3 1 4 0;
#X connect 4 0 16 0;
#X connect 4 1 1 0;
#X connect 5 0 16 1;
#X connect 6 0 7 1;
#X connect 7 0 14 0;
#X connect 7 1 8 0;
#X connect 12 0 11 0;
#X connect 14 0 12 0;
#X connect 14 1 15 0;
#X connect 14 2 17 0;
#X connect 14 3 21 0;
#X connect 16 0 6 0;
#X connect 18 0 3 0;
#X connect 18 1 20 0;
#X connect 21 0 11 0;
#X connect 22 0 23 0;
#X connect 22 1 7 0;
#X connect 22 1 24 0;
#X connect 23 0 8 0;
#X restore 290 91 pd set;
#N canvas 0 50 397 221 set 0;
#X obj 41 35 inlet;
#X obj 41 157 outlet;
#X obj 216 89 cnv 10 10 17 empty empty empty 20 12 0 14 -51491 -1 0
;
#X obj 41 125 easyflow/listReplaceAtIndex;
#X obj 123 57 cnv 10 10 17 empty empty empty 20 12 0 14 -260145 -1
0;
#X obj 134 57 r \$0-operationIndex;
#X obj 227 89 r \$0-setNewValue;
#X connect 0 0 3 0;
#X connect 3 0 1 0;
#X connect 5 0 3 1;
#X connect 6 0 3 2;
#X restore 212 480 pd set;
#X msg 239 127 list;
#X obj 239 156 s \$0-listCold;
#X obj 124 229 r \$0-listCold;
#X obj 196 482 cnv 10 10 12 empty empty ● 1 5 0 15 -262144 -260145
0;
#X obj 185 482 cnv 10 10 12 empty empty ● 1 5 0 15 -262144 -51491
0;
#X obj 404 32 route remove add;
#X text 272 379 0 = nothing 1 = getList 2 = getter 3 = setter 4 = remove
, f 11;
#X obj 86 438 switch5, f 11;
#X obj 323 513 cnv 10 10 12 empty empty ❴❵ -3 5 0 18 -262144 -260097
0;
#X obj 342 512 s \$0-listCold;
#X obj 326 483 cnv 10 10 12 empty empty ● 1 5 0 15 -262144 -260145
0;
#N canvas 0 50 380 329 remove 0;
#X obj 41 35 inlet;
#X obj 41 267 outlet;
#X obj 113 83 cnv 10 10 17 empty empty empty 20 12 0 14 -260145 -1
0;
#X obj 124 83 r \$0-operationIndex;
#X obj 41 177 list split;
#X obj 41 219 list append;
#X obj 41 57 trigger anything anything;
#X obj 213 176 list split;
#X obj 124 105 t f f;
#X obj 124 127 - 1;
#X connect 0 0 6 0;
#X connect 3 0 8 0;
#X connect 4 0 5 0;
#X connect 5 0 1 0;
#X connect 6 0 4 0;
#X connect 6 1 7 0;
#X connect 7 1 5 1;
#X connect 8 0 9 0;
#X connect 8 1 7 1;
#X connect 9 0 4 1;
#X restore 342 480 pd remove;
#N canvas 928 295 447 546 remove 0;
#X obj 48 25 inlet;
#X obj 301 115 v \$0-length;
#X obj 290 115 cnv 10 10 17 empty empty empty 20 12 0 14 -203904 -1
0;
#X obj 48 59 trigger float float;
#X obj 178 91 trigger float bang;
#X floatatom 301 137 5 0 0 0 - - -, f 5;
#X obj 178 151 tgl 15 0 empty empty empty 17 7 0 10 -262144 -1 -1 0
1;
#X obj 48 171 switch2;
#X obj 94 200 print [arrayList] OutOfBounds exception;
#X obj 165 319 cnv 10 10 17 empty empty empty 20 12 0 14 -260145 -1
0;
#X obj 38 378 cnv 10 10 17 empty empty empty 20 12 0 14 -159808 -1
0;
#X obj 48 378 s \$0-outputSwitch;
#X msg 48 274 0;
#X obj 101 344 cnv 10 10 17 empty empty empty 20 12 0 14 -2097 -1 0
;
#X obj 48 242 trigger bang bang float bang;
#X obj 112 344 s \$0-listStore;
#X obj 178 124 >;
#X obj 176 319 s \$0-operationIndex;
#X msg 241 274 4;
#X obj 48 81 select 0;
#X msg 48 103 0;
#X connect 0 0 3 0;
#X connect 1 0 5 0;
#X connect 3 0 19 0;
#X connect 3 1 4 0;
#X connect 4 0 16 0;
#X connect 4 1 1 0;
#X connect 5 0 16 1;
#X connect 6 0 7 1;
#X connect 7 0 14 0;
#X connect 7 1 8 0;
#X connect 12 0 11 0;
#X connect 14 0 12 0;
#X connect 14 1 15 0;
#X connect 14 2 17 0;
#X connect 14 3 18 0;
#X connect 16 0 6 0;
#X connect 18 0 11 0;
#X connect 19 0 20 0;
#X connect 19 1 7 0;
#X connect 20 0 8 0;
#X restore 404 137 pd remove;
#X obj 257 86 cnv 10 10 12 empty empty ● 1 5 0 15 -262144 -51491
0;
#X obj 388 146 cnv 10 10 12 empty empty ● 1 5 0 15 -262144 -260145
0;
#X obj 375 146 cnv 10 10 12 empty empty ● 1 5 0 15 -262144 -159808
0;
#X obj 383 135 cnv 10 10 12 empty empty ● 1 5 0 15 -262144 -2097
0;
#X obj 362 146 cnv 10 10 12 empty empty ● 1 5 0 15 -262144 -203904
0;
#X obj 370 135 cnv 10 10 12 empty empty ● 1 5 0 15 -262144 -51491
0;
#X obj 193 513 cnv 10 10 12 empty empty ❴❵ -3 5 0 18 -262144 -260097
0;
#X obj 212 512 s \$0-listCold;
#N canvas 291 53 286 399 posAndNeg 0;
#X obj 83 303 outlet;
#X obj 34 17 inlet;
#X obj 34 79 moses 0;
#X floatatom 34 106 5 0 0 0 - - -, f 5;
#X floatatom 131 106 5 0 0 0 - - -, f 5;
#X obj 34 211 v \$0-length;
#X obj 34 175 trigger b f, f 15;
#X obj 83 273 +, f 8;
#X obj 34 125 + 1;
#X text 65 126 make index 1-based;
#X obj 24 211 cnv 10 10 17 empty empty empty 20 12 0 14 -203904 -1
0;
#N canvas 921 108 347 291 checkForEmptyList 0;
#X obj 52 31 inlet;
#X obj 52 53 trigger float bang;
#X obj 175 80 v \$0-length;
#X obj 165 80 cnv 10 10 17 empty empty empty 20 12 0 14 -203904 -1
0;
#X obj 175 102 sel 0;
#X msg 175 124 1;
#X msg 207 124 0;
#X obj 52 155 switch2;
#X obj 52 207 outlet;
#N canvas 0 50 314 97 error 0;
#X obj 41 15 inlet;
#X obj 41 60 print [arrayList] exception;
#X msg 41 37 empty list;
#X connect 0 0 2 0;
#X connect 2 0 1 0;
#X restore 98 183 pd error;
#X connect 0 0 1 0;
#X connect 1 0 7 0;
#X connect 1 1 2 0;
#X connect 2 0 4 0;
#X connect 4 0 5 0;
#X connect 4 1 6 0;
#X connect 5 0 7 1;
#X connect 6 0 7 1;
#X connect 7 0 8 0;
#X connect 7 1 9 0;
#X restore 34 44 pd checkForEmptyList;
#X connect 1 0 11 0;
#X connect 2 0 3 0;
#X connect 2 1 4 0;
#X connect 3 0 8 0;
#X connect 4 0 0 0;
#X connect 5 0 7 0;
#X connect 6 0 5 0;
#X connect 6 1 7 1;
#X connect 7 0 0 0;
#X connect 8 0 6 0;
#X connect 11 0 2 0;
#X restore 404 78 pd posAndNeg;
#N canvas 82 236 288 456 posAndNeg 0;
#X obj 34 27 inlet;
#X obj 34 119 moses 0;
#X floatatom 34 146 5 0 0 0 - - -, f 5;
#X floatatom 131 146 5 0 0 0 - - -, f 5;
#X obj 34 251 v \$0-length;
#X obj 34 215 trigger b f, f 15;
#X obj 80 313 +, f 8;
#X obj 34 165 + 1;
#X text 65 166 make index 1-based;
#X obj 24 251 cnv 10 10 17 empty empty empty 20 12 0 14 -203904 -1
0;
#X obj 34 49 unpack float symbol;
#X obj 80 363 pack float symbol;
#X obj 80 385 outlet;
#N canvas 921 108 347 291 checkForEmptyList 0;
#X obj 52 31 inlet;
#X obj 52 53 trigger float bang;
#X obj 175 80 v \$0-length;
#X obj 165 80 cnv 10 10 17 empty empty empty 20 12 0 14 -203904 -1
0;
#X obj 175 102 sel 0;
#X msg 175 124 1;
#X msg 207 124 0;
#X obj 52 155 switch2;
#X obj 52 207 outlet;
#N canvas 0 50 314 97 error 0;
#X obj 41 15 inlet;
#X obj 41 60 print [arrayList] exception;
#X msg 41 37 empty list;
#X connect 0 0 2 0;
#X connect 2 0 1 0;
#X restore 98 183 pd error;
#X connect 0 0 1 0;
#X connect 1 0 7 0;
#X connect 1 1 2 0;
#X connect 2 0 4 0;
#X connect 4 0 5 0;
#X connect 4 1 6 0;
#X connect 5 0 7 1;
#X connect 6 0 7 1;
#X connect 7 0 8 0;
#X connect 7 1 9 0;
#X restore 34 78 pd checkForEmptyList;
#X connect 0 0 10 0;
#X connect 1 0 2 0;
#X connect 1 1 3 0;
#X connect 2 0 7 0;
#X connect 3 0 11 0;
#X connect 4 0 6 0;
#X connect 5 0 4 0;
#X connect 5 1 6 1;
#X connect 6 0 11 0;
#X connect 7 0 5 0;
#X connect 10 0 13 0;
#X connect 10 1 11 1;
#X connect 11 0 12 0;
#X connect 13 0 1 0;
#X restore 290 63 pd posAndNeg;
#N canvas 5 50 294 396 posAndNeg 1;
#X obj 80 313 outlet;
#X obj 34 27 inlet;
#X obj 34 79 moses 0;
#X floatatom 34 106 5 0 0 0 - - -, f 5;
#X floatatom 131 106 5 0 0 0 - - -, f 5;
#X obj 34 211 v \$0-length;
#X obj 34 175 trigger b f, f 15;
#X obj 80 263 +, f 8;
#X obj 34 133 + 1;
#X text 65 134 make index 1-based;
#X obj 24 211 cnv 10 10 17 empty empty empty 20 12 0 14 -203904 -1
0;
#N canvas 921 108 347 291 checkForEmptyList 0;
#X obj 52 31 inlet;
#X obj 52 53 trigger float bang;
#X obj 175 80 v \$0-length;
#X obj 165 80 cnv 10 10 17 empty empty empty 20 12 0 14 -203904 -1
0;
#X obj 175 102 sel 0;
#X msg 175 124 1;
#X msg 207 124 0;
#X obj 52 155 switch2;
#X obj 52 207 outlet;
#N canvas 0 50 314 97 error 0;
#X obj 41 15 inlet;
#X obj 41 60 print [arrayList] exception;
#X msg 41 37 empty list;
#X connect 0 0 2 0;
#X connect 2 0 1 0;
#X restore 98 183 pd error;
#X connect 0 0 1 0;
#X connect 1 0 7 0;
#X connect 1 1 2 0;
#X connect 2 0 4 0;
#X connect 4 0 5 0;
#X connect 4 1 6 0;
#X connect 5 0 7 1;
#X connect 6 0 7 1;
#X connect 7 0 8 0;
#X connect 7 1 9 0;
#X restore 34 51 pd checkForEmptyList;
#X connect 1 0 11 0;
#X connect 2 0 3 0;
#X connect 2 1 4 0;
#X connect 3 0 8 0;
#X connect 4 0 0 0;
#X connect 5 0 7 0;
#X connect 6 0 5 0;
#X connect 6 1 7 1;
#X connect 7 0 0 0;
#X connect 8 0 6 0;
#X connect 11 0 2 0;
#X restore 144 60 pd posAndNeg;
#X obj 131 63 cnv 10 10 12 empty empty ● 1 5 0 15 -262144 -203904
0;
#X obj 275 67 cnv 10 10 12 empty empty ● 1 5 0 15 -262144 -203904
0;
#X obj 389 81 cnv 10 10 12 empty empty ● 1 5 0 15 -262144 -203904
0;
#X connect 0 0 16 0;
#X connect 2 0 11 0;
#X connect 2 0 42 0;
#X connect 5 0 2 0;
#X connect 11 0 2 1;
#X connect 11 1 12 0;
#X connect 12 0 13 0;
#X connect 13 0 14 0;
#X connect 16 0 10 0;
#X connect 16 1 58 0;
#X connect 16 2 17 0;
#X connect 17 0 35 0;
#X connect 17 1 57 0;
#X connect 17 2 40 0;
#X connect 21 0 22 0;
#X connect 22 0 42 1;
#X connect 23 0 1 0;
#X connect 34 0 55 0;
#X connect 35 0 36 0;
#X connect 37 0 11 0;
#X connect 40 0 56 0;
#X connect 40 1 7 0;
#X connect 40 2 7 0;
#X connect 42 1 1 0;
#X connect 42 2 23 0;
#X connect 42 3 34 0;
#X connect 42 4 46 0;
#X connect 46 0 44 0;
#X connect 56 0 47 0;
#X connect 57 0 33 0;
#X connect 58 0 18 0;
