#N canvas 317 398 848 460 10;
#X obj 57 36 inlet;
#X obj 561 80 outlet;
#X msg 296 157 \$1;
#X symbolatom 296 370 20 0 0 0 - - -;
#X obj 220 404 send;
#X obj 222 184 list split 1;
#X obj 220 316 list trim;
#X obj 561 50 receive \$0-easyflowCallMethod;
#X obj 220 294 list prepend callMethod \$0-easyflowCallMethod;
#X obj 296 349 symbol \$1;
#X obj 220 216 t b l;
#X obj 220 267 list, f 5;
#N canvas 764 23 708 707 load_args 0;
#X obj 358 251 makefilename $%d;
#X obj 272 327 pack f \$0;
#X text 192 79 Maximum attempts, f 8;
#X obj 484 338 send pd-\$0-test_arg;
#X msg 358 282 obj 37 135 list append \$1, f 14;
#X obj 59 101 r \$0-noarg;
#X obj 206 219 select;
#X obj 272 219 trigger float float float;
#X msg 151 85 4096;
#X text 257 87 (that might be engouh);
#X obj 484 245 makefilename $%d-test;
#N canvas 344 339 309 232 \$0-test_arg 0;
#X obj 10 60 symbol \$1-test;
#X obj 133 60 makefilename $%d-test;
#X obj 37 135 list append \$1;
#X obj 10 10 r 5037-i;
#X obj 10 35 trigger bang float;
#X obj 10 85 sel s;
#X obj 37 110 b;
#X obj 37 160 s 5037-arg;
#X obj 10 185 s 5037-noarg;
#X connect 0 0 5 0;
#X connect 1 0 5 1;
#X connect 2 0 7 0;
#X connect 3 0 4 0;
#X connect 4 0 0 0;
#X connect 4 1 1 0;
#X connect 5 0 8 0;
#X connect 5 1 6 0;
#X connect 6 0 2 0;
#X restore 498 178 pd \$0-test_arg;
#X obj 164 428 r \$0-arg;
#X obj 203 496 list;
#X obj 164 463 list prepend;
#X obj 120 492 list;
#X text 180 631 list of arguments, f 9;
#X msg 272 380 \; pd-\$2-test_arg obj 10 10 r \$2-i \; pd-\$2-test_arg
obj 10 35 trigger bang float \; pd-\$2-test_arg obj 10 85 sel s \;
pd-\$2-test_arg obj 37 110 b \; pd-\$2-test_arg obj 37 160 s \$2-arg
\; pd-\$2-test_arg obj 10 185 s \$2-noarg \; pd-\$2-test_arg connect
3 0 4 0 \; pd-\$2-test_arg connect 4 1 1 0 \; pd-\$2-test_arg connect
4 0 0 0 \; pd-\$2-test_arg connect 1 0 5 1 \; pd-\$2-test_arg connect
0 0 5 0 \; pd-\$2-test_arg connect 5 1 6 0 \; pd-\$2-test_arg connect
6 0 2 0 \; pd-\$2-test_arg connect 2 0 7 0 \; pd-\$2-test_arg connect
5 0 8 0 \; \$2-i \$1 \;;
#X msg 484 272 clear \, obj 10 60 symbol \$1 \, obj 133 60 makefilename
$%d-test, f 27;
#X obj 119 638 outlet;
#X obj 151 157 until;
#X obj 206 189 + 1;
#X msg 233 147 0;
#X obj 151 123 trigger float bang float;
#X obj 151 188 float;
#X obj 151 55 inlet;
#X text 274 31 https://forum.pdpatchrepo.info/topic/10892/collect-all-arguments-as-a-list/4
;
#X connect 0 0 4 0;
#X connect 1 0 17 0;
#X connect 4 0 3 0;
#X connect 5 0 15 0;
#X connect 5 0 20 1;
#X connect 6 0 15 0;
#X connect 6 1 7 0;
#X connect 7 0 1 0;
#X connect 7 1 0 0;
#X connect 7 2 10 0;
#X connect 8 0 23 0;
#X connect 10 0 18 0;
#X connect 12 0 14 0;
#X connect 13 0 14 1;
#X connect 13 0 15 1;
#X connect 14 0 13 0;
#X connect 15 0 19 0;
#X connect 18 0 3 0;
#X connect 20 0 24 0;
#X connect 21 0 24 1;
#X connect 21 0 6 0;
#X connect 22 0 24 1;
#X connect 23 0 20 0;
#X connect 23 1 22 0;
#X connect 23 2 6 1;
#X connect 24 0 21 0;
#X connect 25 0 8 0;
#X restore 359 144 pd load_args;
#X obj 359 118 loadbang;
#X obj 373 211 inlet;
#X obj 360 211 cnv 11 12 17 empty empty 3 2 9 0 14 -1 -262144 0;
#X obj 317 319 inlet;
#X obj 304 319 cnv 11 12 17 empty empty 2 2 9 0 14 -1 -262144 0;
#X obj 45 35 cnv 11 12 17 empty empty 1 2 9 0 14 -1 -262144 0;
#X obj 57 79 route bang symbol list;
#X obj 222 132 trigger l l;
#X obj 167 107 list;
#X obj 377 316 loadbang;
#X obj 359 165 list split 1;
#X connect 0 0 19 0;
#X connect 2 0 9 0;
#X connect 3 0 4 1;
#X connect 5 1 10 0;
#X connect 6 0 4 0;
#X connect 7 0 1 0;
#X connect 8 0 6 0;
#X connect 9 0 3 0;
#X connect 10 0 11 0;
#X connect 10 1 11 1;
#X connect 11 0 8 0;
#X connect 12 0 23 0;
#X connect 13 0 12 0;
#X connect 14 0 11 1;
#X connect 16 0 9 0;
#X connect 19 0 11 0;
#X connect 19 1 11 0;
#X connect 19 2 21 0;
#X connect 19 3 21 0;
#X connect 20 0 5 0;
#X connect 20 1 2 0;
#X connect 21 0 20 0;
#X connect 22 0 9 0;
#X connect 23 1 11 1;
