#N canvas 750 82 382 388 10;
#N canvas 509 149 361 281 check if it uses colorName 0;
#X obj 48 43 inlet;
#X obj 48 200 outlet;
#X obj 122 167 easyflow/symbolize;
#X msg 48 105 \$2;
#X obj 48 127 route float;
#X obj 122 192 colorNames;
#X obj 122 224 outlet;
#X obj 122 16 r \$0-checkColorName;
#X obj 111 16 cnv 10 10 17 empty empty empty 20 12 0 14 -259758 -1
0;
#X obj 48 75 list 666 \$1;
#N canvas 0 50 345 171 deal with selectors 0;
#X msg 48 113 666 \$1;
#X obj 48 43 route float symbol;
#X obj 171 70 easyflow/symbolize;
#X obj 48 16 inlet;
#X obj 48 135 outlet;
#X connect 0 0 4 0;
#X connect 1 0 0 0;
#X connect 1 1 0 0;
#X connect 1 2 2 0;
#X connect 2 0 0 0;
#X connect 3 0 1 0;
#X restore 122 44 pd deal with selectors;
#X connect 0 0 9 0;
#X connect 2 0 5 0;
#X connect 3 0 4 0;
#X connect 4 0 1 0;
#X connect 4 1 2 0;
#X connect 5 0 6 0;
#X connect 7 0 10 0;
#X connect 9 0 3 0;
#X connect 10 0 9 1;
#X restore 48 114 pd check if it uses colorName;
#N canvas 0 50 688 256 check if it specifies 0;
#X obj 36 49 inlet;
#X obj 36 71 list append \$4;
#X obj 36 93 route float symbol;
#X msg 97 189 0;
#X msg 166 190 1;
#X msg 235 190 2;
#X obj 166 226 outlet;
#X obj 36 115 bng 15 250 50 0 empty empty empty 17 7 0 10 -262144 -1
-1;
#X obj 304 150 print [colorSyntax] no such color mode (using HSL);
#X obj 97 117 select rgb RGB hsb HSB hsl HSL;
#X obj 120 18 cnv 10 10 17 empty empty empty 20 12 0 14 -76932 -1 0
;
#X obj 131 18 r \$0-checkMode;
#X msg 131 40 \$4;
#X connect 0 0 1 0;
#X connect 1 0 2 0;
#X connect 2 0 7 0;
#X connect 2 1 9 0;
#X connect 3 0 6 0;
#X connect 4 0 6 0;
#X connect 5 0 6 0;
#X connect 7 0 5 0;
#X connect 9 0 3 0;
#X connect 9 1 3 0;
#X connect 9 2 4 0;
#X connect 9 3 4 0;
#X connect 9 4 5 0;
#X connect 9 5 5 0;
#X connect 9 6 8 0;
#X connect 11 0 12 0;
#X connect 12 0 1 1;
#X restore 80 199 pd check if it specifies the mode;
#N canvas 0 50 348 267 get 0;
#X obj 48 121 list 666 \$1 \$2 \$3;
#X obj 48 89 bng 15 250 50 0 empty empty empty 17 7 0 10 -262144 -1
-1;
#X obj 48 143 list split 1;
#X obj 48 53 inlet;
#X obj 88 179 outlet;
#X obj 153 65 cnv 10 10 17 empty empty empty 20 12 0 14 -993 -1 0;
#X obj 164 65 r \$0-getColorValues;
#X msg 164 87 666 \$1 \$2 \$3;
#X connect 0 0 2 0;
#X connect 1 0 0 0;
#X connect 2 1 4 0;
#X connect 3 0 1 0;
#X connect 6 0 7 0;
#X connect 7 0 0 1;
#X restore 48 154 pd get color values;
#X obj 48 319 outlet;
#X obj 48 31 inlet;
#X obj 48 176 t a b;
#N canvas 0 50 450 300 makeFinalColor 0;
#X obj 68 39 inlet;
#X obj 262 40 inlet;
#X obj 68 81 easyflow/switch3;
#X floatatom 262 62 5 0 0 0 - - -, f 5;
#X obj 68 123 easyflow/rgb;
#X obj 122 164 easyflow/hsb;
#X obj 177 195 easyflow/hsl;
#X obj 68 225 outlet;
#X connect 0 0 2 0;
#X connect 1 0 3 0;
#X connect 2 0 4 0;
#X connect 2 1 5 0;
#X connect 2 2 6 0;
#X connect 3 0 2 1;
#X connect 4 0 7 0;
#X connect 5 0 7 0;
#X connect 6 0 7 0;
#X restore 48 253 pd makeFinalColor;
#X obj 248 257 t a;
#N canvas 0 50 450 300 incomingLists 0;
#X obj 31 27 inlet;
#X obj 206 145 cnv 10 10 17 empty empty empty 20 12 0 14 -259758 -1
0;
#X obj 217 145 s \$0-checkColorName;
#X msg 217 122 \$1;
#X obj 31 101 trigger bang list list list;
#X obj 31 243 outlet;
#X obj 144 195 cnv 10 10 17 empty empty empty 20 12 0 14 -993 -1 0
;
#X obj 155 195 s \$0-getColorValues;
#X obj 82 168 cnv 10 10 17 empty empty empty 20 12 0 14 -76932 -1 0
;
#X obj 93 168 s \$0-checkMode;
#N canvas 409 134 452 215 pad 0;
#X obj 42 36 inlet;
#X obj 42 58 list append 666 666 666 666;
#X obj 42 80 list split 4;
#X obj 42 102 outlet;
#X connect 0 0 1 0;
#X connect 1 0 2 0;
#X connect 2 0 3 0;
#X restore 31 49 pd pad;
#X connect 0 0 10 0;
#X connect 3 0 2 0;
#X connect 4 0 5 0;
#X connect 4 1 9 0;
#X connect 4 2 7 0;
#X connect 4 3 3 0;
#X connect 10 0 4 0;
#X restore 148 78 pd incomingLists;
#X obj 131 80 cnv 10 10 12 empty empty ● 1 5 0 15 -262144 -259758
0;
#X obj 33 157 cnv 10 10 12 empty empty ● 1 5 0 15 -262144 -993 0
;
#X obj 67 201 cnv 10 10 12 empty empty ● 1 5 0 15 -262144 -76932
0;
#X obj 48 53 route bang symbol list;
#N canvas 0 50 187 119 symbols 0;
#X obj 31 27 inlet;
#X obj 31 73 outlet;
#X msg 31 49 \$1 0 0 0;
#X connect 0 0 2 0;
#X connect 2 0 1 0;
#X restore 172 16 pd symbols;
#X obj 234 50 easyflow/symbolize;
#X connect 0 0 2 0;
#X connect 0 1 7 0;
#X connect 1 0 6 1;
#X connect 2 0 5 0;
#X connect 4 0 12 0;
#X connect 5 0 6 0;
#X connect 5 1 1 0;
#X connect 6 0 3 0;
#X connect 7 0 3 0;
#X connect 8 0 0 0;
#X connect 12 0 0 0;
#X connect 12 1 13 0;
#X connect 12 2 8 0;
#X connect 12 3 14 0;
#X connect 13 0 8 0;
#X connect 14 0 13 0;
