#N canvas 909 178 574 333 10;
#X obj 100 100 cnv 10 16 16 empty \$0-cnv ❴❵ -1 7 0 15 -262144
-1 0;
#X obj 262 128 loadbang;
#X obj 262 150 bng 15 250 50 0 empty empty empty 17 7 0 10 -262144
-1 -1;
#X obj 262 181 easyflow/colorSyntax \$1 \$2 \$3 \$4;
#X obj 262 254 s \$0-cnv;
#X obj 40 177 inlet;
#X obj 40 199 route set;
#X obj 40 246 s \$0-cnv;
#X msg 262 219 color 0 \$1 \$1;
#X msg 40 224 color 0 \$1 \$1;
#X text 30 13 This is a special alternate curly brackets;
#X text 32 33 Unicodes U+2774 and U+27775;
#X text 33 53 You cant use the regular ones U+007B and U+007D because
those are "dropped" in pd.;
#X connect 1 0 2 0;
#X connect 2 0 3 0;
#X connect 3 0 8 0;
#X connect 5 0 6 0;
#X connect 6 0 9 0;
#X connect 8 0 4 0;
#X connect 9 0 7 0;
#X coords 0 1 1 10 10 12 2 100 100;
