#N canvas 423 101 931 525 10;
#X obj 597 12 r \$0-makeColor;
#X obj 638 154 unpack float float float;
#X msg 629 238 color \$1;
#N canvas 0 50 289 162 black 0;
#X obj 59 30 inlet;
#X msg 59 52 0 0 0;
#X obj 59 79 s \$0-makeColor;
#X connect 0 0 1 0;
#X connect 1 0 2 0;
#X restore 59 201 pd black;
#N canvas 0 50 289 162 red 0;
#X obj 59 30 inlet;
#X obj 59 79 s \$0-makeColor;
#X msg 59 52 255 0 0;
#X connect 0 0 2 0;
#X connect 2 0 1 0;
#X restore 103 171 pd red;
#N canvas 0 50 289 162 yellow 0;
#X obj 59 30 inlet;
#X obj 59 79 s \$0-makeColor;
#X msg 59 53 255 255;
#X connect 0 0 2 0;
#X connect 2 0 1 0;
#X restore 147 201 pd yellow;
#N canvas 0 50 289 162 green 0;
#X obj 59 30 inlet;
#X obj 59 79 s \$0-makeColor;
#X msg 59 52 30 255 0;
#X connect 0 0 2 0;
#X connect 2 0 1 0;
#X restore 191 179 pd green;
#N canvas 0 50 289 162 teal 0;
#X obj 59 30 inlet;
#X obj 59 79 s \$0-makeColor;
#X msg 59 52 0 252 255;
#X connect 0 0 2 0;
#X connect 2 0 1 0;
#X restore 236 202 pd teal;
#N canvas 0 50 289 162 blue 0;
#X obj 59 30 inlet;
#X obj 59 79 s \$0-makeColor;
#X msg 59 52 0 60 255;
#X connect 0 0 2 0;
#X connect 2 0 1 0;
#X restore 280 179 pd blue;
#N canvas 0 50 289 162 purple 0;
#X obj 59 30 inlet;
#X obj 59 79 s \$0-makeColor;
#X msg 59 53 132 0 255;
#X connect 0 0 2 0;
#X connect 2 0 1 0;
#X restore 324 202 pd purple;
#N canvas 0 50 289 162 pink 0;
#X obj 59 30 inlet;
#X obj 59 79 s \$0-makeColor;
#X msg 59 52 255 0 186;
#X connect 0 0 2 0;
#X connect 2 0 1 0;
#X restore 368 179 pd pink;
#X obj 59 15 inlet;
#X obj 597 411 outlet;
#X obj 584 411 cnv 11 12 17 empty empty 1 2 9 0 14 -1 -262144 0;
#X obj 46 15 cnv 11 12 17 empty empty 1 2 9 0 14 -1 -262144 0;
#X obj 477 36 cnv 5 72 5 empty \$0-display empty 20 12 0 14 -1 -66577
0;
#X obj 629 266 s \$0-display;
#N canvas 623 401 450 300 get 1;
#X obj 65 28 inlet;
#X obj 65 170 list 666 \$1;
#X obj 65 274 outlet;
#X msg 65 192 symbol \$2;
#X obj 240 22 loadbang;
#X obj 229 108 cnv 10 10 17 empty empty empty 20 12 0 14 -189039 -1
0;
#X obj 240 108 s \$0-initSpigot;
#X msg 364 66 0;
#X msg 240 67 1;
#X obj 29 76 bng 15 250 50 0 empty empty empty 17 7 0 10 -262144 -1
-1;
#X symbolatom 65 214 10 0 0 0 - - -, f 10;
#X obj 240 44 trigger bang bang bang bang;
#N canvas 0 50 450 300 onlyPassIfNotEmpty 1;
#X obj 60 49 inlet;
#X obj 127 241 outlet;
#X obj 127 130 symbol;
#X obj 60 180 bng 15 250 50 0 empty empty empty 17 7 0 10 -262144 -1
-1;
#X obj 60 158 select foo;
#X obj 60 71 trigger symbol symbol;
#X obj 127 209 symbol;
#X obj 127 103 inlet;
#X obj 127 181 bng 15 250 50 0 empty empty empty 17 7 0 10 -262144
-1 -1;
#X obj 48 49 cnv 11 12 17 empty empty 1 2 9 0 14 -1 -262144 0;
#X obj 114 103 cnv 11 12 17 empty empty 2 2 9 0 14 -1 -262144 0;
#X connect 0 0 5 0;
#X connect 2 0 4 1;
#X connect 4 0 3 0;
#X connect 4 1 8 0;
#X connect 5 0 4 0;
#X connect 5 1 6 1;
#X connect 6 0 1 0;
#X connect 7 0 2 0;
#X connect 8 0 6 0;
#X restore 65 245 pd onlyPassIfNotEmpty;
#X connect 0 0 1 0;
#X connect 1 0 3 0;
#X connect 3 0 10 0;
#X connect 4 0 11 0;
#X connect 7 0 6 0;
#X connect 8 0 6 0;
#X connect 9 0 1 0;
#X connect 10 0 12 0;
#X connect 11 0 8 0;
#X connect 11 1 1 0;
#X connect 11 2 7 0;
#X connect 11 3 12 1;
#X connect 12 0 2 0;
#X restore 59 72 pd get;
#X obj 126 97 t a b;
#N canvas 1094 100 378 644 others 0;
#X obj 78 45 inlet;
#N canvas 0 50 807 341 greens 0;
#N canvas 0 50 289 162 olive 0;
#X obj 59 30 inlet;
#X obj 59 79 s \$0-makeColor;
#X msg 59 52 107 142 35;
#X connect 0 0 2 0;
#X connect 2 0 1 0;
#X restore 267 188 pd olive;
#N canvas 0 50 289 162 radioactive 0;
#X obj 59 30 inlet;
#X obj 59 79 s \$0-makeColor;
#X msg 59 52 192 255 61;
#X connect 0 0 2 0;
#X connect 2 0 1 0;
#X restore 336 189 pd radioactive;
#X obj 59 36 inlet;
#X obj 624 101 outlet;
#N canvas 0 50 289 162 lawn 0;
#X obj 59 30 inlet;
#X obj 59 79 s \$0-makeColor;
#X msg 59 52 126 255 0;
#X connect 0 0 2 0;
#X connect 2 0 1 0;
#X restore 197 188 pd lawn;
#X obj 59 101 select lightGreen darkGreen lawn olive radioactive;
#N canvas 0 50 289 162 forest 0;
#X obj 59 30 inlet;
#X obj 59 79 s \$0-makeColor;
#X msg 59 52 34 139 34;
#X connect 0 0 2 0;
#X connect 2 0 1 0;
#X restore 455 148 pd forest;
#X obj 455 100 sel forest paleGreen;
#N canvas 0 50 289 162 paleGreen 0;
#X obj 59 30 inlet;
#X obj 59 79 s \$0-makeColor;
#X msg 59 52 143 238 143;
#X connect 0 0 2 0;
#X connect 2 0 1 0;
#X restore 523 128 pd paleGreen;
#X obj 59 58 easyflow/symbolize;
#N canvas 0 50 289 162 darkGreen 0;
#X obj 59 30 inlet;
#X obj 59 79 s \$0-makeColor;
#X msg 59 52 0 139 0;
#X connect 0 0 2 0;
#X connect 2 0 1 0;
#X restore 128 138 pd darkGreen;
#N canvas 0 50 289 162 lightGreen 0;
#X obj 59 30 inlet;
#X obj 59 79 s \$0-makeColor;
#X msg 59 52 175 255 175;
#X connect 0 0 2 0;
#X connect 2 0 1 0;
#X restore 59 161 pd lightGreen;
#X connect 2 0 9 0;
#X connect 5 0 11 0;
#X connect 5 1 10 0;
#X connect 5 2 4 0;
#X connect 5 3 0 0;
#X connect 5 4 1 0;
#X connect 5 5 7 0;
#X connect 7 0 6 0;
#X connect 7 1 8 0;
#X connect 7 2 3 0;
#X connect 9 0 5 0;
#X restore 78 107 pd greens;
#N canvas 0 50 670 252 blues 0;
#X obj 59 66 inlet;
#N canvas 0 50 289 162 navyBlue 0;
#X obj 59 30 inlet;
#X obj 59 79 s \$0-makeColor;
#X msg 59 52 0 0 128;
#X connect 0 0 2 0;
#X connect 2 0 1 0;
#X restore 190 165 pd navyBlue;
#X obj 59 101 select lightBlue darkBlue navyBlue sky;
#N canvas 0 50 289 162 sky 0;
#X obj 59 30 inlet;
#X obj 59 79 s \$0-makeColor;
#X msg 59 52 135 206 255;
#X connect 0 0 2 0;
#X connect 2 0 1 0;
#X restore 256 138 pd sky;
#X obj 565 134 outlet;
#N canvas 0 50 289 162 vaultSuit 0;
#X obj 59 30 inlet;
#X obj 59 79 s \$0-makeColor;
#X msg 59 52 0 103 172;
#X connect 0 0 2 0;
#X connect 2 0 1 0;
#X restore 379 167 pd vaultSuit;
#N canvas 0 50 289 162 lightBlue 0;
#X obj 59 30 inlet;
#X obj 59 79 s \$0-makeColor;
#X msg 59 52 175 175 255;
#X connect 0 0 2 0;
#X connect 2 0 1 0;
#X restore 59 161 pd lightBlue;
#N canvas 0 50 289 162 darkBlue 0;
#X obj 59 30 inlet;
#X obj 59 79 s \$0-makeColor;
#X msg 59 52 0 0 155;
#X connect 0 0 2 0;
#X connect 2 0 1 0;
#X restore 124 138 pd darkBlue;
#X obj 379 104 select vaultSuit flowerBlue;
#N canvas 0 50 289 162 flowerBlue 0;
#X obj 59 30 inlet;
#X obj 59 79 s \$0-makeColor;
#X msg 59 52 0 96 255;
#X connect 0 0 2 0;
#X connect 2 0 1 0;
#X restore 472 163 pd flowerBlue;
#X connect 0 0 2 0;
#X connect 2 0 6 0;
#X connect 2 1 7 0;
#X connect 2 2 1 0;
#X connect 2 3 3 0;
#X connect 2 4 8 0;
#X connect 8 0 5 0;
#X connect 8 1 9 0;
#X connect 8 2 4 0;
#X restore 78 143 pd blues;
#N canvas 0 50 473 245 yellows 0;
#X obj 59 66 inlet;
#X obj 294 136 outlet;
#X obj 59 101 select lightYellow darkYellow gold;
#N canvas 0 50 289 162 gold 0;
#X obj 59 30 inlet;
#X obj 60 79 s \$0-makeColor;
#X msg 60 52 255 192 0;
#X connect 0 0 2 0;
#X connect 2 0 1 0;
#X restore 215 163 pd gold;
#N canvas 0 50 289 162 lightYellow 0;
#X obj 59 30 inlet;
#X obj 59 79 s \$0-makeColor;
#X msg 59 52 255 255 175;
#X connect 0 0 2 0;
#X connect 2 0 1 0;
#X restore 59 161 pd lightYellow;
#N canvas 0 50 289 162 darkYellow 0;
#X obj 59 30 inlet;
#X obj 59 79 s \$0-makeColor;
#X msg 59 52 230 200 0;
#X connect 0 0 2 0;
#X connect 2 0 1 0;
#X restore 137 138 pd darkYellow;
#X connect 0 0 2 0;
#X connect 2 0 4 0;
#X connect 2 1 5 0;
#X connect 2 2 3 0;
#X connect 2 3 1 0;
#X restore 78 174 pd yellows;
#N canvas 0 50 477 265 purples 0;
#X obj 59 76 inlet;
#X obj 308 156 outlet;
#X obj 59 101 select lightPurple darkPurple violet;
#N canvas 0 50 289 162 violet 0;
#X obj 59 30 inlet;
#X obj 59 79 s \$0-makeColor;
#X msg 59 52 237 130 237;
#X connect 0 0 2 0;
#X connect 2 0 1 0;
#X restore 225 168 pd violet;
#N canvas 0 50 289 162 lightPurple 0;
#X obj 59 30 inlet;
#X obj 59 79 s \$0-makeColor;
#X msg 59 52 169 77 255;
#X connect 0 0 2 0;
#X connect 2 0 1 0;
#X restore 59 161 pd lightPurple;
#N canvas 0 50 289 162 darkPurple 0;
#X obj 59 30 inlet;
#X obj 59 79 s \$0-makeColor;
#X msg 59 52 82 0 158;
#X connect 0 0 2 0;
#X connect 2 0 1 0;
#X restore 142 138 pd darkPurple;
#X connect 0 0 2 0;
#X connect 2 0 4 0;
#X connect 2 1 5 0;
#X connect 2 2 3 0;
#X connect 2 3 1 0;
#X restore 78 211 pd purples;
#N canvas 0 50 485 294 whites 0;
#X obj 59 76 inlet;
#X obj 231 131 outlet;
#N canvas 0 50 289 162 white 0;
#X obj 59 30 inlet;
#X obj 59 79 s \$0-makeColor;
#X msg 59 52 255 255 255;
#X connect 0 0 2 0;
#X connect 2 0 1 0;
#X restore 59 139 pd white;
#X obj 59 101 select white floral ghost;
#N canvas 0 50 289 162 floral 0;
#X obj 59 30 inlet;
#X obj 59 79 s \$0-makeColor;
#X msg 59 52 255 250 240;
#X connect 0 0 2 0;
#X connect 2 0 1 0;
#X restore 116 189 pd floral;
#N canvas 0 50 289 162 ghost 0;
#X obj 59 30 inlet;
#X obj 59 79 s \$0-makeColor;
#X msg 59 52 248 248 255;
#X connect 0 0 2 0;
#X connect 2 0 1 0;
#X restore 173 159 pd ghost;
#X connect 0 0 3 0;
#X connect 3 0 2 0;
#X connect 3 1 4 0;
#X connect 3 2 5 0;
#X connect 3 3 1 0;
#X restore 78 399 pd whites;
#N canvas 0 50 399 293 oranges 0;
#X obj 59 76 inlet;
#X obj 231 166 outlet;
#N canvas 0 50 289 162 orange 0;
#X obj 59 30 inlet;
#X obj 59 79 s \$0-makeColor;
#X msg 59 52 255 127 0;
#X connect 0 0 2 0;
#X connect 2 0 1 0;
#X restore 59 222 pd orange;
#X obj 59 101 select orange brown peach;
#N canvas 0 50 289 162 brown 0;
#X obj 59 30 inlet;
#X obj 59 79 s \$0-makeColor;
#X msg 59 53 138 68 18;
#X connect 0 0 2 0;
#X connect 2 0 1 0;
#X restore 116 182 pd brown;
#N canvas 0 50 289 162 peach 0;
#X obj 59 30 inlet;
#X obj 59 79 s \$0-makeColor;
#X msg 59 53 255 218 185;
#X connect 0 0 2 0;
#X connect 2 0 1 0;
#X restore 173 135 pd peach;
#X connect 0 0 3 0;
#X connect 3 0 2 0;
#X connect 3 1 4 0;
#X connect 3 2 5 0;
#X connect 3 3 1 0;
#X restore 78 244 pd oranges;
#N canvas 0 50 422 287 reds 0;
#X obj 59 36 inlet;
#X obj 294 158 outlet;
#X obj 59 101 select lightRed darkRed wine blood;
#N canvas 0 50 289 162 wine 0;
#X obj 59 30 inlet;
#X obj 59 79 s \$0-makeColor;
#X msg 59 52 145 17 58;
#X connect 0 0 2 0;
#X connect 2 0 1 0;
#X restore 176 160 pd wine;
#X obj 59 58 easyflow/symbolize;
#N canvas 0 50 289 162 blood 0;
#X obj 59 30 inlet;
#X obj 59 79 s \$0-makeColor;
#X msg 59 52 200 32 31;
#X connect 0 0 2 0;
#X connect 2 0 1 0;
#X restore 235 133 pd blood;
#N canvas 0 50 289 162 darkRed 0;
#X obj 59 30 inlet;
#X obj 59 79 s \$0-makeColor;
#X msg 59 52 139 0 0;
#X connect 0 0 2 0;
#X connect 2 0 1 0;
#X restore 117 138 pd darkRed;
#N canvas 0 50 289 162 lightRed 0;
#X obj 59 30 inlet;
#X obj 59 79 s \$0-makeColor;
#X msg 59 52 255 150 150;
#X connect 0 0 2 0;
#X connect 2 0 1 0;
#X restore 59 161 pd lightRed;
#X connect 0 0 4 0;
#X connect 2 0 7 0;
#X connect 2 1 6 0;
#X connect 2 2 3 0;
#X connect 2 3 5 0;
#X connect 2 4 1 0;
#X connect 4 0 2 0;
#X restore 78 75 pd reds;
#N canvas 494 442 807 341 pinks 0;
#X obj 59 66 inlet;
#X obj 493 119 outlet;
#N canvas 2 222 289 162 deepPink 0;
#X obj 59 30 inlet;
#X obj 59 79 s \$0-makeColor;
#X msg 59 52 255 20 147;
#X connect 0 0 2 0;
#X connect 2 0 1 0;
#X restore 350 180 pd deepPink;
#N canvas 0 50 289 162 fuchsia 0;
#X obj 59 30 inlet;
#X obj 59 79 s \$0-makeColor;
#X msg 59 52 255 0 255;
#X connect 0 0 2 0;
#X connect 2 0 1 0;
#X restore 279 201 pd fuchsia;
#X obj 279 88 select fuchsia deepPink hotPink;
#N canvas 15 223 289 162 hotPink 0;
#X obj 59 30 inlet;
#X obj 59 79 s \$0-makeColor;
#X msg 59 52 255 105 180;
#X connect 0 0 2 0;
#X connect 2 0 1 0;
#X restore 421 157 pd hotPink;
#X obj 59 88 select lightPink darkPink;
#N canvas 0 50 289 162 lightPink 0;
#X obj 59 30 inlet;
#X obj 59 79 s \$0-makeColor;
#X msg 59 52 255 163 255;
#X connect 0 0 2 0;
#X connect 2 0 1 0;
#X restore 59 149 pd lightPink;
#N canvas 0 50 289 162 darkPink 0;
#X obj 59 30 inlet;
#X obj 59 79 s \$0-makeColor;
#X msg 59 52 224 0 224;
#X connect 0 0 2 0;
#X connect 2 0 1 0;
#X restore 145 118 pd darkPink;
#X connect 0 0 6 0;
#X connect 4 0 3 0;
#X connect 4 1 2 0;
#X connect 4 2 5 0;
#X connect 4 3 1 0;
#X connect 6 0 7 0;
#X connect 6 1 8 0;
#X connect 6 2 4 0;
#X restore 78 294 pd pinks;
#N canvas 0 50 539 279 cyans 0;
#X obj 59 76 inlet;
#X obj 231 124 outlet;
#X obj 59 101 select lightCyan darkCyan;
#X obj 59 189 s \$0-makeColor;
#X msg 59 132 224 255 255;
#X msg 145 156 0 139 139;
#X connect 0 0 2 0;
#X connect 2 0 4 0;
#X connect 2 1 5 0;
#X connect 2 2 1 0;
#X connect 4 0 3 0;
#X connect 5 0 3 0;
#X restore 78 331 pd cyans;
#N canvas 0 50 807 341 grays 0;
#X obj 59 76 inlet;
#X obj 322 128 outlet;
#N canvas 0 50 289 162 gray 0;
#X obj 59 30 inlet;
#X obj 59 79 s \$0-makeColor;
#X msg 59 52 128 128 128;
#X connect 0 0 2 0;
#X connect 2 0 1 0;
#X restore 59 152 pd gray;
#N canvas 0 50 289 162 lightGray 0;
#X obj 59 30 inlet;
#X obj 59 79 s \$0-makeColor;
#X msg 59 53 211 211 211;
#X connect 0 0 2 0;
#X connect 2 0 1 0;
#X restore 124 152 pd lightGray;
#X obj 59 101 select gray lightGray darkGray dimGray;
#N canvas 0 50 289 162 darkGray 0;
#X obj 59 30 inlet;
#X obj 59 79 s \$0-makeColor;
#X msg 59 53 169 169 169;
#X connect 0 0 2 0;
#X connect 2 0 1 0;
#X restore 190 131 pd darkGray;
#N canvas 0 50 289 162 dimGray 0;
#X obj 59 30 inlet;
#X obj 59 79 s \$0-makeColor;
#X msg 59 53 105 105 105;
#X connect 0 0 2 0;
#X connect 2 0 1 0;
#X restore 256 153 pd dimGray;
#X connect 0 0 4 0;
#X connect 4 0 2 0;
#X connect 4 1 3 0;
#X connect 4 2 5 0;
#X connect 4 3 6 0;
#X connect 4 4 1 0;
#X restore 78 364 pd grays;
#N canvas 0 50 289 162 default 0;
#X obj 59 30 inlet;
#X obj 59 79 s \$0-makeColor;
#X msg 59 52 0 0 0;
#X connect 0 0 2 0;
#X connect 2 0 1 0;
#X restore 110 486 pd default;
#N canvas 0 50 328 290 black 0;
#X obj 39 46 inlet;
#X obj 113 95 outlet;
#X obj 39 153 s \$0-makeColor;
#X msg 39 121 45 45 45;
#X obj 39 71 select dark;
#X connect 0 0 4 0;
#X connect 3 0 2 0;
#X connect 4 0 3 0;
#X connect 4 1 1 0;
#X restore 78 429 pd black;
#X obj 78 460 t a b;
#X obj 78 516 print [colorNames] color not defined;
#X connect 0 0 7 0;
#X connect 1 0 2 0;
#X connect 2 0 3 0;
#X connect 3 0 4 0;
#X connect 4 0 6 0;
#X connect 5 0 12 0;
#X connect 6 0 8 0;
#X connect 7 0 1 0;
#X connect 8 0 9 0;
#X connect 9 0 10 0;
#X connect 10 0 5 0;
#X connect 12 0 13 0;
#X connect 13 0 14 0;
#X connect 13 1 11 0;
#X restore 441 132 pd others;
#X obj 59 37 route bang;
#X obj 597 380 spigot;
#X obj 636 356 tgl 15 0 empty empty empty 17 7 0 10 -262144 -1 -1 1
1;
#X obj 636 335 r \$0-initSpigot;
#X obj 625 335 cnv 10 10 17 empty empty empty 20 12 0 14 -189039 -1
0;
#X obj 35 52 bng 15 250 50 0 empty empty empty 17 7 0 10 -262144 -1
-1;
#X obj 597 190 easyflow/RGB 0 0 0;
#X obj 59 134 select black red yellow green cyan blue purple pink;
#X obj 748 123 outlet;
#X obj 735 123 cnv 11 12 17 empty empty 2 2 9 0 14 -1 -262144 0;
#X obj 748 83 spigot;
#X obj 787 59 tgl 15 0 empty empty empty 17 7 0 10 -262144 -1 -1 1
1;
#X obj 787 38 r \$0-initSpigot;
#X obj 776 38 cnv 10 10 17 empty empty empty 20 12 0 14 -189039 -1
0;
#X obj 597 44 trigger bang list list;
#X obj 597 212 t f f;
#X connect 0 0 34 0;
#X connect 1 0 26 1;
#X connect 1 1 26 2;
#X connect 1 2 26 3;
#X connect 2 0 16 0;
#X connect 11 0 20 0;
#X connect 17 0 27 0;
#X connect 18 0 27 0;
#X connect 20 0 17 0;
#X connect 20 1 18 0;
#X connect 21 0 12 0;
#X connect 22 0 21 1;
#X connect 23 0 22 0;
#X connect 25 0 17 0;
#X connect 26 0 35 0;
#X connect 27 0 3 0;
#X connect 27 1 4 0;
#X connect 27 2 5 0;
#X connect 27 3 6 0;
#X connect 27 4 7 0;
#X connect 27 5 8 0;
#X connect 27 6 9 0;
#X connect 27 7 10 0;
#X connect 27 8 19 0;
#X connect 30 0 28 0;
#X connect 31 0 30 1;
#X connect 32 0 31 0;
#X connect 34 0 26 0;
#X connect 34 1 1 0;
#X connect 34 2 30 0;
#X connect 35 0 21 0;
#X connect 35 1 2 0;
#X coords 0 1 1 -1 73 24 1 476 18;
