#N canvas 507 72 1078 597 10;
#X obj 500 44 cnv 10 10 17 empty \$0-color empty 20 12 0 14 -92334
-262144 0;
#X obj 63 36 receive globalColorHighlighting;
#X obj 511 44 r \$0-masterList;
#X obj 63 270 easyflow/addList;
#X obj 52 306 cnv 10 10 17 empty \$0-color empty 20 12 0 14 -92334
-262144 0;
#X obj 63 306 s \$0-masterList;
#X obj 511 218 send;
#X obj 575 171 cnv 10 10 17 empty \$0-color empty 20 12 0 14 -142796
-262144 0;
#X obj 586 171 r \$0-whereToSend;
#X symbolatom 586 193 30 0 0 0 - - -, f 30;
#X obj 722 450 cnv 10 10 17 empty \$0-color empty 20 12 0 14 -142796
-262144 0;
#X obj 733 450 s \$0-whereToSend;
#X obj 659 439 bng 15 250 50 0 empty empty empty 17 7 0 10 -262144
-1 -1;
#X obj 648 480 cnv 10 10 17 empty \$0-color empty 20 12 0 14 -92334
-262144 0;
#X obj 659 480 s \$0-masterList;
#X obj 648 372 cnv 10 10 17 empty \$0-color empty 20 12 0 14 -215054
-262144 0;
#X obj 659 372 r \$0-sendList;
#X obj 659 394 trigger b s;
#X symbolatom 733 425 10 0 0 0 - - -, f 10;
#X obj 313 378 bng 15 250 50 0 empty empty empty 17 7 0 10 -262144
-1 -1;
#X obj 313 398 trigger bang bang;
#X msg 429 427 set;
#X obj 418 452 cnv 10 10 17 empty \$0-color empty 20 12 0 14 -92334
-262144 0;
#X obj 429 452 s \$0-masterList;
#N canvas 18 248 1818 269 masterList 0;
#X obj 76 27 inlet;
#X msg 76 49 1004-updateMenuSliders 182 201 115 hsl 1004-clear 255
0 0 rgb, f 240;
#X obj 76 241 outlet;
#X connect 0 0 1 0;
#X connect 1 0 2 0;
#X restore 511 73 pd masterList;
#X obj 313 494 send globalColorHighlightingUpdateAll;
#X obj 208 194 cnv 10 10 17 empty \$0-color empty 20 12 0 14 -217722
-262144 0;
#X obj 219 194 s \$0-updateAll;
#N canvas 96 248 470 331 getColor 0;
#X obj 60 30 inlet;
#N canvas 620 133 796 684 searchMasterList 0;
#X obj 54 41 inlet;
#X obj 117 303 cnv 10 10 17 empty \$0-color empty 20 12 0 14 -215054
-262144 0;
#X symbolatom 128 280 25 0 0 0 - - -, f 25;
#X obj 128 303 s \$0-sendList;
#X obj 128 245 symbol \$0-searchMasterList;
#X obj 387 25 r \$0-searchMasterList;
#X obj 387 54 list;
#X obj 387 277 bng 15 250 50 0 empty empty empty 17 7 0 10 -262144
-1 -1;
#X symbolatom 170 129 20 0 0 0 - - -, f 20;
#X obj 387 245 select foo;
#X obj 387 467 float, f 20;
#X floatatom 387 489 5 0 0 0 - - -, f 5;
#X obj 387 508 + 1;
#X obj 387 551 easyflow/listPick 4, f 45;
#X obj 387 583 outlet;
#X obj 170 107 list split 1;
#X msg 604 220 stop;
#X msg 170 386 1;
#X msg 212 386 0;
#X obj 93 448 tgl 15 0 empty empty empty 17 7 0 10 -262144 -1 -1 0
1;
#X obj 54 470 spigot;
#X obj 54 63 trigger list list;
#X obj 54 175 trigger list bang;
#X obj 54 217 trigger l b;
#X obj 54 502 trigger b l;
#X obj 128 572 list split 1;
#X msg 54 533 black;
#N canvas 0 50 405 170 printError 0;
#X obj 32 58 inlet;
#X obj 32 96 print [colorHighlighting] color not found;
#X connect 0 0 1 0;
#X restore 128 601 pd printError;
#N canvas 0 50 404 349 searchUniqueNames 0;
#X obj 39 76 list length;
#X obj 39 98 div 5;
#X obj 39 191 easyflow/counter;
#X obj 39 272 easyflow/listPick 1;
#X msg 39 139 increment 5 \, set 1 \, \$1;
#X obj 39 233 trigger float float, f 31;
#X obj 39 16 inlet;
#X obj 39 38 trigger list list, f 31;
#X obj 39 294 outlet;
#X obj 309 114 inlet;
#X obj 253 290 outlet;
#X connect 0 0 1 0;
#X connect 1 0 4 0;
#X connect 2 0 5 0;
#X connect 3 0 8 0;
#X connect 4 0 2 0;
#X connect 5 0 3 0;
#X connect 5 1 10 0;
#X connect 6 0 7 0;
#X connect 7 0 0 0;
#X connect 7 1 3 1;
#X connect 9 0 2 0;
#X restore 387 120 pd searchUniqueNames;
#X obj 387 84 trigger list list, f 45;
#X text 249 381 we've found the color, f 12;
#X text 71 378 didn't found the color, f 12;
#X obj 387 306 trigger bang bang bang;
#X text 536 465 unique name's index;
#X text 467 238 unique name, f 6;
#X connect 0 0 21 0;
#X connect 2 0 3 0;
#X connect 4 0 2 0;
#X connect 5 0 6 0;
#X connect 6 0 29 0;
#X connect 7 0 32 0;
#X connect 8 0 9 1;
#X connect 9 0 7 0;
#X connect 10 0 11 0;
#X connect 11 0 12 0;
#X connect 12 0 13 0;
#X connect 13 0 14 0;
#X connect 15 0 8 0;
#X connect 16 0 28 1;
#X connect 17 0 19 0;
#X connect 18 0 19 0;
#X connect 19 0 20 1;
#X connect 20 0 24 0;
#X connect 21 0 22 0;
#X connect 21 1 15 0;
#X connect 22 0 23 0;
#X connect 22 1 17 0;
#X connect 23 0 20 0;
#X connect 23 1 4 0;
#X connect 24 0 26 0;
#X connect 24 1 25 0;
#X connect 25 0 27 0;
#X connect 26 0 14 0;
#X connect 28 0 9 0;
#X connect 28 1 10 1;
#X connect 29 0 28 0;
#X connect 29 1 13 1;
#X connect 32 0 10 0;
#X connect 32 1 18 0;
#X connect 32 2 16 0;
#X restore 60 121 pd searchMasterList;
#X obj 60 59 list;
#X obj 60 81 trigger list list, f 35;
#X obj 144 285 send;
#X obj 60 172 easyflow/colorSyntax;
#X floatatom 60 194 25 0 0 0 - - -, f 25;
#X symbolatom 302 131 20 0 0 0 - - -, f 20;
#X msg 302 109 symbol \$2;
#X connect 0 0 2 0;
#X connect 1 0 5 0;
#X connect 2 0 3 0;
#X connect 3 0 1 0;
#X connect 3 1 8 0;
#X connect 5 0 6 0;
#X connect 6 0 4 0;
#X connect 7 0 4 1;
#X connect 8 0 7 0;
#X restore 141 223 pd getColor;
#X obj 219 172 bng 15 250 50 0 empty empty empty 17 7 0 10 -262144
-1 -1;
#X obj 302 353 cnv 10 10 17 empty \$0-color empty 20 12 0 14 -217722
-262144 0;
#X obj 313 353 r \$0-updateAll;
#X obj 63 88 route setColor getColor updateAll updateColor;
#N canvas 111 148 862 731 updateColor 0;
#X obj 75 53 inlet;
#X obj 75 75 list;
#N canvas 774 105 687 506 findColorNameIndex 0;
#X obj 54 41 inlet;
#X obj 43 243 cnv 10 10 17 empty \$0-color empty 20 12 0 14 -215054
-262144 0;
#X symbolatom 54 220 25 0 0 0 - - -, f 25;
#X obj 54 243 s \$0-sendList;
#X obj 54 63 trigger bang list;
#X obj 54 185 symbol \$0-searchMasterList;
#X obj 387 25 r \$0-searchMasterList;
#X obj 387 117 list length;
#X obj 387 139 div 5;
#X obj 387 54 list;
#X obj 387 84 trigger list list list;
#X obj 387 202 easyflow/counter;
#X obj 387 283 easyflow/listPick 1;
#X msg 387 180 increment 5 \, set 1 \, \$1;
#X obj 387 387 bng 15 250 50 0 empty empty empty 17 7 0 10 -262144
-1 -1;
#X symbolatom 170 129 20 0 0 0 - - -, f 20;
#X obj 387 345 select foo;
#X obj 387 224 trigger float float;
#X obj 248 320 float;
#X floatatom 248 342 5 0 0 0 - - -, f 5;
#X obj 248 361 + 1;
#X obj 248 383 outlet;
#X obj 170 107 unpack s;
#X connect 0 0 4 0;
#X connect 2 0 3 0;
#X connect 4 0 5 0;
#X connect 4 1 22 0;
#X connect 5 0 2 0;
#X connect 6 0 9 0;
#X connect 7 0 8 0;
#X connect 8 0 13 0;
#X connect 9 0 10 0;
#X connect 10 0 7 0;
#X connect 10 1 12 1;
#X connect 11 0 17 0;
#X connect 12 0 16 0;
#X connect 13 0 11 0;
#X connect 14 0 18 0;
#X connect 15 0 16 1;
#X connect 16 0 14 0;
#X connect 17 0 12 0;
#X connect 17 1 18 1;
#X connect 18 0 19 0;
#X connect 19 0 20 0;
#X connect 20 0 21 0;
#X connect 22 0 15 0;
#X restore 245 133 pd findColorNameIndex;
#X obj 65 343 cnv 10 10 17 empty \$0-color empty 20 12 0 14 -215054
-262144 0;
#X symbolatom 76 320 25 0 0 0 - - -, f 25;
#X obj 394 195 r \$0-updateColorMasterList;
#X obj 76 343 s \$0-sendList;
#X obj 394 301 list split;
#X obj 245 182 - 1;
#X obj 452 366 list split 4;
#X obj 394 540 list append;
#X obj 76 97 trigger bang list list;
#X obj 151 207 list split 1;
#X obj 76 285 symbol \$0-updateColorMasterList;
#X obj 394 589 list append;
#X obj 394 611 list prepend set;
#X obj 394 633 list trim;
#X obj 383 661 cnv 10 10 17 empty \$0-color empty 20 12 0 14 -92334
-262144 0;
#X obj 394 661 s \$0-masterList;
#X text 482 299 starts with the values to be replaced;
#X text 549 359 take those values out;
#X text 485 540 up to the current name plus the new values;
#X text 488 586 put everything together;
#X obj 55 286 cnv 10 10 17 empty \$0-cnv ▲ 1 5 0 18 -262144 -1 0
;
#X obj 383 195 cnv 10 10 17 empty \$0-color empty 20 12 0 14 -1 -262144
0;
#X connect 0 0 1 0;
#X connect 1 0 11 0;
#X connect 2 0 8 0;
#X connect 4 0 6 0;
#X connect 5 0 7 0;
#X connect 7 0 10 0;
#X connect 7 1 9 0;
#X connect 8 0 7 1;
#X connect 9 1 14 1;
#X connect 10 0 14 0;
#X connect 11 0 13 0;
#X connect 11 1 12 0;
#X connect 11 2 2 0;
#X connect 12 1 10 1;
#X connect 13 0 4 0;
#X connect 14 0 15 0;
#X connect 15 0 16 0;
#X connect 16 0 18 0;
#X restore 297 124 pd updateColor;
#X text 657 44 [colorDef] uses setColor 50ms after [loadbang];
#X text 658 64 other objects get their colors 100ms after [loadbang]
;
#X connect 1 0 32 0;
#X connect 2 0 24 0;
#X connect 3 0 5 0;
#X connect 8 0 9 0;
#X connect 9 0 6 1;
#X connect 12 0 14 0;
#X connect 16 0 17 0;
#X connect 17 0 12 0;
#X connect 17 1 18 0;
#X connect 18 0 11 0;
#X connect 19 0 20 0;
#X connect 20 0 25 0;
#X connect 20 1 21 0;
#X connect 21 0 23 0;
#X connect 24 0 6 0;
#X connect 29 0 27 0;
#X connect 31 0 19 0;
#X connect 32 0 3 0;
#X connect 32 1 28 0;
#X connect 32 2 29 0;
#X connect 32 3 33 0;
