#N canvas 410 134 425 569 10;
#X obj 48 19 inlet;
#X obj 122 113 list length;
#X floatatom 122 135 5 0 0 0 - - -, f 5;
#X obj 122 212 f;
#X obj 122 240 t f f;
#X obj 186 226 + 1;
#X floatatom 149 283 5 0 0 0 - - -, f 5;
#X msg 186 184 1;
#X msg 149 304 adddollar \$1;
#X msg 149 446 add2 \$1;
#X obj 315 517 outlet;
#X obj 48 41 list;
#X msg 315 184 set;
#X obj 122 156 trigger float bang bang bang;
#X msg 250 374 set add2;
#X obj 122 186 until;
#X obj 48 81 trigger a a;
#X connect 0 0 11 0;
#X connect 1 0 2 0;
#X connect 2 0 13 0;
#X connect 3 0 4 0;
#X connect 4 0 6 0;
#X connect 4 1 5 0;
#X connect 5 0 3 1;
#X connect 6 0 8 0;
#X connect 7 0 3 1;
#X connect 8 0 9 0;
#X connect 9 0 10 0;
#X connect 11 0 16 0;
#X connect 12 0 10 0;
#X connect 13 0 15 0;
#X connect 13 1 7 0;
#X connect 13 2 14 0;
#X connect 13 3 12 0;
#X connect 14 0 9 0;
#X connect 15 0 3 0;
#X connect 16 0 9 0;
#X connect 16 1 1 0;
