#N canvas 921 208 435 318 10;
#X obj 83 246 outlet;
#X obj 210 133 + 1;
#X obj 71 29 cnv 8 11 17 empty empty 1 2 9 0 14 -1 -262144 0;
#X obj 124 131 cnv 8 11 17 empty empty 2 2 9 0 14 -1 -262144 0;
#X obj 72 246 cnv 8 11 17 empty empty 1 2 9 0 14 -1 -262144 0;
#X floatatom 83 73 5 0 0 0 - - -, f 5;
#X obj 83 92 until;
#N canvas 0 50 433 150 print 0;
#X obj 45 51 inlet;
#X obj 45 80 print -n [easyflow/counter] error. Invalid input:;
#X connect 0 0 1 0;
#X restore 325 79 pd print error;
#X obj 210 173 t f;
#X obj 136 131 inlet;
#X obj 83 29 inlet;
#X obj 83 213 t f f;
#X obj 83 51 route float bang set increment stop;
#X obj 276 81 bng 15 250 50 0 empty empty empty 17 7 0 10 -262144 -1
-1;
#X obj 83 163 float \$1;
#X connect 1 0 8 0;
#X connect 5 0 6 0;
#X connect 6 0 14 0;
#X connect 8 0 14 1;
#X connect 9 0 14 1;
#X connect 10 0 12 0;
#X connect 11 0 0 0;
#X connect 11 1 1 0;
#X connect 12 0 5 0;
#X connect 12 1 14 0;
#X connect 12 2 14 1;
#X connect 12 3 1 1;
#X connect 12 4 13 0;
#X connect 12 5 7 0;
#X connect 13 0 6 1;
#X connect 14 0 11 0;
