#N canvas 786 122 970 659 10;
#X floatatom 93 325 15 0 0 0 - - -, f 15;
#X obj 93 484 outlet;
#X obj 93 344 trigger float float;
#X obj 93 436 easyflow/switch2;
#N canvas 0 50 450 300 graphing 0;
#X obj 41 23 inlet;
#X obj 112 68 cnv 11 44 17 empty empty graph 2 9 0 14 -749 -262144
0;
#X obj 157 68 r \$0-graphingIndex;
#X floatatom 157 90 5 0 0 0 - - -, f 5;
#X obj 41 118 tabwrite \$0-graph;
#X connect 0 0 4 0;
#X connect 2 0 3 0;
#X connect 3 0 4 1;
#X restore 202 465 pd graphing;
#X obj 93 13 inlet;
#X obj 93 55 route float;
#N canvas 544 236 862 537 MODES 0;
#X obj 37 22 inlet;
#X obj 37 186 easyflow/map \$2 \$3 \$4 \$5;
#N canvas 0 50 640 474 sinusoidal 0;
#X obj 109 26 hsl 128 15 0 127 0 0 empty empty empty -2 -8 0 10 -262144
-1 -1 0 0;
#X floatatom 105 85 5 0 0 0 - - -, f 5;
#X floatatom 185 286 15 0 0 0 - - -, f 15;
#X obj 45 47 inlet;
#X obj 45 342 outlet;
#X obj 318 61 cnv 10 10 17 empty empty empty 20 12 0 14 -59724 -1 0
;
#X obj 329 61 r \$0-modeChange;
#X obj 329 87 list 666 \$2 \$3 \$4;
#X obj 329 109 list split 1;
#X obj 369 151 unpack f f f;
#X obj 512 111 easyflow/copyList;
#X msg 512 133 0.2 0 0;
#X obj 45 200 expr $f2*sin(2*3.14159265*$f1*$f3+$f4);
#X obj 188 337 hsl 128 15 0 127 0 0 empty empty empty -2 -8 0 10 -262144
-1 -1 0 1;
#X obj 185 305 easyflow/map 0 \$2 0 127;
#X obj 105 58 easyflow/map 0 127 0 100;
#X connect 0 0 15 0;
#X connect 1 0 12 0;
#X connect 2 0 14 0;
#X connect 3 0 12 0;
#X connect 6 0 7 0;
#X connect 7 0 8 0;
#X connect 8 1 9 0;
#X connect 8 1 10 0;
#X connect 9 0 12 1;
#X connect 9 1 12 2;
#X connect 9 2 12 3;
#X connect 10 0 11 0;
#X connect 12 0 2 0;
#X connect 12 0 4 0;
#X connect 14 0 13 0;
#X connect 15 0 1 0;
#X restore 106 216 pd sinusoidal;
#X obj 93 219 cnv 10 10 12 empty empty ● 1 5 0 15 -262144 -59724
0;
#X obj 107 18 cnv 10 10 17 empty empty empty 20 12 0 14 -245978 -1
0;
#X obj 118 18 r \$0-modeIndex;
#X floatatom 118 40 5 0 0 0 - - -, f 5;
#X obj 37 503 outlet;
#N canvas 390 131 381 323 exponential/log 0;
#X obj 34 32 inlet;
#X obj 34 160 outlet;
#X obj 106 28 cnv 10 10 17 empty empty empty 20 12 0 14 -59724 -1 0
;
#X obj 117 28 r \$0-modeChange;
#X obj 117 54 list 666 \$2 \$3 \$4;
#X obj 117 76 list split 1;
#X obj 34 118 expr pow($f1 \, $f2);
#X floatatom 157 99 5 0 0 0 - - -, f 5;
#X connect 0 0 6 0;
#X connect 3 0 4 0;
#X connect 4 0 5 0;
#X connect 5 1 7 0;
#X connect 6 0 1 0;
#X connect 7 0 6 1;
#X restore 176 256 pd exponential/log;
#N canvas 722 134 562 462 Blackman-Harris 0;
#X obj 58 25 inlet;
#X obj 58 327 outlet;
#X msg 58 167 \$1 0.35578 0.487369 0.144232 0.012604 3.14159 \$2;
#X obj 58 257 expr $f2-$f3*cos(2*$f6*$f1/($f7-1))+$f4*cos(4*$f6*$f1/($f7-1))-$f5*cos(6*$f6*$f1/($f7-1))
;
#X obj 58 202 unpack float float float float float float float;
#X obj 58 47 trigger float bang;
#X obj 222 19 cnv 10 10 17 empty \$0-color empty 20 12 0 14 -6013 -1
0;
#X obj 233 19 r \$0-blockSize;
#X floatatom 233 41 5 0 0 0 - - -, f 5;
#X obj 181 83 float;
#X obj 315 78 cnv 10 10 17 empty empty empty 20 12 0 14 -59724 -1 0
;
#X obj 326 78 r \$0-modeChange;
#X msg 326 100 1;
#X obj 58 119 pack f 4096;
#X connect 0 0 5 0;
#X connect 2 0 4 0;
#X connect 3 0 1 0;
#X connect 4 0 3 0;
#X connect 4 1 3 1;
#X connect 4 2 3 2;
#X connect 4 3 3 3;
#X connect 4 4 3 4;
#X connect 4 5 3 5;
#X connect 4 6 3 6;
#X connect 5 0 13 0;
#X connect 5 1 9 0;
#X connect 7 0 8 0;
#X connect 9 0 13 1;
#X connect 11 0 12 0;
#X connect 13 0 2 0;
#X restore 314 333 pd Blackman-Harris;
#N canvas 475 112 450 300 sinWin 0;
#X floatatom 42 171 5 0 0 0 - - -, f 5;
#X obj 42 148 expr sin($f1*2*3.14159/($f2)*0.5);
#X obj 42 50 inlet;
#X obj 42 190 outlet;
#X obj 259 93 cnv 10 10 17 empty empty empty 20 12 0 14 -59724 -1 0
;
#X obj 270 93 r \$0-modeChange;
#X msg 270 115 1;
#X text 305 114 window max X;
#X connect 0 0 3 0;
#X connect 1 0 0 0;
#X connect 2 0 1 0;
#X connect 5 0 6 0;
#X connect 6 0 1 1;
#X restore 245 293 pd sinWin;
#X obj 160 259 cnv 10 10 12 empty empty ● 1 5 0 15 -262144 -59724
0;
#X obj 229 297 cnv 10 10 12 empty empty ● 1 5 0 15 -262144 -59724
0;
#N canvas 722 134 497 200 log 0;
#X obj 58 25 inlet;
#X obj 58 139 outlet;
#X obj 58 111 expr ln($f1);
#X obj 58 56 sel 0;
#X msg 58 78 1e-011;
#X text 121 63 prevents -infinity;
#X connect 0 0 3 0;
#X connect 2 0 1 0;
#X connect 3 0 4 0;
#X connect 3 1 2 0;
#X connect 4 0 2 0;
#X restore 429 182 pd log (natural);
#N canvas 0 50 535 476 logb 0;
#X floatatom 42 371 5 0 0 0 - - -, f 5;
#X obj 42 20 inlet;
#X obj 42 390 outlet;
#X obj 168 141 cnv 10 10 17 empty empty empty 20 12 0 14 -59724 -1
0;
#X obj 179 141 r \$0-modeChange;
#X obj 42 348 expr ln($f1)/ln($f2);
#X obj 179 163 f \$2;
#X obj 42 66 sel 0;
#X msg 42 108 1e-011;
#X text 95 73 prevents -infinity;
#X obj 179 186 sel 0;
#X msg 179 228 1e-011;
#X text 232 193 prevents -infinity;
#X floatatom 179 250 10 0 0 0 - - -, f 10;
#X obj 179 269 moses 0;
#N canvas 0 50 863 514 print 0;
#X obj 38 14 inlet;
#X obj 162 201 print result is imaginary and PD does not handle imaginary
numbers. Using "1" as default, f 27;
#X msg 38 58 1;
#X obj 38 80 outlet;
#X obj 224 107 print [easyflow/curves logb] error, f 31;
#X msg 162 163 symbol using "1" as default;
#X msg 224 65 symbol negative argument;
#X text 255 24 uses special " " blank char;
#X obj 100 354 s \$0-status;
#X obj 38 36 trigger bang bang bang bang;
#X msg 100 277 label error;
#X obj 552 148 bng 15 250 50 0 empty empty empty 17 7 0 10 -262144
-1 -1;
#X msg 536 213 set \$1;
#X obj 100 299 t a b;
#X obj 536 191 easyflow/rgb 255 0 0;
#X msg 536 232;
#X msg 132 325 color -1.67117e+007 -1.67772e+007 -1.67772e+007;
#X connect 0 0 9 0;
#X connect 2 0 3 0;
#X connect 5 0 1 0;
#X connect 6 0 4 0;
#X connect 9 0 2 0;
#X connect 9 1 10 0;
#X connect 9 2 5 0;
#X connect 9 3 6 0;
#X connect 10 0 13 0;
#X connect 11 0 14 0;
#X connect 12 0 15 0;
#X connect 13 0 8 0;
#X connect 13 1 16 0;
#X connect 14 0 12 0;
#X connect 16 0 8 0;
#X restore 179 293 pd print error;
#X floatatom 179 326 10 0 0 0 - - -, f 10;
#X connect 0 0 2 0;
#X connect 1 0 7 0;
#X connect 4 0 6 0;
#X connect 5 0 0 0;
#X connect 6 0 10 0;
#X connect 7 0 8 0;
#X connect 7 1 5 0;
#X connect 8 0 5 0;
#X connect 10 0 11 0;
#X connect 10 1 13 0;
#X connect 11 0 13 0;
#X connect 13 0 14 0;
#X connect 14 0 15 0;
#X connect 14 1 16 0;
#X connect 15 0 16 0;
#X connect 16 0 5 1;
#X restore 490 217 pd logb (base);
#X obj 37 64 list prepend;
#X obj 466 221 cnv 10 10 12 empty empty ● 1 5 0 15 -262144 -59724
0;
#X obj 527 259 cnv 10 10 12 empty empty ● 1 5 0 15 -262144 -59724
0;
#N canvas 212 485 535 476 bounce 0;
#X floatatom 42 252 5 0 0 0 - - -, f 5;
#X obj 42 20 inlet;
#X obj 42 391 outlet;
#X obj 281 24 cnv 10 10 17 empty empty empty 20 12 0 14 -59724 -1 0
;
#X obj 292 24 r \$0-modeChange;
#X obj 292 46 f \$2;
#X text 338 114 final frequency;
#X obj 42 42 trigger float float;
#X floatatom 172 176 5 0 0 0 - - -, f 5;
#X obj 42 271 expr abs($f1);
#X floatatom 292 116 5 0 0 0 - - -, f 5;
#X text 340 89 initial frequency;
#X obj 42 228 expr (1-$f1)*sin(6.28318530717958647693*$f2*$f1);
#X obj 292 92 / 2;
#X obj 172 154 easyflow/map 0 1 0 666;
#X connect 0 0 9 0;
#X connect 1 0 7 0;
#X connect 4 0 5 0;
#X connect 5 0 13 0;
#X connect 7 0 12 0;
#X connect 7 1 14 0;
#X connect 8 0 12 1;
#X connect 9 0 2 0;
#X connect 10 0 14 4;
#X connect 12 0 0 0;
#X connect 13 0 10 0;
#X connect 14 0 8 0;
#X restore 551 255 pd bounce;
#X obj 37 126 route 0 1 2 3 4, f 50;
#X obj 429 126 route 5 6 7 8 9, f 44;
#X obj 429 424 t a;
#X obj 588 292 cnv 10 10 12 empty empty ● 1 5 0 15 -262144 -59724
0;
#N canvas 212 485 524 356 bounce2 0;
#X floatatom 42 212 5 0 0 0 - - -, f 5;
#X obj 42 20 inlet;
#X obj 42 291 outlet;
#X obj 281 24 cnv 10 10 17 empty empty empty 20 12 0 14 -59724 -1 0
;
#X obj 292 24 r \$0-modeChange;
#X obj 292 46 f \$2;
#X text 338 114 final frequency;
#X obj 42 231 expr abs($f1);
#X floatatom 292 116 5 0 0 0 - - -, f 5;
#X text 340 89 initial frequency;
#X obj 292 92 / 2;
#X obj 42 188 expr (1-$f1)*sin(6.28318530717958647693*$f2*$f1);
#X connect 0 0 7 0;
#X connect 1 0 11 0;
#X connect 4 0 5 0;
#X connect 5 0 10 0;
#X connect 7 0 2 0;
#X connect 8 0 11 1;
#X connect 10 0 8 0;
#X connect 11 0 0 0;
#X restore 612 288 pd bounce2;
#X obj 649 340 cnv 10 10 12 empty empty ● 1 5 0 15 -262144 -59724
0;
#N canvas 212 485 693 476 bounce3 0;
#X floatatom 42 322 5 0 0 0 - - -, f 5;
#X obj 42 20 inlet;
#X obj 42 391 outlet;
#X obj 281 24 cnv 10 10 17 empty empty empty 20 12 0 14 -59724 -1 0
;
#X obj 292 24 r \$0-modeChange;
#X obj 292 46 f \$2;
#X text 338 134 final frequency;
#X obj 42 42 trigger float float;
#X floatatom 172 186 5 0 0 0 - - -, f 5;
#X obj 42 341 expr abs($f1);
#X floatatom 292 136 5 0 0 0 - - -, f 5;
#X text 340 79 initial frequency;
#X obj 292 82 / 2;
#X obj 172 164 easyflow/map 0 1 0 666;
#X obj 42 228 expr (1-$f1)*sin(6.28318530717958647693*$f2*$f1+5.49778714378213816731)
;
#X obj 292 107 - 0.5;
#X text 339 107 compensate the "additional hit on the ground";
#X connect 0 0 9 0;
#X connect 1 0 7 0;
#X connect 4 0 5 0;
#X connect 5 0 12 0;
#X connect 7 0 14 0;
#X connect 7 1 13 0;
#X connect 8 0 14 1;
#X connect 9 0 2 0;
#X connect 10 0 13 4;
#X connect 12 0 15 0;
#X connect 13 0 8 0;
#X connect 14 0 0 0;
#X connect 15 0 10 0;
#X restore 673 336 pd bounce3;
#X connect 0 0 15 0;
#X connect 1 0 7 0;
#X connect 2 0 7 0;
#X connect 5 0 6 0;
#X connect 6 0 15 1;
#X connect 8 0 7 0;
#X connect 9 0 7 0;
#X connect 10 0 7 0;
#X connect 13 0 21 0;
#X connect 14 0 21 0;
#X connect 15 0 19 0;
#X connect 18 0 21 0;
#X connect 19 0 1 0;
#X connect 19 1 2 0;
#X connect 19 2 8 0;
#X connect 19 3 10 0;
#X connect 19 4 9 0;
#X connect 19 5 20 0;
#X connect 20 0 13 0;
#X connect 20 1 14 0;
#X connect 20 2 18 0;
#X connect 20 3 23 0;
#X connect 20 4 25 0;
#X connect 21 0 7 0;
#X connect 23 0 21 0;
#X connect 25 0 21 0;
#X restore 93 284 pd MODES;
#X obj 76 286 cnv 10 10 12 empty empty ● 1 5 0 15 -262144 -245978
0;
#X obj 60 286 cnv 10 10 12 empty empty ● 1 5 0 15 -262144 -59724
0;
#N canvas 0 50 750 492 goptool 0;
#X obj 38 203 easyflow/GOPTool;
#X obj 38 408 s \$0-this;
#X obj 38 15 r \$0-GOPToggle;
#X floatatom 38 67 5 0 0 0 - - -, f 5;
#X obj 38 86 select 1 0;
#X text 410 143 expanded;
#X msg 38 143 coords 0 1 1 -1 225.882 158.118 1 621.176 65.8824 1;
#X msg 339 409 coords 0 1 1 -1 30.1176 32 1 621.176 65.8824 1;
#X text 414 171 compact;
#X msg 56 171 coords 0 1 1 -1 30.1176 32 1 621.176 65.8824 1;
#X connect 0 0 1 0;
#X connect 0 1 7 0;
#X connect 3 0 4 0;
#X connect 4 0 6 0;
#X connect 4 1 9 0;
#X connect 6 0 0 0;
#X connect 9 0 0 0;
#X restore 628 33 pd goptool;
#X obj 624 80 tgl 14 0 \$0-GOPToggle \$0-justSoInletIsHidden empty
17 7 0 14 -262144 -1 -1 0 1;
#N canvas 0 50 1320 432 initialization 0;
#X obj 51 15 loadbang;
#X obj 237 75 list 666 \$1;
#X obj 237 97 list split 1;
#X obj 436 292 cnv 10 10 17 empty empty empty 20 12 0 14 -245978 -1
0;
#X obj 447 292 s \$0-modeIndex;
#X msg 277 180 0;
#X msg 333 180 1;
#X floatatom 447 269 5 0 0 0 - - -, f 5;
#X obj 40 78 cnv 10 10 17 empty empty empty 20 12 0 14 -59724 -1 0
;
#X obj 51 78 s \$0-modeChange;
#X msg 390 180 2;
#X obj 150 17 inlet;
#X msg 447 180 3;
#X msg 504 180 4;
#X msg 650 180 5;
#X obj 650 148 select log ln logb;
#X msg 732 181 6;
#X obj 427 148 select sinWin Blackman-Harris;
#X obj 277 148 select lin sin exp;
#X msg 800 181 7;
#X msg 872 179 8;
#X obj 800 149 select bounce bounce2 bounce3;
#X msg 922 180 9;
#X obj 51 47 trigger bang bang, f 27;
#X connect 0 0 23 0;
#X connect 1 0 2 0;
#X connect 2 1 18 0;
#X connect 5 0 7 0;
#X connect 6 0 7 0;
#X connect 7 0 4 0;
#X connect 10 0 7 0;
#X connect 11 0 23 0;
#X connect 12 0 7 0;
#X connect 13 0 7 0;
#X connect 14 0 7 0;
#X connect 15 0 14 0;
#X connect 15 1 14 0;
#X connect 15 2 16 0;
#X connect 15 3 21 0;
#X connect 16 0 7 0;
#X connect 17 0 12 0;
#X connect 17 1 13 0;
#X connect 17 2 15 0;
#X connect 18 0 5 0;
#X connect 18 1 6 0;
#X connect 18 2 10 0;
#X connect 18 3 17 0;
#X connect 19 0 7 0;
#X connect 20 0 7 0;
#X connect 21 0 19 0;
#X connect 21 1 20 0;
#X connect 21 2 22 0;
#X connect 22 0 7 0;
#X connect 23 0 9 0;
#X connect 23 1 1 0;
#X restore 339 46 pd initialization;
#X obj 710 33 namecanvas \$0-this;
#X obj 202 391 r \$0-outputOrGraph;
#X obj 173 391 cnv 11 28 17 empty empty o|g 2 9 0 14 -74771 -262144
0;
#X floatatom 202 413 5 0 0 0 - - -, f 5;
#X obj 320 48 cnv 10 10 12 empty empty ● 1 5 0 15 -262144 -159808
0;
#X obj 303 49 cnv 10 10 12 empty empty ● 1 5 0 15 -262144 -245978
0;
#X obj 287 49 cnv 10 10 12 empty empty ● 1 5 0 15 -262144 -59724
0;
#X obj 339 19 bng 15 250 50 0 empty empty empty 17 7 0 10 -262144 -1
-1;
#X obj 643 81 cnv 11 50 13 empty empty  graph 2 6 0 10 -1 -262144
0;
#X obj 624 105 hsl 111 17 0 127 0 0 \$0-doubleClick empty curves 0
9 0 12 -1 -1 -262144 0 0;
#X obj 115 564 t a b;
#X msg 147 590 color -1 -1.67772e+007 -1.67772e+007;
#X msg 115 542 label parametrization;
#X obj 115 616 s \$0-status;
#X text 291 556 Reset status on \$0-graphWindow;
#N canvas 0 50 450 300 router 0;
#X obj 47 33 inlet;
#N canvas 0 50 463 135 error 0;
#X obj 53 69 print easyflow/parametrization error. Not a float;
#X obj 53 34 inlet;
#X connect 1 0 0 0;
#X restore 156 97 pd error;
#X obj 47 129 s pd-\$0-graphWindow;
#X obj 47 55 route show close;
#X msg 47 107 vis \$1;
#X msg 47 77 1;
#X msg 101 78 0;
#X connect 0 0 3 0;
#X connect 3 0 5 0;
#X connect 3 1 6 0;
#X connect 3 2 1 0;
#X connect 4 0 2 0;
#X connect 5 0 4 0;
#X connect 6 0 4 0;
#X restore 167 81 pd router;
#X obj 620 150 r \$0-GOPToggle;
#X obj 620 172 select 0 1;
#X msg 620 194 close;
#X msg 667 194 show;
#X obj 620 225 easyflow/curves \$1 \$2 \$3 \$4 \$5 \$6 \$7 \$8 \$9
\$10;
#X text 617 278 We actually use a [curves] with same arguments to plot
the curve, f 24;
#X obj 159 244 r \$0-graphingInput;
#X obj 115 244 cnv 11 44 17 empty empty graph 2 9 0 14 -749 -262144
0;
#X connect 0 0 2 0;
#X connect 2 0 3 0;
#X connect 3 0 1 0;
#X connect 3 1 4 0;
#X connect 5 0 6 0;
#X connect 6 0 7 0;
#X connect 6 1 28 0;
#X connect 7 0 0 0;
#X connect 14 0 16 0;
#X connect 16 0 3 1;
#X connect 20 0 12 0;
#X connect 23 0 26 0;
#X connect 23 1 24 0;
#X connect 24 0 26 0;
#X connect 25 0 23 0;
#X connect 29 0 30 0;
#X connect 30 0 31 0;
#X connect 30 1 32 0;
#X connect 31 0 33 0;
#X connect 32 0 33 0;
#X connect 35 0 7 0;
#X coords 0 1 1 -1 30 32 1 621 65;
