#N canvas 326 140 770 503 10;
#X msg 27 94 coords 0 1 1 -1 111 37 1 160.863 153 1;
#X obj 163 168 tgl 14 0 \$0-GOPToggle \$0-justSoInletIsHidden empty
17 7 0 14 -262144 -1 -1 0 1;
#X obj 182 169 cnv 11 50 13 empty empty  graph 2 6 0 10 -1 -262144
0;
#X obj 534 87 r \$0-GOPToggle;
#X obj 534 109 select 0 1;
#X msg 534 131 close;
#X text 27 73 GOPTool;
#X msg 581 131 show;
#X obj 380 342 r \$0-min;
#X obj 448 342 r \$0-max;
#X floatatom 380 364 5 0 0 0 - - -, f 5;
#X floatatom 448 364 5 0 0 0 - - -, f 5;
#N canvas 0 50 321 218 loadMinMax 0;
#X obj 37 90 f \$0;
#X obj 148 90 f \$0;
#X msg 37 112 getmin \$1-min;
#X msg 148 112 getmax \$1-max;
#X obj 37 37 loadbang;
#X obj 37 154 outlet;
#X obj 123 36 cnv 10 10 17 empty empty empty 20 12 0 14 -260097 -225470
0;
#X obj 134 36 r \$0-updateMinMax;
#X connect 0 0 2 0;
#X connect 1 0 3 0;
#X connect 2 0 5 0;
#X connect 3 0 5 0;
#X connect 4 0 0 0;
#X connect 4 0 1 0;
#X connect 7 0 1 0;
#X connect 7 0 0 0;
#X restore 601 178 pd loadMinMax;
#N canvas 1167 145 433 580 router 0;
#X obj 44 35 inlet;
#X obj 76 508 outlet;
#X obj 73 266 cnv 10 10 17 empty empty empty 20 12 0 14 -225470 -225470
0;
#X obj 84 266 s \$0-outputRange;
#X obj 44 192 list split 4;
#X obj 44 234 list split 2;
#X obj 44 57 route set setGraph setgraph;
#X obj 44 83 t a b;
#X msg 76 105 symbol set;
#X obj 44 429 list prepend;
#X obj 44 451 list trim;
#X obj 103 405 cnv 10 10 12 empty \$0-cnv ❴❵ -3 5 0 18 -262144
-4160 0;
#X obj 125 403 r \$0-selector;
#X obj 54 130 cnv 10 10 12 empty \$0-cnv ❴❵ -3 5 0 18 -262144 -4160
0;
#X obj 76 128 s \$0-selector;
#X obj 184 83 t a b;
#X obj 194 130 cnv 10 10 12 empty \$0-cnv ❴❵ -3 5 0 18 -262144
-4160 0;
#X obj 216 128 s \$0-selector;
#X msg 216 105 symbol setGraph;
#X obj 33 532 cnv 10 10 17 empty empty empty 20 12 0 14 -260097 -225470
0;
#X obj 44 532 s \$0-updateMinMax;
#X obj 44 473 t b a;
#X obj 33 291 cnv 10 10 17 empty empty empty 20 12 0 14 -235975 -225470
0;
#X obj 44 291 s \$0-inputRange;
#X obj 230 385 t a;
#X connect 0 0 6 0;
#X connect 4 0 5 0;
#X connect 4 1 9 0;
#X connect 5 0 23 0;
#X connect 5 1 3 0;
#X connect 6 0 7 0;
#X connect 6 1 15 0;
#X connect 6 2 15 0;
#X connect 6 3 24 0;
#X connect 7 0 4 0;
#X connect 7 1 8 0;
#X connect 8 0 14 0;
#X connect 9 0 10 0;
#X connect 10 0 21 0;
#X connect 12 0 9 1;
#X connect 15 0 4 0;
#X connect 15 1 18 0;
#X connect 18 0 17 0;
#X connect 21 0 20 0;
#X connect 21 1 1 0;
#X connect 24 0 1 0;
#X restore 475 225 pd router;
#X obj 515 342 cnv 10 10 17 empty empty empty 20 12 0 14 -225470 -225470
0;
#X obj 526 342 r \$0-outputRange;
#X obj 526 364 unpack f f;
#X floatatom 593 385 5 0 0 0 - - -, f 5;
#X floatatom 526 386 5 0 0 0 - - -, f 5;
#X obj 350 63 inlet~;
#X obj 350 441 outlet~;
#X obj 350 399 map~ 666 666 \$3 \$4;
#X obj 350 272 curves~ \$5 \$6 \$7 \$8 \$9 \$10 \$11;
#N canvas 45 50 501 581 router 0;
#X obj 44 35 inlet;
#X obj 230 385 map \$1 \$2 0 1;
#X obj 76 508 outlet;
#X obj 73 266 cnv 10 10 17 empty empty empty 20 12 0 14 -225470 -225470
0;
#X obj 84 266 s \$0-outputRange;
#X obj 44 192 list split 4;
#X obj 44 234 list split 2;
#X obj 44 57 route set setGraph setgraph;
#X obj 44 306 unpack f f;
#X floatatom 44 328 5 0 0 0 - - -, f 5;
#X floatatom 111 329 5 0 0 0 - - -, f 5;
#X obj 44 83 t a b;
#X msg 76 105 symbol set;
#X obj 44 429 list prepend;
#X obj 44 451 list trim;
#X obj 103 405 cnv 10 10 12 empty \$0-cnv ❴❵ -3 5 0 18 -262144
-4160 0;
#X obj 125 403 r \$0-selector;
#X obj 54 130 cnv 10 10 12 empty \$0-cnv ❴❵ -3 5 0 18 -262144 -4160
0;
#X obj 76 128 s \$0-selector;
#X obj 184 83 t a b;
#X obj 194 130 cnv 10 10 12 empty \$0-cnv ❴❵ -3 5 0 18 -262144
-4160 0;
#X obj 216 128 s \$0-selector;
#X msg 216 105 symbol setGraph;
#X obj 33 532 cnv 10 10 17 empty empty empty 20 12 0 14 -260097 -225470
0;
#X obj 44 532 s \$0-updateMinMax;
#X obj 44 473 t b a;
#X obj 230 282 route float;
#X obj 100 482 cnv 10 10 12 empty \$0-cnv ❴❵ -3 5 0 18 -262144
-121998 0;
#X obj 122 480 r \$0-outlet;
#X obj 208 433 cnv 10 10 12 empty \$0-cnv ❴❵ -3 5 0 18 -262144
-121998 0;
#X obj 230 431 s \$0-outlet;
#X obj 282 313 cnv 10 10 12 empty \$0-cnv ❴❵ -3 5 0 18 -262144
-121998 0;
#X obj 304 311 s \$0-outlet;
#X text 337 385 floats are mapped;
#X text 323 232 anything that is not float or set is passed unchanged
, f 13;
#X connect 0 0 7 0;
#X connect 1 0 30 0;
#X connect 5 0 6 0;
#X connect 5 1 13 0;
#X connect 6 0 8 0;
#X connect 6 1 4 0;
#X connect 7 0 11 0;
#X connect 7 1 19 0;
#X connect 7 2 19 0;
#X connect 7 3 26 0;
#X connect 8 0 9 0;
#X connect 8 1 10 0;
#X connect 9 0 1 1;
#X connect 10 0 1 2;
#X connect 11 0 5 0;
#X connect 11 1 12 0;
#X connect 12 0 18 0;
#X connect 13 0 14 0;
#X connect 14 0 25 0;
#X connect 16 0 13 1;
#X connect 19 0 5 0;
#X connect 19 1 22 0;
#X connect 22 0 21 0;
#X connect 25 0 24 0;
#X connect 25 1 2 0;
#X connect 26 0 1 0;
#X connect 26 1 32 0;
#X connect 28 0 2 0;
#X restore 652 457 pd router;
#X obj 337 63 cnv 11 12 17 empty empty 1 2 9 0 14 -1 -262144 0;
#X obj 462 201 cnv 11 12 17 empty empty 2 2 9 0 14 -1 -262144 0;
#X obj 337 441 cnv 11 12 17 empty empty 1 2 9 0 14 -1 -262144 0;
#X obj 475 201 inlet;
#X obj 361 92 cnv 10 10 17 empty empty empty 20 12 0 14 -235975 -225470
0;
#X obj 372 114 unpack f f;
#X floatatom 439 135 5 0 0 0 - - -, f 5;
#X floatatom 372 135 5 0 0 0 - - -, f 5;
#X obj 372 92 r \$0-inputRange;
#X obj 349 157 map~ \$1 \$2 0 1;
#X connect 3 0 4 0;
#X connect 4 0 5 0;
#X connect 4 1 7 0;
#X connect 5 0 22 1;
#X connect 7 0 22 1;
#X connect 8 0 10 0;
#X connect 9 0 11 0;
#X connect 10 0 21 1;
#X connect 11 0 21 2;
#X connect 12 0 22 1;
#X connect 13 0 22 1;
#X connect 15 0 16 0;
#X connect 16 0 18 0;
#X connect 16 1 17 0;
#X connect 17 0 21 4;
#X connect 18 0 21 3;
#X connect 19 0 33 0;
#X connect 21 0 20 0;
#X connect 22 0 21 0;
#X connect 27 0 13 0;
#X connect 29 0 31 0;
#X connect 29 1 30 0;
#X connect 30 0 33 2;
#X connect 31 0 33 1;
#X connect 32 0 29 0;
#X connect 33 0 22 0;
#X coords 0 1 1 -1 75 32 1 160 153;
