#N canvas 744 210 692 375 10;
#N canvas 9 50 593 404 Windows 0;
#X obj 59 137 hsl 128 15 0 1 0 0 empty empty empty -2 -8 0 10 -262144
-1 -1 12700 0;
#X floatatom 56 157 5 0 0 0 - - -, f 5;
#X obj 56 113 line 10;
#X floatatom 56 245 10 0 0 0 - - -, f 10;
#X obj 259 342 hsl 128 15 0 1 0 0 empty empty empty -2 -8 0 10 -262144
-1 -1 0 1;
#X floatatom 256 245 10 0 0 0 - - -, f 10;
#X obj 259 318 hsl 128 15 0 1 0 0 empty empty empty -2 -8 0 10 -262144
-1 -1 0 1;
#X msg 56 91 0 \, 1 2000;
#X obj 56 176 trigger float float, f 29;
#X text 398 340 sinWin;
#X text 398 316 Blackman-Harris;
#X text 175 57 Syntax = [sinWin];
#X text 175 72 Syntax = [Blackman-Harris];
#X obj 256 203 curves Blackman-Harris;
#X obj 56 203 curves sinWin;
#X connect 0 0 1 0;
#X connect 1 0 8 0;
#X connect 2 0 0 0;
#X connect 3 0 4 0;
#X connect 5 0 6 0;
#X connect 7 0 2 0;
#X connect 8 0 14 0;
#X connect 8 1 13 0;
#X connect 13 0 5 0;
#X connect 14 0 3 0;
#X restore 487 151 pd Windows;
#N canvas 0 50 703 469 Exponentials 0;
#X text 176 23 Syntax = [exp exponent];
#X obj 40 179 hsl 128 15 0 1 0 0 empty empty empty -2 -8 0 10 -262144
-1 -1 0 0;
#X floatatom 37 199 5 0 0 0 - - -, f 5;
#X floatatom 37 264 5 0 0 0 - - -, f 5;
#X obj 428 180 hsl 128 15 0 1 0 0 empty empty empty -2 -8 0 10 -262144
-1 -1 0 0;
#X floatatom 425 200 5 0 0 0 - - -, f 5;
#X floatatom 425 264 5 0 0 0 - - -, f 5;
#X obj 222 180 hsl 128 15 0 1 0 0 empty empty empty -2 -8 0 10 -262144
-1 -1 0 0;
#X floatatom 219 200 5 0 0 0 - - -, f 5;
#X obj 219 86 line 10;
#X obj 222 330 hsl 128 15 0 1 0 0 empty empty empty -2 -8 0 10 -262144
-1 -1 0 1;
#X obj 222 351 hsl 128 15 0 1 0 0 empty empty empty -2 -8 0 10 -262144
-1 -1 0 1;
#X floatatom 219 263 5 0 0 0 - - -, f 5;
#X obj 222 372 hsl 128 15 0 1 0 0 empty empty empty -2 -8 0 10 -262144
-1 -1 0 1;
#X obj 219 301 t f;
#X text 364 349 0.2;
#X text 364 371 3;
#X msg 219 54 0 \, 1 2000;
#X text 363 328 0.4;
#X obj 219 221 curves exp 0.2;
#X obj 37 222 curves exp 0.4;
#X obj 425 221 curves exp 3;
#X connect 1 0 2 0;
#X connect 2 0 20 0;
#X connect 3 0 10 0;
#X connect 4 0 5 0;
#X connect 5 0 21 0;
#X connect 6 0 14 0;
#X connect 7 0 8 0;
#X connect 8 0 19 0;
#X connect 9 0 1 0;
#X connect 9 0 7 0;
#X connect 9 0 4 0;
#X connect 12 0 11 0;
#X connect 14 0 13 0;
#X connect 17 0 9 0;
#X connect 19 0 12 0;
#X connect 20 0 3 0;
#X connect 21 0 6 0;
#X restore 487 84 pd Exponentials;
#N canvas 0 50 755 594 rangeConversion 0;
#X obj 45 232 hsl 128 15 0 127 0 0 empty empty empty -2 -8 0 10 -262144
-1 -1 0 0;
#X floatatom 42 252 5 0 0 0 - - -, f 5;
#X obj 42 208 line 10;
#X msg 42 186 0 \, 127 2000;
#X floatatom 42 399 0 0 0 0 - - -;
#X obj 45 428 hsl 128 15 0 127 0 0 empty empty empty -2 -8 0 10 -262144
-1 -1 0 1;
#X text 188 230 from 0 to 127;
#X obj 405 222 hsl 128 15 0 127 0 0 empty empty empty -2 -8 0 10 -262144
-1 -1 0 0;
#X obj 402 192 line 10;
#X msg 402 170 0 \, 127 2000;
#X floatatom 402 409 5 0 0 0 - - -, f 5;
#X obj 405 428 hsl 128 15 0 127 0 0 empty empty empty -2 -8 0 10 -262144
-1 -1 0 1;
#X text 546 220 from 0 to 127;
#X text 544 426 from 0 to 127;
#X text 254 426 2048;
#X text 282 426 383;
#X text 185 426 from 0 to;
#X obj 402 251 map 0 127 0 1;
#X obj 402 380 map 0 1 0 127;
#X obj 405 357 hsl 128 15 0 1 0 0 empty empty empty -2 -8 0 10 -262144
-1 -1 0 1;
#X text 543 357 from 0 to 1;
#X obj 405 277 hsl 128 15 0 1 0 0 empty empty empty -2 -8 0 10 -262144
-1 -1 0 1;
#X text 543 277 from 0 to 1;
#X text 123 481 You can use [curves lin] instead of [easyflow/map]
but map is more lightweight because it contains only linear logic!
, f 66;
#X text 122 523 You could also substitute [map 0 127 0 1] for [/ 127]
and [map 0 1 0 127 for [*127];
#X text 53 21 You can use [curvesmap] for that purpose. But if you
want to know the math it is really simple:;
#X text 48 71 By default all ranges expects input from 0 to 1 If you
need to use input in a different range you can simply convert it to
0:1 then convert it back to the original range.;
#X text 51 118 ( [curves lin] is the only exception in the sense that
it does not necessarily expects input between 0 and 1.), f 66;
#X obj 42 316 curves exp 3;
#X obj 402 306 curves exp 3;
#X connect 0 0 1 0;
#X connect 1 0 28 0;
#X connect 2 0 0 0;
#X connect 3 0 2 0;
#X connect 4 0 5 0;
#X connect 7 0 17 0;
#X connect 8 0 7 0;
#X connect 9 0 8 0;
#X connect 10 0 11 0;
#X connect 17 0 21 0;
#X connect 18 0 10 0;
#X connect 19 0 18 0;
#X connect 21 0 29 0;
#X connect 28 0 4 0;
#X connect 29 0 19 0;
#X restore 487 215 pd rangeConversion;
#X obj 50 129 hsl 128 15 0 1 0 0 empty empty empty -2 -8 0 10 -262144
-1 -1 0 0;
#X floatatom 47 149 5 0 0 0 - - -, f 5;
#X floatatom 47 210 5 0 0 0 - - -, f 5;
#X obj 47 103 line 10;
#X obj 50 232 hsl 128 15 0 1 0 0 empty empty empty -2 -8 0 10 -262144
-1 -1 0 1;
#X msg 47 71 0 \, 1 2000;
#X obj 465 285 easyflow/easyflow-info;
#N canvas 0 50 761 666 bounce 0;
#X obj 250 159 hsl 128 15 0 1 0 0 empty empty empty -2 -8 0 10 -262144
-1 -1 0 0;
#X obj 247 133 line 10;
#X obj 50 272 hsl 128 15 0 1 0 0 empty empty empty -2 -8 0 10 -262144
-1 -1 0 1;
#X obj 250 272 hsl 128 15 0 1 0 0 empty empty empty -2 -8 0 10 -262144
-1 -1 0 1;
#X obj 440 272 hsl 128 15 0 1 0 0 empty empty empty -2 -8 0 10 -262144
-1 -1 0 1;
#X msg 247 101 0 \, 1 2000;
#X obj 275 397 hsl 128 15 0 1 0 0 empty empty empty -2 -8 0 10 -262144
-1 -1 0 0;
#X obj 272 371 line 10;
#X obj 75 510 hsl 128 15 0 1 0 0 empty empty empty -2 -8 0 10 -262144
-1 -1 0 1;
#X obj 275 510 hsl 128 15 0 1 0 0 empty empty empty -2 -8 0 10 -262144
-1 -1 0 1;
#X obj 485 510 hsl 128 15 0 1 0 0 empty empty empty -2 -8 0 10 -262144
-1 -1 0 1;
#X msg 272 339 0 \, 1 2000;
#X text 72 536 starts slow ends fast, f 11;
#X text 290 544 constant speed;
#X text 512 536 starts slow ends fast jump on start, f 13;
#X text 100 22 Syntax: [bounce n] where n is the number of "hits on
the grounds";
#X text 98 60 That is equivalent ot the times where f(x) = 0 AND x
!= 0;
#X obj 272 450 curves bounce2 6;
#X obj 482 449 curves bounce3 6;
#X obj 437 211 curves bounce 10;
#X obj 72 451 curves bounce 6;
#X obj 47 212 curves bounce 4;
#X obj 247 212 curves bounce 6;
#X connect 0 0 19 0;
#X connect 0 0 21 0;
#X connect 0 0 22 0;
#X connect 1 0 0 0;
#X connect 5 0 1 0;
#X connect 6 0 17 0;
#X connect 6 0 18 0;
#X connect 6 0 20 0;
#X connect 7 0 6 0;
#X connect 11 0 7 0;
#X connect 17 0 9 0;
#X connect 18 0 10 0;
#X connect 19 0 4 0;
#X connect 20 0 8 0;
#X connect 21 0 2 0;
#X connect 22 0 3 0;
#X restore 487 173 pd bounce;
#N canvas 0 50 564 346 Sinusoidals 0;
#X text 56 32 Syntax = [sin amp freq phase];
#X obj 150 109 hsl 128 15 0 1 0 0 empty empty empty -2 -8 0 10 -262144
-1 -1 12700 0;
#X floatatom 147 129 5 0 0 0 - - -, f 5;
#X floatatom 57 226 10 0 0 0 - - -, f 10;
#X obj 60 247 hsl 128 15 -5 5 0 0 empty empty empty -2 -8 0 10 -262144
-1 -1 6350 1;
#X obj 147 83 line 10;
#X msg 147 61 0 \, 1 2000;
#X floatatom 267 226 10 0 0 0 - - -, f 10;
#X obj 270 247 hsl 128 15 -2 2 0 0 empty empty empty -2 -8 0 10 -262144
-1 -1 12700 1;
#X obj 57 181 curves sin 5 1 0;
#X obj 267 181 curves sin 2 3 1.5708;
#X connect 1 0 2 0;
#X connect 2 0 9 0;
#X connect 2 0 10 0;
#X connect 3 0 4 0;
#X connect 5 0 1 0;
#X connect 6 0 5 0;
#X connect 7 0 8 0;
#X connect 9 0 3 0;
#X connect 10 0 7 0;
#X restore 487 128 pd Sinusoidals;
#N canvas 422 352 938 528 Log 0;
#X obj 40 179 hsl 128 15 0 1 0 0 empty empty empty -2 -8 0 10 -262144
-1 -1 0 0;
#X floatatom 37 199 5 0 0 0 - - -, f 5;
#X floatatom 37 264 5 0 0 0 - - -, f 5;
#X obj 428 180 hsl 128 15 0 1 0 0 empty empty empty -2 -8 0 10 -262144
-1 -1 0 0;
#X floatatom 425 200 5 0 0 0 - - -, f 5;
#X floatatom 425 264 5 0 0 0 - - -, f 5;
#X obj 222 180 hsl 128 15 0 1 0 0 empty empty empty -2 -8 0 10 -262144
-1 -1 0 0;
#X floatatom 219 200 5 0 0 0 - - -, f 5;
#X obj 219 86 line 10;
#X obj 222 330 hsl 128 15 -20 0 0 0 empty \$0-ln empty -2 -8 0 10 -262144
-1 -1 0 1;
#X obj 222 350 hsl 128 15 -20 0 0 0 empty \$0-log empty -2 -8 0 10
-262144 -1 -1 0 1;
#X floatatom 219 263 5 0 0 0 - - -, f 5;
#X obj 222 372 hsl 128 15 -20 0 0 0 empty \$0-logb10 empty -2 -8 0
10 -262144 -1 -1 0 1;
#X obj 648 180 hsl 128 15 0 1 0 0 empty empty empty -2 -8 0 10 -262144
-1 -1 0 0;
#X floatatom 645 200 5 0 0 0 - - -, f 5;
#X floatatom 645 264 5 0 0 0 - - -, f 5;
#X obj 222 394 hsl 128 15 -20 0 0 0 empty \$0-logb2 empty -2 -8 0 10
-262144 -1 -1 0 1;
#X text 363 328 ln;
#X text 364 349 log;
#X text 364 371 logb10;
#X text 364 394 logb 2;
#X obj 37 283 s \$0-ln;
#X obj 219 282 s \$0-log;
#X obj 425 283 s \$0-logb10;
#X obj 645 283 s \$0-logb2;
#X text 365 12 Syntax = [ln];
#X text 469 11 = [log];
#X text 365 32 Syntax = [logb base;
#X msg 219 54 0 \, 1 3000;
#X text 403 334 (both are natural log);
#X obj 219 221 curves log;
#X obj 37 222 curves ln;
#X obj 645 221 curves logb 2;
#X obj 425 221 curves logb 10;
#X connect 0 0 1 0;
#X connect 1 0 31 0;
#X connect 2 0 21 0;
#X connect 3 0 4 0;
#X connect 4 0 33 0;
#X connect 5 0 23 0;
#X connect 6 0 7 0;
#X connect 7 0 30 0;
#X connect 8 0 0 0;
#X connect 8 0 6 0;
#X connect 8 0 3 0;
#X connect 8 0 13 0;
#X connect 11 0 22 0;
#X connect 13 0 14 0;
#X connect 14 0 32 0;
#X connect 15 0 24 0;
#X connect 28 0 8 0;
#X connect 30 0 11 0;
#X connect 31 0 2 0;
#X connect 32 0 15 0;
#X connect 33 0 5 0;
#X restore 487 105 pd Log;
#N canvas 0 50 562 439 Linear 0;
#X text 189 108 0 to 1;
#X text 188 213 -100 to 100;
#X text 33 37 Syntax = [lin range1_min range1_max range2_min range2_max]
;
#X obj 46 110 hsl 128 15 0 1 0 0 empty empty empty -2 -8 0 10 -262144
-1 -1 0 0;
#X floatatom 43 130 5 0 0 0 - - -, f 5;
#X obj 43 86 line 10;
#X floatatom 43 195 5 0 0 0 - - -, f 5;
#X obj 46 214 hsl 128 15 -100 100 0 0 empty empty empty -2 -8 0 10
-262144 -1 -1 0 1;
#X msg 43 64 0 \, 1 2000;
#X text 47 344 this one is exactly analogous to [easyflow/map] still
it provides the ability to change between modes so it might be useful.
That said if you know you are only using the linear function then you
should use map which is more lightweight;
#X obj 43 153 curves lin 0 1 -100 100;
#X connect 3 0 4 0;
#X connect 4 0 10 0;
#X connect 5 0 3 0;
#X connect 6 0 7 0;
#X connect 8 0 5 0;
#X connect 10 0 6 0;
#X restore 488 60 pd Linear;
#X text 38 281 see also:;
#N canvas 281 213 872 463 alternating 0;
#X obj 50 249 hsl 128 15 0 1 0 0 empty empty empty -2 -8 0 10 -262144
-1 -1 0 0;
#X floatatom 47 269 5 0 0 0 - - -, f 5;
#X floatatom 47 380 5 0 0 0 - - -, f 5;
#X obj 47 223 line 10;
#X obj 50 402 hsl 128 15 -1 1 0 0 empty empty empty -2 -8 0 10 -262144
-1 -1 0 1;
#X obj 47 65 tgl 15 0 empty empty empty 17 7 0 10 -262144 -1 -1 0 1
;
#X obj 47 109 easyflow/counter;
#X obj 47 153 trigger bang float;
#N canvas 0 50 467 352 modes 0;
#X msg 78 188 set Blackman-Harris;
#X msg 103 164 set bounce 6;
#X msg 53 215 set exp 0.3;
#X obj 53 15 inlet;
#X msg 153 117 set logb 3;
#X obj 53 60 select 0 1 2 3 4 5, f 22;
#X obj 157 282 outlet;
#X msg 178 87 set sin 1 1 0;
#X msg 128 140 set lin 0 1 -1 1;
#X connect 0 0 6 0;
#X connect 1 0 6 0;
#X connect 2 0 6 0;
#X connect 3 0 5 0;
#X connect 4 0 6 0;
#X connect 5 0 2 0;
#X connect 5 1 0 0;
#X connect 5 2 1 0;
#X connect 5 3 8 0;
#X connect 5 4 4 0;
#X connect 5 5 7 0;
#X connect 7 0 6 0;
#X connect 8 0 6 0;
#X restore 207 248 pd modes;
#X obj 47 131 % 6;
#X text 104 419 0;
#X text 173 419 1;
#X text 37 419 -1;
#X msg 421 152 set Blackman-Harris;
#X msg 438 188 setGraph Blackman-Harris;
#X msg 448 216 setGraph log 4;
#X obj 207 400 easyflow/printHere -s;
#X obj 47 87 metro 3000;
#X msg 47 191 0 \, 1 3000;
#X text 73 60 <- init;
#X text 46 20 You can use set messages to change between curves!;
#X text 417 73 Please note that set does NOT updates the visualization.
That design ensures maximum performance when needed. If you want to
update the visualization after changing the curve then use setGraph
;
#X obj 47 342 curves exp 0.3;
#X obj 421 252 curves exp 0.3;
#X connect 0 0 1 0;
#X connect 1 0 22 0;
#X connect 2 0 4 0;
#X connect 3 0 0 0;
#X connect 5 0 17 0;
#X connect 6 0 9 0;
#X connect 7 0 18 0;
#X connect 7 1 8 0;
#X connect 8 0 16 0;
#X connect 8 0 22 0;
#X connect 9 0 7 0;
#X connect 13 0 23 0;
#X connect 14 0 23 0;
#X connect 15 0 23 0;
#X connect 17 0 6 0;
#X connect 18 0 3 0;
#X connect 22 0 2 0;
#X restore 330 121 pd alternating;
#X text 47 15 [curves] is an abstraction to converting between different
curves. You can use a single [curves] object to alternate between different
curves;
#X obj 201 274 curvesmap;
#X text 45 322 signals:;
#X obj 121 314 curves~;
#X obj 47 172 curves exp 0.3;
#X obj 201 314 curvesmap~;
#X connect 3 0 4 0;
#X connect 4 0 20 0;
#X connect 5 0 7 0;
#X connect 6 0 3 0;
#X connect 8 0 6 0;
#X connect 20 0 5 0;
