#N canvas 339 365 955 461 10;
#X obj 76 86 cnv 10 10 12 empty empty ● 1 5 0 15 -262144 -245978
0;
#X obj 60 86 cnv 10 10 12 empty empty ● 1 5 0 15 -262144 -59724 0
;
#X obj 624 80 tgl 14 0 \$0-GOPToggle \$0-justSoInletIsHidden empty
17 7 0 14 -262144 -1 -1 0 1;
#X obj 643 81 cnv 11 50 13 empty empty  graph 2 6 0 10 -1 -262144
0;
#X obj 65 334 t a b;
#X msg 97 360 color -1 -1.67772e+007 -1.67772e+007;
#X msg 65 312 label parametrization;
#X obj 65 386 s \$0-status;
#X text 241 306 Reset status on \$0-graphWindow;
#N canvas 207 438 434 191 initialization 0;
#X obj 51 15 loadbang;
#X obj 167 74 list 666 \$1;
#X obj 167 96 list split 1;
#X obj 153 20 inlet;
#X obj 196 127 cnv 10 10 17 empty empty empty 20 12 0 14 -169502 -1
0;
#X obj 207 127 s \$0-modeSelector;
#X obj 40 83 cnv 10 10 17 empty empty empty 20 12 0 14 -59724 -1 0
;
#X obj 51 83 s \$0-loadArgs;
#X obj 51 47 trigger bang bang;
#X connect 0 0 8 0;
#X connect 1 0 2 0;
#X connect 2 1 5 0;
#X connect 3 0 8 0;
#X connect 8 0 7 0;
#X connect 8 1 1 0;
#X restore 94 202 pd initialization;
#X obj 76 205 cnv 10 10 12 empty empty ● 1 5 0 15 -262144 -245978
0;
#X obj 75 239 cnv 10 10 12 empty empty ● 1 5 0 15 -262144 -59724
0;
#X obj 94 175 bng 15 250 50 0 empty empty empty 17 7 0 10 -262144 -1
-1;
#X obj 80 33 cnv 11 12 17 empty empty 1 2 9 0 14 -1 -262144 0;
#X obj 80 134 cnv 11 12 17 empty empty 1 2 9 0 14 -1 -262144 0;
#N canvas 0 50 938 381 mode 0;
#X obj 238 253 cnv 10 10 17 empty empty empty 20 12 0 14 -245978 -1
0;
#X obj 249 253 s \$0-modeIndex;
#X obj 452 109 select log ln logb;
#X obj 229 109 select sinWin Blackman-Harris;
#X obj 79 109 select lin sin exp;
#X obj 602 110 select bounce bounce2 bounce3;
#X obj 68 68 cnv 10 10 17 empty empty empty 20 12 0 14 -169502 -1 0
;
#X obj 79 68 r \$0-modeSelector;
#X msg 79 141 0 666;
#X msg 135 141 1 666;
#X msg 192 141 2 666;
#X msg 249 141 3 666;
#X msg 306 141 4 666;
#X msg 452 141 5 0;
#X msg 534 142 5 1;
#X msg 602 142 5 2;
#X msg 668 141 5 3;
#X msg 735 141 5 4;
#X connect 2 0 13 0;
#X connect 2 1 13 0;
#X connect 2 2 14 0;
#X connect 2 3 5 0;
#X connect 3 0 11 0;
#X connect 3 1 12 0;
#X connect 3 2 2 0;
#X connect 4 0 8 0;
#X connect 4 1 9 0;
#X connect 4 2 10 0;
#X connect 4 3 3 0;
#X connect 5 0 15 0;
#X connect 5 1 16 0;
#X connect 5 2 17 0;
#X connect 7 0 4 0;
#X connect 8 0 1 0;
#X connect 9 0 1 0;
#X connect 10 0 1 0;
#X connect 11 0 1 0;
#X connect 12 0 1 0;
#X connect 13 0 1 0;
#X connect 14 0 1 0;
#X connect 15 0 1 0;
#X connect 16 0 1 0;
#X connect 17 0 1 0;
#X restore 93 236 pd mode selector;
#X obj 63 239 cnv 10 10 12 empty empty ● 1 5 0 15 -262144 -169502
0;
#X obj 63 205 cnv 10 10 12 empty empty ● 1 5 0 15 -262144 -169502
0;
#X obj 620 140 r \$0-GOPToggle;
#X obj 620 172 select 0 1;
#X msg 620 194 close;
#X msg 667 194 show;
#X text 617 308 We actually use a [curves] with same arguments to plot
the curve, f 24;
#N canvas 41 485 748 457 MODES~ 0;
#X obj 57 156 cnv 10 10 12 empty empty ● 1 5 0 15 -262144 -59724
0;
#X obj 86 177 cnv 10 10 12 empty empty ● 1 5 0 15 -262144 -59724
0;
#X obj 119 204 cnv 10 10 12 empty empty ● 1 5 0 15 -262144 -59724
0;
#X obj 445 168 cnv 10 10 12 empty empty ● 1 5 0 15 -262144 -59724
0;
#X obj 482 205 cnv 10 10 12 empty empty ● 1 5 0 15 -262144 -59724
0;
#X obj 516 261 cnv 10 10 12 empty empty ● 1 5 0 15 -262144 -59724
0;
#X obj 542 299 cnv 10 10 12 empty empty ● 1 5 0 15 -262144 -59724
0;
#X obj 37 22 inlet~;
#X obj 37 393 outlet~;
#N canvas 866 231 616 407 lin~ 0;
#X obj 122 43 cnv 11 12 17 empty empty 1 2 9 0 14 -258081 -262144 0
;
#X obj 221 43 cnv 11 12 17 empty empty 2 2 9 0 14 -258081 -262144 0
;
#X obj 322 43 cnv 11 12 17 empty empty 3 2 9 0 14 -258081 -262144 0
;
#X obj 135 43 r \$0-arg1;
#X obj 234 43 r \$0-arg2;
#X obj 335 43 r \$0-arg3;
#X obj 422 43 cnv 11 12 17 empty empty 4 2 9 0 14 -258081 -262144 0
;
#X obj 435 43 r \$0-arg4;
#X msg 209 110 clear;
#X obj 229 170 arrayList;
#X obj 135 85 trigger f b;
#X obj 435 65 t b f;
#X msg 435 117 getList;
#X obj 229 192 unpack f f f f;
#X obj 45 245 easyflow/map~ \$2 \$3 \$4 \$5;
#X obj 45 47 inlet~;
#X obj 45 362 outlet~;
#X obj 116 284 cnv 10 10 17 empty empty empty 20 12 0 14 -245978 -1
0;
#X obj 127 284 r \$0-modeIndex;
#X obj 45 317 spigot~;
#X obj 127 306 unpack f;
#X obj 127 328 == 0;
#X connect 3 0 10 0;
#X connect 4 0 9 0;
#X connect 5 0 9 0;
#X connect 7 0 11 0;
#X connect 8 0 9 0;
#X connect 9 0 13 0;
#X connect 10 0 9 0;
#X connect 10 1 8 0;
#X connect 11 0 12 0;
#X connect 11 1 9 0;
#X connect 12 0 9 0;
#X connect 13 0 14 1;
#X connect 13 1 14 2;
#X connect 13 2 14 3;
#X connect 13 3 14 4;
#X connect 14 0 19 0;
#X connect 15 0 14 0;
#X connect 18 0 20 0;
#X connect 19 0 16 0;
#X connect 20 0 21 0;
#X connect 21 0 19 2;
#X restore 37 127 pd lin~;
#X obj 191 16 cnv 10 10 17 empty empty empty 20 12 0 14 -245978 -1
0;
#X obj 202 16 r \$0-modeIndex;
#N canvas 0 50 664 396 sinusoidal~ 0;
#X obj 129 59 cnv 10 10 17 empty empty empty 20 12 0 14 -59724 -1 0
;
#X obj 140 85 list 666 \$2 \$3 \$4;
#X obj 140 107 list split 1;
#X obj 180 179 unpack f f f;
#X obj 315 43 cnv 11 12 17 empty empty 1 2 9 0 14 -258081 -262144 0
;
#X obj 409 43 cnv 11 12 17 empty empty 2 2 9 0 14 -258081 -262144 0
;
#X obj 496 43 cnv 11 12 17 empty empty 3 2 9 0 14 -258081 -262144 0
;
#X obj 328 43 r \$0-arg1;
#X obj 422 43 r \$0-arg2;
#X obj 509 43 r \$0-arg3;
#X msg 402 110 clear;
#X obj 422 170 arrayList;
#X obj 328 85 trigger f b;
#X obj 509 67 t b f;
#X msg 509 119 getList;
#X obj 140 59 r \$0-loadArgs;
#X floatatom 180 221 5 0 0 0 - - -, f 5;
#X floatatom 220 204 5 0 0 0 - - -, f 5;
#X floatatom 261 221 5 0 0 0 - - -, f 5;
#X obj 45 47 inlet~;
#X obj 45 250 expr~ $f2*sin(2*3.14159265*$v1*$f3+$f4);
#X obj 45 322 outlet~;
#X obj 126 281 cnv 10 10 17 empty empty empty 20 12 0 14 -245978 -1
0;
#X obj 137 281 r \$0-modeIndex;
#X obj 46 290 spigot~;
#X obj 137 303 unpack f;
#X obj 137 325 == 1;
#X connect 1 0 2 0;
#X connect 2 1 3 0;
#X connect 3 0 16 0;
#X connect 3 1 17 0;
#X connect 3 2 18 0;
#X connect 7 0 12 0;
#X connect 8 0 11 0;
#X connect 9 0 13 0;
#X connect 10 0 11 0;
#X connect 11 0 3 0;
#X connect 12 0 11 0;
#X connect 12 1 10 0;
#X connect 13 0 14 0;
#X connect 13 1 11 0;
#X connect 14 0 11 0;
#X connect 15 0 1 0;
#X connect 16 0 20 1;
#X connect 17 0 20 2;
#X connect 18 0 20 3;
#X connect 19 0 20 0;
#X connect 20 0 24 0;
#X connect 23 0 25 0;
#X connect 24 0 21 0;
#X connect 25 0 26 0;
#X connect 26 0 24 2;
#X restore 70 153 pd sinusoidal~;
#N canvas 390 131 373 243 exponential/log~ 0;
#X obj 106 28 cnv 10 10 17 empty empty empty 20 12 0 14 -59724 -1 0
;
#X obj 117 54 list 666 \$2 \$3 \$4;
#X obj 117 76 list split 1;
#X floatatom 157 109 5 0 0 0 - - -, f 5;
#X obj 227 77 cnv 11 12 17 empty empty 1 2 9 0 14 -258081 -262144 0
;
#X obj 240 77 r \$0-arg1;
#X obj 117 28 r \$0-loadArgs;
#X obj 34 32 inlet~;
#X obj 34 209 outlet~;
#X obj 34 128 expr~ pow($v1 \, $f2);
#X obj 113 155 cnv 10 10 17 empty empty empty 20 12 0 14 -245978 -1
0;
#X obj 124 155 r \$0-modeIndex;
#X obj 35 179 spigot~;
#X obj 124 177 unpack f;
#X obj 124 199 == 2;
#X connect 1 0 2 0;
#X connect 2 1 3 0;
#X connect 3 0 9 1;
#X connect 5 0 3 0;
#X connect 6 0 1 0;
#X connect 7 0 9 0;
#X connect 9 0 12 0;
#X connect 11 0 13 0;
#X connect 12 0 8 0;
#X connect 13 0 14 0;
#X connect 14 0 12 2;
#X restore 102 174 pd exponential/log~;
#X obj 202 38 unpack f f;
#N canvas 475 112 449 238 sinWin~ 0;
#X obj 261 45 cnv 10 10 17 empty empty empty 20 12 0 14 -59724 -1 0
;
#X msg 272 67 1;
#X text 307 66 window max X;
#X obj 272 45 r \$0-loadArgs;
#X obj 37 37 inlet~;
#X obj 37 207 outlet~;
#X obj 37 95 expr~ sin($v1*2*3.14159/($f2)*0.5);
#X obj 109 126 cnv 10 10 17 empty empty empty 20 12 0 14 -245978 -1
0;
#X obj 120 126 r \$0-modeIndex;
#X obj 38 159 spigot~;
#X obj 120 148 unpack f;
#X obj 120 170 == 3;
#X connect 1 0 6 1;
#X connect 3 0 1 0;
#X connect 4 0 6 0;
#X connect 6 0 9 0;
#X connect 8 0 10 0;
#X connect 9 0 5 0;
#X connect 10 0 11 0;
#X connect 11 0 9 2;
#X restore 135 200 pd sinWin~;
#N canvas 722 134 527 333 Blackman-Harris~ 0;
#X obj 58 25 inlet~;
#X obj 58 269 outlet~;
#X obj 127 23 loadbang;
#X msg 127 59 0.35578 0.487369 0.144232 0.012604 3.14159 0;
#X obj 127 88 unpack float float float float float float;
#X obj 58 124 expr~ $f2-$f3*cos(2*$f6*$v1/($f7-1))+$f4*cos(4*$f6*$v1/($f7-1))-$f5*cos(6*$f6*$v1/($f7-1))
;
#X obj 130 177 cnv 10 10 17 empty empty empty 20 12 0 14 -245978 -1
0;
#X obj 141 177 r \$0-modeIndex;
#X obj 59 210 spigot~;
#X obj 141 199 unpack f;
#X obj 141 221 == 4;
#X connect 0 0 5 0;
#X connect 2 0 3 0;
#X connect 3 0 4 0;
#X connect 4 0 5 1;
#X connect 4 1 5 2;
#X connect 4 2 5 3;
#X connect 4 3 5 4;
#X connect 4 4 5 5;
#X connect 4 5 5 6;
#X connect 5 0 8 0;
#X connect 7 0 9 0;
#X connect 8 0 1 0;
#X connect 9 0 10 0;
#X connect 10 0 8 2;
#X restore 170 227 pd Blackman-Harris~;
#X obj 37 72 easyflow/switch6~, f 24;
#X obj 429 324 +~ 0;
#X obj 429 76 switch5~, f 20;
#N canvas 722 134 484 280 log~ 0;
#X text 282 56 prevents -infinity;
#X obj 58 25 inlet~;
#X obj 58 91 expr~ ln($v1);
#X obj 58 56 expr~ if($v1==0 \, 1e-011 \, $v1);
#X obj 58 189 outlet~;
#X obj 130 116 cnv 10 10 17 empty empty empty 20 12 0 14 -245978 -1
0;
#X obj 141 116 r \$0-modeIndex;
#X obj 59 149 spigot~;
#X obj 141 138 unpack f f;
#X obj 141 160 == 5;
#X obj 208 161 == 0;
#X obj 141 182 &&;
#X connect 1 0 3 0;
#X connect 2 0 7 0;
#X connect 3 0 2 0;
#X connect 6 0 8 0;
#X connect 7 0 4 0;
#X connect 8 0 9 0;
#X connect 8 1 10 0;
#X connect 9 0 11 0;
#X connect 10 0 11 1;
#X connect 11 0 7 2;
#X restore 429 132 pd log~ (natural);
#N canvas 0 50 535 476 logb~ 0;
#X obj 168 111 cnv 10 10 17 empty empty empty 20 12 0 14 -59724 -1
0;
#X obj 179 133 f \$2;
#X text 263 66 prevents -infinity;
#X obj 179 166 sel 0;
#X msg 179 208 1e-011;
#X text 232 173 prevents -infinity;
#X floatatom 179 230 10 0 0 0 - - -, f 10;
#X obj 179 249 moses 0;
#N canvas 0 50 863 514 print 0;
#X obj 38 14 inlet;
#X obj 162 201 print result is imaginary and PD does not handle imaginary
numbers. Using "1" as default, f 27;
#X msg 38 58 1;
#X obj 38 80 outlet;
#X obj 224 107 print [easyflow/curves logb] error, f 31;
#X msg 162 163 symbol using "1" as default;
#X msg 224 65 symbol negative argument;
#X text 255 24 uses special " " blank char;
#X obj 100 354 s \$0-status;
#X obj 38 36 trigger bang bang bang bang;
#X msg 100 277 label error;
#X obj 552 148 bng 15 250 50 0 empty empty empty 17 7 0 10 -262144
-1 -1;
#X msg 536 213 set \$1;
#X obj 100 299 t a b;
#X obj 536 191 easyflow/rgb 255 0 0;
#X msg 536 232;
#X msg 132 325 color -1.67117e+007 -1.67772e+007 -1.67772e+007;
#X connect 0 0 9 0;
#X connect 2 0 3 0;
#X connect 5 0 1 0;
#X connect 6 0 4 0;
#X connect 9 0 2 0;
#X connect 9 1 10 0;
#X connect 9 2 5 0;
#X connect 9 3 6 0;
#X connect 10 0 13 0;
#X connect 11 0 14 0;
#X connect 12 0 15 0;
#X connect 13 0 8 0;
#X connect 13 1 16 0;
#X connect 14 0 12 0;
#X connect 16 0 8 0;
#X restore 179 273 pd print error;
#X floatatom 179 306 10 0 0 0 - - -, f 10;
#X obj 324 112 cnv 11 12 17 empty empty 1 2 9 0 14 -258081 -262144
0;
#X obj 337 112 r \$0-arg1;
#X obj 179 111 r \$0-loadArgs;
#X obj 42 20 inlet~;
#X obj 42 66 expr~ if($v1==0 \, 1e-011 \, $v1);
#X obj 42 328 expr~ ln($v1)/ln($f2);
#X obj 42 440 outlet~;
#X obj 112 356 cnv 10 10 17 empty empty empty 20 12 0 14 -245978 -1
0;
#X obj 123 356 r \$0-modeIndex;
#X obj 41 389 spigot~;
#X obj 123 378 unpack f f;
#X obj 123 400 == 5;
#X obj 123 422 &&;
#X obj 190 401 == 1;
#X connect 1 0 3 0;
#X connect 3 0 4 0;
#X connect 3 1 6 0;
#X connect 4 0 6 0;
#X connect 6 0 7 0;
#X connect 7 0 8 0;
#X connect 7 1 9 0;
#X connect 8 0 9 0;
#X connect 9 0 15 1;
#X connect 11 0 3 0;
#X connect 12 0 1 0;
#X connect 13 0 14 0;
#X connect 14 0 15 0;
#X connect 15 0 19 0;
#X connect 18 0 20 0;
#X connect 19 0 16 0;
#X connect 20 0 21 0;
#X connect 20 1 23 0;
#X connect 21 0 22 0;
#X connect 22 0 19 2;
#X connect 23 0 22 1;
#X restore 463 164 pd logb~ (base);
#N canvas 370 411 596 382 bounce~ 0;
#X obj 281 24 cnv 10 10 17 empty empty empty 20 12 0 14 -59724 -1 0
;
#X obj 292 46 f \$2;
#X text 338 114 final frequency;
#X floatatom 292 116 5 0 0 0 - - -, f 5;
#X text 340 89 initial frequency;
#X obj 292 92 / 2;
#X obj 436 24 cnv 11 12 17 empty empty 1 2 9 0 14 -258081 -262144 0
;
#X obj 449 24 r \$0-arg1;
#X floatatom 449 46 5 0 0 0 - - -, f 5;
#X obj 292 24 r \$0-loadArgs;
#X obj 42 20 inlet~;
#X obj 42 361 outlet~;
#X obj 42 261 expr~ abs($v1);
#X obj 42 218 expr~ (1-$v1)*sin(6.28318530717958647693*$v2*$v1);
#X obj 172 154 easyflow/map~ 0 1 0 666;
#X obj 114 284 cnv 10 10 17 empty empty empty 20 12 0 14 -245978 -1
0;
#X obj 125 284 r \$0-modeIndex;
#X obj 43 317 spigot~;
#X obj 125 306 unpack f f;
#X obj 125 328 == 5;
#X obj 125 350 &&;
#X obj 192 329 == 2;
#X connect 1 0 5 0;
#X connect 3 0 14 4;
#X connect 5 0 3 0;
#X connect 7 0 8 0;
#X connect 8 0 5 0;
#X connect 9 0 1 0;
#X connect 10 0 13 0;
#X connect 10 0 14 0;
#X connect 12 0 17 0;
#X connect 13 0 12 0;
#X connect 14 0 13 1;
#X connect 16 0 18 0;
#X connect 17 0 11 0;
#X connect 18 0 19 0;
#X connect 18 1 21 0;
#X connect 19 0 20 0;
#X connect 20 0 17 2;
#X connect 21 0 20 1;
#X restore 498 201 pd bounce~;
#N canvas 212 485 572 332 bounce2~ 0;
#X obj 281 24 cnv 10 10 17 empty empty empty 20 12 0 14 -59724 -1 0
;
#X obj 292 46 f \$2;
#X text 338 114 final frequency;
#X floatatom 292 116 5 0 0 0 - - -, f 5;
#X text 340 89 initial frequency;
#X obj 292 92 / 2;
#X obj 436 24 cnv 11 12 17 empty empty 1 2 9 0 14 -258081 -262144 0
;
#X obj 449 24 r \$0-arg1;
#X floatatom 449 46 5 0 0 0 - - -, f 5;
#X obj 42 20 inlet~;
#X obj 42 291 outlet~;
#X obj 42 191 expr~ abs($v1);
#X obj 42 158 expr~ (1-$v1)*sin(6.28318530717958647693*$f2*$v1);
#X obj 114 220 cnv 10 10 17 empty empty empty 20 12 0 14 -245978 -1
0;
#X obj 125 220 r \$0-modeIndex;
#X obj 43 253 spigot~;
#X obj 125 242 unpack f f;
#X obj 125 264 == 5;
#X obj 125 286 &&;
#X obj 192 265 == 3;
#X obj 292 24 r \$0-loadArgs;
#X connect 1 0 5 0;
#X connect 3 0 12 1;
#X connect 5 0 3 0;
#X connect 7 0 8 0;
#X connect 8 0 5 0;
#X connect 9 0 12 0;
#X connect 11 0 15 0;
#X connect 12 0 11 0;
#X connect 14 0 16 0;
#X connect 15 0 10 0;
#X connect 16 0 17 0;
#X connect 16 1 19 0;
#X connect 17 0 18 0;
#X connect 18 0 15 2;
#X connect 19 0 18 1;
#X connect 20 0 1 0;
#X restore 533 258 pd bounce2~;
#N canvas 212 485 674 408 bounce3~ 0;
#X obj 281 24 cnv 10 10 17 empty empty empty 20 12 0 14 -59724 -1 0
;
#X obj 292 46 f \$2;
#X text 338 134 final frequency;
#X floatatom 292 136 5 0 0 0 - - -, f 5;
#X text 340 79 initial frequency;
#X obj 292 82 / 2;
#X obj 292 107 - 0.5;
#X text 339 107 compensate the "additional hit on the ground";
#X obj 436 24 cnv 11 12 17 empty empty 1 2 9 0 14 -258081 -262144 0
;
#X obj 449 24 r \$0-arg1;
#X floatatom 449 46 5 0 0 0 - - -, f 5;
#X obj 292 24 r \$0-loadArgs;
#X obj 42 228 expr~ (1-$v1)*sin(6.28318530717958647693*$v2*$v1+5.49778714378213816731)
;
#X obj 42 281 expr~ abs($v1);
#X obj 42 20 inlet~;
#X obj 42 381 outlet~;
#X obj 172 164 easyflow/map~ 0 1 0 666;
#X obj 114 304 cnv 10 10 17 empty empty empty 20 12 0 14 -245978 -1
0;
#X obj 125 304 r \$0-modeIndex;
#X obj 43 337 spigot~;
#X obj 125 326 unpack f f;
#X obj 125 348 == 5;
#X obj 125 370 &&;
#X obj 192 349 == 4;
#X connect 1 0 5 0;
#X connect 3 0 16 4;
#X connect 5 0 6 0;
#X connect 6 0 3 0;
#X connect 9 0 10 0;
#X connect 10 0 5 0;
#X connect 11 0 1 0;
#X connect 12 0 13 0;
#X connect 13 0 19 0;
#X connect 14 0 12 0;
#X connect 14 0 16 0;
#X connect 16 0 12 1;
#X connect 18 0 20 0;
#X connect 19 0 15 0;
#X connect 20 0 21 0;
#X connect 20 1 23 0;
#X connect 21 0 22 0;
#X connect 22 0 19 2;
#X connect 23 0 22 1;
#X restore 566 295 pd bounce3~;
#X floatatom 228 64 5 0 0 0 - - -, f 5;
#X floatatom 269 64 5 0 0 0 - - -, f 5;
#X connect 7 0 17 0;
#X connect 9 0 8 0;
#X connect 11 0 14 0;
#X connect 12 0 8 0;
#X connect 13 0 8 0;
#X connect 14 0 17 1;
#X connect 14 0 25 0;
#X connect 14 1 19 1;
#X connect 14 1 26 0;
#X connect 15 0 8 0;
#X connect 16 0 8 0;
#X connect 17 0 9 0;
#X connect 17 1 12 0;
#X connect 17 2 13 0;
#X connect 17 3 15 0;
#X connect 17 4 16 0;
#X connect 17 5 19 0;
#X connect 18 0 8 0;
#X connect 19 0 20 0;
#X connect 19 1 21 0;
#X connect 19 2 22 0;
#X connect 19 3 23 0;
#X connect 19 4 24 0;
#X connect 20 0 18 0;
#X connect 21 0 18 0;
#X connect 22 0 18 0;
#X connect 23 0 18 0;
#X connect 24 0 18 0;
#X restore 93 84 pd MODES~;
#X obj 93 33 inlet~;
#X obj 93 134 outlet~;
#X obj 250 25 inlet;
#X obj 250 47 route set setGraph;
#N canvas 644 110 1023 462 set 0;
#X obj 58 26 inlet;
#X obj 47 151 cnv 10 10 17 empty empty empty 20 12 0 14 -169502 -1
0;
#X obj 58 151 s \$0-modeSelector;
#X obj 58 48 list split 1;
#X obj 237 371 s \$0-arg1;
#X obj 224 371 cnv 11 12 17 empty empty 1 2 9 0 14 -258081 -262144
0;
#X obj 323 371 cnv 11 12 17 empty empty 2 2 9 0 14 -258081 -262144
0;
#X obj 237 81 list;
#X obj 237 134 trigger anything bang;
#X obj 336 371 s \$0-arg2;
#X obj 424 371 cnv 11 12 17 empty empty 3 2 9 0 14 -258081 -262144
0;
#X obj 523 371 cnv 11 12 17 empty empty 4 2 9 0 14 -258081 -262144
0;
#X obj 437 371 s \$0-arg3;
#X obj 536 371 s \$0-arg4;
#X msg 436 160 set 0;
#X obj 436 252 easyflow/counter;
#X obj 237 216 trigger anything bang;
#X obj 237 303 easyflow/switch4;
#X floatatom 346 281 5 0 0 0 - - -, f 5;
#X obj 237 183 easyflow/left2right;
#X text 581 35 We do it like this because [unpack] enforces knowing
the data types beforehand.;
#X msg 581 101 someCurve float arg1 float arg2 string arg3 string Arg4
;
#X text 581 73 This way we can accept;
#X text 583 128 but also;
#X msg 581 151 someCurve float arg1 string arg2 float arg3;
#X text 582 175 and any combination of 4 arguments;
#X connect 0 0 3 0;
#X connect 3 0 2 0;
#X connect 3 1 7 0;
#X connect 7 0 8 0;
#X connect 8 0 19 0;
#X connect 8 1 14 0;
#X connect 14 0 15 0;
#X connect 15 0 18 0;
#X connect 16 0 17 0;
#X connect 16 1 15 0;
#X connect 17 0 4 0;
#X connect 17 1 9 0;
#X connect 17 2 12 0;
#X connect 17 3 13 0;
#X connect 18 0 17 1;
#X connect 19 0 16 0;
#X restore 250 131 pd set;
#X obj 235 135 cnv 10 10 12 empty empty ● 1 5 0 15 -262144 -169502
0;
#X obj 324 126 list prepend set;
#X obj 324 168 list trim;
#X obj 250 101 trigger a a;
#X obj 237 25 cnv 11 12 17 empty empty 2 2 9 0 14 -1 -262144 0;
#X obj 311 70 t a a;
#X obj 367 96 list prepend setGraph;
#X obj 620 255 curves \$1 \$2 \$3 \$4 \$5 \$6 \$7 \$8 \$9 \$10;
#X obj 469 24 route close show;
#X obj 469 68 s \$0-GOPToggle;
#X msg 469 46 0;
#X msg 523 46 1;
#X connect 4 0 7 0;
#X connect 4 1 5 0;
#X connect 5 0 7 0;
#X connect 6 0 4 0;
#X connect 12 0 9 0;
#X connect 18 0 19 0;
#X connect 19 0 20 0;
#X connect 19 1 21 0;
#X connect 20 0 36 0;
#X connect 21 0 36 0;
#X connect 23 0 25 0;
#X connect 24 0 23 0;
#X connect 26 0 27 0;
#X connect 27 0 32 0;
#X connect 27 1 34 0;
#X connect 27 2 37 0;
#X connect 30 0 31 0;
#X connect 31 0 36 0;
#X connect 32 0 28 0;
#X connect 32 1 30 0;
#X connect 34 0 28 0;
#X connect 34 1 35 0;
#X connect 35 0 31 0;
#X connect 37 0 39 0;
#X connect 37 1 40 0;
#X connect 37 2 36 0;
#X connect 39 0 38 0;
#X connect 40 0 38 0;
#X coords 0 1 1 -1 75 32 1 621 65;
