#N canvas 786 122 970 659 10;
#X floatatom 93 325 15 0 0 0 - - -;
#X obj 93 484 outlet;
#X obj 93 344 trigger float float;
#X obj 93 436 easyflow/switch2;
#N canvas 0 50 450 300 graphing 0;
#X obj 41 23 inlet;
#X obj 112 68 cnv 11 44 17 empty empty graph 2 9 0 14 -749 -262144
0;
#X obj 157 68 r \$0-graphingIndex;
#X floatatom 157 90 5 0 0 0 - - -;
#X obj 41 118 tabwrite \$0-graph;
#X connect 0 0 4 0;
#X connect 2 0 3 0;
#X connect 3 0 4 1;
#X restore 202 465 pd graphing;
#X obj 93 33 inlet;
#X obj 93 75 route float;
#N canvas 544 236 856 537 MODES 0;
#X obj 37 22 inlet;
#N canvas 0 50 761 410 sinusoidal 0;
#X obj 45 47 inlet;
#X obj 45 342 outlet;
#X obj 129 59 cnv 10 10 17 empty empty empty 20 12 0 14 -59724 -1 0
;
#X obj 140 85 list 666 \$2 \$3 \$4;
#X obj 140 107 list split 1;
#X obj 180 179 unpack f f f;
#X obj 45 250 expr $f2*sin(2*3.14159265*$f1*$f3+$f4);
#X obj 335 63 cnv 11 12 17 empty empty 1 2 9 0 14 -258081 -262144 0
;
#X obj 434 63 cnv 11 12 17 empty empty 2 2 9 0 14 -258081 -262144 0
;
#X obj 535 63 cnv 11 12 17 empty empty 3 2 9 0 14 -258081 -262144 0
;
#X obj 348 63 r \$0-arg1;
#X obj 447 63 r \$0-arg2;
#X obj 548 63 r \$0-arg3;
#X msg 422 130 clear;
#X obj 442 190 arrayList;
#X obj 348 105 trigger f b;
#X obj 548 87 t b f;
#X msg 548 139 getList;
#X obj 140 59 r \$0-loadArgs;
#X floatatom 180 221 5 0 0 0 - - -;
#X floatatom 220 199 5 0 0 0 - - -;
#X floatatom 261 221 5 0 0 0 - - -;
#X connect 0 0 6 0;
#X connect 3 0 4 0;
#X connect 4 1 5 0;
#X connect 5 0 19 0;
#X connect 5 1 20 0;
#X connect 5 2 21 0;
#X connect 6 0 1 0;
#X connect 10 0 15 0;
#X connect 11 0 14 0;
#X connect 12 0 16 0;
#X connect 13 0 14 0;
#X connect 14 0 5 0;
#X connect 15 0 14 0;
#X connect 15 1 13 0;
#X connect 16 0 17 0;
#X connect 16 1 14 0;
#X connect 17 0 14 0;
#X connect 18 0 3 0;
#X connect 19 0 6 1;
#X connect 20 0 6 2;
#X connect 21 0 6 3;
#X restore 106 216 pd sinusoidal;
#X obj 93 219 cnv 10 10 12 empty empty ● 1 5 0 15 -262144 -59724
0;
#X obj 107 18 cnv 10 10 17 empty empty empty 20 12 0 14 -245978 -1
0;
#X obj 118 18 r \$0-modeIndex;
#X floatatom 118 40 5 0 0 0 - - -;
#X obj 37 503 outlet;
#N canvas 390 131 908 364 exponential/log 0;
#X obj 34 32 inlet;
#X obj 34 170 outlet;
#X obj 106 28 cnv 10 10 17 empty empty empty 20 12 0 14 -59724 -1 0
;
#X obj 117 54 list 666 \$2 \$3 \$4;
#X obj 117 76 list split 1;
#X obj 34 128 expr pow($f1 \, $f2);
#X floatatom 157 109 5 0 0 0 - - -;
#X obj 227 77 cnv 11 12 17 empty empty 1 2 9 0 14 -258081 -262144 0
;
#X obj 240 77 r \$0-arg1;
#X obj 117 28 r \$0-loadArgs;
#X connect 0 0 5 0;
#X connect 3 0 4 0;
#X connect 4 1 6 0;
#X connect 5 0 1 0;
#X connect 6 0 5 1;
#X connect 8 0 6 0;
#X connect 9 0 3 0;
#X restore 176 256 pd exponential/log;
#N canvas 722 134 548 266 Blackman-Harris 0;
#X obj 58 25 inlet;
#X obj 58 217 outlet;
#X obj 58 147 expr $f2-$f3*cos(2*$f6*$f1/($f7-1))+$f4*cos(4*$f6*$f1/($f7-1))-$f5*cos(6*$f6*$f1/($f7-1))
;
#X obj 58 92 unpack float float float float float float float;
#X msg 58 57 \$1 0.35578 0.487369 0.144232 0.012604 3.14159 0;
#X connect 0 0 4 0;
#X connect 2 0 1 0;
#X connect 3 0 2 0;
#X connect 3 1 2 1;
#X connect 3 2 2 2;
#X connect 3 3 2 3;
#X connect 3 4 2 4;
#X connect 3 5 2 5;
#X connect 3 6 2 6;
#X connect 4 0 3 0;
#X restore 314 333 pd Blackman-Harris;
#N canvas 475 112 440 195 sinWin 0;
#X obj 42 102 expr sin($f1*2*3.14159/($f2)*0.5);
#X obj 42 50 inlet;
#X obj 42 144 outlet;
#X obj 259 47 cnv 10 10 17 empty empty empty 20 12 0 14 -59724 -1 0
;
#X msg 270 69 1;
#X text 305 68 window max X;
#X obj 270 47 r \$0-loadArgs;
#X connect 0 0 2 0;
#X connect 1 0 0 0;
#X connect 4 0 0 1;
#X connect 6 0 4 0;
#X restore 245 293 pd sinWin;
#X obj 160 259 cnv 10 10 12 empty empty ● 1 5 0 15 -262144 -59724
0;
#X obj 229 297 cnv 10 10 12 empty empty ● 1 5 0 15 -262144 -59724
0;
#N canvas 722 134 497 200 log 0;
#X obj 58 25 inlet;
#X obj 58 139 outlet;
#X obj 58 111 expr ln($f1);
#X obj 58 56 sel 0;
#X msg 58 78 1e-011;
#X text 121 63 prevents -infinity;
#X connect 0 0 3 0;
#X connect 2 0 1 0;
#X connect 3 0 4 0;
#X connect 3 1 2 0;
#X connect 4 0 2 0;
#X restore 429 182 pd log (natural);
#N canvas 0 50 535 476 logb 0;
#X floatatom 42 381 5 0 0 0 - - -;
#X obj 42 20 inlet;
#X obj 42 400 outlet;
#X obj 168 141 cnv 10 10 17 empty empty empty 20 12 0 14 -59724 -1
0;
#X obj 42 358 expr ln($f1)/ln($f2);
#X obj 179 163 f \$2;
#X obj 42 66 sel 0;
#X msg 42 108 1e-011;
#X text 95 73 prevents -infinity;
#X obj 179 196 sel 0;
#X msg 179 238 1e-011;
#X text 232 203 prevents -infinity;
#X floatatom 179 260 10 0 0 0 - - -;
#X obj 179 279 moses 0;
#N canvas 0 50 863 514 print 0;
#X obj 38 14 inlet;
#X obj 162 201 print result is imaginary and PD does not handle imaginary
numbers. Using "1" as default, f 27;
#X msg 38 58 1;
#X obj 38 80 outlet;
#X obj 224 107 print [easyflow/curves logb] error, f 31;
#X msg 162 163 symbol using "1" as default;
#X msg 224 65 symbol negative argument;
#X text 255 24 uses special " " blank char;
#X obj 100 354 s \$0-status;
#X obj 38 36 trigger bang bang bang bang;
#X msg 100 277 label error;
#X obj 100 299 t a b;
#X msg 132 325 color -1.67117e+007 -1.67772e+007 -1.67772e+007;
#X connect 0 0 9 0;
#X connect 2 0 3 0;
#X connect 5 0 1 0;
#X connect 6 0 4 0;
#X connect 9 0 2 0;
#X connect 9 1 10 0;
#X connect 9 2 5 0;
#X connect 9 3 6 0;
#X connect 10 0 11 0;
#X connect 11 0 8 0;
#X connect 11 1 12 0;
#X connect 12 0 8 0;
#X restore 179 303 pd print error;
#X floatatom 179 336 10 0 0 0 - - -;
#X obj 324 142 cnv 11 12 17 empty empty 1 2 9 0 14 -258081 -262144
0;
#X obj 337 142 r \$0-arg1;
#X obj 179 141 r \$0-loadArgs;
#X connect 0 0 2 0;
#X connect 1 0 6 0;
#X connect 4 0 0 0;
#X connect 5 0 9 0;
#X connect 6 0 7 0;
#X connect 6 1 4 0;
#X connect 7 0 4 0;
#X connect 9 0 10 0;
#X connect 9 1 12 0;
#X connect 10 0 12 0;
#X connect 12 0 13 0;
#X connect 13 0 14 0;
#X connect 13 1 15 0;
#X connect 14 0 15 0;
#X connect 15 0 4 1;
#X connect 17 0 9 0;
#X connect 18 0 5 0;
#X restore 490 217 pd logb (base);
#X obj 37 64 list prepend;
#X obj 466 221 cnv 10 10 12 empty empty ● 1 5 0 15 -262144 -59724
0;
#X obj 527 259 cnv 10 10 12 empty empty ● 1 5 0 15 -262144 -59724
0;
#N canvas 212 485 1112 476 bounce 0;
#X floatatom 42 252 5 0 0 0 - - -;
#X obj 42 20 inlet;
#X obj 42 391 outlet;
#X obj 281 24 cnv 10 10 17 empty empty empty 20 12 0 14 -59724 -1 0
;
#X obj 292 46 f \$2;
#X text 338 114 final frequency;
#X obj 42 42 trigger float float;
#X floatatom 172 176 5 0 0 0 - - -;
#X obj 42 271 expr abs($f1);
#X floatatom 292 116 5 0 0 0 - - -;
#X text 340 89 initial frequency;
#X obj 42 228 expr (1-$f1)*sin(6.28318530717958647693*$f2*$f1);
#X obj 292 92 / 2;
#X obj 172 154 easyflow/map 0 1 0 666;
#X obj 436 24 cnv 11 12 17 empty empty 1 2 9 0 14 -258081 -262144 0
;
#X obj 449 24 r \$0-arg1;
#X floatatom 449 46 5 0 0 0 - - -;
#X obj 292 24 r \$0-loadArgs;
#X connect 0 0 8 0;
#X connect 1 0 6 0;
#X connect 4 0 12 0;
#X connect 6 0 11 0;
#X connect 6 1 13 0;
#X connect 7 0 11 1;
#X connect 8 0 2 0;
#X connect 9 0 13 4;
#X connect 11 0 0 0;
#X connect 12 0 9 0;
#X connect 13 0 7 0;
#X connect 15 0 16 0;
#X connect 16 0 12 0;
#X connect 17 0 4 0;
#X restore 551 255 pd bounce;
#X obj 37 126 route 0 1 2 3 4, f 50;
#X obj 429 126 route 5 6 7 8 9, f 44;
#X obj 429 424 t a;
#X obj 588 292 cnv 10 10 12 empty empty ● 1 5 0 15 -262144 -59724
0;
#N canvas 212 485 524 356 bounce2 0;
#X obj 42 20 inlet;
#X obj 42 291 outlet;
#X obj 281 24 cnv 10 10 17 empty empty empty 20 12 0 14 -59724 -1 0
;
#X obj 292 46 f \$2;
#X text 338 114 final frequency;
#X obj 42 231 expr abs($f1);
#X floatatom 292 116 5 0 0 0 - - -;
#X text 340 89 initial frequency;
#X obj 292 92 / 2;
#X obj 42 188 expr (1-$f1)*sin(6.28318530717958647693*$f2*$f1);
#X obj 436 24 cnv 11 12 17 empty empty 1 2 9 0 14 -258081 -262144 0
;
#X obj 449 24 r \$0-arg1;
#X floatatom 449 46 5 0 0 0 - - -;
#X obj 292 24 r \$0-loadArgs;
#X connect 0 0 9 0;
#X connect 3 0 8 0;
#X connect 5 0 1 0;
#X connect 6 0 9 1;
#X connect 8 0 6 0;
#X connect 9 0 5 0;
#X connect 11 0 12 0;
#X connect 12 0 8 0;
#X connect 13 0 3 0;
#X restore 612 288 pd bounce2;
#X obj 649 340 cnv 10 10 12 empty empty ● 1 5 0 15 -262144 -59724
0;
#N canvas 212 485 693 476 bounce3 0;
#X floatatom 42 322 5 0 0 0 - - -;
#X obj 42 20 inlet;
#X obj 42 391 outlet;
#X obj 281 24 cnv 10 10 17 empty empty empty 20 12 0 14 -59724 -1 0
;
#X obj 292 46 f \$2;
#X text 338 134 final frequency;
#X obj 42 42 trigger float float;
#X floatatom 172 186 5 0 0 0 - - -;
#X obj 42 341 expr abs($f1);
#X floatatom 292 136 5 0 0 0 - - -;
#X text 340 79 initial frequency;
#X obj 292 82 / 2;
#X obj 172 164 easyflow/map 0 1 0 666;
#X obj 42 228 expr (1-$f1)*sin(6.28318530717958647693*$f2*$f1+5.49778714378213816731)
;
#X obj 292 107 - 0.5;
#X text 339 107 compensate the "additional hit on the ground";
#X obj 436 24 cnv 11 12 17 empty empty 1 2 9 0 14 -258081 -262144 0
;
#X obj 449 24 r \$0-arg1;
#X floatatom 449 46 5 0 0 0 - - -;
#X obj 292 24 r \$0-loadArgs;
#X connect 0 0 8 0;
#X connect 1 0 6 0;
#X connect 4 0 11 0;
#X connect 6 0 13 0;
#X connect 6 1 12 0;
#X connect 7 0 13 1;
#X connect 8 0 2 0;
#X connect 9 0 12 4;
#X connect 11 0 14 0;
#X connect 12 0 7 0;
#X connect 13 0 0 0;
#X connect 14 0 9 0;
#X connect 17 0 18 0;
#X connect 18 0 11 0;
#X connect 19 0 4 0;
#X restore 673 336 pd bounce3;
#N canvas 0 50 761 410 lin 0;
#X obj 45 47 inlet;
#X obj 45 342 outlet;
#X obj 122 43 cnv 11 12 17 empty empty 1 2 9 0 14 -258081 -262144 0
;
#X obj 221 43 cnv 11 12 17 empty empty 2 2 9 0 14 -258081 -262144 0
;
#X obj 322 43 cnv 11 12 17 empty empty 3 2 9 0 14 -258081 -262144 0
;
#X obj 135 43 r \$0-arg1;
#X obj 234 43 r \$0-arg2;
#X obj 335 43 r \$0-arg3;
#X obj 422 43 cnv 11 12 17 empty empty 4 2 9 0 14 -258081 -262144 0
;
#X obj 435 43 r \$0-arg4;
#X msg 209 110 clear;
#X obj 229 170 arrayList;
#X obj 135 85 trigger f b;
#X obj 435 65 t b f;
#X msg 435 117 getList;
#X obj 45 245 easyflow/map \$2 \$3 \$4 \$5;
#X obj 229 192 unpack f f f f;
#X connect 0 0 15 0;
#X connect 5 0 12 0;
#X connect 6 0 11 0;
#X connect 7 0 11 0;
#X connect 9 0 13 0;
#X connect 10 0 11 0;
#X connect 11 0 16 0;
#X connect 12 0 11 0;
#X connect 12 1 10 0;
#X connect 13 0 14 0;
#X connect 13 1 11 0;
#X connect 14 0 11 0;
#X connect 15 0 1 0;
#X connect 16 0 15 1;
#X connect 16 1 15 2;
#X connect 16 2 15 3;
#X connect 16 3 15 4;
#X restore 37 183 pd lin;
#X connect 0 0 14 0;
#X connect 1 0 6 0;
#X connect 4 0 5 0;
#X connect 5 0 14 1;
#X connect 7 0 6 0;
#X connect 8 0 6 0;
#X connect 9 0 6 0;
#X connect 12 0 20 0;
#X connect 13 0 20 0;
#X connect 14 0 18 0;
#X connect 17 0 20 0;
#X connect 18 0 25 0;
#X connect 18 1 1 0;
#X connect 18 2 7 0;
#X connect 18 3 9 0;
#X connect 18 4 8 0;
#X connect 18 5 19 0;
#X connect 19 0 12 0;
#X connect 19 1 13 0;
#X connect 19 2 17 0;
#X connect 19 3 22 0;
#X connect 19 4 24 0;
#X connect 20 0 6 0;
#X connect 22 0 20 0;
#X connect 24 0 20 0;
#X connect 25 0 6 0;
#X restore 93 284 pd MODES;
#X obj 76 286 cnv 10 10 12 empty empty ● 1 5 0 15 -262144 -245978
0;
#X obj 60 286 cnv 10 10 12 empty empty ● 1 5 0 15 -262144 -59724
0;
#N canvas 0 50 750 492 goptool 0;
#X obj 38 203 easyflow/gopTool;
#X obj 38 408 s \$0-this;
#X obj 38 15 r \$0-GOPToggle;
#X floatatom 38 67 5 0 0 0 - - -;
#X obj 38 86 select 1 0;
#X text 410 143 expanded;
#X msg 38 143 coords 0 1 1 -1 225.882 158.118 1 621.176 65.8824 1;
#X msg 339 409 coords 0 1 1 -1 30.1176 32 1 621.176 65.8824 1;
#X text 414 171 compact;
#X msg 56 171 coords 0 1 1 -1 30.1176 32 1 621.176 65.8824 1;
#X connect 0 0 1 0;
#X connect 0 1 7 0;
#X connect 3 0 4 0;
#X connect 4 0 6 0;
#X connect 4 1 9 0;
#X connect 6 0 0 0;
#X connect 9 0 0 0;
#X restore 628 33 pd goptool;
#X obj 624 80 tgl 14 0 \$0-GOPToggle \$0-justSoInletIsHidden empty
17 7 0 14 -262144 -1 -1 0 1;
#X obj 710 33 namecanvas \$0-this;
#X obj 202 391 r \$0-outputOrGraph;
#X obj 173 391 cnv 11 28 17 empty empty o|g 2 9 0 14 -74771 -262144
0;
#X floatatom 202 413 5 0 0 0 - - -;
#X obj 159 244 r \$0-graphingInput;
#X obj 115 244 cnv 11 44 17 empty empty graph 2 9 0 14 -749 -262144
0;
#X obj 643 81 cnv 11 50 13 empty empty  graph 2 6 0 10 -1 -262144
0;
#X obj 624 105 hsl 111 17 0 127 0 0 \$0-doubleClick empty curves 0
9 0 12 -1 -1 -262144 0 0;
#X obj 115 564 t a b;
#X msg 147 590 color -1 -1.67772e+007 -1.67772e+007;
#X msg 115 542 label parametrization;
#X obj 115 616 s \$0-status;
#X text 291 556 Reset status on \$0-graphWindow;
#N canvas 0 50 880 302 router 0;
#X obj 47 33 inlet;
#N canvas 0 50 463 135 error 0;
#X obj 53 69 print easyflow/parametrization error. Not a float;
#X obj 53 34 inlet;
#X connect 1 0 0 0;
#X restore 545 79 pd error;
#X obj 47 129 s pd-\$0-graphWindow;
#X obj 47 55 route show close;
#X msg 47 107 vis \$1;
#X msg 47 77 1;
#X msg 101 78 0;
#N canvas 516 337 717 295 getMinMax 0;
#X obj 70 41 inlet;
#X obj 70 131 list append, f 21;
#X obj 270 41 inlet;
#X obj 270 131 list append, f 21;
#X obj 70 235 send;
#X obj 70 63 trigger bang anything;
#X obj 270 63 trigger bang anything;
#X text 435 56 [t b a] does implicit conversion of custom selector
to symbol, f 32;
#X obj 70 183 unpack float symbol;
#X obj 70 98 v \$0-min;
#X obj 270 94 v \$0-max;
#X obj 59 98 cnv 10 10 17 empty empty empty 20 12 0 14 -260129 -1 0
;
#X obj 259 94 cnv 10 10 17 empty empty empty 20 12 0 14 -184289 -1
0;
#X connect 0 0 5 0;
#X connect 1 0 8 0;
#X connect 2 0 6 0;
#X connect 3 0 8 0;
#X connect 5 0 9 0;
#X connect 5 1 1 1;
#X connect 6 0 10 0;
#X connect 6 1 3 1;
#X connect 8 0 4 0;
#X connect 8 1 4 1;
#X connect 9 0 1 0;
#X connect 10 0 3 0;
#X restore 191 90 pd getMinMax;
#X obj 191 55 route getmin getmax;
#N canvas 433 107 1023 462 set 0;
#X obj 58 26 inlet;
#X obj 47 151 cnv 10 10 17 empty empty empty 20 12 0 14 -169502 -1
0;
#X obj 58 151 s \$0-modeSelector;
#X obj 58 78 list split 1;
#X obj 237 371 s \$0-arg1;
#X obj 224 371 cnv 11 12 17 empty empty 1 2 9 0 14 -258081 -262144
0;
#X obj 323 371 cnv 11 12 17 empty empty 2 2 9 0 14 -258081 -262144
0;
#X obj 237 111 list;
#X obj 237 134 trigger anything bang;
#X obj 336 371 s \$0-arg2;
#X obj 424 371 cnv 11 12 17 empty empty 3 2 9 0 14 -258081 -262144
0;
#X obj 523 371 cnv 11 12 17 empty empty 4 2 9 0 14 -258081 -262144
0;
#X obj 437 371 s \$0-arg3;
#X obj 536 371 s \$0-arg4;
#X msg 436 160 set 0;
#X obj 436 252 easyflow/counter;
#X obj 237 216 trigger anything bang;
#X obj 237 303 easyflow/switch4;
#X floatatom 346 281 5 0 0 0 - - -;
#X obj 237 183 easyflow/left2right;
#X text 581 35 We do it like this because [unpack] enforces knowing
the data types beforehand.;
#X msg 581 101 someCurve float arg1 float arg2 string arg3 string Arg4
;
#X text 581 73 This way we can accept;
#X text 583 128 but also;
#X msg 581 151 someCurve float arg1 string arg2 float arg3;
#X text 582 175 and any combination of 4 arguments;
#N canvas 36 439 825 413 minMaxSet 0;
#X obj 36 27 inlet;
#X obj 191 358 v \$0-min;
#X obj 314 358 v \$0-max;
#X msg 206 107 0 1;
#X obj 74 134 unpack f f;
#X obj 74 156 * -1;
#X obj 74 179 pack f f;
#X msg 135 106 0 1;
#X obj 36 75 route lin sin exp;
#X obj 186 75 route sinWin Blackman-Harris;
#X obj 409 75 route log ln logb;
#X msg 36 217 \$1 \$2;
#X msg 263 107 0 1;
#X msg 409 147 -25.3284 1;
#X obj 486 194 expr log(1e-011)/log($f1);
#X msg 486 216 \$1 1;
#X msg 559 108 0 1;
#X msg 631 106 0 1;
#X msg 681 107 0 1;
#X obj 180 358 cnv 10 10 17 empty empty empty 20 12 0 14 -260129 -1
0;
#X obj 303 358 cnv 10 10 17 empty empty empty 20 12 0 14 -184289 -1
0;
#X obj 191 304 unpack float float;
#X floatatom 191 326 5 0 0 0 - - -;
#X floatatom 314 328 5 0 0 0 - - -;
#X floatatom 585 167 5 0 0 0 - - -;
#X floatatom 558 237 5 0 0 0 - - -;
#X obj 559 76 route bounce bounce2 bounce3;
#X connect 0 0 8 0;
#X connect 3 0 21 0;
#X connect 4 0 5 0;
#X connect 4 1 6 1;
#X connect 5 0 6 0;
#X connect 6 0 21 0;
#X connect 7 0 21 0;
#X connect 8 0 11 0;
#X connect 8 1 4 0;
#X connect 8 2 7 0;
#X connect 8 3 9 0;
#X connect 9 0 3 0;
#X connect 9 1 12 0;
#X connect 9 2 10 0;
#X connect 10 0 13 0;
#X connect 10 1 13 0;
#X connect 10 2 14 0;
#X connect 10 2 24 0;
#X connect 10 3 26 0;
#X connect 11 0 21 0;
#X connect 12 0 21 0;
#X connect 13 0 21 0;
#X connect 14 0 15 0;
#X connect 14 0 25 0;
#X connect 15 0 21 0;
#X connect 16 0 21 0;
#X connect 17 0 21 0;
#X connect 18 0 21 0;
#X connect 21 0 22 0;
#X connect 21 1 23 0;
#X connect 22 0 1 0;
#X connect 23 0 2 0;
#X connect 26 0 16 0;
#X connect 26 1 17 0;
#X connect 26 2 18 0;
#X restore 230 75 pd minMaxSet;
#X obj 58 49 trigger anything anything;
#X obj 202 78 cnv 10 10 12 empty empty ● 1 5 0 15 -262144 -260129
0;
#X obj 214 78 cnv 10 10 12 empty empty ● 1 5 0 15 -262144 -184289
0;
#X connect 0 0 27 0;
#X connect 3 0 2 0;
#X connect 3 1 7 0;
#X connect 7 0 8 0;
#X connect 8 0 19 0;
#X connect 8 1 14 0;
#X connect 14 0 15 0;
#X connect 15 0 18 0;
#X connect 16 0 17 0;
#X connect 16 1 15 0;
#X connect 17 0 4 0;
#X connect 17 1 9 0;
#X connect 17 2 12 0;
#X connect 17 3 13 0;
#X connect 18 0 17 1;
#X connect 19 0 16 0;
#X connect 27 0 3 0;
#X connect 27 1 26 0;
#X restore 544 170 pd set;
#X obj 349 199 cnv 10 10 17 empty empty empty 20 12 0 14 -159808 -1
0;
#X obj 359 199 s \$0-graphVisualization;
#X obj 359 136 trigger bang anything;
#X obj 529 174 cnv 10 10 12 empty empty ● 1 5 0 15 -262144 -169502
0;
#X obj 359 55 route setgraph setGraph set;
#X obj 505 174 cnv 10 10 12 empty empty ● 1 5 0 15 -262144 -260129
0;
#X obj 517 174 cnv 10 10 12 empty empty ● 1 5 0 15 -262144 -184289
0;
#X obj 165 94 cnv 10 10 12 empty empty ● 1 5 0 15 -262144 -260129
0;
#X obj 177 94 cnv 10 10 12 empty empty ● 1 5 0 15 -262144 -184289
0;
#X connect 0 0 3 0;
#X connect 3 0 5 0;
#X connect 3 1 6 0;
#X connect 3 2 8 0;
#X connect 4 0 2 0;
#X connect 5 0 4 0;
#X connect 6 0 4 0;
#X connect 8 0 7 0;
#X connect 8 1 7 1;
#X connect 8 2 14 0;
#X connect 12 0 11 0;
#X connect 12 1 9 0;
#X connect 14 0 12 0;
#X connect 14 1 12 0;
#X connect 14 2 9 0;
#X connect 14 3 1 0;
#X restore 167 101 pd router;
#X obj 329 103 cnv 10 10 17 empty empty empty 20 12 0 14 -159808 -1
0;
#X obj 339 103 s \$0-graphVisualization;
#N canvas 0 50 767 592 graphVisualization 0;
#X obj 35 380 cnv 11 28 17 empty empty o|g 2 9 0 14 -74771 -262144
0;
#X obj 64 175 trigger bang bang bang bang bang;
#X msg 64 350 0;
#X obj 64 380 s \$0-outputOrGraph;
#X obj 64 57 trigger bang bang;
#X obj 151 113 cnv 11 28 17 empty empty o|g 2 9 0 14 -74771 -262144
0;
#X obj 180 113 s \$0-outputOrGraph;
#X msg 180 83 1;
#X obj 285 313 easyflow/for;
#X floatatom 366 339 5 0 0 0 - - -;
#X obj 366 486 s \$0-graphingInput;
#X obj 496 527 s \$0-graphingIndex;
#X obj 321 486 cnv 11 44 17 empty empty graph 2 9 0 14 -749 -262144
0;
#X obj 451 527 cnv 11 44 17 empty empty graph 2 9 0 14 -749 -262144
0;
#X obj 366 388 trigger float float;
#X obj 285 197 f \$0;
#X floatatom 285 219 5 0 0 0 - - -;
#X obj 285 264 expr size("$s1");
#X msg 285 238 symbol \$1-graph;
#X obj 366 358 - 1;
#X obj 64 235 t b b;
#X obj 54 32 cnv 10 10 17 empty empty empty 20 12 0 14 -159808 -1 0
;
#X obj 64 32 r \$0-graphVisualization;
#X obj 366 430 /;
#X text 406 432 goes from 0 to 1;
#X obj 285 286 trigger float float;
#N canvas 0 50 679 540 normalizeGraph 0;
#X obj 37 42 inlet;
#X msg 312 18 normalize;
#X obj 37 441 s \$0-graph;
#X text 394 16 does not work for log (?!);
#X obj 312 40 s \$0-graph;
#X obj 37 64 trigger bang bang, f 21;
#X obj 181 89 array max \$0-graph;
#X floatatom 181 111 10 0 0 0 - - -;
#X floatatom 37 111 10 0 0 0 - - -;
#X obj 37 210 pack float float;
#X obj 37 89 array min \$0-graph;
#X obj 181 132 easyflow/roundIfVeryClose 2;
#X obj 37 173 easyflow/roundIfVeryClose 2;
#X obj 37 281 trigger a a, f 28;
#X obj 280 300 trigger a bang;
#X obj 280 347 list prepend;
#X obj 422 343 expr size ("$s1");
#X obj 422 294 f \$0;
#X msg 422 316 symbol \$1-graph;
#X floatatom 422 365 5 0 0 0 - - -;
#X msg 308 495 bounds xMin yMax xMax yMin;
#X msg 280 379 bounds 0 \$3 \$1 \$2;
#N canvas 0 50 446 600 assert 0;
#X obj 46 53 inlet;
#X obj 46 505 outlet;
#X obj 46 107 unpack f f;
#X obj 46 139 ==;
#X obj 46 80 trigger a a a, f 40;
#X obj 222 130 unpack f;
#X obj 46 323 f;
#X text 79 321 min;
#X text 63 186 if equal (trying to create an rectangle that gros from
y=0 to y=0 for example), f 19;
#X obj 222 264 t f;
#X obj 46 345 t f f;
#X obj 46 417 pack f f;
#X obj 99 389 + 1;
#X obj 298 388 list;
#X obj 46 161 sel 1 0;
#X connect 0 0 4 0;
#X connect 2 0 3 0;
#X connect 2 1 3 1;
#X connect 3 0 14 0;
#X connect 4 0 2 0;
#X connect 4 1 5 0;
#X connect 4 2 13 1;
#X connect 5 0 9 0;
#X connect 6 0 10 0;
#X connect 9 0 6 1;
#X connect 10 0 11 0;
#X connect 10 1 12 0;
#X connect 11 0 1 0;
#X connect 12 0 11 1;
#X connect 13 0 1 0;
#X connect 14 0 6 0;
#X connect 14 1 13 0;
#X restore 37 234 pd assert max is bigger than min (in order to avoid
graph: empty bounds rectangle);
#X msg 309 468 ylabel xCoordOfLabel p1_x p1_y p2_x p2_y ...;
#X msg 37 329 ylabel -2 \$1 \$2;
#X connect 0 0 5 0;
#X connect 1 0 4 0;
#X connect 5 0 10 0;
#X connect 5 1 6 0;
#X connect 6 0 7 0;
#X connect 7 0 11 0;
#X connect 8 0 12 0;
#X connect 9 0 22 0;
#X connect 10 0 8 0;
#X connect 11 0 9 1;
#X connect 12 0 9 0;
#X connect 13 0 24 0;
#X connect 13 1 14 0;
#X connect 14 0 15 0;
#X connect 14 1 17 0;
#X connect 15 0 21 0;
#X connect 16 0 19 0;
#X connect 17 0 18 0;
#X connect 18 0 16 0;
#X connect 19 0 15 1;
#X connect 21 0 2 0;
#X connect 22 0 13 0;
#X connect 24 0 2 0;
#X restore 96 261 pd normalizeGraph;
#X connect 1 0 20 0;
#X connect 1 4 15 0;
#X connect 2 0 3 0;
#X connect 4 0 1 0;
#X connect 4 1 7 0;
#X connect 7 0 6 0;
#X connect 8 1 9 0;
#X connect 9 0 19 0;
#X connect 14 0 23 0;
#X connect 14 1 11 0;
#X connect 15 0 16 0;
#X connect 16 0 18 0;
#X connect 17 0 25 0;
#X connect 18 0 17 0;
#X connect 19 0 14 0;
#X connect 20 0 2 0;
#X connect 20 1 26 0;
#X connect 22 0 4 0;
#X connect 23 0 10 0;
#X connect 25 0 8 0;
#X connect 25 1 23 1;
#X restore 339 131 pd graphVisualization;
#X obj 323 134 cnv 10 10 12 empty empty ● 1 5 0 15 -262144 -159808
0;
#X obj 339 78 bng 15 250 50 0 empty empty empty 17 7 0 10 -262144 -1
-1;
#X text 384 -44 delete the normalization and use labels to describe
the min and max;
#N canvas 24 50 305 242 \$0-graphWindow 0;
#N canvas 0 50 450 250 (subpatch) 0;
#X array \$0-graph 100 float 0;
#X coords 0 1 100 0 200 140 1 0 0;
#X restore 55 71 graph;
#X obj 38 12 cnv 11 124 17 empty \$0-status parametrization 2 9 0 14
-1 -262140 0;
#X restore 621 128 pd \$0-graphWindow;
#X obj 622 232 s pd-\$0-graphWindow;
#X obj 622 185 r \$0-GOPToggle;
#X msg 622 210 vis \$1;
#N canvas 198 438 803 211 initialization 0;
#X obj 51 15 loadbang;
#X obj 279 99 list split 1;
#X obj 41 111 cnv 10 10 17 empty empty empty 20 12 0 14 -159808 -1
0;
#X obj 51 111 s \$0-graphVisualization;
#X obj 153 20 inlet;
#X obj 308 178 cnv 10 10 17 empty empty empty 20 12 0 14 -169502 -1
0;
#X obj 319 178 s \$0-modeSelector;
#X obj 154 82 cnv 10 10 17 empty empty empty 20 12 0 14 -59724 -1 0
;
#X obj 165 82 s \$0-loadArgs;
#X obj 51 47 trigger bang bang bang, f 33;
#X obj 463 157 cnv 10 10 12 empty empty ● 1 5 0 15 -262144 -260129
0;
#X obj 475 157 cnv 10 10 12 empty empty ● 1 5 0 15 -262144 -184289
0;
#N canvas 761 344 822 413 minMaxSetFromInitArguments 0;
#X obj 36 17 inlet;
#X obj 190 378 v \$0-min;
#X obj 313 378 v \$0-max;
#X msg 186 140 0 1;
#X obj 74 184 unpack f f;
#X obj 74 206 * -1;
#X obj 74 229 pack f f;
#X msg 113 152 0 1;
#X obj 36 75 route lin sin exp;
#X obj 186 75 route sinWin Blackman-Harris;
#X obj 409 75 route log ln logb;
#X msg 36 267 \$1 \$2;
#X msg 282 138 0 1;
#X msg 409 177 -25.3284 1;
#X obj 486 224 expr log(1e-011)/log($f1);
#X msg 486 246 \$1 1;
#X msg 559 138 0 1;
#X msg 623 139 0 1;
#X msg 687 138 0 1;
#X obj 179 378 cnv 10 10 17 empty empty empty 20 12 0 14 -260129 -1
0;
#X obj 302 378 cnv 10 10 17 empty empty empty 20 12 0 14 -184289 -1
0;
#X obj 190 334 unpack float float;
#X obj 559 76 route bounce bounce2 bounce3;
#X obj 36 97 list \$4 \$5;
#X obj 74 152 f \$2;
#X obj 74 132 bng 15 250 50 0 empty empty empty 17 7 0 10 -262144 -1
-1;
#X floatatom 190 356 5 0 0 0 - - -;
#X floatatom 313 358 5 0 0 0 - - -;
#X obj 486 116 bng 15 250 50 0 empty empty empty 17 7 0 10 -262144
-1 -1;
#X obj 486 136 f \$2;
#X floatatom 616 192 5 0 0 0 - - -;
#X obj 36 39 list trim;
#X text 154 25 (can i use this logic a single time? yes. so this is
a to do reminder);
#X connect 0 0 31 0;
#X connect 3 0 21 0;
#X connect 4 0 5 0;
#X connect 4 1 6 1;
#X connect 5 0 6 0;
#X connect 6 0 21 0;
#X connect 7 0 21 0;
#X connect 8 0 23 0;
#X connect 8 1 25 0;
#X connect 8 2 7 0;
#X connect 8 3 9 0;
#X connect 9 0 3 0;
#X connect 9 1 12 0;
#X connect 9 2 10 0;
#X connect 10 0 13 0;
#X connect 10 1 13 0;
#X connect 10 2 28 0;
#X connect 10 3 22 0;
#X connect 11 0 21 0;
#X connect 12 0 21 0;
#X connect 13 0 21 0;
#X connect 14 0 15 0;
#X connect 15 0 21 0;
#X connect 16 0 21 0;
#X connect 17 0 21 0;
#X connect 18 0 21 0;
#X connect 21 0 26 0;
#X connect 21 1 27 0;
#X connect 22 0 16 0;
#X connect 22 1 17 0;
#X connect 22 2 18 0;
#X connect 23 0 11 0;
#X connect 24 0 4 0;
#X connect 25 0 24 0;
#X connect 26 0 1 0;
#X connect 27 0 2 0;
#X connect 28 0 29 0;
#X connect 29 0 14 0;
#X connect 29 0 30 0;
#X connect 31 0 8 0;
#X restore 491 154 pd minMaxSetFromInitArguments;
#X text 452 76 assure valid;
#X text 378 98 remove 666;
#X obj 319 128 trigger anything anything;
#X obj 279 77 list 666 \$1 \$2 \$3 \$4 \$5;
#X connect 0 0 9 0;
#X connect 1 1 15 0;
#X connect 4 0 9 0;
#X connect 9 0 3 0;
#X connect 9 1 8 0;
#X connect 9 2 16 0;
#X connect 15 0 6 0;
#X connect 15 1 12 0;
#X connect 16 0 1 0;
#X restore 339 46 pd initialization;
#X obj 321 49 cnv 10 10 12 empty empty ● 1 5 0 15 -262144 -159808
0;
#X obj 308 49 cnv 10 10 12 empty empty ● 1 5 0 15 -262144 -245978
0;
#X obj 311 162 cnv 10 10 12 empty empty ● 1 5 0 15 -262144 -59724
0;
#X obj 339 19 bng 15 250 50 0 empty empty empty 17 7 0 10 -262144 -1
-1;
#X obj 80 33 cnv 11 12 17 empty empty 1 2 9 0 14 -1 -262144 0;
#X obj 80 484 cnv 11 12 17 empty empty 1 2 9 0 14 -1 -262144 0;
#X obj 187 468 cnv 10 10 12 empty empty ● 1 5 0 15 -262144 -749 0
;
#X obj 310 134 cnv 10 10 12 empty empty ● 1 5 0 15 -262144 -749 0
;
#N canvas 0 50 842 380 mode 0;
#X msg 79 151 0;
#X msg 135 151 1;
#X floatatom 249 240 5 0 0 0 - - -;
#X msg 192 151 2;
#X msg 249 151 3;
#X msg 306 151 4;
#X msg 452 151 5;
#X obj 452 119 select log ln logb;
#X msg 534 152 6;
#X obj 229 119 select sinWin Blackman-Harris;
#X obj 79 119 select lin sin exp;
#X msg 602 152 7;
#X msg 674 150 8;
#X obj 602 120 select bounce bounce2 bounce3;
#X msg 724 151 9;
#X obj 68 68 cnv 10 10 17 empty empty empty 20 12 0 14 -169502 -1 0
;
#X obj 79 68 r \$0-modeSelector;
#X obj 238 273 cnv 10 10 17 empty empty empty 20 12 0 14 -245978 -1
0;
#X obj 249 273 s \$0-modeIndex;
#X connect 0 0 2 0;
#X connect 1 0 2 0;
#X connect 2 0 18 0;
#X connect 3 0 2 0;
#X connect 4 0 2 0;
#X connect 5 0 2 0;
#X connect 6 0 2 0;
#X connect 7 0 6 0;
#X connect 7 1 6 0;
#X connect 7 2 8 0;
#X connect 7 3 13 0;
#X connect 8 0 2 0;
#X connect 9 0 4 0;
#X connect 9 1 5 0;
#X connect 9 2 7 0;
#X connect 10 0 0 0;
#X connect 10 1 1 0;
#X connect 10 2 3 0;
#X connect 10 3 9 0;
#X connect 11 0 2 0;
#X connect 12 0 2 0;
#X connect 13 0 11 0;
#X connect 13 1 12 0;
#X connect 13 2 14 0;
#X connect 14 0 2 0;
#X connect 16 0 10 0;
#X restore 341 159 pd mode selector;
#X obj 324 162 cnv 10 10 12 empty empty ● 1 5 0 15 -262144 -169502
0;
#X obj 154 104 cnv 10 10 12 empty empty ● 1 5 0 15 -262144 -169502
0;
#X obj 295 49 cnv 10 10 12 empty empty ● 1 5 0 15 -262144 -169502
0;
#X obj 131 104 cnv 10 10 12 empty empty ● 1 5 0 15 -262144 -260129
0;
#X obj 143 104 cnv 10 10 12 empty empty ● 1 5 0 15 -262144 -184289
0;
#X connect 0 0 2 0;
#X connect 2 0 3 0;
#X connect 3 0 1 0;
#X connect 3 1 4 0;
#X connect 5 0 6 0;
#X connect 6 0 7 0;
#X connect 6 1 25 0;
#X connect 7 0 0 0;
#X connect 13 0 15 0;
#X connect 15 0 3 1;
#X connect 16 0 7 0;
#X connect 20 0 23 0;
#X connect 20 1 21 0;
#X connect 21 0 23 0;
#X connect 22 0 20 0;
#X connect 30 0 27 0;
#X connect 34 0 35 0;
#X connect 35 0 33 0;
#X connect 40 0 36 0;
#X coords 0 1 1 -1 75 32 1 621 65;
