#N canvas 797 81 602 382 10;
#X obj 56 238 inlet;
#N canvas 195 312 461 146 \$0-print 0;
#X obj 70 35 inlet;
#X restore 83 302 pd \$0-print;
#X obj 140 9 loadbang;
#N canvas 764 23 708 707 load_args 0;
#X obj 358 251 makefilename $%d;
#X obj 272 327 pack f \$0;
#X text 192 79 Maximum attempts, f 8;
#X obj 484 338 send pd-\$0-test_arg;
#X msg 358 282 obj 37 135 list append \$1, f 14;
#X obj 59 101 r \$0-noarg;
#X obj 206 219 select;
#X obj 272 219 trigger float float float;
#X msg 151 85 4096;
#X text 257 87 (that might be engouh);
#X obj 484 245 makefilename $%d-test;
#N canvas 344 339 309 232 \$0-test_arg 0;
#X obj 10 60 symbol \$5-test;
#X obj 133 60 makefilename $%d-test;
#X obj 37 135 list append \$5;
#X obj 10 10 r 16450-i;
#X obj 10 35 trigger bang float;
#X obj 10 85 sel s;
#X obj 37 110 b;
#X obj 37 160 s 16450-arg;
#X obj 10 185 s 16450-noarg;
#X connect 0 0 5 0;
#X connect 1 0 5 1;
#X connect 2 0 7 0;
#X connect 3 0 4 0;
#X connect 4 0 0 0;
#X connect 4 1 1 0;
#X connect 5 0 8 0;
#X connect 5 1 6 0;
#X connect 6 0 2 0;
#X restore 498 178 pd \$0-test_arg;
#X obj 164 428 r \$0-arg;
#X obj 203 496 list;
#X obj 164 463 list prepend;
#X obj 120 492 list;
#X text 180 631 list of arguments, f 9;
#X msg 272 380 \; pd-\$2-test_arg obj 10 10 r \$2-i \; pd-\$2-test_arg
obj 10 35 trigger bang float \; pd-\$2-test_arg obj 10 85 sel s \;
pd-\$2-test_arg obj 37 110 b \; pd-\$2-test_arg obj 37 160 s \$2-arg
\; pd-\$2-test_arg obj 10 185 s \$2-noarg \; pd-\$2-test_arg connect
3 0 4 0 \; pd-\$2-test_arg connect 4 1 1 0 \; pd-\$2-test_arg connect
4 0 0 0 \; pd-\$2-test_arg connect 1 0 5 1 \; pd-\$2-test_arg connect
0 0 5 0 \; pd-\$2-test_arg connect 5 1 6 0 \; pd-\$2-test_arg connect
6 0 2 0 \; pd-\$2-test_arg connect 2 0 7 0 \; pd-\$2-test_arg connect
5 0 8 0 \; \$2-i \$1 \;;
#X msg 484 272 clear \, obj 10 60 symbol \$1 \, obj 133 60 makefilename
$%d-test, f 27;
#X obj 119 638 outlet;
#X obj 151 157 until;
#X obj 206 189 + 1;
#X msg 233 147 0;
#X obj 151 123 trigger float bang float;
#X obj 151 188 float;
#X obj 151 55 inlet;
#X text 314 637 https://forum.pdpatchrepo.info/topic/10892/collect-all-arguments-as-a-list/4
;
#X connect 0 0 4 0;
#X connect 1 0 17 0;
#X connect 4 0 3 0;
#X connect 5 0 15 0;
#X connect 5 0 20 1;
#X connect 6 0 15 0;
#X connect 6 1 7 0;
#X connect 7 0 1 0;
#X connect 7 1 0 0;
#X connect 7 2 10 0;
#X connect 8 0 23 0;
#X connect 10 0 18 0;
#X connect 12 0 14 0;
#X connect 13 0 14 1;
#X connect 13 0 15 1;
#X connect 14 0 13 0;
#X connect 15 0 19 0;
#X connect 18 0 3 0;
#X connect 20 0 24 0;
#X connect 21 0 24 1;
#X connect 21 0 6 0;
#X connect 22 0 24 1;
#X connect 23 0 20 0;
#X connect 23 1 22 0;
#X connect 23 2 6 1;
#X connect 24 0 21 0;
#X connect 25 0 8 0;
#X restore 140 64 pd load_args;
#X obj 263 115 list split 1;
#X obj 297 296 s pd-\$0-print;
#X obj 297 197 trigger bang list;
#X msg 297 218 connect 0 0 1 0;
#X obj 396 268 list trim;
#X obj 396 247 list prepend obj 70 70 print;
#X obj 56 259 t a a;
#X obj 56 330 outlet;
#N canvas 0 50 450 300 ifValue 0;
#X obj 62 43 inlet;
#X obj 62 204 outlet;
#X obj 62 64 trigger anything bang;
#X obj 185 113 == 0;
#X obj 62 145 easyflow/switch2;
#X obj 155 121 tgl 15 0 empty empty empty 17 7 0 10 -262144 -1 -1 0
1;
#X obj 155 206 outlet;
#X obj 200 38 inlet;
#X obj 185 92 v;
#X connect 0 0 2 0;
#X connect 2 0 4 0;
#X connect 2 1 8 0;
#X connect 3 0 5 0;
#X connect 4 0 1 0;
#X connect 4 1 6 0;
#X connect 5 0 4 1;
#X connect 7 0 8 1;
#X connect 8 0 3 0;
#X restore 83 281 pd ifValue;
#X obj 140 85 route bang, f 21;
#X msg 259 35 1;
#X obj 259 56 v \$0-true;
#X obj 167 158 bng 15 250 50 0 empty empty empty 17 7 0 10 -262144
-1 -1;
#X symbolatom 140 257 10 0 0 0 - - -;
#X obj 263 139 select true;
#X obj 263 160 bng 15 250 50 0 empty empty empty 17 7 0 10 -262144
-1 -1;
#X obj 140 139 t b b;
#X obj 140 215 symbol \$0-true;
#X obj 140 32 t b b;
#X connect 0 0 10 0;
#X connect 2 0 22 0;
#X connect 3 0 13 0;
#X connect 4 0 18 0;
#X connect 4 1 6 0;
#X connect 6 0 7 0;
#X connect 6 1 9 0;
#X connect 7 0 5 0;
#X connect 8 0 5 0;
#X connect 9 0 8 0;
#X connect 10 0 11 0;
#X connect 10 1 12 0;
#X connect 12 0 1 0;
#X connect 13 0 20 0;
#X connect 13 1 4 0;
#X connect 14 0 15 0;
#X connect 16 0 6 0;
#X connect 17 0 12 1;
#X connect 18 0 19 0;
#X connect 18 1 17 0;
#X connect 19 0 21 0;
#X connect 20 0 21 0;
#X connect 20 1 16 0;
#X connect 21 0 17 0;
#X connect 22 0 3 0;
#X connect 22 1 14 0;
