#N struct 1003-struct1 float x float y float rgb array struct2Elements
1003-struct2;
#N struct 1003-struct2 float x float y float rgb array struct3Elements
1003-struct3;
#N struct 1003-struct3 float strenght float perception float endurance
float charisma float intelligence float agility float luck;
#N canvas 811 119 582 428 10;
#N canvas 1496 153 393 392 \$0-data 1;
#X scalar 1003-struct1 0 0 444 \; 0 0 0 \; 0 0 0 0 0 0 0 \; \; \;;
#X scalar 1003-struct1 6 6 444 \; 0 0 0 \; 0 0 0 0 0 0 0 \; \; \;;
#X scalar 1003-struct1 12 12 444 \; 0 0 0 \; 0 0 0 0 0 0 0 \; \; \;
;
#X scalar 1003-struct1 18 18 444 \; 0 0 0 \; 0 0 0 0 0 0 0 \; \; \;
;
#X scalar 1003-struct1 24 24 444 \; 0 0 0 \; 0 0 0 0 0 0 0 \; \; \;
;
#X scalar 1003-struct1 30 30 444 \; 0 0 0 \; 0 0 0 0 0 0 0 \; \; \;
;
#X scalar 1003-struct1 36 36 444 \; 0 0 0 \; 0 0 0 0 0 0 0 \; \; \;
;
#X scalar 1003-struct1 42 42 444 \; 0 0 0 \; 0 0 0 0 0 0 0 \; \; \;
;
#X scalar 1003-struct1 48 48 444 \; 0 0 0 \; 0 0 0 0 0 0 0 \; \; \;
;
#X scalar 1003-struct1 54 54 444 \; 0 0 0 \; 0 0 0 0 0 0 0 \; \; \;
;
#X scalar 1003-struct1 60 60 444 \; 0 0 0 \; 0 0 0 0 0 0 0 \; \; \;
;
#X scalar 1003-struct1 66 66 444 \; 0 0 0 \; 0 0 0 0 0 0 0 \; \; \;
;
#X scalar 1003-struct1 72 72 444 \; 0 0 0 \; 0 0 0 0 0 0 0 \; \; \;
;
#X scalar 1003-struct1 78 78 444 \; 0 0 0 \; 0 0 0 0 0 0 0 \; \; \;
;
#X scalar 1003-struct1 84 84 444 \; 0 0 0 \; 0 0 0 0 0 0 0 \; \; \;
;
#X scalar 1003-struct1 90 90 444 \; 0 0 0 \; 0 0 0 0 0 0 0 \; \; \;
;
#X scalar 1003-struct1 96 96 444 \; 0 0 0 \; 0 0 0 0 0 0 0 \; \; \;
;
#X scalar 1003-struct1 102 102 444 \; 0 0 0 \; 0 0 0 0 0 0 0 \; \;
\;;
#X scalar 1003-struct1 108 108 444 \; 0 0 0 \; 0 0 0 0 0 0 0 \; \;
\;;
#X scalar 1003-struct1 114 114 444 \; 0 0 0 \; 0 0 0 0 0 0 0 \; \;
\;;
#X scalar 1003-struct1 120 120 444 \; 0 0 0 \; 0 0 0 0 0 0 0 \; \;
\;;
#X scalar 1003-struct1 126 126 444 \; 0 0 0 \; 0 0 0 0 0 0 0 \; \;
\;;
#X scalar 1003-struct1 132 132 444 \; 0 0 0 \; 0 0 0 0 0 0 0 \; \;
\;;
#X scalar 1003-struct1 138 138 444 \; 0 0 0 \; 0 0 0 0 0 0 0 \; \;
\;;
#X scalar 1003-struct1 144 144 444 \; 0 0 0 \; 0 0 0 0 0 0 0 \; \;
\;;
#X scalar 1003-struct1 150 150 444 \; 0 0 0 \; 0 0 0 0 0 0 0 \; \;
\;;
#X scalar 1003-struct1 156 156 444 \; 0 0 0 \; 0 0 0 0 0 0 0 \; \;
\;;
#X scalar 1003-struct1 162 162 444 \; 0 0 0 \; 0 0 0 0 0 0 0 \; \;
\;;
#X scalar 1003-struct1 168 168 444 \; 0 0 0 \; 0 0 0 0 0 0 0 \; \;
\;;
#X scalar 1003-struct1 174 174 444 \; 0 0 0 \; 0 0 0 0 0 0 0 \; \;
\;;
#X scalar 1003-struct1 180 180 444 \; 0 0 0 \; 0 0 0 0 0 0 0 \; \;
\;;
#X scalar 1003-struct1 186 186 444 \; 0 0 0 \; 0 0 0 0 0 0 0 \; \;
\;;
#X scalar 1003-struct1 192 192 444 \; 0 0 0 \; 0 0 0 0 0 0 0 \; \;
\;;
#X scalar 1003-struct1 198 198 444 \; 0 0 0 \; 0 0 0 0 0 0 0 \; \;
\;;
#X scalar 1003-struct1 204 204 444 \; 0 0 0 \; 0 0 0 0 0 0 0 \; \;
\;;
#X scalar 1003-struct1 210 210 444 \; 0 0 0 \; 0 0 0 0 0 0 0 \; \;
\;;
#X scalar 1003-struct1 216 216 444 \; 0 0 0 \; 0 0 0 0 0 0 0 \; \;
\;;
#X scalar 1003-struct1 222 222 444 \; 0 0 0 \; 0 0 0 0 0 0 0 \; \;
\;;
#X scalar 1003-struct1 228 228 444 \; 0 0 0 \; 0 0 0 0 0 0 0 \; \;
\;;
#X scalar 1003-struct1 234 234 444 \; 0 0 0 \; 0 0 0 0 0 0 0 \; \;
\;;
#X scalar 1003-struct1 240 240 444 \; 0 0 0 \; 0 0 0 0 0 0 0 \; \;
\;;
#X scalar 1003-struct1 246 246 444 \; 0 0 0 \; 0 0 0 0 0 0 0 \; \;
\;;
#X scalar 1003-struct1 252 252 444 \; 0 0 0 \; 0 0 0 0 0 0 0 \; \;
\;;
#X scalar 1003-struct1 258 258 444 \; 0 0 0 \; 0 0 0 0 0 0 0 \; \;
\;;
#X scalar 1003-struct1 264 264 444 \; 0 0 0 \; 0 0 0 0 0 0 0 \; \;
\;;
#X scalar 1003-struct1 270 270 444 \; 0 0 0 \; 0 0 0 0 0 0 0 \; \;
\;;
#X scalar 1003-struct1 276 276 444 \; 0 0 0 \; 0 0 0 0 0 0 0 \; \;
\;;
#X scalar 1003-struct1 282 282 444 \; 0 0 0 \; 0 0 0 0 0 0 0 \; \;
\;;
#X scalar 1003-struct1 288 288 444 \; 0 0 0 \; 0 0 0 0 0 0 0 \; \;
\;;
#X scalar 1003-struct1 294 294 444 \; 0 0 0 \; 0 0 0 0 0 0 0 \; \;
\;;
#X restore 390 151 pd \$0-data;
#N canvas 0 50 450 300 \$0-template1 0;
#X obj 48 96 filledpolygon rgb 111 2 0 0 10 0 10 10 0 10 0 -1;
#X obj 45 35 struct \$0-struct1 float x float y float rgb array struct2Elements
\$0-struct2;
#X restore 389 79 pd \$0-template1;
#X obj 390 185 bng 15 250 50 0 empty empty empty 17 7 0 10 -262144
-1 -1;
#N canvas 76 50 815 591 initialize 0;
#X obj 61 28 loadbang;
#X obj 61 80 bng 15 250 50 0 empty empty empty 17 7 0 10 -262144 -1
-1;
#X obj 192 245 symbol pd-\$0-data;
#X obj 192 299 pointer;
#X msg 192 267 traverse \$1 \, bang;
#X obj 61 171 trigger bang bang bang, f 38;
#X msg 324 196 clear;
#X obj 324 218 s pd-\$0-data;
#X obj 75 56 inlet;
#X msg 171 369 444;
#X obj 33 411 append \$0-struct1 x y rgb, f 30;
#X obj 61 245 easyflow/counter;
#X obj 61 291 t f f b;
#X msg 61 223 set 0 \, 50;
#X obj 33 368 * 6;
#X obj 102 368 * 6;
#X connect 0 0 1 0;
#X connect 1 0 5 0;
#X connect 2 0 4 0;
#X connect 3 0 10 3;
#X connect 4 0 3 0;
#X connect 5 0 13 0;
#X connect 5 1 2 0;
#X connect 5 2 6 0;
#X connect 6 0 7 0;
#X connect 8 0 1 0;
#X connect 9 0 10 2;
#X connect 11 0 12 0;
#X connect 12 0 14 0;
#X connect 12 1 15 0;
#X connect 12 2 9 0;
#X connect 13 0 11 0;
#X connect 14 0 10 0;
#X connect 15 0 10 1;
#X restore 390 207 pd initialize;
#X obj 446 391 easyflow-info;
#X text 27 13 [getAllScalars] reads a data holding subPatch and outputs
pointers to the scalars it contains \, one at a time.;
#X obj 27 129 deleteScalar \$0-data;
#N canvas 0 50 608 534 do 0;
#X obj 65 169 bng 15 250 50 0 empty empty empty 17 7 0 10 -262144 -1
-1;
#X obj 65 189 f \$0;
#X floatatom 65 211 5 0 0 0 - - -, f 5;
#X obj 65 267 pointer;
#X msg 65 235 traverse pd-\$1-data \, bang;
#X obj 65 319 append \$0-struct1;
#X obj 330 287 easyflow/getNofScalars \$0-data;
#X obj 322 228 tgl 15 0 empty empty empty 17 7 0 10 -262144 -1 -1 0
1;
#X obj 322 250 metro 500;
#X floatatom 330 309 5 0 0 0 - - -, f 5;
#X connect 0 0 1 0;
#X connect 1 0 2 0;
#X connect 2 0 4 0;
#X connect 3 0 5 1;
#X connect 4 0 3 0;
#X connect 6 0 9 0;
#X connect 7 0 8 0;
#X connect 8 0 6 0;
#X restore 179 361 pd do not work;
#X msg 60 194 write zzz.txt;
#X obj 60 216 s pd-\$0-data;
#N canvas 0 50 450 300 \$0-template2 0;
#X obj 45 35 struct \$0-struct2 float x float y float rgb array struct3Elements
\$0-struct3;
#X restore 389 99 pd \$0-template2;
#X obj 127 272;
#X obj 187 230 textfile;
#X msg 225 123 print;
#X obj 233 193 bng 15 250 50 0 empty empty empty 17 7 0 10 -262144
-1 -1;
#X msg 240 161 rewind;
#X obj 253 273 bng 15 250 50 0 empty empty empty 17 7 0 10 -262144
-1 -1;
#X obj 187 302 print TEXTFILE:;
#X obj 331 253 qlist;
#N canvas 0 50 556 153 \$0-template3 1;
#X obj 45 35 struct \$0-struct3 float strenght float perception float
endurance float charisma float intelligence float agility float luck
;
#X restore 389 119 pd \$0-template3;
#X msg 195 90 read zzz.txt cr;
#X obj 381 311 text;
#X obj 371 288 easyflow/labelCnvF SEE_THIS;
#X connect 2 0 3 0;
#X connect 8 0 9 0;
#X connect 12 0 17 0;
#X connect 12 1 16 0;
#X connect 13 0 12 0;
#X connect 14 0 12 0;
#X connect 15 0 12 0;
#X connect 20 0 12 0;
