#N canvas 0 50 636 534 10;
#X obj 50 37 inlet;
#X obj 164 425 outlet;
#X obj 114 102 v \$0-i;
#X obj 50 129 until;
#X obj 50 58 t b b f, f 22;
#X obj 164 178 f;
#X obj 164 199 t f b;
#X floatatom 191 251 5 0 0 0 - - -;
#X msg 50 79 666;
#X obj 191 271 expr pow(10 \, $f1);
#X floatatom 191 292 15 0 0 0 - - -;
#X obj 164 330 div;
#X obj 164 351 sel 0;
#X obj 164 396 v \$0-i;
#X obj 164 372 t b b;
#X obj 191 230 ++v \$0-i;
#X msg 114 81 -1;
#X obj 364 425 outlet;
#X obj 364 178 f;
#X obj 364 199 t f b;
#X floatatom 391 251 5 0 0 0 - - -;
#X obj 391 271 expr pow(10 \, $f1);
#X floatatom 391 292 15 0 0 0 - - -;
#X obj 364 330 div;
#X obj 364 351 sel 0;
#X obj 364 396 v \$0-i;
#X obj 364 372 t b b;
#X obj 391 230 ++v \$0-i;
#N canvas 750 145 663 468 getFractionalDigits 1;
#X obj 61 12 inlet;
#X floatatom 149 183 10 0 0 0 - - -;
#X obj 149 162 expr modf($f1);
#X obj 61 43 t b f b, f 35;
#X obj 149 113 f;
#X obj 266 88 v \$0-fracDigits;
#X msg 266 65 0;
#X obj 249 89 cnv 10 16 16 empty empty ❴❵ -1 7 0 15 -262144 -135232
0;
#X obj 61 94 until;
#X obj 149 134 t f f;
#X obj 149 203 sel 0;
#X obj 149 318 v \$0-fracDigits;
#X obj 132 318 cnv 10 16 16 empty empty ❴❵ -1 7 0 15 -262144 -135232
0;
#X obj 149 294 t b b;
#X floatatom 149 339 5 0 0 0 - - -;
#X msg 61 64 666;
#X obj 18 146 easyflow/counter;
#X floatatom 18 167 5 0 0 0 - - -;
#X obj 10 26 bng 15 250 50 0 empty empty empty 17 7 0 10 -262144 -1
-1;
#X msg 10 46 set 0;
#X obj 258 206 f;
#X obj 258 227 * 10;
#X obj 176 228 bng 15 250 50 0 empty empty empty 17 7 0 10 -262144
-1 -1;
#X obj 176 248 ++v \$0-fracDigits;
#X obj 158 248 cnv 10 16 16 empty empty ❴❵ -1 7 0 15 -262144 -135232
0;
#X msg 138 8 54321.1;
#X connect 0 0 18 0;
#X connect 0 0 3 0;
#X connect 1 0 10 0;
#X connect 2 0 1 0;
#X connect 3 0 15 0;
#X connect 3 1 4 1;
#X connect 3 2 6 0;
#X connect 4 0 9 0;
#X connect 6 0 5 0;
#X connect 8 0 4 0;
#X connect 8 0 16 0;
#X connect 9 0 2 0;
#X connect 9 1 20 1;
#X connect 10 0 13 0;
#X connect 10 1 22 0;
#X connect 11 0 14 0;
#X connect 13 0 11 0;
#X connect 13 1 8 1;
#X connect 15 0 8 0;
#X connect 16 0 17 0;
#X connect 18 0 19 0;
#X connect 19 0 16 0;
#X connect 20 0 21 0;
#X connect 21 0 4 1;
#X connect 22 0 20 0;
#X connect 22 0 23 0;
#X connect 25 0 18 0;
#X connect 25 0 3 0;
#X restore 248 81 pd getFractionalDigits;
#X msg 251 21 54321.1;
#X connect 0 0 4 0;
#X connect 3 0 5 0;
#X connect 4 0 8 0;
#X connect 4 1 16 0;
#X connect 4 2 5 1;
#X connect 4 2 28 0;
#X connect 5 0 6 0;
#X connect 6 0 11 0;
#X connect 6 1 15 0;
#X connect 7 0 9 0;
#X connect 8 0 3 0;
#X connect 9 0 10 0;
#X connect 10 0 11 1;
#X connect 11 0 12 0;
#X connect 12 0 14 0;
#X connect 13 0 1 0;
#X connect 14 0 13 0;
#X connect 14 1 3 1;
#X connect 15 0 7 0;
#X connect 16 0 2 0;
#X connect 18 0 19 0;
#X connect 19 0 23 0;
#X connect 19 1 27 0;
#X connect 20 0 21 0;
#X connect 21 0 22 0;
#X connect 22 0 23 1;
#X connect 23 0 24 0;
#X connect 24 0 26 0;
#X connect 25 0 17 0;
#X connect 26 0 25 0;
#X connect 27 0 20 0;
#X connect 29 0 4 0;
