#N canvas 0 50 335 315 10;
#X obj 49 124 realtime;
#X obj 49 88 bng 15 250 50 0 empty empty empty 17 7 0 10 -262144 -1
-1;
#X obj 49 64 t b b;
#X floatatom 49 146 15 0 0 0 - - -, f 15;
#X obj 49 175 <= 200;
#X obj 49 197 sel 1;
#X obj 49 36 inlet;
#X obj 49 219 outlet;
#X obj 167 82 loadbang;
#N canvas 0 50 492 399 getArgument 0;
#X obj 141 25 inlet;
#X obj 264 109 makefilename $%d-test;
#X obj 141 84 trigger bang float;
#X obj 141 134 sel s;
#X obj 173 158 b;
#X obj 141 109 symbol \$1-test;
#X obj 173 183 list append \$1;
#X msg 141 51 1;
#X floatatom 141 268 5 0 0 0 - - -, f 5;
#X text 48 206 no argument;
#X obj 141 287 outlet;
#X text 36 340 https://forum.pdpatchrepo.info/topic/10892/collect-all-arguments-as-a-list/4
;
#X msg 141 206 200;
#X connect 0 0 7 0;
#X connect 1 0 3 1;
#X connect 2 0 5 0;
#X connect 2 1 1 0;
#X connect 3 0 12 0;
#X connect 3 1 4 0;
#X connect 4 0 6 0;
#X connect 5 0 3 0;
#X connect 6 0 8 0;
#X connect 7 0 2 0;
#X connect 8 0 10 0;
#X connect 12 0 8 0;
#X restore 167 105 pd getArgument;
#X floatatom 167 167 5 0 0 0 - - -, f 5;
#X obj 185 134 inlet;
#X connect 0 0 3 0;
#X connect 1 0 0 0;
#X connect 2 0 1 0;
#X connect 2 1 0 1;
#X connect 3 0 4 0;
#X connect 4 0 5 0;
#X connect 5 0 7 0;
#X connect 6 0 2 0;
#X connect 8 0 9 0;
#X connect 9 0 10 0;
#X connect 10 0 4 1;
#X connect 11 0 10 0;
