#N canvas 320 203 456 214 10;
#X text 24 14 easyflow library of abstractions;
#X text 161 168 created by Henri Augusto Bisognini;
#X text 121 147 https://github.com/HenriAugusto/easyflow;
#X text 25 72 See this object's help file for a list of abstractions!
;
