#N canvas 285 179 479 322 10;
#X obj 60 39 inlet;
#X obj 60 260 outlet;
#X obj 270 38 inlet;
#X obj 153 260 outlet;
#X obj 270 91 route bang float;
#X msg 270 112 1;
#X floatatom 270 159 5 0 0 0 - - -;
#X obj 270 186 v \$0-i;
#X obj 87 84 v \$0-i;
#X obj 60 215 easyflow/switch2;
#X obj 60 60 t a b;
#X obj 114 133 - 1;
#X obj 114 155 v \$0-i;
#X obj 87 110 t f f;
#X obj 270 137 i;
#X text 298 135 round;
#X obj 87 181 <= 0;
#X obj 317 38 loadbang;
#X obj 317 59 f \$1;
#X connect 0 0 10 0;
#X connect 2 0 4 0;
#X connect 4 0 5 0;
#X connect 4 1 14 0;
#X connect 5 0 14 0;
#X connect 6 0 7 0;
#X connect 8 0 13 0;
#X connect 9 0 1 0;
#X connect 9 1 3 0;
#X connect 10 0 9 0;
#X connect 10 1 8 0;
#X connect 11 0 12 0;
#X connect 13 0 16 0;
#X connect 13 1 11 0;
#X connect 14 0 6 0;
#X connect 16 0 9 1;
#X connect 17 0 18 0;
#X connect 18 0 4 0;
