#N struct 3659-struct1 float x float y float rgb;
#N canvas 548 175 765 498 10;
#X obj 27 72 bng 15 250 50 0 empty empty empty 17 7 0 10 -262144 -1
-1;
#X obj 27 129 getAllScalars \$0-data;
#N canvas 1354 179 288 322 \$0-data 1;
#X scalar 3659-struct1 145 183 998 \;;
#X scalar 3659-struct1 130 71 998 \;;
#X scalar 3659-struct1 151 156 998 \;;
#X scalar 3659-struct1 177 140 998 \;;
#X scalar 3659-struct1 122 170 998 \;;
#X scalar 3659-struct1 101 92 998 \;;
#X scalar 3659-struct1 187 128 998 \;;
#X scalar 3659-struct1 36 20 1 \;;
#X scalar 3659-struct1 176 186 998 \;;
#X scalar 3659-struct1 161 167 998 \;;
#X scalar 3659-struct1 26 142 1 \;;
#X scalar 3659-struct1 35 3 1 \;;
#X scalar 3659-struct1 21 196 1 \;;
#X scalar 3659-struct1 108 45 998 \;;
#X scalar 3659-struct1 152 192 998 \;;
#X scalar 3659-struct1 113 94 998 \;;
#X scalar 3659-struct1 112 34 998 \;;
#X scalar 3659-struct1 32 10 1 \;;
#X scalar 3659-struct1 14 188 1 \;;
#X scalar 3659-struct1 148 108 998 \;;
#X scalar 3659-struct1 140 151 998 \;;
#X scalar 3659-struct1 64 83 1 \;;
#X scalar 3659-struct1 18 8 1 \;;
#X scalar 3659-struct1 10 169 1 \;;
#X scalar 3659-struct1 126 160 998 \;;
#X scalar 3659-struct1 123 15 998 \;;
#X scalar 3659-struct1 126 138 998 \;;
#X scalar 3659-struct1 5 2 1 \;;
#X scalar 3659-struct1 123 185 998 \;;
#X scalar 3659-struct1 63 82 1 \;;
#X scalar 3659-struct1 54 125 1 \;;
#X scalar 3659-struct1 122 38 998 \;;
#X scalar 3659-struct1 108 4 998 \;;
#X scalar 3659-struct1 20 88 1 \;;
#X scalar 3659-struct1 67 18 1 \;;
#X scalar 3659-struct1 80 103 1 \;;
#X scalar 3659-struct1 83 3 1 \;;
#X scalar 3659-struct1 158 158 998 \;;
#X scalar 3659-struct1 177 21 998 \;;
#X scalar 3659-struct1 174 117 998 \;;
#X scalar 3659-struct1 169 113 998 \;;
#X scalar 3659-struct1 17 134 1 \;;
#X scalar 3659-struct1 138 135 998 \;;
#X scalar 3659-struct1 126 195 998 \;;
#X scalar 3659-struct1 104 167 998 \;;
#X scalar 3659-struct1 58 175 1 \;;
#X scalar 3659-struct1 46 7 1 \;;
#X scalar 3659-struct1 126 138 998 \;;
#X scalar 3659-struct1 140 40 998 \;;
#X scalar 3659-struct1 14 151 1 \;;
#X scalar 3659-struct1 133 179 998 \;;
#X scalar 3659-struct1 81 134 1 \;;
#X scalar 3659-struct1 138 198 998 \;;
#X scalar 3659-struct1 31 40 1 \;;
#X scalar 3659-struct1 165 128 998 \;;
#X scalar 3659-struct1 66 54 1 \;;
#X scalar 3659-struct1 69 45 1 \;;
#X scalar 3659-struct1 19 129 1 \;;
#X scalar 3659-struct1 40 122 1 \;;
#X scalar 3659-struct1 164 146 998 \;;
#X scalar 3659-struct1 107 71 998 \;;
#X scalar 3659-struct1 199 5 998 \;;
#X scalar 3659-struct1 183 59 998 \;;
#X scalar 3659-struct1 118 137 998 \;;
#X scalar 3659-struct1 127 197 998 \;;
#X scalar 3659-struct1 47 156 1 \;;
#X scalar 3659-struct1 143 118 998 \;;
#X scalar 3659-struct1 175 126 998 \;;
#X scalar 3659-struct1 2 122 1 \;;
#X scalar 3659-struct1 44 166 1 \;;
#X scalar 3659-struct1 193 6 998 \;;
#X scalar 3659-struct1 135 80 998 \;;
#X scalar 3659-struct1 101 71 998 \;;
#X scalar 3659-struct1 20 113 1 \;;
#X scalar 3659-struct1 121 3 998 \;;
#X scalar 3659-struct1 196 136 998 \;;
#X scalar 3659-struct1 185 141 998 \;;
#X scalar 3659-struct1 102 164 998 \;;
#X scalar 3659-struct1 33 10 1 \;;
#X scalar 3659-struct1 4 93 1 \;;
#X scalar 3659-struct1 101 48 998 \;;
#X scalar 3659-struct1 65 175 1 \;;
#X scalar 3659-struct1 145 195 998 \;;
#X scalar 3659-struct1 94 112 1 \;;
#X scalar 3659-struct1 85 75 1 \;;
#X scalar 3659-struct1 70 85 1 \;;
#X scalar 3659-struct1 185 42 998 \;;
#X scalar 3659-struct1 143 8 998 \;;
#X scalar 3659-struct1 54 17 1 \;;
#X scalar 3659-struct1 19 113 1 \;;
#X scalar 3659-struct1 183 194 998 \;;
#X scalar 3659-struct1 14 155 1 \;;
#X scalar 3659-struct1 104 129 998 \;;
#X scalar 3659-struct1 98 158 1 \;;
#X scalar 3659-struct1 76 105 1 \;;
#X scalar 3659-struct1 3 175 1 \;;
#X scalar 3659-struct1 7 74 1 \;;
#X scalar 3659-struct1 125 191 998 \;;
#X scalar 3659-struct1 97 82 1 \;;
#X scalar 3659-struct1 86 40 1 \;;
#X restore 540 251 pd \$0-data;
#N canvas 0 50 450 300 \$0-template1 0;
#X obj 45 35 struct \$0-struct1 float x float y float rgb;
#X obj 48 96 filledpolygon rgb 111 2 0 0 10 0 10 10 0 10 0 -1;
#X restore 539 219 pd \$0-template1;
#X obj 540 285 bng 15 250 50 0 empty empty empty 17 7 0 10 -262144
-1 -1;
#N canvas 0 50 891 591 initialize 0;
#X obj 61 28 loadbang;
#X obj 61 80 bng 15 250 50 0 empty empty empty 17 7 0 10 -262144 -1
-1;
#X obj 178 245 symbol pd-\$0-data;
#X obj 178 299 pointer;
#X obj 61 245 until;
#X msg 178 267 traverse \$1 \, bang;
#X obj 61 171 trigger bang bang bang, f 34;
#X msg 296 196 clear;
#X obj 296 218 s pd-\$0-data;
#X obj 75 56 inlet;
#X msg 61 223 100;
#X obj 33 348 random 200;
#X obj 102 378 random 200;
#X obj 61 291 t b b b;
#X msg 171 329 444;
#X obj 33 431 append \$0-struct1 x y rgb, f 30;
#X connect 0 0 1 0;
#X connect 1 0 6 0;
#X connect 2 0 5 0;
#X connect 3 0 15 3;
#X connect 4 0 13 0;
#X connect 5 0 3 0;
#X connect 6 0 10 0;
#X connect 6 1 2 0;
#X connect 6 2 7 0;
#X connect 7 0 8 0;
#X connect 9 0 1 0;
#X connect 10 0 4 0;
#X connect 11 0 15 0;
#X connect 12 0 15 1;
#X connect 13 0 11 0;
#X connect 13 1 12 0;
#X connect 13 2 14 0;
#X connect 14 0 15 2;
#X restore 540 307 pd initialize;
#X obj 27 161 trigger pointer pointer, f 28;
#X floatatom 27 215 5 0 0 0 - - -, f 5;
#X obj 27 234 >= 100;
#X obj 27 92 trigger bang bang, f 35;
#X obj 269 161 random 999;
#X obj 193 430 set \$0-struct1 rgb;
#X floatatom 193 367 5 0 0 0 - - -, f 5;
#X obj 27 256 select 1 0;
#X obj 60 345 expr 999-$f2;
#X obj 27 193 get \$0-struct1 x;
#X floatatom 60 367 5 0 0 0 - - -, f 5;
#X text 27 13 [getAllScalars] reads a data holding subPatch and outputs
pointers to the scalars it contains \, one at a time.;
#X text 476 48 The subpatch contains scalar with positions ranging
from 0 to 200, f 33;
#X obj 585 440 easyflow-info;
#X text 476 95 We get a pointer to each one using [getAllScalars].
If its X position is >= 100 we give one color. Otherwise we give it
an inverted color., f 34;
#X text 291 127 get a random color, f 12;
#X text 69 314 inverted color, f 8;
#X obj 193 345 i;
#X text 153 192 read x position, f 8;
#X connect 0 0 9 0;
#X connect 1 0 6 0;
#X connect 4 0 5 0;
#X connect 6 0 15 0;
#X connect 6 1 11 1;
#X connect 7 0 8 0;
#X connect 8 0 13 0;
#X connect 9 0 1 0;
#X connect 9 1 10 0;
#X connect 10 0 14 1;
#X connect 10 0 23 1;
#X connect 12 0 11 0;
#X connect 13 0 23 0;
#X connect 13 1 14 0;
#X connect 14 0 16 0;
#X connect 15 0 7 0;
#X connect 16 0 11 0;
#X connect 23 0 12 0;
