#N canvas 0 50 476 289 10;
#X obj 42 133 getFolder;
#X msg 42 102 symbol C:/Samples/Drums/Hihat.wav;
#X obj 332 236 easyflow-info;
#X text 40 30 Takes an input file path (as a symbol) and outputs the
folder;
#X symbolatom 42 179 0 0 0 0 - - -;
#X symbolatom 102 156 0 0 0 0 - - -;
#X text 25 230 see also:;
#X obj 102 231 getFile;
#X connect 0 0 4 0;
#X connect 0 1 5 0;
#X connect 1 0 0 0;
