#N canvas 240 173 638 503 10;
#X obj 72 36 inlet;
#X obj 415 91 outlet;
#X obj 415 44 receive \$0-easyflowGetMember;
#X obj 72 440 send;
#X obj 72 212 trigger bang symbol;
#X msg 72 398 getMember \$1-easyflowGetMember \$2;
#X symbolatom 202 355 40 0 0 0 - - -;
#N canvas 0 50 623 433 testForType 0;
#X obj 45 25 inlet;
#X obj 45 47 trigger symbol symbol;
#X obj 168 81 easyflow/substring 0 1;
#X symbolatom 168 103 10 0 0 0 - - -;
#X symbolatom 45 350 30 0 0 0 - - -;
#X obj 45 369 outlet;
#X obj 99 268 easyflow/substring 1 L;
#X msg 168 154 1;
#X msg 99 305 symbol easyflowObjectAccess\$1;
#X obj 45 224 easyflow/switch3;
#X obj 168 122 select * &;
#X msg 235 154 0;
#X floatatom 168 198 5 0 0 0 - - -;
#X msg 201 154 2;
#X obj 329 268 easyflow/substring 1 L;
#X msg 329 305 symbol easyflowPublicObjectAccess\$1;
#X connect 0 0 1 0;
#X connect 1 0 9 0;
#X connect 1 1 2 0;
#X connect 2 0 3 0;
#X connect 3 0 10 0;
#X connect 4 0 5 0;
#X connect 6 0 8 0;
#X connect 7 0 12 0;
#X connect 8 0 4 0;
#X connect 9 0 4 0;
#X connect 9 1 6 0;
#X connect 9 2 14 0;
#X connect 10 0 7 0;
#X connect 10 1 13 0;
#X connect 10 2 11 0;
#X connect 11 0 12 0;
#X connect 12 0 9 1;
#X connect 13 0 12 0;
#X connect 14 0 15 0;
#X connect 15 0 4 0;
#X restore 202 237 pd testForType;
#X obj 159 259 inlet;
#X obj 159 291 pack s \$0;
#X msg 159 313 \$2 \$1;
#X obj 59 35 cnv 11 12 17 empty empty 1 2 9 0 14 -1 -262144 0;
#X obj 146 259 cnv 11 12 17 empty empty 3 2 9 0 14 -1 -262144 0;
#X obj 402 91 cnv 11 12 17 empty empty 1 2 9 0 14 -1 -262144 0;
#X obj 158 146 easyflow/listsOfLength 2;
#N canvas 0 50 457 158 error 0;
#X obj 38 25 inlet;
#X obj 38 67 print [getMember] error. Lists should be |sendIdentifier
memberName(;
#X connect 0 0 1 0;
#X restore 299 173 pd error;
#X obj 158 168 unpack s s;
#X obj 158 91 list;
#X text 309 238 if * use [objAccess];
#X text 309 258 if & use easyflowPublicObjectAccess;
#X obj 72 342 list \$0 \$2, f 15;
#X obj 72 108 symbol \$1;
#X obj 72 59 route symbol bang list;
#X obj 123 36 inlet;
#X obj 110 36 cnv 11 12 17 empty empty 2 2 9 0 14 -1 -262144 0;
#X connect 0 0 22 0;
#X connect 2 0 1 0;
#X connect 4 0 20 0;
#X connect 4 1 7 0;
#X connect 5 0 3 0;
#X connect 6 0 3 1;
#X connect 7 0 6 0;
#X connect 8 0 9 0;
#X connect 9 0 10 0;
#X connect 10 0 20 1;
#X connect 14 0 16 0;
#X connect 14 1 15 0;
#X connect 16 0 4 0;
#X connect 16 1 9 0;
#X connect 17 0 14 0;
#X connect 20 0 5 0;
#X connect 21 0 4 0;
#X connect 22 0 21 0;
#X connect 22 1 21 0;
#X connect 22 2 17 0;
#X connect 23 0 21 1;
