#N struct 4205-struct2 float x float y;
#N struct 4205-struct1 float x float y;
#N canvas 504 180 580 280 10;
#N canvas 1102 184 297 271 \$0-data 1;
#X scalar 4205-struct2 87 113 \;;
#X scalar 4205-struct2 123 77 \;;
#X scalar 4205-struct2 119 81 \;;
#X scalar 4205-struct2 56 144 \;;
#X scalar 4205-struct2 46 154 \;;
#X scalar 4205-struct2 89 111 \;;
#X scalar 4205-struct2 193 7 \;;
#X scalar 4205-struct2 33 167 \;;
#X scalar 4205-struct1 91 91 \;;
#X scalar 4205-struct1 84 84 \;;
#X scalar 4205-struct1 154 154 \;;
#X scalar 4205-struct1 191 191 \;;
#X scalar 4205-struct1 128 128 \;;
#X scalar 4205-struct1 173 173 \;;
#X scalar 4205-struct1 43 43 \;;
#X restore 390 131 pd \$0-data;
#N canvas 0 50 450 300 \$0-template1 0;
#X obj 45 35 struct \$0-struct1 float x float y;
#X obj 48 96 filledpolygon 111 444 4 0 0 10 0 10 10 0 10;
#X restore 389 69 pd \$0-template1;
#N canvas 0 50 450 300 \$0-template2 0;
#X obj 45 35 struct \$0-struct2 float x float y;
#X obj 48 95 filledpolygon 90 9 1 0 0 10 0 10 10 0 10;
#X restore 389 89 pd \$0-template2;
#X obj 47 94 getNofScalars \$0-data;
#X obj 47 68 bng 15 250 50 0 empty empty empty 17 7 0 10 -262144 -1
-1;
#X floatatom 47 116 5 0 0 0 - - -, f 5;
#X obj 390 165 bng 15 250 50 0 empty empty empty 17 7 0 10 -262144
-1 -1;
#X text 39 20 [getNofScalars] outputs the number of scalars in a given
subpatch.;
#N canvas 0 50 891 591 initialize 0;
#X obj 61 28 loadbang;
#X obj 177 286 symbol pd-\$0-data;
#X obj 177 340 pointer;
#X obj 61 80 bng 15 250 50 0 empty empty empty 17 7 0 10 -262144 -1
-1;
#X obj 61 276 until;
#X obj 61 320 t f f;
#X msg 177 308 traverse \$1 \, bang;
#X obj 61 298 random 200;
#X obj 61 100 trigger bang bang;
#X obj 467 286 symbol pd-\$0-data;
#X obj 467 340 pointer;
#X obj 323 392 append \$0-struct1 x y;
#X obj 351 276 until;
#X obj 351 320 t f f;
#X msg 467 308 traverse \$1 \, bang;
#X obj 351 202 trigger bang bang bang;
#X msg 502 227 clear;
#X obj 502 249 s pd-\$0-data;
#X obj 351 298 random 200;
#X obj 61 202 trigger bang bang;
#X obj 33 392 append \$0-struct2 x y;
#X obj 75 56 inlet;
#X msg 61 254 8;
#X msg 351 254 7;
#X obj 33 357 expr 200-$f1;
#X connect 0 0 3 0;
#X connect 1 0 6 0;
#X connect 2 0 20 2;
#X connect 3 0 8 0;
#X connect 4 0 7 0;
#X connect 5 0 24 0;
#X connect 5 1 20 1;
#X connect 6 0 2 0;
#X connect 7 0 5 0;
#X connect 8 0 19 0;
#X connect 8 1 15 0;
#X connect 9 0 14 0;
#X connect 10 0 11 2;
#X connect 12 0 18 0;
#X connect 13 0 11 0;
#X connect 13 1 11 1;
#X connect 14 0 10 0;
#X connect 15 0 23 0;
#X connect 15 1 9 0;
#X connect 15 2 16 0;
#X connect 16 0 17 0;
#X connect 18 0 13 0;
#X connect 19 0 22 0;
#X connect 19 1 1 0;
#X connect 21 0 3 0;
#X connect 22 0 4 0;
#X connect 23 0 12 0;
#X connect 24 0 20 0;
#X restore 390 187 pd initialize;
#X text 58 181 creates 15 scalars: 7 of type \$0-struct1;
#X text 198 196 8 of type \$0-struct2;
#X text 353 187 ->;
#X connect 3 0 5 0;
#X connect 4 0 3 0;
#X connect 6 0 8 0;
