#N canvas 0 50 563 598 10;
#X obj 40 20 inlet;
#X obj 174 195 list prepend traverse;
#X obj 174 217 list trim;
#X obj 174 313 pointer;
#X obj 174 173 symbol pd-\$1;
#X obj 40 313 until;
#X msg 40 335 next;
#X obj 220 337 bng 15 250 50 0 empty empty empty 17 7 0 10 -262144
-1 -1;
#X obj 174 415 trigger bang;
#X obj 174 437 easyflow/counter;
#X msg 308 265 1;
#X floatatom 174 459 5 0 0 0 - - -, f 5;
#X obj 220 357 t b b;
#X obj 233 510 float;
#X obj 233 542 outlet;
#X obj 40 51 trigger bang bang bang bang, f 58;
#X msg 443 432 0;
#X connect 0 0 15 0;
#X connect 1 0 2 0;
#X connect 2 0 3 0;
#X connect 3 0 8 0;
#X connect 3 1 7 0;
#X connect 4 0 1 0;
#X connect 5 0 6 0;
#X connect 6 0 3 0;
#X connect 7 0 12 0;
#X connect 8 0 9 0;
#X connect 9 0 11 0;
#X connect 10 0 9 1;
#X connect 11 0 13 1;
#X connect 12 0 13 0;
#X connect 12 1 5 1;
#X connect 13 0 14 0;
#X connect 15 0 5 0;
#X connect 15 1 4 0;
#X connect 15 2 10 0;
#X connect 15 3 16 0;
#X connect 16 0 13 1;
