#N canvas 854 252 396 440 10;
#X obj 86 100 easyflow/keepMax;
#X obj 86 281 line;
#X floatatom 86 303 5 0 0 0 - - -, f 5;
#X obj 86 335 trigger float float;
#X obj 86 357 outlet;
#X obj 186 360 cnv 10 10 17 empty empty empty 20 12 0 14 -239820 -1
0;
#X obj 168 58 cnv 10 10 17 empty empty empty 20 12 0 14 -239820 -1
0;
#X obj 73 357 cnv 11 12 17 empty \$0-canvas 1 2 9 0 14 -1 -262144 0
;
#X obj 73 57 cnv 11 12 17 empty \$0-canvas 1 2 9 0 14 -1 -262144 0
;
#X obj 86 57 inlet;
#X obj 86 228 pack f 0 \$1;
#X msg 86 250 \$1 \, \$2 \$3;
#X obj 147 182 cnv 11 12 17 empty \$0-canvas 2 2 9 0 14 -1 -262144
0;
#X obj 160 182 inlet;
#X floatatom 160 204 5 0 0 0 - - -, f 5;
#X floatatom 86 79 5 0 0 0 - - -, f 5;
#X floatatom 86 122 5 0 0 0 - - -, f 5;
#X obj 179 58 r \$0-currentValue;
#X obj 197 360 s \$0-currentValue;
#X floatatom 86 174 5 0 0 0 - - -, f 5;
#N canvas 0 50 450 300 pass if > currentValue 1;
#X obj 60 25 inlet;
#X obj 60 47 trigger float float, f 22;
#X obj 158 190 float;
#X floatatom 189 141 5 0 0 0 - - -, f 5;
#X obj 60 115 >;
#X obj 67 74 cnv 10 10 17 empty empty empty 20 12 0 14 -239820 -1 0
;
#X obj 78 74 r \$0-currentValue;
#X floatatom 78 96 5 0 0 0 - - -, f 5;
#X floatatom 60 137 5 0 0 0 - - -, f 5;
#X obj 60 156 sel 1;
#X obj 158 212 outlet;
#X connect 0 0 1 0;
#X connect 1 0 4 0;
#X connect 1 1 3 0;
#X connect 2 0 10 0;
#X connect 3 0 2 1;
#X connect 4 0 8 0;
#X connect 6 0 7 0;
#X connect 7 0 4 1;
#X connect 8 0 9 0;
#X connect 9 0 2 0;
#X restore 86 149 pd pass if > currentValue;
#X obj 69 152 cnv 10 10 17 empty empty ● 1 5 0 15 -262144 -239820
0;
#X connect 0 0 16 0;
#X connect 1 0 2 0;
#X connect 2 0 3 0;
#X connect 3 0 4 0;
#X connect 3 1 18 0;
#X connect 9 0 15 0;
#X connect 10 0 11 0;
#X connect 11 0 1 0;
#X connect 13 0 14 0;
#X connect 14 0 10 2;
#X connect 15 0 0 0;
#X connect 16 0 20 0;
#X connect 17 0 0 1;
#X connect 19 0 10 0;
#X connect 20 0 19 0;
