#N canvas 307 91 367 237 10;
#X obj 27 23 inlet;
#X obj 100 23 inlet;
#X obj 174 23 inlet;
#X obj 248 23 inlet;
#X obj 27 146 outlet;
#X obj 27 84 hueSaturationBrightness \$1 \$2 \$3;
#X obj 248 150 outlet;
#X obj 241 197 easyflow-info;
#X connect 0 0 5 0;
#X connect 1 0 5 1;
#X connect 2 0 5 2;
#X connect 3 0 5 3;
#X connect 5 0 4 0;
#X connect 5 1 6 0;
