#N canvas 85 133 915 417 10;
#X obj 177 157 hueSaturationLuminosity \$1 \$2 \$3;
#X obj 177 85 inlet;
#X obj 250 85 inlet;
#X obj 324 85 inlet;
#X obj 398 85 inlet;
#X obj 177 219 outlet;
#X obj 398 219 outlet;
#X connect 0 0 5 0;
#X connect 0 1 6 0;
#X connect 1 0 0 0;
#X connect 2 0 0 1;
#X connect 3 0 0 2;
#X connect 4 0 0 3;
