#N canvas 349 123 680 481 10;
#N canvas 299 89 450 300 bangAtEachChange 0;
#X obj 101 20 inlet;
#X obj 51 137 outlet;
#X obj 114 137 outlet;
#X obj 186 136 outlet;
#X obj 249 136 outlet;
#X obj 101 42 i;
#X obj 101 64 t b f;
#X obj 181 21 inlet;
#X obj 181 43 i;
#X obj 181 65 t b f;
#X obj 255 15 inlet;
#X obj 255 37 i;
#X obj 255 59 t b f;
#X connect 0 0 5 0;
#X connect 5 0 6 0;
#X connect 6 0 1 0;
#X connect 6 1 2 0;
#X connect 7 0 8 0;
#X connect 8 0 9 0;
#X connect 9 0 1 0;
#X connect 9 1 3 0;
#X connect 10 0 11 0;
#X connect 11 0 12 0;
#X connect 12 0 1 0;
#X connect 12 1 4 0;
#X restore 39 262 pd bangAtEachChange;
#X msg 39 363 color \$1 \$1 \$1;
#X obj 39 385 tgl 30 0 empty empty empty 17 7 0 10 -67117 -67117 -67117
0 1;
#X obj 39 73 vsl 15 128 0 255 0 0 empty empty Hue 0 -9 0 10 -262144
-1 -1 0 0;
#X floatatom 39 209 5 0 0 0 - - -, f 5;
#X obj 104 72 vsl 15 128 0 255 0 0 empty empty Saturation -22 -9 0
10 -262144 -1 -1 0 0;
#X floatatom 104 208 5 0 0 0 - - -, f 5;
#X obj 169 72 vsl 15 128 0 255 0 0 empty empty Brightness -13 -9 0
10 -262144 -1 -1 0 0;
#X floatatom 169 208 5 0 0 0 - - -, f 5;
#X floatatom 39 336 15 0 0 0 - - -, f 15;
#X text 306 309 Args: Hue \, Saturation \, Brightness;
#X text 304 327 (non initialized-arguments are set to the default:
0), f 33;
#X msg 308 225 color \$1 \$1 \$1;
#X obj 308 247 tgl 15 0 empty empty empty 17 7 0 10 -258056 -258056
-258056 0 1;
#X obj 308 135 tgl 20 0 empty empty empty 17 7 0 10 -262144 -1 -1 0
1;
#N canvas 0 50 280 212 rotateHue 0;
#X obj 64 86 easyflow/counter;
#X obj 64 108 % 256;
#X obj 64 130 t b f;
#X obj 64 64 metro 50;
#X obj 64 39 inlet;
#X obj 64 182 outlet;
#X obj 96 153 outlet;
#X connect 0 0 1 0;
#X connect 1 0 2 0;
#X connect 2 0 5 0;
#X connect 2 1 6 0;
#X connect 3 0 0 0;
#X connect 4 0 3 0;
#X restore 308 164 pd rotateHue;
#X text 336 136 <-rotate Hue;
#X obj 552 440 easyflow-info;
#X obj 93 440 easyflow/hsb;
#X text 37 440 Abrev:;
#X text 245 78 Both H \, S and B range from 0 to 255;
#X text 244 29 Outputs a number that represents a color on th HSB colorspace.
Internally it converts from HSB to RGB since RGB is the colorspace
used by Pure Data.;
#X obj 39 311 hueSaturationBrightness 255 255 255;
#N canvas 0 50 450 300 input 0;
#X obj 60 147 hueSaturationBrightness;
#X msg 60 169 color \$1;
#X obj 60 191 tgl 40 0 empty empty empty 17 7 0 10 -1984 -1 -1 0 1
;
#X obj 63 67 hsl 128 15 128 255 0 0 empty empty empty -2 -8 0 10 -262144
-1 -1 12700 0;
#X msg 60 115 150 255 \$1;
#X floatatom 60 87 5 0 0 0 - - -, f 5;
#X text 60 21 You can input a 3-element list for ease of use;
#X connect 0 0 1 0;
#X connect 1 0 2 0;
#X connect 3 0 5 0;
#X connect 4 0 0 0;
#X connect 5 0 4 0;
#X restore 278 440 pd input as a list;
#X obj 308 194 hueSaturationBrightness 64 255 255;
#X connect 0 0 22 0;
#X connect 0 1 22 1;
#X connect 0 2 22 2;
#X connect 0 3 22 3;
#X connect 1 0 2 0;
#X connect 3 0 4 0;
#X connect 4 0 0 0;
#X connect 5 0 6 0;
#X connect 6 0 0 1;
#X connect 7 0 8 0;
#X connect 8 0 0 2;
#X connect 9 0 1 0;
#X connect 12 0 13 0;
#X connect 14 0 15 0;
#X connect 15 0 24 0;
#X connect 15 1 24 1;
#X connect 22 0 9 0;
#X connect 24 0 12 0;
