#N canvas 465 260 915 417 10;
#X obj 72 67 inlet;
#X obj 335 100 v \$0-hue;
#X obj 324 100 cnv 10 10 17 empty empty empty 20 12 0 14 -51135 -66577
0;
#X obj 595 181 cnv 10 10 17 empty empty empty 20 12 0 14 -98339 -66577
0;
#X obj 405 101 cnv 10 10 17 empty empty empty 20 12 0 14 -6145 -66577
0;
#X obj 335 37 inlet;
#X obj 415 34 inlet;
#X obj 605 32 inlet;
#X obj 72 179 bng 15 250 50 0 empty empty empty 17 7 0 10 -262144 -1
-1;
#X obj 607 349 outlet;
#X floatatom 415 78 5 0 0 0 - - -, f 5;
#X floatatom 605 76 5 0 0 0 - - -, f 5;
#X floatatom 335 65 5 0 0 0 - - -, f 5;
#X obj 415 56 easyflow/map 0 255 0 1;
#X obj 605 54 easyflow/map 0 255 0 1;
#X obj 597 270 cnv 10 10 17 empty empty empty 20 12 0 14 -259220 -66577
0;
#X obj 607 270 r \$0-makeFinalRGB;
#N canvas 0 50 606 365 makeFinalRGB 0;
#X obj 76 31 inlet;
#X obj 76 238 outlet;
#X obj 127 125 cnv 10 10 17 empty empty empty 20 12 0 14 -258049 -66577
0;
#X obj 138 125 v \$0-Red;
#X obj 207 125 cnv 10 10 17 empty empty empty 20 12 0 14 -4033 -66577
0;
#X obj 297 125 cnv 10 10 17 empty empty empty 20 12 0 14 -64 -66577
0;
#X obj 218 125 v \$0-Green;
#X obj 308 125 v \$0-Blue;
#X obj 76 53 trigger bang bang bang bang;
#X obj 76 205 easyflow/rgb;
#X obj 250 209 pack f f f;
#X obj 138 147 trigger f f;
#X obj 250 231 outlet;
#X connect 0 0 8 0;
#X connect 3 0 11 0;
#X connect 6 0 9 2;
#X connect 6 0 10 1;
#X connect 7 0 9 3;
#X connect 7 0 10 2;
#X connect 8 0 9 0;
#X connect 8 1 3 0;
#X connect 8 2 6 0;
#X connect 8 3 7 0;
#X connect 9 0 1 0;
#X connect 10 0 12 0;
#X connect 11 0 9 1;
#X connect 11 1 10 0;
#X restore 607 318 pd makeFinalRGB;
#X obj 605 95 t f f;
#X obj 627 146 cnv 10 10 17 empty empty empty 20 12 0 14 -131139 -66577
0;
#X obj 605 181 v \$0-brightness;
#X obj 415 101 v \$0-saturation;
#X obj 637 146 v \$0-center;
#X obj 637 121 * 255;
#X obj 607 292 bng 15 250 50 0 empty empty empty 17 7 0 10 -262144
-1 -1;
#X obj 72 326 trigger bang anything;
#X obj 72 270 v \$0-hue;
#X obj 61 270 cnv 10 10 17 empty empty empty 20 12 0 14 -51135 -66577
0;
#N canvas 249 73 457 390 CORE 0;
#X obj 45 26 inlet;
#X obj 109 32 cnv 10 10 17 empty empty empty 20 12 0 14 -241957 -66577
0;
#X obj 119 32 r \$0-type;
#X obj 45 68 list append;
#N canvas 0 50 585 300 counter 0;
#X obj 109 111 inlet rightmost - set counter;
#X obj 63 244 outlet;
#X obj 63 191 + 1;
#X obj 51 29 cnv 8 11 17 empty empty 1 2 9 0 14 -1 -262144 0;
#X obj 63 29 inlet bang to number;
#X obj 97 111 cnv 8 11 17 empty empty 2 2 9 0 14 -1 -262144 0;
#X obj 63 51 route float bang set increment;
#X obj 270 77 print -n [easyflow/counter] error! invalid input:;
#X obj 52 244 cnv 8 11 17 empty empty 1 2 9 0 14 -1 -262144 0;
#X obj 63 213 trigger float float;
#X obj 63 163 float 0;
#X connect 0 0 10 1;
#X connect 2 0 9 0;
#X connect 4 0 6 0;
#X connect 6 0 10 0;
#X connect 6 1 10 0;
#X connect 6 2 10 1;
#X connect 6 3 2 1;
#X connect 6 4 7 0;
#X connect 9 0 1 0;
#X connect 9 1 10 1;
#X connect 10 0 2 0;
#X restore 278 210 pd counter;
#X msg 345 135 0;
#X floatatom 278 232 5 0 0 0 - - -, f 5;
#X obj 134 164 trigger anything bang;
#N canvas 1246 314 450 300 process 0;
#X obj 76 38 inlet;
#X obj 75 210 outlet;
#X obj 76 80 route pivot increasing decreasing zero;
#N canvas 938 290 300 240 pivot 0;
#X obj 52 21 inlet;
#X obj 52 140 outlet;
#X obj 42 65 cnv 10 10 17 empty empty empty 20 12 0 14 -98339 -66577
0;
#X obj 52 65 v \$0-brightness;
#X obj 52 45 bng 15 250 50 0 empty empty empty 17 7 0 10 -262144 -1
-1;
#X obj 52 93 easyflow/map 0 1 0 255;
#X connect 0 0 4 0;
#X connect 3 0 5 0;
#X connect 4 0 3 0;
#X connect 5 0 1 0;
#X restore 76 132 pd pivot;
#X floatatom 76 154 5 0 0 0 - - -, f 5;
#X floatatom 141 154 5 0 0 0 - - -, f 5;
#N canvas 1043 52 565 446 increasing 0;
#X obj 53 21 inlet;
#X obj 53 45 bng 15 250 50 0 empty empty empty 17 7 0 10 -262144 -1
-1;
#X obj 272 89 cnv 10 10 17 empty empty empty 20 12 0 14 -62249 -66577
0;
#X obj 283 89 v \$0-hueInit;
#X obj 283 135 t f f;
#X obj 315 160 + 42.5;
#X obj 209 195 easyflow/map 666 666 0 255;
#X text 398 196 Hue_i Hue_f 0 255;
#X obj 209 88 v \$0-hue;
#X obj 198 88 cnv 10 10 17 empty empty empty 20 12 0 14 -51135 -66577
0;
#X obj 209 61 trigger b b;
#X floatatom 209 110 5 0 0 0 - - -, f 5;
#X floatatom 283 114 5 0 0 0 - - -, f 5;
#X obj 43 93 cnv 10 10 17 empty empty empty 20 12 0 14 -98339 -66577
0;
#X obj 53 93 v \$0-brightness;
#X obj 53 65 trigger bang bang;
#X floatatom 209 217 5 0 0 0 - - -, f 5;
#X obj 53 255 easyflow/map 0 1 0 666;
#X obj 201 314 cnv 10 10 17 empty empty empty 20 12 0 14 -131139 -66577
0;
#X obj 211 314 v \$0-center;
#X obj 53 287 trigger bang float bang;
#X obj 53 354 easyflow/map 1 0 666 666;
#X text 242 355 1 0 I_c Center;
#X obj 43 313 cnv 10 10 17 empty empty empty 20 12 0 14 -6145 -66577
0;
#X obj 53 313 v \$0-saturation;
#X obj 53 376 outlet;
#X connect 0 0 1 0;
#X connect 1 0 15 0;
#X connect 3 0 12 0;
#X connect 4 0 6 1;
#X connect 4 1 5 0;
#X connect 5 0 6 2;
#X connect 6 0 16 0;
#X connect 8 0 11 0;
#X connect 10 0 8 0;
#X connect 10 1 3 0;
#X connect 11 0 6 0;
#X connect 12 0 4 0;
#X connect 14 0 17 0;
#X connect 15 0 14 0;
#X connect 15 1 10 0;
#X connect 16 0 17 4;
#X connect 17 0 20 0;
#X connect 19 0 21 4;
#X connect 20 0 24 0;
#X connect 20 1 21 3;
#X connect 20 2 19 0;
#X connect 21 0 25 0;
#X connect 24 0 21 0;
#X restore 141 132 pd increasing;
#X floatatom 245 154 5 0 0 0 - - -, f 5;
#N canvas 840 54 450 718 decreasing 0;
#X obj 52 21 inlet;
#X obj 52 45 bng 15 250 50 0 empty empty empty 17 7 0 10 -262144 -1
-1;
#X obj 272 89 cnv 10 10 17 empty empty empty 20 12 0 14 -62249 -66577
0;
#X obj 283 89 v \$0-hueInit;
#X obj 283 135 t f f;
#X obj 315 160 + 42.5;
#X obj 209 88 v \$0-hue;
#X obj 198 88 cnv 10 10 17 empty empty empty 20 12 0 14 -51135 -66577
0;
#X obj 209 61 trigger b b;
#X floatatom 209 110 5 0 0 0 - - -, f 5;
#X floatatom 283 114 5 0 0 0 - - -, f 5;
#X obj 43 93 cnv 10 10 17 empty empty empty 20 12 0 14 -98339 -66577
0;
#X obj 53 93 v \$0-brightness;
#X obj 52 65 trigger bang bang;
#X floatatom 209 217 5 0 0 0 - - -, f 5;
#X obj 53 255 easyflow/map 0 1 0 666;
#X obj 201 314 cnv 10 10 17 empty empty empty 20 12 0 14 -131139 -66577
0;
#X obj 211 314 v \$0-center;
#X obj 53 287 trigger bang float bang;
#X obj 53 354 easyflow/map 1 0 666 666;
#X text 242 355 1 0 I_c Center;
#X obj 43 313 cnv 10 10 17 empty empty empty 20 12 0 14 -6145 -66577
0;
#X obj 53 313 v \$0-saturation;
#X obj 53 376 outlet;
#X obj 209 195 easyflow/map 666 666 255 0;
#X text 260 222 Hue_i Hue_f 255 0;
#X connect 0 0 1 0;
#X connect 1 0 13 0;
#X connect 3 0 10 0;
#X connect 4 0 24 1;
#X connect 4 1 5 0;
#X connect 5 0 24 2;
#X connect 6 0 9 0;
#X connect 8 0 6 0;
#X connect 8 1 3 0;
#X connect 9 0 24 0;
#X connect 10 0 4 0;
#X connect 12 0 15 0;
#X connect 13 0 12 0;
#X connect 13 1 8 0;
#X connect 14 0 15 4;
#X connect 15 0 18 0;
#X connect 17 0 19 4;
#X connect 18 0 22 0;
#X connect 18 1 19 3;
#X connect 18 2 17 0;
#X connect 19 0 23 0;
#X connect 22 0 19 0;
#X connect 24 0 14 0;
#X restore 245 132 pd decreasing;
#X floatatom 351 154 5 0 0 0 - - -, f 5;
#N canvas 941 290 532 438 zero 0;
#X obj 52 21 inlet;
#X obj 52 178 outlet;
#X obj 52 45 bng 15 250 50 0 empty empty empty 17 7 0 10 -262144 -1
-1;
#X obj 42 94 cnv 10 10 17 empty empty empty 20 12 0 14 -6145 -66577
0;
#X obj 52 94 v \$0-saturation;
#X obj 193 95 cnv 10 10 17 empty empty empty 20 12 0 14 -131139 -66577
0;
#X obj 203 95 v \$0-center;
#X obj 52 65 trigger bang bang;
#X obj 52 141 easyflow/map 1 0 0 666;
#X text 233 143 1 0 0 center;
#X connect 0 0 2 0;
#X connect 2 0 7 0;
#X connect 4 0 8 0;
#X connect 6 0 8 4;
#X connect 7 0 4 0;
#X connect 7 1 6 0;
#X connect 8 0 1 0;
#X restore 351 132 pd zero;
#X obj 76 173 bng 15 250 50 0 empty empty empty 17 7 0 10 -262144 -1
-1;
#X obj 141 173 bng 15 250 50 0 empty empty empty 17 7 0 10 -262144
-1 -1;
#X obj 245 173 bng 15 250 50 0 empty empty empty 17 7 0 10 -262144
-1 -1;
#X obj 351 173 bng 15 250 50 0 empty empty empty 17 7 0 10 -262144
-1 -1;
#X connect 0 0 2 0;
#X connect 2 0 3 0;
#X connect 2 1 6 0;
#X connect 2 2 8 0;
#X connect 2 3 10 0;
#X connect 3 0 4 0;
#X connect 4 0 1 0;
#X connect 4 0 11 0;
#X connect 5 0 1 0;
#X connect 5 0 12 0;
#X connect 6 0 5 0;
#X connect 7 0 1 0;
#X connect 7 0 13 0;
#X connect 8 0 7 0;
#X connect 9 0 1 0;
#X connect 9 0 14 0;
#X connect 10 0 9 0;
#X restore 134 235 pd process;
#N canvas 221 552 415 318 setRGB 0;
#X obj 71 36 inlet;
#X obj 71 58 route 1 2 3;
#X obj 60 272 cnv 10 10 17 empty empty empty 20 12 0 14 -258049 -66577
0;
#X obj 71 272 v \$0-Red;
#X obj 84 192 cnv 10 10 17 empty empty empty 20 12 0 14 -4033 -66577
0;
#X obj 109 122 cnv 10 10 17 empty empty empty 20 12 0 14 -64 -66577
0;
#X obj 95 192 v \$0-Green;
#X obj 120 122 v \$0-Blue;
#X floatatom 71 220 5 0 0 0 - - -, f 5;
#X floatatom 95 150 5 0 0 0 - - -, f 5;
#X floatatom 120 81 5 0 0 0 - - -, f 5;
#X obj 71 239 i;
#X obj 95 169 i;
#X obj 120 100 i;
#X text 146 165 IT IS VITAL TO USE INTEGERS!!;
#X connect 0 0 1 0;
#X connect 1 0 8 0;
#X connect 1 1 9 0;
#X connect 1 2 10 0;
#X connect 8 0 11 0;
#X connect 9 0 12 0;
#X connect 10 0 13 0;
#X connect 11 0 3 0;
#X connect 12 0 6 0;
#X connect 13 0 7 0;
#X restore 134 309 pd setRGB;
#X obj 134 277 list prepend;
#X obj 45 345 s \$0-makeFinalRGB;
#X msg 134 130 \$1 \, \$2 \, \$3;
#X obj 45 100 trigger bang anything bang;
#X obj 35 345 cnv 10 10 17 empty empty empty 20 12 0 14 -259220 -66577
0;
#X connect 0 0 3 0;
#X connect 2 0 3 1;
#X connect 3 0 13 0;
#X connect 4 0 6 0;
#X connect 5 0 4 1;
#X connect 6 0 10 1;
#X connect 7 0 8 0;
#X connect 7 1 4 0;
#X connect 8 0 10 0;
#X connect 10 0 9 0;
#X connect 12 0 7 0;
#X connect 13 0 11 0;
#X connect 13 1 12 0;
#X connect 13 2 5 0;
#X restore 72 352 pd CORE;
#N canvas 0 50 937 550 setTypes and hueRange 0;
#X text 96 94 red;
#X text 183 94 yellow;
#X text 322 90 green;
#X text 434 87 teal;
#X text 594 89 blue;
#X text 682 135 pink;
#X floatatom 75 63 5 0 0 0 - - -, f 5;
#X obj 75 115 moses 42.5;
#X obj 173 115 moses 85;
#X obj 318 115 moses 127.5;
#X obj 426 115 moses 170;
#X obj 585 115 moses 212.5;
#X msg 75 436 pivot increasing zero;
#X obj 75 468 s \$0-type;
#X obj 65 468 cnv 10 10 17 empty empty empty 20 12 0 14 -241957 -66577
0;
#X obj 75 137 bng 15 250 50 0 empty empty empty 17 7 0 10 -262144 -1
-1;
#X obj 173 137 bng 15 250 50 0 empty empty empty 17 7 0 10 -262144
-1 -1;
#X obj 318 370 s \$0-type;
#X obj 308 370 cnv 10 10 17 empty empty empty 20 12 0 14 -241957 -66577
0;
#X obj 318 137 bng 15 250 50 0 empty empty empty 17 7 0 10 -262144
-1 -1;
#X obj 426 137 bng 15 250 50 0 empty empty empty 17 7 0 10 -262144
-1 -1;
#X obj 585 137 bng 15 250 50 0 empty empty empty 17 7 0 10 -262144
-1 -1;
#X obj 659 138 bng 15 250 50 0 empty empty empty 17 7 0 10 -262144
-1 -1;
#X msg 318 337 zero pivot increasing;
#X msg 173 412 decreasing pivot zero;
#X msg 426 313 zero decreasing pivot;
#X obj 585 333 s \$0-type;
#X obj 575 333 cnv 10 10 17 empty empty empty 20 12 0 14 -241957 -66577
0;
#X msg 585 290 increasing zero pivot;
#X msg 659 264 pivot zero decreasing;
#X obj 96 231 cnv 10 10 17 empty empty empty 20 12 0 14 -62249 -66577
0;
#X obj 107 231 v \$0-hueInit;
#X obj 75 157 t b b;
#X msg 107 184 0;
#X obj 173 157 t b b;
#X msg 204 181 42.5;
#X obj 318 157 t b b;
#X obj 426 157 t b b;
#X obj 585 157 t b b;
#X obj 659 158 t b b;
#X obj 339 229 cnv 10 10 17 empty empty empty 20 12 0 14 -62249 -66577
0;
#X obj 350 229 v \$0-hueInit;
#X msg 350 182 85;
#X msg 458 181 127.5;
#X obj 606 228 cnv 10 10 17 empty empty empty 20 12 0 14 -62249 -66577
0;
#X obj 617 228 v \$0-hueInit;
#X msg 617 181 170;
#X msg 691 179 212.5;
#X obj 75 35 inlet;
#X connect 6 0 7 0;
#X connect 7 0 15 0;
#X connect 7 1 8 0;
#X connect 8 0 16 0;
#X connect 8 1 9 0;
#X connect 9 0 19 0;
#X connect 9 1 10 0;
#X connect 10 0 20 0;
#X connect 10 1 11 0;
#X connect 11 0 21 0;
#X connect 11 1 22 0;
#X connect 12 0 13 0;
#X connect 15 0 32 0;
#X connect 16 0 34 0;
#X connect 19 0 36 0;
#X connect 20 0 37 0;
#X connect 21 0 38 0;
#X connect 22 0 39 0;
#X connect 23 0 17 0;
#X connect 24 0 13 0;
#X connect 25 0 17 0;
#X connect 28 0 26 0;
#X connect 29 0 26 0;
#X connect 32 0 12 0;
#X connect 32 1 33 0;
#X connect 33 0 31 0;
#X connect 34 0 24 0;
#X connect 34 1 35 0;
#X connect 35 0 31 0;
#X connect 36 0 23 0;
#X connect 36 1 42 0;
#X connect 37 0 25 0;
#X connect 37 1 43 0;
#X connect 38 0 28 0;
#X connect 38 1 46 0;
#X connect 39 0 29 0;
#X connect 39 1 47 0;
#X connect 42 0 41 0;
#X connect 43 0 41 0;
#X connect 46 0 45 0;
#X connect 47 0 45 0;
#X connect 48 0 6 0;
#X restore 216 352 pd setTypes and hueRange;
#N canvas 0 50 456 315 initArgs 0;
#X obj 49 250 v \$0-hue;
#X obj 38 250 cnv 10 10 17 empty empty empty 20 12 0 14 -51135 -66577
0;
#X obj 244 195 cnv 10 10 17 empty empty empty 20 12 0 14 -98339 -66577
0;
#X obj 114 280 cnv 10 10 17 empty empty empty 20 12 0 14 -6145 -66577
0;
#X obj 254 119 t f f;
#X obj 276 170 cnv 10 10 17 empty empty empty 20 12 0 14 -131139 -66577
0;
#X obj 254 195 v \$0-brightness;
#X obj 124 280 v \$0-saturation;
#X obj 286 170 v \$0-center;
#X obj 286 145 * 255;
#X obj 49 13 loadbang;
#X obj 49 207 f \$1;
#X floatatom 49 229 5 0 0 0 - - -, f 5;
#X obj 49 35 trigger bang bang bang;
#X floatatom 124 229 5 0 0 0 - - -, f 5;
#X obj 124 207 f \$2;
#X floatatom 254 99 5 0 0 0 - - -, f 5;
#X obj 254 57 f \$3;
#X obj 124 252 easyflow/map 0 255 0 1;
#X obj 254 78 easyflow/map 0 255 0 1;
#X connect 4 0 6 0;
#X connect 4 1 9 0;
#X connect 9 0 8 0;
#X connect 10 0 13 0;
#X connect 11 0 12 0;
#X connect 12 0 0 0;
#X connect 13 0 11 0;
#X connect 13 1 15 0;
#X connect 13 2 17 0;
#X connect 14 0 18 0;
#X connect 15 0 14 0;
#X connect 16 0 4 0;
#X connect 17 0 19 0;
#X connect 18 0 7 0;
#X connect 19 0 16 0;
#X restore 52 20 pd initArgs;
#X obj 60 67 cnv 8 11 17 empty empty 1 2 9 0 14 -1 -262144 0;
#X obj 323 37 cnv 8 11 17 empty empty 2 2 9 0 14 -1 -262144 0;
#X obj 403 34 cnv 8 11 17 empty empty 3 2 9 0 14 -1 -262144 0;
#X obj 593 32 cnv 8 11 17 empty empty 4 2 9 0 14 -1 -262144 0;
#X obj 595 349 cnv 8 11 17 empty empty 1 2 9 0 14 -1 -262144 0;
#X obj 709 349 outlet;
#X obj 697 349 cnv 8 11 17 empty empty 2 2 9 0 14 -1 -262144 0;
#X obj 123 205 unpack float float float;
#X obj 123 227 t b f;
#N canvas 0 50 389 208 validList 0;
#X obj 63 35 inlet;
#X obj 63 131 outlet;
#N canvas 156 518 450 300 checkListSize 0;
#X obj 63 35 inlet;
#X obj 63 57 trigger list list;
#X obj 179 87 list length;
#X obj 179 109 == 3;
#X obj 179 131 sel 0 1;
#X obj 63 301 outlet;
#X obj 63 279 spigot;
#X obj 179 213 trigger bang bang;
#X msg 179 235 0;
#X obj 102 257 tgl 15 0 empty empty empty 17 7 0 10 -262144 -1 -1 0
1;
#N canvas 0 50 412 187 printError 0;
#X obj 42 43 inlet;
#X obj 42 108 print [easyflow/hueSaturationBrigthness];
#X msg 42 65 accepts only lists with 3 elements;
#X connect 0 0 2 0;
#X connect 2 0 1 0;
#X restore 295 235 pd printError;
#X msg 202 159 1;
#X connect 0 0 1 0;
#X connect 1 0 6 0;
#X connect 1 1 2 0;
#X connect 2 0 3 0;
#X connect 3 0 4 0;
#X connect 4 0 7 0;
#X connect 4 1 11 0;
#X connect 6 0 5 0;
#X connect 7 0 8 0;
#X connect 7 1 10 0;
#X connect 8 0 9 0;
#X connect 9 0 6 1;
#X connect 11 0 9 0;
#X restore 63 65 pd checkListSize;
#N canvas 181 372 450 416 checkListElements 0;
#X obj 63 35 inlet;
#X obj 63 371 outlet;
#X obj 63 319 spigot;
#X obj 102 297 tgl 15 0 empty empty empty 17 7 0 10 -262144 -1 -1 0
1;
#X obj 63 97 trigger list bang list, f 48;
#X obj 229 181 easyflow/listPick;
#X msg 229 128 set 1 \, 3;
#N canvas 0 50 348 289 counter 0;
#X obj 223 206 outlet;
#X obj 93 221 + 1;
#X obj 93 29 inlet bang to number;
#X obj 93 173 trigger float float;
#X obj 93 123 float 0;
#X floatatom 31 131 5 0 0 0 - - -, f 5;
#X floatatom 93 73 5 0 0 0 - - -, f 5;
#X obj 93 92 until;
#X obj 93 51 route float set;
#X connect 1 0 5 0;
#X connect 2 0 8 0;
#X connect 3 0 1 0;
#X connect 3 1 0 0;
#X connect 4 0 3 0;
#X connect 5 0 4 1;
#X connect 6 0 7 0;
#X connect 7 0 4 0;
#X connect 8 0 6 0;
#X connect 8 1 4 1;
#X restore 229 152 pd counter;
#X obj 229 222 route float;
#X obj 179 201 t b;
#X msg 179 223 1;
#X obj 303 251 t a b;
#X msg 335 274 0;
#N canvas 0 50 481 141 printError 0;
#X obj 42 43 inlet;
#X obj 42 78 print [easyflow/hueSaturationBrigthness] is not a float
;
#X connect 0 0 1 0;
#X restore 303 305 pd printError;
#X obj 63 57 trigger list bang;
#X connect 0 0 14 0;
#X connect 2 0 1 0;
#X connect 3 0 2 1;
#X connect 4 0 2 0;
#X connect 4 1 6 0;
#X connect 4 2 5 1;
#X connect 5 0 8 0;
#X connect 6 0 7 0;
#X connect 7 0 5 0;
#X connect 8 1 11 0;
#X connect 9 0 10 0;
#X connect 10 0 3 0;
#X connect 11 0 13 0;
#X connect 11 1 12 0;
#X connect 12 0 3 0;
#X connect 14 0 4 0;
#X connect 14 1 9 0;
#X restore 63 95 pd checkListElements;
#X connect 0 0 2 0;
#X connect 2 0 3 0;
#X connect 3 0 1 0;
#X restore 123 177 pd validList;
#X obj 72 89 route bang list float;
#X obj 160 113 t b f;
#X connect 0 0 41 0;
#X connect 5 0 12 0;
#X connect 6 0 13 0;
#X connect 7 0 14 0;
#X connect 8 0 26 0;
#X connect 10 0 21 0;
#X connect 11 0 18 0;
#X connect 12 0 1 0;
#X connect 13 0 10 0;
#X connect 14 0 11 0;
#X connect 16 0 24 0;
#X connect 17 0 9 0;
#X connect 17 1 36 0;
#X connect 18 0 20 0;
#X connect 18 1 23 0;
#X connect 23 0 22 0;
#X connect 24 0 17 0;
#X connect 25 0 28 0;
#X connect 25 1 29 0;
#X connect 26 0 25 0;
#X connect 38 0 39 0;
#X connect 38 1 13 0;
#X connect 38 2 14 0;
#X connect 39 0 26 0;
#X connect 39 1 12 0;
#X connect 40 0 38 0;
#X connect 41 0 8 0;
#X connect 41 1 40 0;
#X connect 41 2 42 0;
#X connect 42 0 8 0;
#X connect 42 1 12 0;
