#N canvas 584 217 439 282 10;
#X obj 62 43 inlet;
#X obj 62 204 outlet;
#X obj 62 64 trigger anything bang;
#X obj 185 92 v \$1;
#X obj 185 113 == 0;
#X obj 62 145 easyflow/switch2;
#X obj 155 121 tgl 15 0 empty empty empty 17 7 0 10 -262144 -1 -1 0
1;
#X obj 155 206 outlet;
#X connect 0 0 2 0;
#X connect 2 0 5 0;
#X connect 2 1 3 0;
#X connect 3 0 4 0;
#X connect 4 0 6 0;
#X connect 5 0 1 0;
#X connect 5 1 7 0;
#X connect 6 0 5 1;
