#N canvas 939 586 450 300 10;
#X obj 327 257 easyflow-info;
#X text 41 36 [ifValue] passes the incoming data through the left if
it's given [value] object is true. Otherwise it passes through the
right.;
#X obj 237 138 v \$0-boolean;
#X obj 237 93 tgl 15 0 empty empty empty 17 7 0 10 -262144 -1 -1 0
1;
#X obj 47 110 ifValue \$0-boolean;
#X floatatom 47 139 5 0 0 0 - - -, f 5;
#X floatatom 152 140 5 0 0 0 - - -, f 5;
#X floatatom 47 83 5 0 0 0 - - -, f 5;
#X text 277 100 1 = true;
#X text 277 113 0 = true;
#X floatatom 237 113 5 0 0 0 - - -, f 5;
#X text 81 209 (actually any value != 0 means true);
#X connect 3 0 10 0;
#X connect 4 0 5 0;
#X connect 4 1 6 0;
#X connect 7 0 4 0;
#X connect 10 0 2 0;
