#N canvas 927 361 450 300 10;
#X obj 69 79 hsl 128 15 0 1 0 1 empty empty empty -2 -8 0 10 -262144
-1 -1 2100 0;
#X floatatom 66 99 5 0 0 0 - - -, f 5;
#X floatatom 66 174 5 0 0 0 - - -, f 5;
#X obj 140 126 bng 15 250 50 0 empty empty empty 17 7 0 10 -262144
-1 -1;
#X obj 291 242 easyflow-info;
#X obj 69 199 hsl 128 15 0 1 0 0 empty empty empty -2 -8 0 10 -262144
-1 -1 2100 0;
#X text 48 36 initialization or last bang on cold inlet.;
#X obj 66 219 bng 15 250 50 0 empty empty empty 17 7 0 10 -262144 -1
-1;
#X text 48 16 Outputs the smallest number received since;
#X text 56 261 see also:;
#X obj 133 262 keepMax;
#X obj 66 152 keepMin 0.5;
#X text 167 122 <- reset to argument 1;
#X text 157 151 arg = initial value (default = 0);
#X connect 0 0 1 0;
#X connect 1 0 11 0;
#X connect 2 0 5 0;
#X connect 3 0 11 1;
#X connect 5 0 7 0;
#X connect 11 0 2 0;
