#N canvas 452 287 785 315 10;
#X obj 100 100 cnv 11 12 17 empty \$0-cnv + 2 9 0 14 -1 -262144 0;
#X obj 232 28 loadbang;
#N canvas 0 50 450 300 setCanvasSize 0;
#X obj 72 44 inlet;
#X obj 72 74 list 666 \$1;
#X obj 72 96 list split 1;
#X msg 112 206 label \$1;
#N canvas 0 50 333 300 numberSymbol 0;
#X obj 67 126 list fromsymbol;
#X obj 107 176 list tosymbol;
#X symbolatom 107 198 10 0 0 0 - - -, f 10;
#X obj 67 34 inlet;
#X obj 107 217 outlet;
#X msg 67 101 symbol s\$1;
#X obj 67 148 list split 1;
#N canvas 935 188 450 300 dealWithTypes 0;
#X obj 70 30 inlet;
#X obj 70 52 route bang float symbol list;
#X obj 160 276 outlet;
#X obj 263 75 list prepend symbol;
#X obj 263 97 list trim;
#X floatatom 118 78 5 0 0 0 - - -, f 5;
#X symbolatom 166 179 10 0 0 0 - - -, f 10;
#X symbolatom 263 119 10 0 0 0 - - -, f 10;
#X obj 214 144 list split 1;
#X connect 0 0 1 0;
#X connect 1 1 5 0;
#X connect 1 2 6 0;
#X connect 1 3 8 0;
#X connect 1 4 3 0;
#X connect 3 0 4 0;
#X connect 4 0 7 0;
#X connect 5 0 2 0;
#X connect 6 0 2 0;
#X connect 7 0 2 0;
#X connect 8 0 2 0;
#X restore 67 64 pd dealWithTypes;
#X connect 0 0 6 0;
#X connect 1 0 2 0;
#X connect 2 0 4 0;
#X connect 3 0 7 0;
#X connect 5 0 0 0;
#X connect 6 1 1 0;
#X connect 7 0 5 0;
#X restore 112 125 pd numberSymbol;
#X obj 112 147 t a a;
#N canvas 0 50 321 489 canvasSize 0;
#X obj 36 16 inlet;
#X obj 36 38 list fromsymbol;
#X obj 36 60 list length;
#X floatatom 36 82 5 0 0 0 - - -, f 5;
#X obj 36 141 > 1;
#X obj 36 101 trigger f f;
#X obj 92 236 f;
#X obj 92 258 - 1;
#X obj 92 344 pack f 17;
#X msg 92 366 vis_size \$1 \$2;
#X obj 92 280 * 8;
#X floatatom 92 324 5 0 0 0 - - -, f 5;
#X obj 59 184 bng 15 250 50 0 empty empty empty 17 7 0 10 -262144 -1
-1;
#X obj 36 162 sel 0 1;
#X obj 36 184 bng 15 250 50 0 empty empty empty 17 7 0 10 -262144 -1
-1;
#X msg 36 401 vis_size 12 17;
#X obj 92 302 + 12;
#X obj 92 438 s \$0-cnv;
#X connect 0 0 1 0;
#X connect 1 0 2 0;
#X connect 2 0 3 0;
#X connect 3 0 5 0;
#X connect 4 0 13 0;
#X connect 5 0 4 0;
#X connect 5 1 6 1;
#X connect 6 0 7 0;
#X connect 7 0 10 0;
#X connect 8 0 9 0;
#X connect 9 0 17 0;
#X connect 10 0 16 0;
#X connect 11 0 8 0;
#X connect 12 0 6 0;
#X connect 13 0 14 0;
#X connect 13 1 12 0;
#X connect 14 0 15 0;
#X connect 15 0 17 0;
#X connect 16 0 11 0;
#X restore 144 168 pd canvasSize;
#X obj 112 238 s \$0-cnv;
#X connect 0 0 1 0;
#X connect 1 0 2 0;
#X connect 2 1 4 0;
#X connect 3 0 7 0;
#X connect 4 0 5 0;
#X connect 5 0 3 0;
#X connect 5 1 6 0;
#X restore 232 110 pd setCanvasSize;
#N canvas 637 50 652 535 checkSyntax 0;
#X obj 58 44 inlet;
#X obj 174 103 list append \$2;
#X obj 198 8 tgl 15 0 empty empty empty 17 7 0 10 -262144 -1 -1 0 1
;
#X obj 198 30 metro 500;
#X obj 174 162 route symbol;
#N canvas 999 208 450 300 is label color specified? 0;
#X obj 31 35 inlet;
#X obj 31 59 list append \$3;
#X obj 31 108 select -l -L;
#X obj 31 201 outlet;
#X obj 31 142 list append \$4 \$5 \$6 \$7;
#X connect 0 0 1 0;
#X connect 1 0 2 0;
#X connect 2 0 4 0;
#X connect 2 1 4 0;
#X connect 4 0 3 0;
#X restore 206 241 pd is label color specified?;
#X obj 58 66 trigger bang bang;
#X obj 58 88 s \$0-readColors;
#N canvas 230 229 450 414 background values 0;
#X obj 31 35 inlet;
#X obj 31 84 bng 15 250 50 0 empty empty empty 17 7 0 10 -262144 -1
-1;
#X obj 31 155 trigger list list;
#N canvas 509 64 706 489 check 4th element 1;
#X obj 59 17 inlet;
#X msg 59 39 \$4;
#X obj 59 61 route float;
#X obj 130 359 outlet;
#N canvas 0 50 455 128 print 0;
#X obj 17 31 inlet;
#X obj 17 59 print [easyflow/lablecnv]: this argument should be a color
mode or -L;
#X connect 0 0 1 0;
#X restore 333 234 pd print error;
#X obj 301 207 t b a;
#X obj 133 85 easyflow/symbolize;
#X msg 133 107 \$1 \$1;
#X obj 59 181 route rgb RGB hsb HSB hsl HSL -l -L;
#X msg 240 307 3;
#X msg 101 278 4;
#X obj 100 259 bng 15 250 50 0 empty empty empty 17 7 0 10 -262144
-1 -1;
#X obj 240 260 bng 15 250 50 0 empty empty empty 17 7 0 10 -262144
-1 -1;
#X obj 59 83 bang;
#X connect 0 0 1 0;
#X connect 1 0 2 0;
#X connect 2 0 13 0;
#X connect 2 1 6 0;
#X connect 5 0 9 0;
#X connect 5 1 4 0;
#X connect 6 0 7 0;
#X connect 7 0 8 0;
#X connect 8 0 11 0;
#X connect 8 1 11 0;
#X connect 8 2 11 0;
#X connect 8 3 11 0;
#X connect 8 4 11 0;
#X connect 8 5 11 0;
#X connect 8 6 12 0;
#X connect 8 7 12 0;
#X connect 8 8 5 0;
#X connect 9 0 3 0;
#X connect 10 0 3 0;
#X connect 11 0 10 0;
#X connect 12 0 9 0;
#X connect 13 0 9 0;
#X restore 147 179 pd check 4th element;
#X floatatom 147 201 5 0 0 0 - - -, f 5;
#X obj 31 227 list split;
#X obj 31 316 outlet;
#X obj 31 106 list append \$2 \$3 \$4 \$5 \$6 \$7 \$8 \$9 \$10;
#N canvas 815 107 371 387 check label 0;
#X obj 55 35 inlet;
#X obj 55 57 trigger list list;
#X obj 171 80 list split 1;
#X obj 171 129 select -l -L;
#X obj 171 151 bng 15 250 50 0 empty empty empty 17 7 0 10 -262144
-1 -1;
#X msg 171 171 1;
#X msg 252 171 0;
#X obj 252 153 bng 15 250 50 0 empty empty empty 17 7 0 10 -262144
-1 -1;
#X obj 171 193 tgl 15 0 empty empty empty 17 7 0 10 -262144 -1 -1 0
1;
#X obj 55 209 spigot;
#X obj 55 231 list split 1;
#X obj 95 287 outlet;
#X connect 0 0 1 0;
#X connect 1 0 9 0;
#X connect 1 1 2 0;
#X connect 2 0 3 0;
#X connect 3 0 4 0;
#X connect 3 1 4 0;
#X connect 3 2 7 0;
#X connect 4 0 5 0;
#X connect 5 0 8 0;
#X connect 6 0 8 0;
#X connect 7 0 6 0;
#X connect 8 0 9 1;
#X connect 9 0 10 0;
#X connect 10 1 11 0;
#X restore 174 295 pd check label;
#X obj 174 317 outlet;
#X connect 0 0 1 0;
#X connect 1 0 7 0;
#X connect 2 0 5 0;
#X connect 2 1 3 0;
#X connect 3 0 4 0;
#X connect 4 0 5 1;
#X connect 5 0 6 0;
#X connect 5 1 8 0;
#X connect 7 0 2 0;
#X connect 8 0 9 0;
#X restore 255 196 pd background values;
#X obj 427 382 easyflow/colorSyntax;
#X obj 427 415 v \$0-label;
#X obj 414 415 cnv 11 12 17 empty empty L 2 9 0 14 -52368 -262144 0
;
#X obj 174 400 v \$0-bkg;
#X obj 161 400 cnv 11 12 17 empty empty B 2 9 0 14 -63601 -262144 0
;
#X obj 174 370 easyflow/colorSyntax;
#X obj 174 214 t a b;
#X text 54 161 bkg = colorName;
#X text 274 160 bkg = colorValues;
#X connect 0 0 6 0;
#X connect 1 0 4 0;
#X connect 2 0 3 0;
#X connect 3 0 6 0;
#X connect 4 0 15 0;
#X connect 4 1 8 0;
#X connect 5 0 9 0;
#X connect 6 0 7 0;
#X connect 6 1 1 0;
#X connect 8 0 14 0;
#X connect 8 1 9 0;
#X connect 9 0 10 0;
#X connect 14 0 12 0;
#X connect 15 0 14 0;
#X connect 15 1 5 0;
#X restore 348 77 pd checkSyntax;
#X obj 325 78 cnv 11 12 15 empty empty B 2 9 0 14 -262144 -63601 0
;
#X obj 335 78 cnv 11 12 15 empty empty L 2 9 0 14 -262144 -52368 0
;
#X obj 565 35 r \$0-readColors;
#X obj 565 87 trigger bang bang;
#X obj 565 118 v \$0-bkg;
#X obj 552 118 cnv 11 12 17 empty empty B 2 9 0 14 -63601 -262144 0
;
#X obj 681 117 v \$0-label;
#X obj 668 117 cnv 11 12 17 empty empty L 2 9 0 14 -52368 -262144 0
;
#X obj 565 150 pack float float;
#X msg 565 172 color \$1 \$2 \$2;
#X obj 565 194 s \$0-cnv;
#X obj 583 59 bng 15 250 50 0 empty empty empty 17 7 0 10 -262144 -1
-1;
#X obj 232 50 trigger bang bang;
#X connect 1 0 16 0;
#X connect 6 0 7 0;
#X connect 6 0 15 0;
#X connect 7 0 8 0;
#X connect 7 1 10 0;
#X connect 8 0 12 0;
#X connect 10 0 12 1;
#X connect 12 0 13 0;
#X connect 13 0 14 0;
#X connect 16 0 2 0;
#X connect 16 1 3 0;
#X coords 0 1 1 10 11 17 2 100 100;
