#N canvas 844 169 785 437 10;
#X obj 100 100 cnv 11 36 17 empty \$0-cnv init 2 9 0 14 -159808 -262144
0;
#X obj 232 28 loadbang;
#X obj 232 50 trigger bang bang;
#X obj 604 36 r \$0-tellMeMyColor;
#X obj 232 200 list trim;
#X obj 232 252 send globalColorHighlighting;
#X obj 232 178 list append getColor \$1 \$0-tellMeMyColor;
#X obj 604 133 s \$0-cnv;
#X obj 653 88 loadbang;
#X msg 653 110 color -1;
#X obj 232 148 del 100;
#X msg 604 58 color \$1;
#X obj 309 106 r globalColorHighlightingUpdateAll;
#N canvas 0 50 450 300 setCanvas 0;
#X obj 72 44 inlet;
#X obj 72 96 list split 1;
#N canvas 0 50 333 300 numberSymbol 0;
#X obj 67 126 list fromsymbol;
#X obj 107 176 list tosymbol;
#X symbolatom 107 198 10 0 0 0 - - -, f 10;
#X obj 67 34 inlet;
#X obj 107 217 outlet;
#X msg 67 101 symbol s\$1;
#X obj 67 148 list split 1;
#N canvas 935 188 450 300 dealWithTypes 0;
#X obj 70 30 inlet;
#X obj 70 52 route bang float symbol list;
#X obj 160 276 outlet;
#X obj 263 75 list prepend symbol;
#X obj 263 97 list trim;
#X floatatom 118 78 5 0 0 0 - - -, f 5;
#X symbolatom 166 179 10 0 0 0 - - -, f 10;
#X symbolatom 263 119 10 0 0 0 - - -, f 10;
#X obj 214 144 list split 1;
#X connect 0 0 1 0;
#X connect 1 1 5 0;
#X connect 1 2 6 0;
#X connect 1 3 8 0;
#X connect 1 4 3 0;
#X connect 3 0 4 0;
#X connect 4 0 7 0;
#X connect 5 0 2 0;
#X connect 6 0 2 0;
#X connect 7 0 2 0;
#X connect 8 0 2 0;
#X restore 67 64 pd dealWithTypes;
#X connect 0 0 6 0;
#X connect 1 0 2 0;
#X connect 2 0 4 0;
#X connect 3 0 7 0;
#X connect 5 0 0 0;
#X connect 6 1 1 0;
#X connect 7 0 5 0;
#X restore 112 125 pd numberSymbol;
#X obj 112 147 t a a;
#N canvas 0 50 321 489 canvasSize 0;
#X obj 36 16 inlet;
#X obj 36 38 list fromsymbol;
#X obj 36 60 list length;
#X floatatom 36 82 5 0 0 0 - - -, f 5;
#X obj 36 141 > 1;
#X obj 36 101 trigger f f;
#X obj 92 236 f;
#X obj 92 258 - 1;
#X obj 92 344 pack f 17;
#X msg 92 366 vis_size \$1 \$2;
#X obj 92 280 * 8;
#X floatatom 92 324 5 0 0 0 - - -, f 5;
#X obj 59 184 bng 15 250 50 0 empty empty empty 17 7 0 10 -262144 -1
-1;
#X obj 36 162 sel 0 1;
#X obj 36 184 bng 15 250 50 0 empty empty empty 17 7 0 10 -262144 -1
-1;
#X msg 36 401 vis_size 12 17;
#X obj 92 302 + 12;
#X obj 92 438 s \$0-cnv;
#X connect 0 0 1 0;
#X connect 1 0 2 0;
#X connect 2 0 3 0;
#X connect 3 0 5 0;
#X connect 4 0 13 0;
#X connect 5 0 4 0;
#X connect 5 1 6 1;
#X connect 6 0 7 0;
#X connect 7 0 10 0;
#X connect 8 0 9 0;
#X connect 9 0 17 0;
#X connect 10 0 16 0;
#X connect 11 0 8 0;
#X connect 12 0 6 0;
#X connect 13 0 14 0;
#X connect 13 1 12 0;
#X connect 14 0 15 0;
#X connect 15 0 17 0;
#X connect 16 0 11 0;
#X restore 144 168 pd canvasSize;
#X obj 112 238 s \$0-cnv;
#X obj 72 74 list 666 \$2;
#X msg 112 206 label \$1;
#X connect 0 0 6 0;
#X connect 1 1 2 0;
#X connect 2 0 3 0;
#X connect 3 0 7 0;
#X connect 3 1 4 0;
#X connect 6 0 1 0;
#X connect 7 0 5 0;
#X restore 348 75 pd setCanvas;
#X connect 1 0 2 0;
#X connect 2 0 10 0;
#X connect 2 1 13 0;
#X connect 3 0 11 0;
#X connect 4 0 5 0;
#X connect 6 0 4 0;
#X connect 8 0 9 0;
#X connect 9 0 7 0;
#X connect 10 0 6 0;
#X connect 11 0 7 0;
#X connect 12 0 10 0;
#X coords 0 1 1 10 11 17 2 100 100;
