#N canvas 301 126 484 477 10;
#X obj 50 26 inlet;
#X obj 50 56 trigger anything anything;
#X obj 188 254 list append;
#X obj 50 78 list length;
#X floatatom 50 100 5 0 0 0 - - -, f 5;
#X floatatom 89 177 5 0 0 0 - - -, f 5;
#X obj 89 196 trigger bang float;
#X floatatom 269 254 5 0 0 0 - - -, f 5;
#X obj 188 337 outlet;
#N canvas 363 348 360 263 for 0;
#X obj 73 28 inlet;
#X obj 73 150 until;
#X obj 73 183 f;
#X obj 73 80 trigger float bang;
#X obj 108 183 + 1;
#X msg 178 109 1;
#X obj 73 215 outlet;
#X obj 100 106 inlet;
#X obj 100 128 bng 15 250 50 0 empty empty empty 17 7 0 10 -262144
-1 -1;
#X connect 0 0 3 0;
#X connect 1 0 2 0;
#X connect 2 0 4 0;
#X connect 2 0 6 0;
#X connect 3 0 1 0;
#X connect 3 1 5 0;
#X connect 4 0 2 1;
#X connect 5 0 2 1;
#X connect 7 0 8 0;
#X connect 8 0 1 1;
#X restore 50 153 pd for;
#X obj 83 129 inlet;
#X obj 188 310 passNthElement;
#X connect 0 0 1 0;
#X connect 1 0 3 0;
#X connect 1 1 2 1;
#X connect 2 0 11 0;
#X connect 3 0 4 0;
#X connect 4 0 9 0;
#X connect 5 0 6 0;
#X connect 6 0 2 0;
#X connect 6 1 7 0;
#X connect 7 0 11 1;
#X connect 9 0 5 0;
#X connect 10 0 9 1;
#X connect 11 0 8 0;
