#N canvas 661 60 712 806 10;
#X obj 68 51 inlet;
#X obj 68 95 trigger anything anything;
#X obj 68 127 list length;
#X obj 524 169 cnv 10 10 17 empty empty empty 20 12 0 14 -53094 -66577
0;
#X obj 535 169 v \$0-list2length;
#X obj 56 51 cnv 8 11 17 empty empty 1 2 9 0 14 -1 -262144 0;
#X obj 376 50 cnv 8 11 17 empty empty 2 2 9 0 14 -1 -262144 0;
#X obj 388 50 inlet;
#X obj 388 102 trigger anything anything;
#X obj 535 126 list length;
#X floatatom 535 148 5 0 0 0 - - -;
#X floatatom 68 189 5 0 0 0 - - -;
#X obj 68 208 t f b;
#X obj 84 232 cnv 10 10 17 empty empty empty 20 12 0 14 -53094 -66577
0;
#X obj 95 232 v \$0-list2length;
#X obj 68 261 !=;
#X obj 452 333 cnv 10 10 17 empty empty empty 20 12 0 14 -51135 -66577
0;
#X obj 442 367 list;
#X obj 431 286 cnv 10 10 17 empty empty empty 20 12 0 14 -159808 -66577
0;
#X obj 442 286 r \$0-equal;
#X obj 442 308 bng 15 250 50 0 empty empty empty 17 7 0 10 -262144
-1 -1;
#X obj 582 333 cnv 10 10 17 empty empty empty 20 12 0 14 -51135 -66577
0;
#X obj 572 367 list;
#X obj 561 286 cnv 10 10 17 empty empty empty 20 12 0 14 -258113 -66577
0;
#X obj 572 308 bng 15 250 50 0 empty empty empty 17 7 0 10 -262144
-1 -1;
#X obj 572 286 r \$0-unequal;
#X obj 442 389 outlet;
#X obj 572 389 outlet;
#X obj 430 389 cnv 8 11 17 empty empty 1 2 9 0 14 -1 -262144 0;
#X obj 560 389 cnv 8 11 17 empty empty 2 2 9 0 14 -1 -262144 0;
#X obj 57 316 cnv 10 10 17 empty empty empty 20 12 0 14 -258113 -66577
0;
#X obj 68 316 s \$0-unequal;
#X obj 120 173 cnv 10 10 17 empty empty empty 20 12 0 14 -204620 -66577
0;
#X obj 131 173 v \$0-list1length;
#X obj 68 149 trigger f f;
#X obj 85 358 cnv 10 10 17 empty empty empty 20 12 0 14 -204620 -66577
0;
#X obj 96 358 v \$0-list1length;
#X obj 68 283 select 1 0;
#X floatatom 96 380 5 0 0 0 - - -;
#X obj 377 131 cnv 10 10 17 empty empty empty 20 12 0 14 -131089 -66577
0;
#X obj 463 333 r \$0-list1;
#X obj 593 333 r \$0-list1;
#X floatatom 135 444 5 0 0 0 - - -;
#N canvas 0 50 450 300 passNthElement 0;
#X obj 80 30 inlet;
#X obj 161 37 inlet;
#X obj 120 179 outlet;
#X floatatom 161 59 5 0 0 0 - - -;
#X obj 120 152 list split 1;
#X obj 161 80 - 1;
#X obj 80 122 list split 0;
#X connect 0 0 6 0;
#X connect 1 0 3 0;
#X connect 3 0 5 0;
#X connect 4 0 2 0;
#X connect 5 0 6 1;
#X connect 6 1 4 0;
#X restore 135 573 pd passNthElement;
#X obj 135 463 trigger float float;
#X obj 145 514 cnv 10 10 17 empty empty empty 20 12 0 14 -51135 -66577
0;
#X obj 275 513 cnv 10 10 17 empty empty empty 20 12 0 14 -131089 -66577
0;
#X obj 156 514 r \$0-list1;
#X obj 286 513 r \$0-list2;
#X obj 135 540 list;
#X obj 135 485 trigger b f, f 17;
#N canvas 0 50 450 300 passNthElement 0;
#X obj 80 30 inlet;
#X obj 161 37 inlet;
#X obj 120 179 outlet;
#X floatatom 161 59 5 0 0 0 - - -;
#X obj 120 152 list split 1;
#X obj 161 80 - 1;
#X obj 80 122 list split 0;
#X connect 0 0 6 0;
#X connect 1 0 3 0;
#X connect 3 0 5 0;
#X connect 4 0 2 0;
#X connect 5 0 6 1;
#X connect 6 1 4 0;
#X restore 265 573 pd passNthElement;
#X obj 265 540 list;
#X obj 265 485 trigger b f, f 17;
#X obj 135 677 bng 15 250 50 0 empty empty empty 17 7 0 10 -262144
-1 -1;
#X obj 388 131 s \$0-list2;
#X obj 204 120 cnv 10 10 17 empty empty empty 20 12 0 14 -51135 -66577
0;
#X obj 215 120 s \$0-list1;
#X obj 124 398 cnv 10 10 17 empty empty empty 20 12 0 14 -260097 -66577
0;
#X obj 135 398 r \$0-stopFor;
#X obj 190 720 cnv 10 10 17 empty empty empty 20 12 0 14 -260097 -66577
0;
#X obj 201 720 s \$0-stopFor;
#X obj 174 696 t b b;
#X obj 174 676 bng 15 250 50 0 empty empty empty 17 7 0 10 -262144
-1 -1;
#X obj 163 746 cnv 10 10 17 empty empty empty 20 12 0 14 -258113 -66577
0;
#X obj 174 746 s \$0-unequal;
#X obj 96 463 bng 15 250 50 0 empty empty empty 17 7 0 10 -262144 -1
-1;
#X obj 27 510 cnv 10 10 17 empty empty empty 20 12 0 14 -159808 -66577
0;
#X obj 38 510 s \$0-equal;
#X obj 135 645 select s;
#X obj 135 595 route float;
#X msg 135 617 symbol \$1-test;
#X obj 265 599 route float;
#X msg 265 621 symbol \$1-test;
#X obj 68 73 list;
#X obj 388 72 list;
#X obj 96 421 for, f 7;
#X connect 0 0 74 0;
#X connect 1 0 2 0;
#X connect 1 1 57 0;
#X connect 2 0 34 0;
#X connect 7 0 75 0;
#X connect 8 0 55 0;
#X connect 8 1 9 0;
#X connect 9 0 10 0;
#X connect 10 0 4 0;
#X connect 11 0 12 0;
#X connect 12 0 15 0;
#X connect 12 1 14 0;
#X connect 14 0 15 1;
#X connect 15 0 37 0;
#X connect 17 0 26 0;
#X connect 19 0 20 0;
#X connect 20 0 17 0;
#X connect 22 0 27 0;
#X connect 24 0 22 0;
#X connect 25 0 24 0;
#X connect 34 0 11 0;
#X connect 34 1 33 0;
#X connect 36 0 38 0;
#X connect 37 0 31 0;
#X connect 37 1 36 0;
#X connect 38 0 76 0;
#X connect 40 0 17 1;
#X connect 41 0 22 1;
#X connect 42 0 44 0;
#X connect 43 0 70 0;
#X connect 44 0 50 0;
#X connect 44 1 53 0;
#X connect 47 0 49 1;
#X connect 48 0 52 1;
#X connect 49 0 43 0;
#X connect 50 0 49 0;
#X connect 50 1 43 1;
#X connect 51 0 72 0;
#X connect 52 0 51 0;
#X connect 53 0 52 0;
#X connect 53 1 51 1;
#X connect 59 0 76 1;
#X connect 62 0 65 0;
#X connect 62 1 61 0;
#X connect 63 0 62 0;
#X connect 66 0 68 0;
#X connect 69 0 54 0;
#X connect 69 1 63 0;
#X connect 70 0 71 0;
#X connect 70 1 69 0;
#X connect 71 0 69 0;
#X connect 72 0 73 0;
#X connect 72 1 69 1;
#X connect 73 0 69 1;
#X connect 74 0 1 0;
#X connect 75 0 8 0;
#X connect 76 0 66 0;
#X connect 76 1 42 0;
