#N canvas 530 176 391 249 10;
#X msg 55 73 5 4 3 6 7 5 8;
#X obj 55 115 easyflow/printHere -s;
#X text 47 23 [listMin] outputs the minimum value of a list.;
#X obj 248 191 easyflow-info;
#X text 31 188 See also:;
#X obj 93 188 listMax;
#N canvas 939 177 458 345 mixing numbers and symbols 0;
#X obj 55 145 easyflow/printHere -s;
#X msg 55 103 foo 7 test 3 wha te ver 15;
#X obj 245 145 easyflow/printHere -s;
#X msg 245 103 foo 7 test 3 wha te ver 15;
#X text 106 70 ERROR;
#X text 261 64 Symbols are ignored;
#X text 60 22 Use the -s flag to allow symbols in the lists;
#X obj 61 276 easyflow/printHere -s;
#X msg 61 234 foo test wha te ver;
#X obj 55 125 listMin;
#X obj 61 256 listMin -s;
#X obj 245 125 listMin -s;
#X text 73 205 List with no numbers result in an error;
#X connect 1 0 9 0;
#X connect 3 0 11 0;
#X connect 8 0 10 0;
#X connect 9 0 0 0;
#X connect 10 0 7 0;
#X connect 11 0 2 0;
#X restore 181 102 pd mixing numbers and symbols;
#X obj 55 95 listMin;
#X connect 0 0 7 0;
#X connect 7 0 1 0;
