#N canvas 352 233 372 325 10;
#X obj 30 17 inlet;
#X obj 30 238 outlet;
#X msg 30 66 getList;
#X obj 30 39 trigger bang anything anything bang, f 36;
#X msg 243 65 clear;
#X obj 100 70 list length;
#X msg 100 92 \$1 1;
#X obj 115 163 listPick, f 10;
#X obj 30 201 arrayList;
#X obj 100 122 for;
#X connect 0 0 3 0;
#X connect 2 0 8 0;
#X connect 3 0 2 0;
#X connect 3 1 5 0;
#X connect 3 2 7 1;
#X connect 3 3 4 0;
#X connect 4 0 8 0;
#X connect 5 0 6 0;
#X connect 6 0 9 0;
#X connect 7 0 8 0;
#X connect 8 0 1 0;
#X connect 9 1 7 0;
