#N canvas 268 178 472 558 10;
#X obj 50 30 inlet;
#X obj 114 286 list 666 \$2;
#X msg 114 310 \$2;
#X obj 211 491 outlet;
#X obj 50 124 trigger bang list bang;
#X obj 50 84 list;
#X obj 171 207 inlet;
#X obj 37 30 cnv 11 12 17 empty empty 1 2 9 0 14 -1 -262144 0;
#X obj 158 207 cnv 11 12 17 empty empty 2 2 9 0 14 -1 -262144 0;
#X obj 331 140 inlet;
#X obj 318 140 cnv 11 12 17 empty empty 3 2 9 0 14 -1 -262144 0;
#X obj 198 491 cnv 11 12 17 empty empty 1 2 9 0 14 -1 -262144 0;
#X obj 331 214 list prepend 666;
#X obj 348 163 loadbang;
#N canvas 0 50 492 399 get2ndArgument 0;
#X obj 141 25 inlet;
#X obj 264 109 makefilename $%d-test;
#X obj 141 84 trigger bang float;
#X obj 185 158 b;
#X text 48 216 no argument;
#X obj 141 287 outlet;
#X text 36 340 https://forum.pdpatchrepo.info/topic/10892/collect-all-arguments-as-a-list/4
;
#X obj 141 109 symbol \$2-test;
#X obj 185 183 list append \$2;
#X msg 141 51 2;
#X obj 141 155 f \$0;
#X obj 140 133 select s;
#X msg 141 224 \$1-replaceWithNothing;
#X connect 0 0 9 0;
#X connect 1 0 11 1;
#X connect 2 0 7 0;
#X connect 2 1 1 0;
#X connect 3 0 8 0;
#X connect 7 0 11 0;
#X connect 8 0 5 0;
#X connect 9 0 2 0;
#X connect 10 0 12 0;
#X connect 11 0 10 0;
#X connect 11 1 3 0;
#X connect 12 0 5 0;
#X restore 348 189 pd get2ndArgument;
#X obj 114 245 compare \$1;
#X obj 114 172 left2right;
#X obj 211 446 arrayList;
#X msg 212 159 clear;
#X msg 50 395 getList;
#X obj 114 340 route \$0-replaceWithNothing;
#X connect 0 0 5 0;
#X connect 1 0 2 0;
#X connect 2 0 20 0;
#X connect 4 0 19 0;
#X connect 4 1 16 0;
#X connect 4 2 18 0;
#X connect 5 0 4 0;
#X connect 6 0 15 1;
#X connect 9 0 12 0;
#X connect 12 0 1 1;
#X connect 13 0 14 0;
#X connect 14 0 12 0;
#X connect 15 0 1 0;
#X connect 15 1 17 0;
#X connect 16 0 15 0;
#X connect 17 0 3 0;
#X connect 18 0 17 0;
#X connect 19 0 17 0;
#X connect 20 1 17 0;
