#N canvas 791 103 804 829 10;
#X obj 50 36 inlet;
#X obj 50 603 outlet;
#X obj 201 102 list length;
#X msg 294 200 set 1 \, \$1;
#X obj 294 221 counter;
#X msg 294 242 add2 \$1;
#X msg 294 353;
#X msg 384 205 set;
#X obj 201 174 t f f, f 16;
#X obj 201 195 until;
#X obj 294 374 t l l;
#X obj 321 397 list length;
#X floatatom 321 418 5 0 0 0 - - -;
#X obj 294 575 list split;
#X obj 321 508 t f f;
#X obj 321 539 - 1;
#X obj 322 600 list split 1;
#X obj 294 689 list append;
#X obj 321 462 random;
#X obj 321 438 t b f;
#X obj 321 483 + 1;
#X msg 50 560 b d e c a;
#X obj 330 326 cnv 10 10 17 empty empty empty 20 12 0 14 -159808 -1
0;
#X obj 284 734 cnv 10 10 17 empty empty empty 20 12 0 14 -159808 -1
0;
#X obj 294 711 copyList;
#X obj 340 326 r \$0-indexes;
#X obj 294 734 s \$0-indexes;
#X obj 50 79 t b l l b, f 51;
#X obj 62 440 listPick;
#X obj 50 57 list;
#X obj 50 581 list;
#X obj 475 64 inlet;
#X obj 465 129 cnv 10 10 17 empty empty empty 20 12 0 14 -8068 -1 0
;
#X obj 475 85 t f;
#X obj 475 129 s \$0-atomSize;
#X floatatom 475 106 5 0 0 0 - - -;
#X obj 587 62 loadbang;
#X obj 587 83 f \$1;
#X obj 587 104 sel 0;
#X msg 587 125 1;
#X obj 212 129 cnv 10 10 17 empty empty empty 20 12 0 14 -8068 -1 0
;
#X obj 222 129 r \$0-atomSize;
#X obj 201 155 / 1, f 4;
#X obj 52 388 cnv 10 10 17 empty empty empty 20 12 0 14 -8068 -1 0
;
#X obj 62 388 r \$0-atomSize;
#X msg 62 409 size \$1;
#X obj 444 651 easyflow/printHere;
#X obj 540 384 easyflow/printHere;
#X obj 163 457 easyflow/printHere;
#X obj 333 627 cnv 10 10 17 empty empty empty 20 12 0 14 -8068 -1 0
;
#X obj 343 627 r \$0-atomSize;
#X obj 322 653 expr $f2*($f1-1)+1;
#X obj 62 471 addList;
#X connect 0 0 29 0;
#X connect 2 0 42 0;
#X connect 3 0 4 0;
#X connect 4 0 5 0;
#X connect 5 0 6 0;
#X connect 6 0 10 0;
#X connect 6 0 47 0;
#X connect 7 0 6 0;
#X connect 7 0 21 0;
#X connect 8 0 9 0;
#X connect 8 1 3 0;
#X connect 9 0 6 0;
#X connect 10 0 13 0;
#X connect 10 1 11 0;
#X connect 11 0 12 0;
#X connect 12 0 19 0;
#X connect 13 0 17 0;
#X connect 13 1 16 0;
#X connect 14 0 15 0;
#X connect 15 0 13 1;
#X connect 16 0 46 0;
#X connect 16 0 51 0;
#X connect 16 1 17 1;
#X connect 17 0 24 0;
#X connect 18 0 20 0;
#X connect 19 0 18 0;
#X connect 19 1 18 1;
#X connect 20 0 14 0;
#X connect 21 0 30 0;
#X connect 24 0 26 0;
#X connect 25 0 6 0;
#X connect 27 0 21 0;
#X connect 27 1 2 0;
#X connect 27 2 28 1;
#X connect 27 3 7 0;
#X connect 28 0 48 0;
#X connect 28 0 52 0;
#X connect 29 0 27 0;
#X connect 30 0 1 0;
#X connect 31 0 33 0;
#X connect 33 0 35 0;
#X connect 35 0 34 0;
#X connect 36 0 37 0;
#X connect 37 0 38 0;
#X connect 38 0 39 0;
#X connect 38 1 35 0;
#X connect 39 0 35 0;
#X connect 41 0 42 1;
#X connect 42 0 8 0;
#X connect 44 0 45 0;
#X connect 45 0 28 0;
#X connect 50 0 51 1;
#X connect 51 0 28 0;
#X connect 52 0 21 0;
