#N canvas 1117 224 505 608 10;
#X obj 50 40 inlet;
#X obj 121 414 keepMin;
#X obj 121 220 easyflow/left2right;
#X obj 50 514 float;
#X obj 50 545 outlet;
#N canvas 0 50 410 303 dealWithSymbols 0;
#X obj 49 51 inlet;
#X obj 49 252 outlet;
#X obj 49 83 route float;
#X obj 185 37 loadbang;
#X obj 185 58 list 666 \$1;
#X obj 185 79 list split 1;
#N canvas 534 274 484 285 error 0;
#X obj 44 47 inlet;
#X obj 44 198 error [listMin];
#X obj 44 121 list prepend symbols not allowed:;
#X obj 44 142 list append . Use the -s flag for allowing symbols in
the list;
#X obj 44 174 list trim;
#X obj 156 92 cnv 10 10 17 empty empty empty 20 12 0 14 -258113 -1
0;
#X obj 167 92 s \$0-error;
#X obj 44 68 trigger anything bang;
#X connect 0 0 7 0;
#X connect 2 0 3 0;
#X connect 3 0 4 0;
#X connect 4 0 1 0;
#X connect 7 0 2 0;
#X connect 7 1 6 0;
#X restore 112 158 pd error;
#X obj 145 106 tgl 15 0 empty empty empty 17 7 0 10 -262144 -1 -1 0
1;
#X obj 99 252 cnv 10 10 17 empty empty empty 20 12 0 14 -48337 -1 0
;
#X obj 110 252 v \$0-atLeastOneNumber;
#X msg 110 229 1;
#X obj 49 204 t f b;
#X obj 219 111 select -s;
#X obj 99 161 cnv 10 10 12 empty empty ● 1 5 0 15 -262144 -258113
0;
#X obj 112 129 spigot;
#X msg 219 132 0;
#X msg 270 132 1;
#X connect 0 0 2 0;
#X connect 2 0 11 0;
#X connect 2 1 14 0;
#X connect 3 0 4 0;
#X connect 4 0 5 0;
#X connect 5 1 12 0;
#X connect 7 0 14 1;
#X connect 10 0 9 0;
#X connect 11 0 1 0;
#X connect 11 1 10 0;
#X connect 12 0 15 0;
#X connect 12 1 16 0;
#X connect 14 0 6 0;
#X connect 15 0 7 0;
#X connect 16 0 7 0;
#X restore 121 252 pd dealWithSymbols;
#X obj 121 313 switch2;
#X obj 252 157 cnv 10 10 17 empty empty empty 20 12 0 14 -159808 -1
0;
#X msg 263 135 1;
#X obj 263 157 s \$0-waitingFirstNumber;
#X obj 149 273 cnv 10 10 17 empty empty empty 20 12 0 14 -159808 -1
0;
#X obj 160 273 r \$0-waitingFirstNumber;
#X obj 254 381 cnv 10 10 17 empty empty empty 20 12 0 14 -159808 -1
0;
#X obj 265 381 s \$0-waitingFirstNumber;
#X msg 265 360 0;
#X obj 324 130 cnv 10 10 17 empty empty empty 20 12 0 14 -48337 -1
0;
#X obj 335 130 v \$0-atLeastOneNumber;
#X obj 50 448 ifValue \$0-atLeastOneNumber;
#X msg 335 107 0;
#X obj 104 255 cnv 10 10 12 empty empty ● 1 5 0 15 -262144 -48337
0;
#X obj 160 294 tgl 15 0 empty empty empty 17 7 0 10 -262144 -1 -1 0
1;
#N canvas 534 274 347 200 error 0;
#X obj 44 47 inlet;
#X obj 44 98 error [listMin];
#X msg 44 68 at least one number is required!;
#X connect 0 0 2 0;
#X connect 2 0 1 0;
#X restore 209 475 pd error;
#X obj 50 61 list;
#X obj 221 195 cnv 10 10 17 empty empty empty 20 12 0 14 -258113 -1
0;
#X obj 232 195 r \$0-error;
#X obj 93 255 cnv 10 10 12 empty empty ● 1 5 0 15 -262144 -258113
0;
#X obj 50 86 trigger b l b b b, f 48;
#X obj 50 197 spigot;
#X obj 72 125 cnv 10 10 17 empty empty empty 20 12 0 14 -258113 -1
0;
#X obj 83 125 r \$0-error;
#X msg 83 146 0;
#X obj 83 167 tgl 15 0 empty empty empty 17 7 0 10 -262144 -1 -1 1
1;
#X msg 192 124 1;
#X obj 160 338 t f f b;
#X connect 0 0 22 0;
#X connect 1 0 3 1;
#X connect 2 0 5 0;
#X connect 3 0 4 0;
#X connect 5 0 6 0;
#X connect 6 0 1 0;
#X connect 6 1 33 0;
#X connect 8 0 9 0;
#X connect 11 0 20 0;
#X connect 14 0 13 0;
#X connect 17 0 3 0;
#X connect 17 1 21 0;
#X connect 18 0 16 0;
#X connect 20 0 6 1;
#X connect 22 0 26 0;
#X connect 24 0 2 1;
#X connect 26 0 27 0;
#X connect 26 1 2 0;
#X connect 26 2 32 0;
#X connect 26 3 8 0;
#X connect 26 4 18 0;
#X connect 27 0 17 0;
#X connect 29 0 30 0;
#X connect 30 0 31 0;
#X connect 31 0 27 1;
#X connect 32 0 31 0;
#X connect 33 0 1 0;
#X connect 33 1 1 1;
#X connect 33 2 14 0;
