#N canvas 0 50 342 416 10;
#X obj 50 30 inlet;
#X obj 171 335 outlet;
#X obj 50 104 trigger bang list bang;
#X obj 50 64 list;
#X obj 171 177 inlet;
#X obj 37 30 cnv 11 12 17 empty empty 1 2 9 0 14 -1 -262144 0;
#X obj 158 177 cnv 11 12 17 empty empty 2 2 9 0 14 -1 -262144 0;
#X obj 158 335 cnv 11 12 17 empty empty 1 2 9 0 14 -1 -262144 0;
#X obj 114 215 compare \$1;
#X obj 114 152 left2right;
#X obj 171 310 arrayList;
#X msg 271 249 clear;
#X msg 50 245 getList;
#X connect 0 0 3 0;
#X connect 2 0 12 0;
#X connect 2 1 9 0;
#X connect 2 2 11 0;
#X connect 3 0 2 0;
#X connect 4 0 8 1;
#X connect 8 1 10 0;
#X connect 9 0 8 0;
#X connect 10 0 1 0;
#X connect 11 0 10 0;
#X connect 12 0 10 0;
