#N canvas 338 117 387 336 10;
#X obj 157 257 outlet;
#X obj 77 25 inlet left;
#X obj 151 106 inlet right;
#X obj 77 131 list append;
#X msg 77 107 dummy;
#X obj 77 153 list split 1;
#X obj 77 49 trigger bang float;
#X text 159 25 takes a int;
#X text 236 105 takes a list;
#X obj 117 198 list split 0;
#X obj 201 153 - 1;
#X obj 157 229 list split 2;
#X connect 1 0 6 0;
#X connect 2 0 3 1;
#X connect 3 0 5 0;
#X connect 4 0 3 0;
#X connect 5 1 9 0;
#X connect 6 0 4 0;
#X connect 6 1 10 0;
#X connect 9 1 11 0;
#X connect 10 0 9 1;
#X connect 11 0 0 0;
