#N canvas 76 171 919 563 10;
#X obj 59 14 inlet;
#X obj 429 34 inlet;
#X obj 429 85 route set, f 17;
#X obj 528 110 list length;
#X floatatom 528 171 5 0 0 0 - - -;
#X text 609 110 implicitly converted;
#X obj 264 305 arrayList;
#X obj 500 252 loadbang;
#X obj 489 450 cnv 10 10 17 empty empty empty 20 12 0 14 -2097 -1 0
;
#X obj 70 185 cnv 10 10 12 empty empty ● 1 5 0 15 -262144 -2097 0
;
#X obj 278 252 cnv 10 10 17 empty empty empty 20 12 0 14 -131009 -131009
0;
#X obj 254 225 cnv 10 10 17 empty empty empty 20 12 0 14 -159808 -1
0;
#X obj 289 253 r \$0-clear;
#X msg 289 274 clear;
#X obj 500 450 v \$0-count;
#X obj 500 273 bng 15 250 50 0 empty empty empty 17 7 0 10 -262144
-1 -1;
#X msg 500 425 0;
#X obj 517 193 cnv 10 10 17 empty empty empty 20 12 0 14 -260097 -131009
0;
#X obj 528 193 s \$0-max;
#N canvas 0 50 342 339 nOfElements 0;
#X obj 57 15 inlet;
#X obj 74 145 cnv 10 10 17 empty empty empty 20 12 0 14 -260097 -131009
0;
#X obj 85 145 r \$0-max;
#X floatatom 85 166 5 0 0 0 - - -;
#X obj 47 300 cnv 10 10 17 empty empty empty 20 12 0 14 -159808 -1
0;
#X obj 57 300 s \$0-arrayList;
#X msg 57 278 getList;
#X obj 145 274 cnv 10 10 17 empty empty empty 20 12 0 14 -2097 -1 0
;
#X obj 156 274 v \$0-count;
#X obj 57 228 trigger bang bang;
#X msg 156 251 0;
#X obj 57 36 list length;
#X obj 151 78 cnv 10 10 17 empty empty empty 20 12 0 14 -2097 -1 0
;
#X obj 162 78 v \$0-count;
#X obj 57 57 trigger float bang;
#X obj 57 78 +;
#X floatatom 57 99 5 0 0 0 - - -;
#X obj 57 186 >=;
#X obj 57 207 select 1;
#X obj 57 119 t f f;
#X connect 0 0 11 0;
#X connect 2 0 3 0;
#X connect 3 0 17 1;
#X connect 6 0 5 0;
#X connect 9 0 6 0;
#X connect 9 1 10 0;
#X connect 10 0 8 0;
#X connect 11 0 14 0;
#X connect 13 0 15 1;
#X connect 14 0 15 0;
#X connect 14 1 13 0;
#X connect 15 0 16 0;
#X connect 16 0 19 0;
#X connect 17 0 18 0;
#X connect 18 0 9 0;
#X connect 19 0 17 0;
#X connect 19 1 13 0;
#X restore 59 218 pd nOfElements;
#X obj 622 460 cnv 10 10 17 empty empty empty 20 12 0 14 -144141 -1
0;
#X text 166 114 0 = nOfElements;
#X text 166 134 1 = number of adds;
#X obj 633 460 s \$0-mode;
#X obj 87 118 cnv 10 10 17 empty empty empty 20 12 0 14 -144141 -1
0;
#X obj 59 160 switch2;
#X obj 98 118 r \$0-mode;
#X obj 98 139 tgl 15 0 empty empty empty 17 7 0 10 -262144 -1 -1 0
1;
#X obj 82 196 cnv 10 10 17 empty empty ● 1 5 0 15 -262144 -260097
0;
#N canvas 0 50 450 300 nOfAdds 0;
#X obj 57 15 inlet;
#X obj 57 126 select 666;
#X obj 103 84 cnv 10 10 17 empty empty empty 20 12 0 14 -260097 -131009
0;
#X obj 114 84 r \$0-max;
#X floatatom 114 105 5 0 0 0 - - -;
#X obj 47 220 cnv 10 10 17 empty empty empty 20 12 0 14 -159808 -1
0;
#X obj 57 220 s \$0-arrayList;
#X msg 57 198 getList;
#X obj 145 194 cnv 10 10 17 empty empty empty 20 12 0 14 -2097 -1 0
;
#X obj 156 194 v \$0-count;
#X obj 57 147 trigger bang bang;
#X msg 156 171 0;
#X obj 57 58 ++v \$0-count;
#X floatatom 57 79 5 0 0 0 - - -;
#X obj 46 58 cnv 10 10 17 empty empty empty 20 12 0 14 -2097 -1 0;
#X obj 57 36 bng 15 250 50 0 empty empty empty 17 7 0 10 -262144 -1
-1;
#X connect 0 0 15 0;
#X connect 1 0 10 0;
#X connect 3 0 4 0;
#X connect 4 0 1 1;
#X connect 7 0 6 0;
#X connect 10 0 7 0;
#X connect 10 1 11 0;
#X connect 11 0 9 0;
#X connect 12 0 13 0;
#X connect 13 0 1 0;
#X connect 15 0 12 0;
#X restore 98 189 pd nOfAdds;
#X obj 264 225 r \$0-arrayList;
#X obj 70 196 cnv 10 10 12 empty empty ● 1 5 0 15 -262144 -159808
0;
#X obj 172 82 cnv 10 10 17 empty empty empty 20 12 0 14 -159808 -1
0;
#X obj 182 82 s \$0-arrayList;
#X obj 82 185 cnv 10 10 10 empty empty ● 1 5 0 15 -262144 -131009
0;
#X obj 264 326 trigger list bang;
#X obj 352 347 cnv 10 10 17 empty empty empty 20 12 0 14 -131009 -131009
0;
#X obj 363 347 s \$0-clear;
#X text 378 324 ***;
#X text 27 479 (part 1 and part 2);
#X obj 264 347 outlet;
#X obj 46 14 cnv 11 12 17 empty empty 1 2 9 0 14 -1 -262144 0;
#X obj 251 347 cnv 11 12 17 empty empty 1 2 9 0 14 -1 -262144 0;
#X obj 417 34 cnv 11 12 17 empty empty 2 2 9 0 14 -1 -262144 0;
#X obj 31 216 cnv 10 10 12 empty empty ● 1 5 0 15 -262144 -2097 0
;
#X obj 43 227 cnv 10 10 17 empty empty ● 1 5 0 15 -262144 -260097
0;
#X obj 31 227 cnv 10 10 12 empty empty ● 1 5 0 15 -262144 -159808
0;
#X obj 43 216 cnv 10 10 10 empty empty ● 1 5 0 15 -262144 -131009
0;
#X obj 59 61 trigger list anything;
#X msg 767 321 0;
#X obj 429 106 route float;
#N canvas 0 50 412 230 error 0;
#X obj 52 52 inlet;
#X obj 52 115 error [listCollect];
#X obj 52 73 list prepend "set" usage is (set) (integer);
#X obj 52 94 list trim;
#X connect 0 0 2 0;
#X connect 2 0 3 0;
#X connect 3 0 1 0;
#X restore 492 143 pd error;
#X obj 500 294 trigger bang bang bang, f 45;
#X msg 633 437 1;
#X obj 633 381 route -a, f 16;
#X obj 633 356 list trim;
#X obj 756 343 cnv 10 10 17 empty empty empty 20 12 0 14 -144141 -1
0;
#X obj 767 343 s \$0-mode;
#X obj 726 428 route float;
#X obj 715 470 cnv 10 10 17 empty empty empty 20 12 0 14 -260097 -131009
0;
#X obj 726 470 s \$0-max;
#X floatatom 726 449 5 0 0 0 - - -;
#X obj 633 405 trigger b a;
#N canvas 764 23 708 707 load_args 0;
#X obj 358 251 makefilename $%d;
#X obj 272 327 pack f \$0;
#X text 192 79 Maximum attempts, f 8;
#X obj 484 338 send pd-\$0-test_arg;
#X msg 358 282 obj 37 135 list append \$1, f 14;
#X obj 59 101 r \$0-noarg;
#X obj 206 219 select;
#X obj 272 219 trigger float float float;
#X msg 151 85 4096;
#X text 257 87 (that might be engouh);
#X obj 484 245 makefilename $%d-test;
#N canvas 344 339 309 232 \$0-test_arg 0;
#X obj 10 60 symbol \$1-test;
#X obj 133 60 makefilename $%d-test;
#X obj 37 135 list append \$1;
#X obj 10 10 r 1017-i;
#X obj 10 35 trigger bang float;
#X obj 10 85 sel s;
#X obj 37 110 b;
#X obj 37 160 s 1017-arg;
#X obj 10 185 s 1017-noarg;
#X connect 0 0 5 0;
#X connect 1 0 5 1;
#X connect 2 0 7 0;
#X connect 3 0 4 0;
#X connect 4 0 0 0;
#X connect 4 1 1 0;
#X connect 5 0 8 0;
#X connect 5 1 6 0;
#X connect 6 0 2 0;
#X restore 498 178 pd \$0-test_arg;
#X obj 164 428 r \$0-arg;
#X obj 203 496 list;
#X obj 164 463 list prepend;
#X obj 120 492 list;
#X text 180 631 list of arguments, f 9;
#X msg 272 380 \; pd-\$2-test_arg obj 10 10 r \$2-i \; pd-\$2-test_arg
obj 10 35 trigger bang float \; pd-\$2-test_arg obj 10 85 sel s \;
pd-\$2-test_arg obj 37 110 b \; pd-\$2-test_arg obj 37 160 s \$2-arg
\; pd-\$2-test_arg obj 10 185 s \$2-noarg \; pd-\$2-test_arg connect
3 0 4 0 \; pd-\$2-test_arg connect 4 1 1 0 \; pd-\$2-test_arg connect
4 0 0 0 \; pd-\$2-test_arg connect 1 0 5 1 \; pd-\$2-test_arg connect
0 0 5 0 \; pd-\$2-test_arg connect 5 1 6 0 \; pd-\$2-test_arg connect
6 0 2 0 \; pd-\$2-test_arg connect 2 0 7 0 \; pd-\$2-test_arg connect
5 0 8 0 \; \$2-i \$1 \;;
#X msg 484 272 clear \, obj 10 60 symbol \$1 \, obj 133 60 makefilename
$%d-test, f 27;
#X obj 119 638 outlet;
#X obj 151 157 until;
#X obj 206 189 + 1;
#X msg 233 147 0;
#X obj 151 123 trigger float bang float;
#X obj 151 188 float;
#X obj 151 55 inlet;
#X text 274 31 https://forum.pdpatchrepo.info/topic/10892/collect-all-arguments-as-a-list/4
;
#X connect 0 0 4 0;
#X connect 1 0 17 0;
#X connect 4 0 3 0;
#X connect 5 0 15 0;
#X connect 5 0 20 1;
#X connect 6 0 15 0;
#X connect 6 1 7 0;
#X connect 7 0 1 0;
#X connect 7 1 0 0;
#X connect 7 2 10 0;
#X connect 8 0 23 0;
#X connect 10 0 18 0;
#X connect 12 0 14 0;
#X connect 13 0 14 1;
#X connect 13 0 15 1;
#X connect 14 0 13 0;
#X connect 15 0 19 0;
#X connect 18 0 3 0;
#X connect 20 0 24 0;
#X connect 21 0 24 1;
#X connect 21 0 6 0;
#X connect 22 0 24 1;
#X connect 23 0 20 0;
#X connect 23 1 22 0;
#X connect 23 2 6 1;
#X connect 24 0 21 0;
#X connect 25 0 8 0;
#X restore 633 321 pd load_args;
#X obj 487 58 cnv 10 10 17 empty empty empty 20 12 0 14 -2097 -1 0
;
#X obj 498 58 v \$0-count;
#X msg 498 33 0;
#X obj 429 55 t a b;
#X obj 59 35 list;
#X text 31 400 ***see:;
#X text 28 428 https://henriaug.wordpress.com/pure-data-vs-text-languages-return-and-side-effects/
, f 51;
#X connect 0 0 68 0;
#X connect 1 0 67 0;
#X connect 2 0 50 0;
#X connect 2 1 3 0;
#X connect 3 0 4 0;
#X connect 4 0 18 0;
#X connect 6 0 35 0;
#X connect 7 0 15 0;
#X connect 12 0 13 0;
#X connect 13 0 6 0;
#X connect 15 0 52 0;
#X connect 16 0 14 0;
#X connect 25 0 19 0;
#X connect 25 1 29 0;
#X connect 26 0 27 0;
#X connect 27 0 25 1;
#X connect 30 0 6 0;
#X connect 35 0 40 0;
#X connect 35 1 37 0;
#X connect 48 0 25 0;
#X connect 48 1 33 0;
#X connect 49 0 57 0;
#X connect 50 0 4 0;
#X connect 50 0 13 0;
#X connect 50 1 51 0;
#X connect 52 0 16 0;
#X connect 52 1 63 0;
#X connect 52 2 49 0;
#X connect 53 0 23 0;
#X connect 54 0 62 0;
#X connect 54 1 58 0;
#X connect 55 0 54 0;
#X connect 58 0 61 0;
#X connect 61 0 60 0;
#X connect 62 0 53 0;
#X connect 62 1 58 0;
#X connect 63 0 55 0;
#X connect 66 0 65 0;
#X connect 67 0 2 0;
#X connect 67 1 66 0;
#X connect 68 0 48 0;
