#N canvas 405 56 503 752 10;
#X obj 63 27 inlet;
#X obj 96 136 list length;
#X obj 64 305 list;
#X msg 131 254 adddollar \$1;
#X obj 131 500 list append 194 160;
#X obj 63 99 trigger bang list list bang;
#X obj 131 471 list fromsymbol;
#X obj 131 656 list tosymbol;
#X msg 289 300 set;
#X symbolatom 131 688 30 0 0 0 - - -;
#X obj 131 717 outlet;
#X msg 131 370 \$1;
#X msg 199 302 set;
#N canvas 0 50 450 300 deal 0;
#X obj 57 34 inlet;
#X obj 57 216 outlet;
#X obj 266 82 list;
#X obj 230 41 t a;
#X obj 57 151 list;
#X obj 57 79 route list symbol float;
#X connect 0 0 5 0;
#X connect 2 0 3 0;
#X connect 3 0 5 0;
#X connect 4 0 1 0;
#X connect 5 0 4 0;
#X connect 5 1 4 0;
#X connect 5 2 4 0;
#X connect 5 3 2 0;
#X restore 63 69 pd deal with types;
#N canvas 0 50 450 300 list 0;
#X obj 69 42 inlet;
#X obj 69 96 outlet;
#X msg 69 64 116 105 109 101 83 105 103 194 160;
#X connect 0 0 2 0;
#X connect 2 0 1 0;
#X restore 131 586 pd list;
#X text 277 499 append a " " char;
#X obj 131 618 popLastN 2;
#X text 218 615 removes the last " " char;
#X msg 96 157 set 1 \, \$1;
#X obj 64 223 t b f b, f 23;
#X obj 131 391 route bang;
#X msg 131 412 symbol bang;
#X obj 131 444 numberSymbol;
#X obj 131 529 addList;
#X obj 96 190 counter;
#X connect 0 0 13 0;
#X connect 1 0 18 0;
#X connect 2 0 11 0;
#X connect 3 0 11 0;
#X connect 4 0 23 0;
#X connect 5 0 14 0;
#X connect 5 1 1 0;
#X connect 5 2 2 1;
#X connect 5 3 8 0;
#X connect 6 0 4 0;
#X connect 7 0 9 0;
#X connect 8 0 14 0;
#X connect 9 0 10 0;
#X connect 11 0 20 0;
#X connect 12 0 11 0;
#X connect 13 0 5 0;
#X connect 14 0 16 0;
#X connect 16 0 7 0;
#X connect 18 0 24 0;
#X connect 19 0 2 0;
#X connect 19 1 3 0;
#X connect 19 2 12 0;
#X connect 20 0 21 0;
#X connect 20 1 22 0;
#X connect 21 0 22 0;
#X connect 22 0 6 0;
#X connect 23 0 14 0;
#X connect 24 0 19 0;
