#N canvas 760 138 671 453 10;
#X obj 46 31 inlet;
#X obj 206 31 inlet;
#X obj 298 30 inlet;
#X obj 298 51 list;
#X obj 85 366 outlet;
#X obj 33 31 cnv 11 12 17 empty empty 1 2 9 0 14 -1 -262144 0;
#X obj 193 31 cnv 11 12 17 empty empty 2 2 9 0 14 -1 -262144 0;
#X obj 285 30 cnv 11 12 17 empty empty 3 2 9 0 14 -1 -262144 0;
#X obj 72 366 cnv 11 12 17 empty empty 1 2 9 0 14 -1 -262144 0;
#X obj 298 375 outlet;
#X obj 285 375 cnv 11 12 17 empty empty 2 2 9 0 14 -1 -262144 0;
#X obj 85 238 iterator, f 36;
#X obj 460 79 cnv 11 12 17 empty empty empty 2 9 0 14 -42489 -262144
0;
#X obj 473 79 v \$0-index;
#X msg 471 58 1;
#X obj 206 52 numberSymbol;
#X obj 298 295 select symbolMode;
#X symbolatom 206 73 10 0 0 0 - - -;
#X obj 298 351 v++ \$0-index;
#X obj 285 351 cnv 11 12 17 empty empty empty 2 9 0 14 -42489 -262144
0;
#X obj 298 264 numberSymbol;
#X obj 507 58 cnv 11 12 17 empty empty empty 2 9 0 14 -131105 -262144
0;
#X obj 520 58 v \$0-atLeastOneFound;
#X msg 520 37 0;
#X obj 383 373 cnv 11 12 17 empty empty empty 2 9 0 14 -131105 -262144
0;
#X obj 396 373 v \$0-atLeastOneFound;
#X obj 298 316 t b b b;
#X msg 396 352 1;
#X obj 85 283 ifValue \$0-atLeastOneFound;
#X obj 72 283 cnv 11 12 17 empty empty empty 2 9 0 14 -131105 -262144
0;
#X obj 158 311 t b b;
#X msg 185 337 -1;
#X symbolatom 384 252 10 0 0 0 - - -;
#N canvas 764 23 708 707 load_args 0;
#X obj 358 251 makefilename $%d;
#X obj 272 327 pack f \$0;
#X text 192 79 Maximum attempts, f 8;
#X obj 484 338 send pd-\$0-test_arg;
#X msg 358 282 obj 37 135 list append \$1, f 14;
#X obj 59 101 r \$0-noarg;
#X obj 206 219 select;
#X obj 272 219 trigger float float float;
#X msg 151 85 4096;
#X text 257 87 (that might be engouh);
#X obj 484 245 makefilename $%d-test;
#N canvas 344 339 309 232 \$0-test_arg 0;
#X obj 10 60 symbol \$12-test;
#X obj 133 60 makefilename $%d-test;
#X obj 37 135 list append \$12;
#X obj 10 10 r 1731-i;
#X obj 10 35 trigger bang float;
#X obj 10 85 sel s;
#X obj 37 110 b;
#X obj 37 160 s 1731-arg;
#X obj 10 185 s 1731-noarg;
#X connect 0 0 5 0;
#X connect 1 0 5 1;
#X connect 2 0 7 0;
#X connect 3 0 4 0;
#X connect 4 0 0 0;
#X connect 4 1 1 0;
#X connect 5 0 8 0;
#X connect 5 1 6 0;
#X connect 6 0 2 0;
#X restore 498 178 pd \$0-test_arg;
#X obj 164 428 r \$0-arg;
#X obj 203 496 list;
#X obj 164 463 list prepend;
#X obj 120 492 list;
#X text 180 631 list of arguments, f 9;
#X msg 272 380 \; pd-\$2-test_arg obj 10 10 r \$2-i \; pd-\$2-test_arg
obj 10 35 trigger bang float \; pd-\$2-test_arg obj 10 85 sel s \;
pd-\$2-test_arg obj 37 110 b \; pd-\$2-test_arg obj 37 160 s \$2-arg
\; pd-\$2-test_arg obj 10 185 s \$2-noarg \; pd-\$2-test_arg connect
3 0 4 0 \; pd-\$2-test_arg connect 4 1 1 0 \; pd-\$2-test_arg connect
4 0 0 0 \; pd-\$2-test_arg connect 1 0 5 1 \; pd-\$2-test_arg connect
0 0 5 0 \; pd-\$2-test_arg connect 5 1 6 0 \; pd-\$2-test_arg connect
6 0 2 0 \; pd-\$2-test_arg connect 2 0 7 0 \; pd-\$2-test_arg connect
5 0 8 0 \; \$2-i \$1 \;;
#X msg 484 272 clear \, obj 10 60 symbol \$1 \, obj 133 60 makefilename
$%d-test, f 27;
#X obj 119 638 outlet;
#X obj 151 157 until;
#X obj 206 189 + 1;
#X msg 233 147 0;
#X obj 151 123 trigger float bang float;
#X obj 151 188 float;
#X obj 151 55 inlet;
#X text 274 31 https://forum.pdpatchrepo.info/topic/10892/collect-all-arguments-as-a-list/4
;
#X connect 0 0 4 0;
#X connect 1 0 17 0;
#X connect 4 0 3 0;
#X connect 5 0 15 0;
#X connect 5 0 20 1;
#X connect 6 0 15 0;
#X connect 6 1 7 0;
#X connect 7 0 1 0;
#X connect 7 1 0 0;
#X connect 7 2 10 0;
#X connect 8 0 23 0;
#X connect 10 0 18 0;
#X connect 12 0 14 0;
#X connect 13 0 14 1;
#X connect 13 0 15 1;
#X connect 14 0 13 0;
#X connect 15 0 19 0;
#X connect 18 0 3 0;
#X connect 20 0 24 0;
#X connect 21 0 24 1;
#X connect 21 0 6 0;
#X connect 22 0 24 1;
#X connect 23 0 20 0;
#X connect 23 1 22 0;
#X connect 23 2 6 1;
#X connect 24 0 21 0;
#X connect 25 0 8 0;
#X restore 341 54 pd load_args;
#X obj 341 30 loadbang;
#X obj 32 228 bng 15 250 50 0 empty empty empty 17 7 0 10 -262144 -1
-1;
#X obj 470 327 v++ \$0-index;
#X obj 457 327 cnv 11 12 17 empty empty empty 2 9 0 14 -42489 -262144
0;
#X obj 468 307 bng 15 250 50 0 empty empty empty 17 7 0 10 -262144
-1 -1;
#X msg 85 128 10000;
#X obj 85 149 until;
#X obj 260 320 bng 15 250 50 0 empty empty empty 17 7 0 10 -262144
-1 -1;
#X obj 104 172 bng 15 1000 25 0 empty empty empty 17 7 0 10 -262144
-1 -1;
#X obj 285 185 cnv 11 12 17 empty empty empty 2 9 0 14 -239692 -262144
0;
#X obj 298 185 r \$0-restart;
#X obj 384 274 cnv 11 12 17 empty empty empty 2 9 0 14 -240844 -262144
0;
#X obj 397 274 r \$0-needle;
#X obj 193 93 cnv 11 12 17 empty empty empty 2 9 0 14 -240844 -262144
0;
#X obj 206 93 s \$0-needle;
#N canvas 0 50 450 300 router 0;
#X obj 37 37 inlet;
#X obj 112 84 outlet;
#X obj 24 105 cnv 11 12 17 empty empty empty 2 9 0 14 -239692 -262144
0;
#X obj 37 105 s \$0-restart;
#X msg 37 83 bang;
#X obj 37 58 route restart;
#X connect 0 0 5 0;
#X connect 4 0 3 0;
#X connect 5 0 4 0;
#X connect 5 1 1 0;
#X restore 46 52 pd router;
#X obj 298 211 list;
#X obj 458 14 cnv 11 12 17 empty empty empty 2 9 0 14 -239692 -262144
0;
#X obj 471 14 r \$0-restart;
#X msg 167 144 0;
#X obj 104 192 easyflow/counter;
#X floatatom 104 213 5 0 0 0 - - -;
#X obj 46 73 t b b;
#X obj 298 84 t b l;
#X obj 285 108 cnv 11 12 17 empty empty empty 2 9 0 14 -239692 -262144
0;
#X obj 298 108 s \$0-restart;
#X connect 0 0 49 0;
#X connect 1 0 15 0;
#X connect 2 0 3 0;
#X connect 3 0 57 0;
#X connect 11 0 28 0;
#X connect 11 0 35 0;
#X connect 11 2 20 0;
#X connect 14 0 13 0;
#X connect 15 0 17 0;
#X connect 16 0 26 0;
#X connect 16 0 41 0;
#X connect 16 1 38 0;
#X connect 17 0 48 0;
#X connect 18 0 9 0;
#X connect 20 0 16 0;
#X connect 20 0 32 0;
#X connect 23 0 22 0;
#X connect 26 0 18 0;
#X connect 26 1 40 1;
#X connect 26 2 27 0;
#X connect 27 0 25 0;
#X connect 28 0 4 0;
#X connect 28 1 30 0;
#X connect 30 0 4 0;
#X connect 30 1 31 0;
#X connect 31 0 9 0;
#X connect 33 0 57 0;
#X connect 34 0 33 0;
#X connect 35 0 40 1;
#X connect 38 0 36 0;
#X connect 39 0 40 0;
#X connect 40 0 11 0;
#X connect 40 0 42 0;
#X connect 42 0 54 0;
#X connect 44 0 50 0;
#X connect 46 0 16 1;
#X connect 49 0 56 0;
#X connect 50 0 11 1;
#X connect 52 0 14 0;
#X connect 52 0 23 0;
#X connect 53 0 54 1;
#X connect 54 0 55 0;
#X connect 56 0 39 0;
#X connect 56 1 53 0;
#X connect 57 0 59 0;
#X connect 57 1 50 1;
