#N canvas 936 137 343 356 10;
#X obj 50 20 inlet;
#X msg 103 245 37 38 39 40 41;
#X msg 229 199 set;
#X obj 103 267 outlet;
#X obj 50 42 trigger bang anything bang;
#X obj 103 153 + \$1;
#X obj 128 124 inlet;
#X obj 103 91 easyflow/left2right;
#N canvas 0 50 485 407 addMsg 1;
#X obj 38 19 inlet;
#X obj 210 113 list length;
#X floatatom 210 135 5 0 0 0 - - -, f 5;
#X obj 210 186 until 777;
#X obj 210 208 f;
#X obj 210 230 t f f;
#X obj 210 252 + 1;
#X floatatom 242 264 5 0 0 0 - - -, f 5;
#X msg 296 185 1;
#X msg 242 285 adddollar \$1;
#X msg 242 317 add2 \$1;
#X obj 242 359 outlet;
#X obj 38 41 list;
#X msg 382 185 set add2;
#X obj 38 81 trigger anything anything;
#X obj 210 156 trigger float bang bang, f 25;
#X connect 0 0 12 0;
#X connect 1 0 2 0;
#X connect 2 0 15 0;
#X connect 3 0 4 0;
#X connect 4 0 5 0;
#X connect 5 0 6 0;
#X connect 5 1 7 0;
#X connect 6 0 4 1;
#X connect 7 0 9 0;
#X connect 8 0 4 1;
#X connect 9 0 10 0;
#X connect 10 0 11 0;
#X connect 12 0 14 0;
#X connect 13 0 10 0;
#X connect 14 0 10 0;
#X connect 14 1 1 0;
#X connect 15 0 3 0;
#X connect 15 1 8 0;
#X connect 15 2 13 0;
#X restore 103 183 pd addMsg;
#X connect 0 0 4 0;
#X connect 1 0 3 0;
#X connect 2 0 1 0;
#X connect 4 0 1 0;
#X connect 4 1 7 0;
#X connect 4 2 2 0;
#X connect 5 0 8 0;
#X connect 6 0 5 1;
#X connect 7 0 5 0;
#X connect 8 0 1 0;
