#N canvas 375 124 686 443 10;
#X obj 265 111 cnv 15 100 15 empty empty SPECIAL 10 8 0 14 -1 -262144
0;
#X obj 269 212 easyflow/copyList;
#X obj 334 111 cnv 15 300 15 empty empty CASES 10 8 0 14 -1 -262144
0;
#X text 358 155 leading zeros are not considered (09 = 9);
#X obj 265 268 cnv 5 100 5 empty empty empty 10 8 0 14 -1 -262144 0
;
#X obj 334 268 cnv 5 300 5 empty empty empty 10 8 0 14 -1 -262144 0
;
#X obj 234 24 cnv 2 2 350 empty empty empty 10 8 0 14 -1 -262144 0
;
#X obj 265 18 cnv 15 100 15 empty empty LIST 10 8 0 14 -1 -258080 0
;
#X obj 331 18 cnv 15 300 15 empty empty CONCATENATE -10 8 0 14 -1 -258081
0;
#X text 360 138 Since numbers in lists cannot be symbols;
#X msg 269 153 9 29 2017;
#X msg 51 90 list t h i s i s c o o l;
#X msg 64 117 t h i s i s c o o l;
#X msg 76 146 a;
#X msg 77 183 2;
#X msg 45 50 list 10 20 30 40;
#X msg 30 22 list a1 b2 c3 a4;
#X obj 30 234 easyflow/listConcatenate;
#X symbolatom 30 256 15 0 0 0 - - -, f 15;
#X obj 269 183 easyflow/listConcatenate;
#X text 112 177 (output is still a float), f 14;
#X text 271 42 listConcatenate takes a message and outputs symbol which
is a concatenation of all of its elements, f 52;
#X text 464 189 try changing 9 to;
#X text 573 189 0;
#X text 583 189 9;
#X msg 269 234;
#X text 470 205 in the message box;
#N canvas 0 50 541 263 curiosityForDevelopers 0;
#X text 56 47 listConcatenate uses;
#X obj 205 47 route list;
#X text 286 47 to be able to handle;
#X text 56 76 cases like;
#X msg 142 74 t h i s i s c o o l;
#N canvas 176 50 1444 798 justForCuriosity 0;
#X obj 132 322 list length;
#X floatatom 132 344 5 0 0 0 - - -, f 5;
#X obj 132 363 == 1;
#X floatatom 132 385 5 0 0 0 - - -, f 5;
#X obj 58 292 trigger a a;
#X msg 58 197 list c o o l;
#X msg 93 223 c o o l;
#X obj 90 579 print Accept (more than 1 element);
#X text 524 180 note that;
#X msg 470 213 list foo;
#X text 536 212 equals;
#X msg 588 213 symbol foo;
#X obj 541 259 print;
#X text 512 277 prints the same;
#N canvas 0 50 450 300 type 0;
#X obj 44 46 inlet;
#X obj 44 68 route integer float symbol list bang;
#X msg 44 150 set integer;
#X msg 93 126 set float;
#X msg 143 96 set symbol;
#X msg 193 130 set list;
#X msg 243 94 set bang;
#X obj 73 218 outlet;
#X msg 293 153 set other;
#X connect 0 0 1 0;
#X connect 1 0 2 0;
#X connect 1 1 3 0;
#X connect 1 2 4 0;
#X connect 1 3 5 0;
#X connect 1 4 6 0;
#X connect 1 5 8 0;
#X connect 2 0 7 0;
#X connect 3 0 7 0;
#X connect 4 0 7 0;
#X connect 5 0 7 0;
#X connect 6 0 7 0;
#X connect 8 0 7 0;
#X restore 95 463 pd type;
#X obj 89 485 cnv 15 65 23 empty empty empty 20 12 0 14 -260097 -66577
0;
#X obj 91 487 cnv 15 61 19 empty empty empty 20 12 0 14 -262144 -66577
0;
#X msg 95 488 float;
#X text 170 488 <--- type of output;
#X msg 760 182 list c o o l;
#X msg 796 205 c o o l;
#X obj 792 597 print Accept (more than 1 element);
#N canvas 0 50 450 300 type 0;
#X obj 44 46 inlet;
#X obj 44 68 route integer float symbol list bang;
#X msg 44 150 set integer;
#X msg 93 126 set float;
#X msg 143 96 set symbol;
#X msg 193 130 set list;
#X msg 243 94 set bang;
#X obj 73 218 outlet;
#X msg 293 153 set other;
#X connect 0 0 1 0;
#X connect 1 0 2 0;
#X connect 1 1 3 0;
#X connect 1 2 4 0;
#X connect 1 3 5 0;
#X connect 1 4 6 0;
#X connect 1 5 8 0;
#X connect 2 0 7 0;
#X connect 3 0 7 0;
#X connect 4 0 7 0;
#X connect 5 0 7 0;
#X connect 6 0 7 0;
#X connect 8 0 7 0;
#X restore 787 488 pd type;
#X obj 781 510 cnv 15 65 23 empty empty empty 20 12 0 14 -260097 -66577
0;
#X obj 783 512 cnv 15 61 19 empty empty empty 20 12 0 14 -262144 -66577
0;
#X msg 787 513 list;
#N canvas 0 50 852 662 Concatenation 0;
#X obj 52 178 list length;
#X obj 52 202 - 1;
#X obj 476 117 list;
#X obj 52 297 easyflow/for;
#X floatatom 133 322 5 0 0 0 - - -, f 5;
#X obj 133 341 bng 15 250 50 0 empty empty empty 17 7 0 10 -262144
-1 -1;
#X obj 476 249 list split 2;
#X obj 476 291 t b l;
#X msg 508 319 set \$1\$2;
#X msg 476 353 cool;
#X obj 476 396 list append;
#X obj 585 155 tgl 15 0 empty empty empty 17 7 0 10 -262144 -1 -1 0
1;
#X obj 539 75 cnv 10 10 17 empty empty empty 20 12 0 14 -51135 -66577
0;
#X obj 465 434 cnv 10 10 17 empty empty empty 20 12 0 14 -51135 -66577
0;
#X obj 52 142 trigger list list bang;
#X msg 203 167 0;
#X obj 52 319 t b b;
#X msg 84 412 1;
#X obj 585 217 outlet;
#X obj 574 129 cnv 10 10 17 empty empty empty 20 12 0 14 -49039 -66577
0;
#X obj 192 194 cnv 10 10 17 empty empty empty 20 12 0 14 -49039 -66577
0;
#X obj 73 439 cnv 10 10 17 empty empty empty 20 12 0 14 -49039 -66577
0;
#X obj 116 223 cnv 10 10 17 empty empty empty 20 12 0 14 -51135 -66577
0;
#X obj 465 43 cnv 10 10 17 empty empty empty 20 12 0 14 -250021 -66577
0;
#X obj 122 366 cnv 10 10 17 empty empty empty 20 12 0 14 -250021 -66577
0;
#X obj 41 474 cnv 10 10 17 empty empty empty 20 12 0 14 -250021 -66577
0;
#X text 236 147 list should go to;
#X text 237 164 concatenation;
#X text 248 433 list should go to;
#X text 249 450 outlet;
#X text 245 372 elements 1 and 2;
#X text 245 358 concatenate list;
#X text 160 473 output list to outlet;
#X obj 605 181 cnv 10 10 17 empty empty empty 20 12 0 14 -1 -66577
0;
#X obj 52 98 inlet;
#X obj 203 194 s \$0-whereToSendList_A;
#X obj 127 223 s \$0-updateList_A;
#X obj 133 366 s \$0-bangList_A;
#X obj 84 439 s \$0-whereToSendList_A;
#X obj 52 474 s \$0-bangList_A;
#X obj 476 42 r \$0-bangList_A;
#X obj 550 75 r \$0-updateList_A;
#X obj 585 129 r \$0-whereToSendList_A;
#X obj 616 181 r \$0-outlet_A;
#X obj 476 434 s \$0-updateList_A;
#X floatatom 52 224 5 0 0 0 - - -, f 5;
#X obj 476 186 easyflow/switch2;
#X connect 0 0 1 0;
#X connect 1 0 45 0;
#X connect 2 0 46 0;
#X connect 3 0 16 0;
#X connect 3 1 4 0;
#X connect 4 0 5 0;
#X connect 5 0 37 0;
#X connect 6 0 7 0;
#X connect 6 1 10 1;
#X connect 7 0 9 0;
#X connect 7 1 8 0;
#X connect 8 0 9 0;
#X connect 9 0 10 0;
#X connect 10 0 44 0;
#X connect 11 0 46 1;
#X connect 14 0 0 0;
#X connect 14 1 36 0;
#X connect 14 2 15 0;
#X connect 15 0 35 0;
#X connect 16 0 39 0;
#X connect 16 1 17 0;
#X connect 17 0 38 0;
#X connect 34 0 14 0;
#X connect 40 0 2 0;
#X connect 41 0 2 1;
#X connect 42 0 11 0;
#X connect 43 0 18 0;
#X connect 45 0 3 0;
#X connect 46 0 6 0;
#X connect 46 1 18 0;
#X restore 58 624 pd Concatenation;
#X obj 58 646 print CONCATENATION;
#N canvas 0 50 852 662 Concatenation 0;
#X obj 52 178 list length;
#X obj 52 202 - 1;
#X floatatom 52 224 5 0 0 0 - - -, f 5;
#X obj 476 117 list;
#X obj 52 267 easyflow/for;
#X floatatom 133 292 5 0 0 0 - - -, f 5;
#X obj 133 311 bng 15 250 50 0 empty empty empty 17 7 0 10 -262144
-1 -1;
#X obj 476 249 list split 2;
#X obj 476 291 t b l;
#X msg 508 319 set \$1\$2;
#X msg 476 353 cool;
#X obj 476 396 list append;
#X obj 585 155 tgl 15 0 empty empty empty 17 7 0 10 -262144 -1 -1 0
1;
#X obj 539 75 cnv 10 10 17 empty empty empty 20 12 0 14 -51135 -66577
0;
#X obj 465 434 cnv 10 10 17 empty empty empty 20 12 0 14 -51135 -66577
0;
#X obj 52 142 trigger list list bang;
#X msg 203 167 0;
#X obj 52 289 t b b;
#X msg 84 382 1;
#X obj 585 217 outlet;
#X obj 574 129 cnv 10 10 17 empty empty empty 20 12 0 14 -49039 -66577
0;
#X obj 192 194 cnv 10 10 17 empty empty empty 20 12 0 14 -49039 -66577
0;
#X obj 73 409 cnv 10 10 17 empty empty empty 20 12 0 14 -49039 -66577
0;
#X obj 116 223 cnv 10 10 17 empty empty empty 20 12 0 14 -51135 -66577
0;
#X obj 465 43 cnv 10 10 17 empty empty empty 20 12 0 14 -250021 -66577
0;
#X obj 122 336 cnv 10 10 17 empty empty empty 20 12 0 14 -250021 -66577
0;
#X obj 41 444 cnv 10 10 17 empty empty empty 20 12 0 14 -250021 -66577
0;
#X text 236 147 list should go to;
#X text 237 164 concatenation;
#X text 248 403 list should go to;
#X text 249 420 outlet;
#X text 245 342 elements 1 and 2;
#X text 245 328 concatenate list;
#X text 160 443 output list to outlet;
#X obj 605 181 cnv 10 10 17 empty empty empty 20 12 0 14 -1 -66577
0;
#X obj 52 98 inlet;
#X obj 476 43 r \$0-bangList_B;
#X obj 550 75 r \$0-updateList_B;
#X obj 585 129 r \$0-whereToSendList_B;
#X obj 616 181 r \$0-outlet_B;
#X obj 476 434 s \$0-updateList_B;
#X obj 52 444 s \$0-bangList_B;
#X obj 84 409 s \$0-whereToSendList_B;
#X obj 133 336 s \$0-bangList_B;
#X obj 127 223 s \$0-updateList_B;
#X obj 203 194 s \$0-whereToSendList_B;
#X obj 476 186 easyflow/switch2;
#X connect 0 0 1 0;
#X connect 1 0 2 0;
#X connect 2 0 4 0;
#X connect 3 0 46 0;
#X connect 4 0 17 0;
#X connect 4 1 5 0;
#X connect 5 0 6 0;
#X connect 6 0 43 0;
#X connect 7 0 8 0;
#X connect 7 1 11 1;
#X connect 8 0 10 0;
#X connect 8 1 9 0;
#X connect 9 0 10 0;
#X connect 10 0 11 0;
#X connect 11 0 40 0;
#X connect 12 0 46 1;
#X connect 15 0 0 0;
#X connect 15 1 44 0;
#X connect 15 2 16 0;
#X connect 16 0 45 0;
#X connect 17 0 41 0;
#X connect 17 1 18 0;
#X connect 18 0 42 0;
#X connect 35 0 15 0;
#X connect 36 0 3 0;
#X connect 37 0 3 1;
#X connect 38 0 12 0;
#X connect 39 0 19 0;
#X connect 46 0 7 0;
#X connect 46 1 19 0;
#X restore 760 636 pd Concatenation;
#X obj 760 658 print CONCATENATION;
#X text 163 223 error!;
#X obj 760 246 route list;
#X obj 760 393 list;
#X obj 769 271 bng 15 250 50 0 empty empty empty 17 7 0 10 -262144
-1 -1;
#X obj 1068 347 list length;
#X floatatom 1068 369 5 0 0 0 - - -, f 5;
#X obj 1068 410 tgl 15 0 empty empty empty 17 7 0 10 -262144 -1 -1
0 1;
#X obj 959 473 list;
#X obj 827 272 bng 15 250 50 0 empty empty empty 17 7 0 10 -262144
-1 -1;
#X obj 1068 388 == 1;
#X obj 959 311 trigger a a;
#X obj 58 548 t a a;
#X obj 760 556 t a a;
#X obj 1028 473 print dont need concatenation (pass through);
#X text 164 195 works;
#X text 865 179 works;
#X text 861 203 also works!;
#X text 851 512 <- type of output;
#X obj 167 449 print dont need concatenation (pass through);
#X obj 58 59 cnv 15 100 15 empty empty First 10 8 0 14 -1 -262144 0
;
#X obj 115 59 cnv 15 300 15 empty empty attempt 3 8 0 14 -1 -262144
0;
#X obj 749 64 cnv 15 100 15 empty empty Second 10 8 0 14 -1 -262144
0;
#X obj 806 64 cnv 15 300 15 empty empty attempt 10 8 0 14 -1 -262144
0;
#X obj 58 420 easyflow/switch2;
#X obj 959 431 easyflow/switch2;
#X connect 0 0 1 0;
#X connect 1 0 2 0;
#X connect 2 0 3 0;
#X connect 3 0 53 1;
#X connect 4 0 53 0;
#X connect 4 1 0 0;
#X connect 5 0 4 0;
#X connect 6 0 4 0;
#X connect 9 0 12 0;
#X connect 11 0 12 0;
#X connect 14 0 17 0;
#X connect 19 0 31 0;
#X connect 20 0 31 0;
#X connect 22 0 25 0;
#X connect 26 0 27 0;
#X connect 28 0 29 0;
#X connect 31 0 32 0;
#X connect 31 0 33 0;
#X connect 31 1 38 0;
#X connect 31 1 40 0;
#X connect 32 0 22 0;
#X connect 32 0 42 0;
#X connect 34 0 35 0;
#X connect 35 0 39 0;
#X connect 36 0 54 1;
#X connect 37 0 32 0;
#X connect 39 0 36 0;
#X connect 40 0 54 0;
#X connect 40 1 34 0;
#X connect 41 0 26 0;
#X connect 41 1 7 0;
#X connect 42 0 28 0;
#X connect 42 1 21 0;
#X connect 53 0 14 0;
#X connect 53 0 41 0;
#X connect 53 1 14 0;
#X connect 53 1 48 0;
#X connect 54 0 37 0;
#X connect 54 1 43 0;
#X restore 57 206 pd justForCuriosity;
#X text 296 74 and to avoid errors;
#X text 56 102 with;
#X obj 106 102 trigger;
#X text 56 151 On the following subpatch I've isolated the routing
logic;
#X text 57 170 so you can see for yourself:;
#X restore 273 311 pd curiosityForDevelopers;
#X obj 555 396 easyflow-info;
#X connect 1 0 25 0;
#X connect 10 0 19 0;
#X connect 11 0 17 0;
#X connect 12 0 17 0;
#X connect 13 0 17 0;
#X connect 14 0 17 0;
#X connect 15 0 17 0;
#X connect 16 0 17 0;
#X connect 17 0 18 0;
#X connect 19 0 1 0;
