#N canvas 111 238 523 493 10;
#X obj 55 38 inlet;
#X obj 154 400 outlet;
#X obj 358 37 inlet;
#X obj 301 217 listSearch;
#X obj 154 160 left2right;
#X obj 154 181 trigger anything anything;
#X obj 301 238 != -1;
#X obj 301 259 tgl 15 0 empty empty empty 17 7 0 10 -262144 -1 -1 0
1;
#X obj 154 261 spigot;
#X obj 55 120 trigger bang list;
#X obj 167 85 cnv 10 10 17 empty empty empty 20 12 0 14 -159808 -1
0;
#X obj 178 85 s \$0-start;
#X obj 55 59 trigger anything bang;
#X obj 181 292 cnv 10 10 17 empty empty empty 20 12 0 14 -159808 -1
0;
#X obj 154 342 arrayList;
#X obj 192 292 r \$0-start;
#X msg 192 313 clear;
#X msg 55 291 getList;
#X obj 55 89 listUniques;
#X obj 93 157 bng 15 250 50 0 empty empty empty 17 7 0 10 -262144 -1
-1;
#X obj 358 58 listUniques;
#X connect 0 0 12 0;
#X connect 2 0 20 0;
#X connect 3 0 6 0;
#X connect 4 0 5 0;
#X connect 5 0 8 0;
#X connect 5 1 3 0;
#X connect 6 0 7 0;
#X connect 7 0 8 1;
#X connect 8 0 14 0;
#X connect 9 0 17 0;
#X connect 9 0 19 0;
#X connect 9 1 4 0;
#X connect 12 0 18 0;
#X connect 12 1 11 0;
#X connect 14 0 1 0;
#X connect 15 0 16 0;
#X connect 16 0 14 0;
#X connect 17 0 14 0;
#X connect 18 0 9 0;
#X connect 20 0 3 1;
