#N canvas 236 264 343 381 10;
#X obj 67 55 inlet;
#X obj 160 56 inlet;
#X obj 67 316 outlet;
#X obj 160 106 - 1;
#X obj 222 54 loadbang;
#X obj 222 85 f \$1;
#X obj 199 162 t f b;
#X obj 67 236 easyflow/switch2;
#X msg 226 185 0;
#X obj 160 212 tgl 15 0 empty empty empty 17 7 0 10 -262144 -1 -1 0
1;
#X msg 160 159 1;
#N canvas 0 50 294 287 removeTheELement 0;
#X obj 67 55 inlet;
#X obj 67 206 outlet;
#X obj 95 117 list split 1;
#X obj 67 86 list split;
#X obj 67 147 list append;
#X obj 124 55 inlet;
#X connect 0 0 3 0;
#X connect 2 1 4 1;
#X connect 3 0 4 0;
#X connect 3 1 2 0;
#X connect 3 2 1 0;
#X connect 4 0 1 0;
#X connect 5 0 3 1;
#X restore 67 276 pd removeTheELement;
#X obj 160 127 moses 0;
#X connect 0 0 7 0;
#X connect 1 0 3 0;
#X connect 3 0 12 0;
#X connect 4 0 5 0;
#X connect 5 0 3 0;
#X connect 6 0 11 1;
#X connect 6 1 8 0;
#X connect 7 0 11 0;
#X connect 7 1 2 0;
#X connect 8 0 9 0;
#X connect 9 0 7 1;
#X connect 10 0 9 0;
#X connect 11 0 2 0;
#X connect 12 0 10 0;
#X connect 12 1 6 0;
