#N canvas 533 177 387 245 10;
#X obj 55 115 easyflow/printHere -s;
#X obj 248 191 easyflow-info;
#X text 31 188 See also:;
#N canvas 939 177 458 345 mixing numbers and symbols 0;
#X obj 55 145 easyflow/printHere -s;
#X msg 55 103 foo 7 test 3 wha te ver 15;
#X obj 245 145 easyflow/printHere -s;
#X msg 245 103 foo 7 test 3 wha te ver 15;
#X text 106 70 ERROR;
#X text 261 64 Symbols are ignored;
#X text 60 22 Use the -s flag to allow symbols in the lists;
#X obj 61 276 easyflow/printHere -s;
#X msg 61 234 foo test wha te ver;
#X text 73 205 List with no numbers result in an error;
#X obj 55 125 listMax;
#X obj 245 125 listMax -s;
#X obj 61 256 listMax -s;
#X connect 1 0 10 0;
#X connect 3 0 11 0;
#X connect 8 0 12 0;
#X connect 10 0 0 0;
#X connect 11 0 2 0;
#X connect 12 0 7 0;
#X restore 181 102 pd mixing numbers and symbols;
#X text 47 23 [listMax] outputs the maximum value of a list.;
#X msg 55 73 5 4 10 3 6 7 5 8;
#X obj 93 188 listMin;
#X obj 55 95 listMax;
#X connect 5 0 7 0;
#X connect 7 0 0 0;
