#N canvas 801 159 611 395 10;
#X obj 48 243 easyflow/printHere -s;
#X msg 120 176 b;
#X msg 107 157 3;
#X msg 58 96 1 2 3 a b c;
#X msg 48 69 a b c c b a;
#X msg 87 135 symbol a;
#X text 46 37 Replaces all occurences of an element on a list;
#X obj 470 342 easyflow-info;
#X msg 359 103 a b c a b c;
#X obj 359 164 listReplace a;
#X obj 359 185 easyflow/printHere;
#X obj 48 210 listReplace c sub, f 24;
#X msg 176 150 sub;
#X msg 203 176 symbol;
#X text 453 150 omit the 2nd argument to delete element, f 20;
#X connect 1 0 11 1;
#X connect 2 0 11 1;
#X connect 3 0 11 0;
#X connect 4 0 11 0;
#X connect 5 0 11 1;
#X connect 8 0 9 0;
#X connect 9 0 10 0;
#X connect 11 0 0 0;
#X connect 12 0 11 2;
#X connect 13 0 11 2;
