#N canvas 234 62 450 483 10;
#X obj 44 46 inlet;
#X obj 154 99 list;
#X obj 154 151 else/display;
#X obj 154 121 route symbol;
#X obj 266 152 else/display;
#X obj 44 68 trigger anything anything;
#X obj 44 323 switch2;
#X obj 44 353 outlet;
#X obj 95 353 outlet;
#X text 154 351 >= goes here;
#X floatatom 154 230 5 0 0 0 - - -, f 5;
#X obj 266 179 list length;
#X floatatom 266 201 5 0 0 0 - - -, f 5;
#X obj 154 249 >= \$1;
#X msg 154 205 1;
#X floatatom 154 271 5 0 0 0 - - -, f 5;
#X connect 0 0 5 0;
#X connect 1 0 3 0;
#X connect 2 0 14 0;
#X connect 3 0 2 0;
#X connect 3 1 4 0;
#X connect 4 0 11 0;
#X connect 5 0 6 0;
#X connect 5 1 1 0;
#X connect 6 0 7 0;
#X connect 6 1 8 0;
#X connect 10 0 13 0;
#X connect 11 0 12 0;
#X connect 12 0 10 0;
#X connect 13 0 15 0;
#X connect 14 0 10 0;
#X connect 15 0 6 1;
