#N canvas 1189 220 442 381 10;
#X obj 220 323 easyflow/easyflow-info;
#X obj 37 246 print;
#X msg 37 116 a b c / d e f / g h i;
#X text 124 185 outputs like;
#X msg 103 206 a b c \, d e f \, g h i;
#X text 35 37 Splits a list on a given symbol.;
#X obj 37 154 listSplitOnChar /;
#X connect 2 0 6 0;
#X connect 4 0 1 0;
#X connect 6 0 1 0;
