#N canvas 234 62 322 337 10;
#X obj 44 16 inlet;
#X obj 44 223 switch2;
#X obj 44 253 outlet;
#X obj 95 253 outlet;
#X text 154 251 >= goes here;
#X obj 107 94 list length;
#X floatatom 107 116 5 0 0 0 - - -;
#X obj 107 162 >= \$1;
#X obj 107 183 tgl 15 0 empty empty empty 17 7 0 10 -262144 -1 -1 0
1;
#X obj 134 140 inlet;
#X obj 44 41 list;
#X obj 44 68 trigger l l;
#X connect 0 0 10 0;
#X connect 1 0 2 0;
#X connect 1 1 3 0;
#X connect 5 0 6 0;
#X connect 6 0 7 0;
#X connect 7 0 8 0;
#X connect 8 0 1 1;
#X connect 9 0 7 1;
#X connect 10 0 11 0;
#X connect 11 0 1 0;
#X connect 11 1 5 0;
