#N canvas 0 50 316 341 10;
#X obj 38 84 trigger list list;
#X obj 146 114 list length;
#X floatatom 146 134 5 0 0 0 - - -;
#X obj 146 152 t b f;
#X obj 146 201 random;
#X obj 38 238 easyflow/passNthElement;
#X obj 38 38 inlet;
#X obj 38 260 outlet;
#X obj 179 177 + 1;
#X obj 38 59 list;
#X connect 0 0 5 0;
#X connect 0 1 1 0;
#X connect 1 0 2 0;
#X connect 2 0 3 0;
#X connect 3 0 4 0;
#X connect 3 1 8 0;
#X connect 4 0 5 1;
#X connect 5 0 7 0;
#X connect 6 0 9 0;
#X connect 8 0 4 1;
#X connect 9 0 0 0;
