#N canvas 338 117 387 336 10;
#X obj 157 297 outlet;
#X obj 77 171 list append;
#X obj 77 89 trigger bang float;
#X obj 200 193 - 1;
#X obj 117 238 list split 0;
#X obj 151 146 inlet;
#X obj 63 25 cnv 8 13 17 empty empty 1 2 9 0 14 -1 -262144 0;
#X obj 137 146 cnv 8 13 17 empty empty 2 2 9 0 14 -1 -262144 0;
#X obj 143 297 cnv 8 13 17 empty empty 1 2 9 0 14 -1 -262144 0;
#X obj 77 25 inlet;
#X obj 157 269 list split \$1;
#X obj 245 160 loadbang;
#N canvas 0 50 492 399 getArgument 0;
#X obj 141 25 inlet;
#X obj 264 109 makefilename $%d-test;
#X obj 141 84 trigger bang float;
#X obj 141 134 sel s;
#X obj 173 158 b;
#X obj 141 109 symbol \$1-test;
#X obj 173 183 list append \$1;
#X msg 141 51 1;
#X floatatom 141 268 5 0 0 0 - - -;
#X text 48 206 no argument;
#X obj 141 287 outlet;
#X text 36 340 https://forum.pdpatchrepo.info/topic/10892/collect-all-arguments-as-a-list/4
;
#X msg 141 206 1;
#X connect 0 0 7 0;
#X connect 1 0 3 1;
#X connect 2 0 5 0;
#X connect 2 1 1 0;
#X connect 3 0 12 0;
#X connect 3 1 4 0;
#X connect 4 0 6 0;
#X connect 5 0 3 0;
#X connect 6 0 8 0;
#X connect 7 0 2 0;
#X connect 8 0 10 0;
#X connect 12 0 8 0;
#X restore 245 183 pd getArgument;
#X floatatom 245 213 5 0 0 0 - - -;
#X obj 77 46 route size;
#X connect 1 0 4 0;
#X connect 2 0 1 0;
#X connect 2 1 3 0;
#X connect 3 0 4 1;
#X connect 4 1 10 0;
#X connect 5 0 1 1;
#X connect 9 0 14 0;
#X connect 10 0 0 0;
#X connect 11 0 12 0;
#X connect 12 0 13 0;
#X connect 13 0 10 1;
#X connect 14 0 13 0;
#X connect 14 1 2 0;
