#N canvas 612 175 437 354 10;
#X obj 58 30 inlet;
#N canvas 0 50 434 158 print 0;
#X obj 28 21 inlet;
#X obj 28 43 print listsOfLength error. Not a list;
#X connect 0 0 1 0;
#X restore 167 76 pd print Error;
#X obj 58 114 trigger anything anything;
#X obj 230 146 list length;
#X floatatom 230 168 5 0 0 0 - - -, f 5;
#X obj 58 52 route float list;
#X obj 230 193 != \$1;
#X obj 58 243 easyflow/switch2;
#X obj 230 215 tgl 15 0 empty empty empty 17 7 0 10 -262144 -1 -1 1
1;
#X obj 58 266 outlet;
#X obj 167 267 outlet;
#X obj 340 118 inlet;
#X floatatom 340 140 5 0 0 0 - - -, f 5;
#X connect 0 0 5 0;
#X connect 2 0 7 0;
#X connect 2 1 3 0;
#X connect 3 0 4 0;
#X connect 4 0 6 0;
#X connect 5 0 2 0;
#X connect 5 1 2 0;
#X connect 5 2 1 0;
#X connect 6 0 8 0;
#X connect 7 0 9 0;
#X connect 7 1 10 0;
#X connect 8 0 7 1;
#X connect 11 0 12 0;
#X connect 12 0 6 1;
