#N canvas 340 107 312 270 10;
#X obj 119 12 loadbang;
#X msg 119 34 1;
#X obj 119 127 metro \$1;
#X obj 119 168 snapshot~;
#X obj 45 90 inlet~;
#X obj 119 190 outlet;
#X obj 172 90 inlet;
#X obj 131 90 inlet;
#X connect 0 0 1 0;
#X connect 1 0 2 0;
#X connect 2 0 3 0;
#X connect 3 0 5 0;
#X connect 4 0 3 0;
#X connect 6 0 2 1;
#X connect 7 0 2 0;
