#N canvas 495 118 880 537 10;
#X obj 57 53 hsl 128 15 0 1 0 0 empty empty empty -2 -8 0 10 -262144
-1 -1 0 1;
#X obj 54 96 trigger float float, f 36;
#X floatatom 54 225 10 0 0 0 - - -, f 10;
#X obj 81 151 s \$0-line1;
#X obj 267 127 t f f;
#X obj 294 154 s \$0-line2;
#X obj 54 129 t f f;
#X obj 71 151 cnv 10 10 17 empty empty empty 20 12 0 14 -51135 -66577
0;
#X obj 284 154 cnv 10 10 17 empty empty empty 20 12 0 14 -57106 -66577
0;
#X obj 54 179 expr cos($f1*3.14159265/2);
#X obj 267 178 expr sin($f1*3.14159265/2);
#X obj 61 359 inlet~;
#X obj 62 416 *~;
#X obj 224 360 inlet~;
#X obj 62 446 outlet~;
#X floatatom 267 230 10 0 0 0 - - -, f 10;
#X obj 224 422 *~;
#X obj 224 447 outlet~;
#X obj 48 359 cnv 11 12 17 empty empty 1 2 9 0 14 -1 -262144 0;
#X obj 49 446 cnv 11 12 17 empty empty 1 2 9 0 14 -1 -262144 0;
#X obj 211 360 cnv 11 12 17 empty empty 2 2 9 0 14 -1 -262144 0;
#X obj 211 447 cnv 11 12 17 empty empty 2 2 9 0 14 -1 -262144 0;
#X obj 456 24 cnv 11 12 17 empty empty 3 2 9 0 14 -1 -262144 0;
#X obj 468 24 inlet;
#X obj 468 46 route set float, f 28;
#X obj 724 29 inlet;
#X obj 724 101 pack f 1;
#X obj 769 77 r \$0-line2;
#X obj 564 102 pack f 0;
#X obj 609 78 r \$0-line1;
#X obj 598 78 cnv 10 10 17 empty empty empty 20 12 0 14 -51135 -66577
0;
#X obj 758 77 cnv 10 10 17 empty empty empty 20 12 0 14 -57106 -66577
0;
#X obj 711 29 cnv 11 12 17 empty empty 4 2 9 0 14 -1 -262144 0;
#X obj 553 251 cnv 10 10 17 empty empty empty 20 12 0 14 -202276 -66577
0;
#X obj 564 251 s \$0-set;
#X obj 267 281 vline~;
#X obj 54 272 vline~;
#X obj 69 388 cnv 11 20 17 empty empty a1 2 9 0 14 -261121 -262144
0;
#N canvas 0 50 370 381 GOP 0;
#X msg 30 57 coords 0 1 1 -1 141 40 1 51.5686 35.0588 1;
#X text 30 28 to be used with [easyflow/GOPTool];
#X coords 0 381 1 380 146 40 0;
#X restore 609 476 pd GOP;
#X obj 90 388 r~ \$0-amplitude1;
#X obj 237 386 cnv 11 20 17 empty empty a2 2 9 0 14 -261121 -262144
0;
#X obj 258 386 r~ \$0-amplitude2;
#X obj 33 298 cnv 11 20 17 empty empty a1 2 9 0 14 -261121 -262144
0;
#X obj 245 304 cnv 11 20 17 empty empty a2 2 9 0 14 -261121 -262144
0;
#X obj 54 298 s~ \$0-amplitude1;
#X obj 266 304 s~ \$0-amplitude2;
#X msg 267 259 \$1 40;
#X msg 54 250 \$1 40;
#X obj 564 204 line 10;
#X floatatom 564 226 5 0 0 0 - - -, f 5;
#X obj 43 11 cnv 10 10 17 empty empty empty 20 12 0 14 -202276 -66577
0;
#X obj 54 11 r \$0-set;
#X obj 457 116 cnv 10 10 17 empty empty empty 20 12 0 14 -202276 -66577
0;
#X obj 468 116 s \$0-set;
#X msg 564 132 set \$2 \, 0 \$1;
#X msg 724 131 set \$2 \, 1 \$1;
#X obj 468 68 t a b;
#X msg 500 160 stop;
#X obj 589 305 loadbang;
#X obj 589 326 bng 15 250 50 0 empty empty empty 17 7 0 10 -262144
-1 -1;
#X msg 589 396 1;
#X obj 87 201 cnv 10 10 17 empty empty L 2 8 0 14 -5089 -262144 0;
#X obj 290 201 cnv 10 10 17 empty empty R 2 8 0 14 -5089 -262144 0
;
#X obj 577 427 cnv 10 11 17 empty empty L 2 8 0 14 -5089 -262144 0
;
#X obj 589 346 trigger bang bang;
#X obj 693 407 cnv 10 11 17 empty empty R 2 8 0 14 -5089 -262144 0
;
#X msg 705 376 0;
#X obj 705 407 s \$0-initAmplitudeR;
#X obj 589 427 s \$0-initAmplitudeL;
#X obj 301 201 r \$0-initAmplitudeR;
#X obj 98 201 r \$0-initAmplitudeL;
#X connect 0 0 1 0;
#X connect 1 0 6 0;
#X connect 1 1 4 0;
#X connect 2 0 47 0;
#X connect 4 0 10 0;
#X connect 4 1 5 0;
#X connect 6 0 9 0;
#X connect 6 1 3 0;
#X connect 9 0 2 0;
#X connect 10 0 15 0;
#X connect 11 0 12 0;
#X connect 12 0 14 0;
#X connect 13 0 16 0;
#X connect 15 0 46 0;
#X connect 16 0 17 0;
#X connect 23 0 24 0;
#X connect 24 0 56 0;
#X connect 24 1 28 0;
#X connect 25 0 26 0;
#X connect 26 0 55 0;
#X connect 27 0 26 1;
#X connect 28 0 54 0;
#X connect 29 0 28 1;
#X connect 35 0 45 0;
#X connect 36 0 44 0;
#X connect 39 0 12 1;
#X connect 41 0 16 1;
#X connect 46 0 35 0;
#X connect 47 0 36 0;
#X connect 48 0 49 0;
#X connect 49 0 34 0;
#X connect 51 0 0 0;
#X connect 54 0 48 0;
#X connect 55 0 48 0;
#X connect 56 0 53 0;
#X connect 56 1 57 0;
#X connect 57 0 48 0;
#X connect 58 0 59 0;
#X connect 59 0 64 0;
#X connect 60 0 68 0;
#X connect 64 0 60 0;
#X connect 64 1 66 0;
#X connect 66 0 67 0;
#X connect 69 0 15 0;
#X connect 70 0 2 0;
#X coords 0 1 1 -1 141 40 1 51 35;
