#N canvas 0 51 322 280 10;
#X obj 67 126 list fromsymbol;
#X obj 107 176 list tosymbol;
#X symbolatom 107 198 10 0 0 0 - - -, f 10;
#X obj 67 34 inlet;
#X obj 107 217 outlet;
#X msg 67 101 symbol s\$1;
#X obj 67 148 list split 1;
#N canvas 935 188 450 300 dealWithTypes 0;
#X obj 70 30 inlet;
#X obj 70 52 route bang float symbol list;
#X obj 70 75 f \$1;
#X obj 160 276 outlet;
#X obj 263 75 list prepend symbol;
#X obj 263 97 list trim;
#X floatatom 118 78 5 0 0 0 - - -, f 5;
#X symbolatom 166 179 10 0 0 0 - - -, f 10;
#X symbolatom 263 119 10 0 0 0 - - -, f 10;
#X obj 214 144 list split 1;
#X connect 0 0 1 0;
#X connect 1 0 2 0;
#X connect 1 1 6 0;
#X connect 1 2 7 0;
#X connect 1 3 9 0;
#X connect 1 4 4 0;
#X connect 2 0 3 0;
#X connect 4 0 5 0;
#X connect 5 0 8 0;
#X connect 6 0 3 0;
#X connect 7 0 3 0;
#X connect 8 0 3 0;
#X connect 9 0 3 0;
#X restore 67 64 pd dealWithTypes;
#X connect 0 0 6 0;
#X connect 1 0 2 0;
#X connect 2 0 4 0;
#X connect 3 0 7 0;
#X connect 5 0 0 0;
#X connect 6 1 1 0;
#X connect 7 0 5 0;
