#N canvas 0 50 391 318 10;
#X obj 67 26 inlet left;
#X obj 67 185 list split;
#X floatatom 124 162 5 0 0 0 - - -, f 5;
#X obj 67 48 trigger anything anything;
#X obj 214 77 list length;
#X floatatom 214 99 5 0 0 0 - - -, f 5;
#X obj 67 247 outlet left;
#X obj 150 247 outlet right;
#X floatatom 149 103 5 0 0 0 - - -, f 5;
#X obj 124 140 - \$1;
#X obj 149 81 inlet;
#X connect 0 0 3 0;
#X connect 1 0 6 0;
#X connect 1 1 7 0;
#X connect 2 0 1 1;
#X connect 3 0 1 0;
#X connect 3 1 4 0;
#X connect 4 0 5 0;
#X connect 5 0 9 0;
#X connect 8 0 9 1;
#X connect 9 0 2 0;
#X connect 10 0 8 0;
