#N canvas 681 90 869 528 10;
#X text 27 21 [printHere] serves like an console but you can put it
on your patches for easy debuging!;
#X text 607 291 [printHere -s];
#X text 575 245 use -s for singleLine mode;
#X text 132 326 default max lines = 8;
#X msg 89 75 this;
#X msg 99 97 is so cool;
#X msg 109 119 1 2 3;
#X msg 118 143 a b c;
#X msg 127 170 list a b c;
#X msg 144 200 it is resized as needed;
#X text 549 137 [printHere -m3];
#X msg 527 101 list test \$1;
#X floatatom 527 78 5 0 0 0 - - -;
#X obj 158 229 bng 15 250 50 0 empty empty empty 17 7 0 10 -262144
-1 -1;
#N canvas 0 50 477 146 some 0;
#X obj 33 43 inlet;
#X obj 33 100 outlet;
#X msg 33 65 this is just some big message to test [printHere];
#X connect 0 0 2 0;
#X connect 2 0 1 0;
#X restore 158 249 pd some big msg;
#X floatatom 157 286 5 0 0 0 - - -;
#X obj 712 474 easyflow-info;
#X text 524 23 use the following syntax to change the max number of
lines., f 25;
#X msg 707 101 list test \$1;
#X floatatom 707 78 5 0 0 0 - - -;
#X text 726 134 [printHere -m10];
#X floatatom 531 246 5 0 0 0 - - -;
#X msg 27 317 clear;
#X text 383 271 click that little bang to clear, f 14;
#X text 491 282 --->;
#X obj 533 398 cnv 11 90 17 empty empty important: 2 9 0 14 -1 -262144
0;
#X text 529 425 [printHere] does not work in Purr-Data;
#X obj 531 286 printHere -s;
#X obj 89 353 printHere;
#X obj 527 157 printHere -m3;
#X obj 707 160 easyflow/printHere -m10;
#X msg 222 290 treta foda bang;
#X connect 4 0 28 0;
#X connect 5 0 28 0;
#X connect 6 0 28 0;
#X connect 7 0 28 0;
#X connect 8 0 28 0;
#X connect 9 0 28 0;
#X connect 11 0 29 0;
#X connect 12 0 11 0;
#X connect 13 0 14 0;
#X connect 14 0 28 0;
#X connect 15 0 28 0;
#X connect 18 0 30 0;
#X connect 19 0 18 0;
#X connect 21 0 27 0;
#X connect 22 0 28 0;
#X connect 31 0 28 0;
