#N canvas 813 96 811 749 10;
#X obj 95 9 inlet;
#X obj 114 388 s \$0-canvas;
#X msg 114 342 label \$1;
#X obj 95 94 trigger symbol bang symbol;
#X obj 184 182 symbol s;
#X obj 237 156 r \$0-setSymbol;
#X obj 248 123 s \$0-currentSymbol;
#X obj 265 227 r \$0-currentSymbol;
#N canvas 708 73 555 434 concatenate 0;
#X obj 52 39 inlet;
#X obj 266 19 inlet;
#X obj 52 323 outlet;
#X obj 266 101 list fromsymbol;
#X obj 266 155 list tosymbol;
#N canvas 545 159 450 300 concatenateSymbols 0;
#X obj 52 39 inlet;
#X obj 126 39 inlet;
#X obj 52 101 list append;
#X text 147 101 put them together;
#X text 147 151 remove the space (194 160) between them;
#X obj 52 209 outlet;
#X obj 40 39 cnv 11 12 17 empty empty 1 2 9 0 14 -1 -262144 0;
#X obj 113 39 cnv 11 12 17 empty empty 2 2 9 0 14 -1 -262144 0;
#X obj 40 209 cnv 11 12 17 empty empty 1 2 9 0 14 -1 -262144 0;
#X msg 52 153 symbol \$1\$2;
#X connect 0 0 2 0;
#X connect 1 0 2 1;
#X connect 2 0 9 0;
#X connect 9 0 5 0;
#X restore 52 225 pd concatenateSymbols;
#X obj 40 39 cnv 11 12 17 empty empty 1 2 9 0 14 -1 -262144 0;
#X obj 253 19 cnv 11 12 17 empty empty 2 2 9 0 14 -1 -262144 0;
#N canvas 264 50 747 653 checkSize 0;
#X obj 38 28 inlet;
#X obj 38 57 list fromsymbol;
#X obj 154 145 easyflow/searchIncomingLists 13;
#X obj 154 257 list length;
#X floatatom 154 289 5 0 0 0 - - -;
#X floatatom 154 336 5 0 0 0 - - -;
#X obj 154 222 trigger list bang;
#X obj 154 355 moses 0;
#X floatatom 154 377 5 0 0 0 - - -;
#X obj 154 396 bng 15 250 50 0 empty empty empty 17 7 0 10 -262144
-1 -1;
#X floatatom 200 377 5 0 0 0 - - -;
#X obj 154 178 trigger list list, f 39;
#X obj 200 417 easyflow/listPick, f 32;
#X floatatom 200 446 5 0 0 0 - - -;
#X obj 38 470 list split;
#X obj 38 119 trigger list list;
#X obj 71 510 list tosymbol;
#X obj 71 532 outlet;
#X text 270 302 how much line breas (13) are in excess?, f 20;
#X text 270 341 or "how much lines we should delete?", f 20;
#X obj 316 225 r \$0-maxLines;
#X obj 305 225 cnv 10 10 17 empty empty empty 20 12 0 14 -258107 -159808
0;
#X floatatom 316 247 5 0 0 0 - - -;
#X obj 270 278 float 8;
#X text 333 279 def: 8;
#X msg 154 416 0;
#X floatatom 154 446 5 0 0 0 - - -;
#X text 441 413 which char 13 (line break) position to use to split
, f 26;
#X text 203 27 this code does two things:;
#X text 206 56 1 - finds the line breaks;
#X text 206 72 2 - if the n of line breaks exceed the maximun lines
\, split the string at the desired line break.;
#X text 324 144 position of the line breaks;
#X text 82 369 did not exceeded, f 8;
#X text 244 370 exceeded;
#X text 243 446 desired line break position;
#X obj 154 314 expr $f1-$f2-1;
#X connect 0 0 1 0;
#X connect 1 0 15 0;
#X connect 2 0 11 0;
#X connect 3 0 4 0;
#X connect 4 0 35 0;
#X connect 5 0 7 0;
#X connect 6 0 3 0;
#X connect 6 1 23 0;
#X connect 7 0 8 0;
#X connect 7 1 10 0;
#X connect 8 0 9 0;
#X connect 9 0 25 0;
#X connect 10 0 12 0;
#X connect 11 0 6 0;
#X connect 11 1 12 1;
#X connect 12 0 13 0;
#X connect 13 0 26 0;
#X connect 14 1 16 0;
#X connect 15 0 14 0;
#X connect 15 1 2 0;
#X connect 16 0 17 0;
#X connect 20 0 22 0;
#X connect 22 0 23 1;
#X connect 23 0 35 1;
#X connect 25 0 26 0;
#X connect 26 0 14 1;
#X connect 35 0 5 0;
#X restore 52 297 pd checkSize;
#X obj 31 300 cnv 10 10 13 empty empty ● 1 5 0 15 -262144 -258107
0;
#N canvas 0 50 450 300 prependSelector 0;
#X obj 42 30 inlet;
#X obj 213 27 cnv 10 10 17 empty empty empty 20 12 0 14 -181396 -159808
0;
#X obj 224 27 r \$0-selector;
#X symbolatom 224 49 10 0 0 0 - - -;
#X obj 42 52 list fromsymbol;
#X obj 224 69 list fromsymbol;
#X obj 42 220 list prepend;
#X text 343 176 " " char between selector and value, f 14;
#X obj 42 276 outlet;
#X obj 42 242 list tosymbol;
#X obj 224 98 route bang;
#X text 128 82 bang means empty selector, f 12;
#X msg 224 120 list;
#X text 97 130 (do not prepend in that case), f 11;
#X obj 181 26 bng 15 250 50 0 empty empty empty 17 7 0 10 -262144 -1
-1;
#X obj 224 142 bng 15 250 50 0 empty empty empty 17 7 0 10 -262144
-1 -1;
#X obj 308 134 bng 15 250 50 0 empty empty empty 17 7 0 10 -262144
-1 -1;
#X obj 224 190 list append 32;
#X connect 0 0 4 0;
#X connect 2 0 3 0;
#X connect 3 0 5 0;
#X connect 4 0 6 0;
#X connect 5 0 10 0;
#X connect 6 0 9 0;
#X connect 9 0 8 0;
#X connect 10 0 12 0;
#X connect 10 1 16 0;
#X connect 10 1 17 0;
#X connect 12 0 6 1;
#X connect 12 0 15 0;
#X connect 14 0 3 0;
#X connect 17 0 6 1;
#X restore 266 46 pd prependSelector on symbol;
#X obj 246 47 cnv 10 10 13 empty empty ● 1 5 0 15 -262144 -181396
0;
#X text 102 194 comment;
#X text 135 117 append newLine on current symbol, f 17;
#X text 399 130 era 13;
#X obj 52 263 easyflow/listToSymbol;
#X obj 266 123 list append 13;
#X symbolatom 349 323 10 0 0 0 - - -;
#X obj 349 302 list tosymbol;
#X msg 349 281 64 226 153 175 64 35;
#X connect 0 0 5 0;
#X connect 1 0 10 0;
#X connect 3 0 16 0;
#X connect 4 0 5 1;
#X connect 5 0 15 0;
#X connect 8 0 2 0;
#X connect 10 0 3 0;
#X connect 15 0 8 0;
#X connect 16 0 4 0;
#X connect 18 0 17 0;
#X connect 19 0 18 0;
#X restore 184 250 pd concatenate;
#X obj 349 327 s \$0-setSymbol;
#X obj 184 296 trigger symbol symbol symbol;
#X obj 40 289 cnv 10 10 17 empty empty empty 20 12 0 14 -159808 -159808
0;
#X obj 51 289 r \$0-clear;
#N canvas 0 50 470 431 initialization 0;
#X obj 65 35 loadbang;
#X obj 65 87 bng 15 250 50 0 empty empty empty 17 7 0 10 -262144 -1
-1;
#X obj 65 363 s \$0-setSymbol;
#X obj 135 35 cnv 10 10 17 empty empty empty 20 12 0 14 -159808 -159808
0;
#X obj 146 35 r \$0-clear;
#X msg 216 273 label_font 0 14;
#X obj 140 277 bng 15 250 50 0 empty empty empty 17 7 0 10 -262144
-1 -1;
#X obj 65 247 trigger bang bang bang;
#X msg 65 339 symbol;
#X obj 142 180 s \$0-canvas;
#X msg 140 160 label;
#N canvas 0 50 450 489 initColors 0;
#X obj 76 32 inlet;
#X obj 76 279 bng 15 250 50 0 empty empty empty 17 7 0 10 -262144 -1
-1;
#X obj 192 279 bng 15 250 50 0 empty empty empty 17 7 0 10 -262144
-1 -1;
#X obj 76 349 pack f f f;
#X obj 76 257 trigger bang bang;
#X msg 76 371 color \$1 \$2 \$3;
#X obj 76 397 s \$0-canvas1;
#X text 279 307 label;
#X text 46 306 bkg;
#X obj 76 54 trigger bang bang;
#X text 23 56 inner;
#X text 207 53 outer;
#X obj 192 102 bng 15 250 50 0 empty empty empty 17 7 0 10 -262144
-1 -1;
#X obj 308 102 bng 15 250 50 0 empty empty empty 17 7 0 10 -262144
-1 -1;
#X obj 192 172 pack f f f;
#X obj 192 80 trigger bang bang;
#X msg 192 194 color \$1 \$2 \$3;
#X text 391 131 label;
#X text 162 129 bkg;
#X obj 192 218 s \$0-canvas2;
#X obj 192 130 hsb 0 0 0;
#X obj 308 130 hsb 0 0 255;
#X obj 192 307 hsb 0 0 255;
#X obj 76 307 rgb 0 103 172;
#X obj 47 398 cnv 11 28 17 empty empty cnv 2 9 0 14 -204773 -262144
0;
#X obj 164 218 cnv 11 28 17 empty empty cnv 2 9 0 14 -3904 -262144
0;
#X connect 0 0 9 0;
#X connect 1 0 23 0;
#X connect 2 0 22 0;
#X connect 3 0 5 0;
#X connect 4 0 1 0;
#X connect 4 1 2 0;
#X connect 5 0 6 0;
#X connect 9 0 4 0;
#X connect 9 1 15 0;
#X connect 12 0 20 0;
#X connect 13 0 21 0;
#X connect 14 0 16 0;
#X connect 15 0 12 0;
#X connect 15 1 13 0;
#X connect 16 0 19 0;
#X connect 20 0 14 0;
#X connect 21 0 14 2;
#X connect 21 0 14 1;
#X connect 22 0 3 2;
#X connect 22 0 3 1;
#X connect 23 0 3 0;
#X restore 140 301 pd initColors;
#X obj 65 107 trigger bang bang bang;
#N canvas 0 50 450 300 initMode 0;
#X obj 59 32 inlet;
#X obj 59 54 bng 15 250 50 0 empty empty empty 17 7 0 10 -262144 -1
-1;
#X obj 59 76 list 666 \$1;
#X msg 59 98 symbol \$2;
#X symbolatom 59 120 10 0 0 0 - - -;
#X obj 59 139 select -s;
#X obj 59 161 bng 15 250 50 0 empty empty empty 17 7 0 10 -262144 -1
-1;
#X obj 48 241 cnv 10 10 17 empty empty empty 20 12 0 14 -76584 -159808
0;
#X msg 59 211 1;
#X obj 59 241 v \$0-singleLineMode;
#N canvas 217 123 479 444 checkMaxLines 0;
#X obj 39 22 inlet;
#X obj 39 44 route symbol;
#X obj 39 66 list fromsymbol;
#X obj 155 122 list split 2;
#X obj 155 201 listCompare;
#X msg 229 177 45 109;
#X obj 229 155 loadbang;
#X obj 155 223 bng 15 250 50 0 empty empty empty 17 7 0 10 -262144
-1 -1;
#X obj 39 88 trigger list list;
#X obj 155 257 list;
#N canvas 915 145 450 484 makeFloat 0;
#X obj 47 27 inlet;
#X floatatom 97 380 15 0 0 0 - - -;
#X msg 195 89 0;
#X obj 97 258 * 1;
#X obj 255 253 easyflow/counter;
#X floatatom 255 275 5 0 0 0 - - -;
#X obj 255 294 expr pow (10 \, $f1);
#X floatatom 255 316 10 0 0 0 - - -;
#N canvas 3 50 447 300 charNumberToFloat 0;
#X obj 47 78 select 48 49 50 51 52 53 54 55 56 57, f 47;
#X msg 47 105 0;
#X msg 79 132 1;
#X msg 112 105 2;
#X msg 144 132 3;
#X msg 177 105 4;
#X obj 47 35 inlet;
#X msg 210 133 5;
#X msg 242 106 6;
#X msg 275 133 7;
#X msg 307 106 8;
#X msg 340 133 9;
#X obj 47 207 outlet;
#X connect 0 0 1 0;
#X connect 0 1 2 0;
#X connect 0 2 3 0;
#X connect 0 3 4 0;
#X connect 0 4 5 0;
#X connect 0 5 7 0;
#X connect 0 6 8 0;
#X connect 0 7 9 0;
#X connect 0 8 10 0;
#X connect 0 9 11 0;
#X connect 1 0 12 0;
#X connect 2 0 12 0;
#X connect 3 0 12 0;
#X connect 4 0 12 0;
#X connect 5 0 12 0;
#X connect 6 0 0 0;
#X connect 7 0 12 0;
#X connect 8 0 12 0;
#X connect 9 0 12 0;
#X connect 10 0 12 0;
#X connect 11 0 12 0;
#X restore 97 149 pd charNumberToFloat;
#X obj 97 89 easyflow/r2l;
#X obj 97 59 trigger anything bang bang;
#X obj 97 332 +;
#X obj 171 309 f;
#X obj 97 280 trigger f b;
#X obj 97 354 t f f;
#X obj 97 217 trigger float float bang;
#X obj 47 429 outlet;
#X obj 47 399 f;
#X obj 47 49 t b a;
#X obj 47 71 bng 15 250 50 0 empty empty empty 17 7 0 10 -262144 -1
-1;
#X connect 0 0 18 0;
#X connect 1 0 17 1;
#X connect 2 0 4 1;
#X connect 2 0 12 1;
#X connect 3 0 13 0;
#X connect 4 0 5 0;
#X connect 5 0 6 0;
#X connect 6 0 7 0;
#X connect 7 0 3 1;
#X connect 8 0 15 0;
#X connect 9 0 8 0;
#X connect 10 0 9 0;
#X connect 10 1 2 0;
#X connect 11 0 14 0;
#X connect 12 0 11 1;
#X connect 13 0 11 0;
#X connect 13 1 12 0;
#X connect 14 0 1 0;
#X connect 14 1 12 1;
#X connect 15 0 3 0;
#X connect 15 2 4 0;
#X connect 17 0 16 0;
#X connect 18 0 19 0;
#X connect 18 1 10 0;
#X connect 19 0 17 0;
#X restore 155 346 pd makeFloat;
#X floatatom 155 368 10 0 0 0 - - -;
#X obj 155 387 outlet;
#X text 256 332 converts a symbol containing numbers to a decimal.
, f 21;
#X obj 155 279 route bang;
#X text 240 269 prevents "-m" to generate output, f 18;
#X connect 0 0 1 0;
#X connect 1 0 2 0;
#X connect 2 0 8 0;
#X connect 3 0 4 0;
#X connect 3 1 9 1;
#X connect 4 0 7 0;
#X connect 5 0 4 1;
#X connect 6 0 5 0;
#X connect 7 0 9 0;
#X connect 8 1 3 0;
#X connect 9 0 14 0;
#X connect 10 0 11 0;
#X connect 11 0 12 0;
#X connect 14 1 10 0;
#X restore 119 164 pd checkMaxLines;
#X obj 293 26 tgl 15 0 empty empty empty 17 7 0 10 -262144 -1 -1 0
1;
#X obj 293 48 metro 500;
#X msg 293 83 symbol -m;
#X obj 108 196 cnv 10 10 17 empty empty empty 20 12 0 14 -258107 -159808
0;
#X obj 119 196 s \$0-maxLines;
#X connect 0 0 1 0;
#X connect 1 0 2 0;
#X connect 2 0 3 0;
#X connect 3 0 4 0;
#X connect 4 0 5 0;
#X connect 5 0 6 0;
#X connect 5 1 10 0;
#X connect 6 0 8 0;
#X connect 8 0 9 0;
#X connect 10 0 15 0;
#X connect 11 0 12 0;
#X connect 12 0 13 0;
#X connect 13 0 10 0;
#X restore 216 131 pd initMode;
#X obj 113 180 cnv 11 28 17 empty empty cnv 2 9 0 14 -1 -262144 0;
#X obj 36 363 cnv 11 28 17 empty empty set 2 9 0 14 -1 -262144 0;
#X obj 201 134 cnv 10 10 13 empty empty ● 1 5 0 15 -262144 -76584
0;
#X obj 82 301 cnv 11 28 17 empty empty cnv 2 9 0 14 -204773 -262144
0;
#X obj 111 301 cnv 11 28 17 empty empty cnv 2 9 0 14 -3904 -262144
0;
#X obj 189 134 cnv 10 10 13 empty empty ● 1 5 0 15 -262144 -258107
0;
#X connect 0 0 1 0;
#X connect 1 0 12 0;
#X connect 4 0 1 0;
#X connect 6 0 11 0;
#X connect 7 0 8 0;
#X connect 7 1 6 0;
#X connect 7 2 5 0;
#X connect 8 0 2 0;
#X connect 10 0 9 0;
#X connect 12 0 7 0;
#X connect 12 1 10 0;
#X connect 12 2 13 0;
#X restore 376 29 pd initialization;
#X obj 515 231 r \$0-canvas;
#X obj 515 283 route vis_size;
#X obj 515 305 unpack f f;
#X floatatom 515 327 5 0 0 0 - - -;
#X floatatom 582 329 5 0 0 0 - - -;
#X obj 515 253 trigger anything anything;
#X obj 662 276 s \$0-canvas1;
#X obj 515 368 pack f f;
#X msg 515 398 vis_size \$1 \$2;
#X obj 515 421 s \$0-canvas2;
#X obj 515 346 + 4;
#X obj 582 348 + 4;
#X msg 51 332 label;
#N canvas 0 50 450 300 mode 0;
#X obj 30 34 inlet;
#X obj 30 256 outlet;
#X obj 163 84 cnv 10 10 17 empty empty empty 20 12 0 14 -76584 -159808
0;
#X obj 174 84 v \$0-singleLineMode;
#X obj 30 56 trigger anything bang;
#X floatatom 174 106 5 0 0 0 - - -;
#X obj 174 125 tgl 15 0 empty empty empty 17 7 0 10 -262144 -1 -1 0
1;
#X obj 123 183 trigger anything bang;
#X obj 235 206 cnv 10 10 17 empty empty empty 20 12 0 14 -159808 -159808
0;
#X obj 246 206 s \$0-clear;
#X obj 30 150 easyflow/switch2;
#X connect 0 0 4 0;
#X connect 3 0 5 0;
#X connect 4 0 10 0;
#X connect 4 1 3 0;
#X connect 5 0 6 0;
#X connect 6 0 10 1;
#X connect 7 0 1 0;
#X connect 7 1 9 0;
#X connect 10 0 1 0;
#X connect 10 1 7 0;
#X restore 95 50 pd mode;
#X obj 95 29 trigger a a;
#X obj 158 50 outlet;
#X obj 85 388 cnv 11 28 17 empty empty cnv 2 9 0 14 -1 -262144 0;
#X obj 208 156 cnv 11 28 17 empty empty set 2 9 0 14 -1 -262144 0;
#X obj 320 327 cnv 11 28 17 empty empty set 2 9 0 14 -1 -262144 0;
#X obj 632 276 cnv 11 28 17 empty empty cnv 2 9 0 14 -204773 -262144
0;
#X obj 486 231 cnv 11 28 17 empty empty cnv 2 9 0 14 -1 -262144 0;
#X obj 219 123 cnv 11 28 17 empty empty set 2 9 0 14 -261121 -262144
0;
#X obj 236 227 cnv 11 28 17 empty empty set 2 9 0 14 -261121 -262144
0;
#X obj 487 422 cnv 11 28 17 empty empty cnv 2 9 0 14 -3904 -262144
0;
#X obj 359 32 cnv 10 10 13 empty empty ● 1 5 0 15 -262144 -159808
0;
#X obj 346 32 cnv 10 10 13 empty empty ● 1 5 0 15 -262144 -76584
0;
#X obj 79 55 cnv 10 10 13 empty empty ● 1 5 0 15 -262144 -159808
0;
#X obj 66 55 cnv 10 10 13 empty empty ● 1 5 0 15 -262144 -76584 0
;
#X obj 168 254 cnv 10 10 13 empty empty ● 1 5 0 15 -262144 -258107
0;
#X text 13 419 only open the property windows if the label is clear!
, f 10;
#X obj 40 237 cnv 10 10 17 empty empty empty 20 12 0 14 -159808 -159808
0;
#X obj 51 237 s \$0-clear;
#X obj 51 210 bng 15 250 50 0 empty empty empty 17 7 0 10 -262144 -1
-1;
#X obj 226 350 cnv 11 20 17 empty empty rW 2 9 0 14 -262144 -108745
0;
#X obj 226 368 cnv 11 20 17 empty empty rH 2 9 0 14 -262144 -108745
0;
#X obj 249 360 cnv 10 10 13 empty empty ● 1 5 0 15 -262144 -159808
0;
#X obj 89 433 cnv 15 100 60 empty empty empty 20 12 0 14 -99865 -66577
0;
#X obj 100 450 cnv 1 54 26 empty \$0-canvas2 empty 20 12 0 14 -1 -262144
0;
#X obj 102 452 cnv 15 50 22 empty \$0-canvas1 empty 5 17 0 14 -1644
-262144 0;
#X obj 100 450 bng 8 250 50 0 \$0-clear empty empty 17 7 0 10 -262144
-1 -1;
#X obj 156 254 cnv 10 10 13 empty empty ● 1 5 0 15 -262144 -181396
0;
#X obj 79 75 cnv 10 10 13 empty empty ● 1 5 0 15 -262144 -181396
0;
#N canvas 1114 181 527 513 resizeCanvas setLabelPosition 0;
#X obj 72 44 inlet;
#X obj 72 66 list fromsymbol;
#N canvas 348 62 313 385 labelPos 0;
#X obj 92 44 inlet;
#X obj 92 76 f;
#X obj 92 278 s \$0-canvas;
#X floatatom 92 194 5 0 0 0 - - -;
#N canvas 0 50 450 300 nearest 0;
#X obj 42 21 inlet;
#X obj 42 43 trigger float float;
#X obj 42 65 div 1;
#X floatatom 42 87 5 0 0 0 - - -;
#X floatatom 153 86 5 0 0 0 - - -;
#X obj 42 148 list prepend;
#X msg 42 170 \$1 \$2;
#X obj 42 192 -;
#X floatatom 42 214 5 0 0 0 - - -;
#X obj 42 114 trigger float float;
#X obj 42 238 >= 0.5;
#X floatatom 42 260 5 0 0 0 - - -;
#X obj 42 281 select 0 1;
#X msg 42 319 0;
#X msg 70 319 1;
#X floatatom 153 319 5 0 0 0 - - -;
#X obj 42 361 pack f f;
#X obj 42 383 +;
#X floatatom 42 405 5 0 0 0 - - -;
#X obj 42 426 outlet;
#X connect 0 0 1 0;
#X connect 1 0 2 0;
#X connect 1 1 4 0;
#X connect 2 0 3 0;
#X connect 3 0 9 0;
#X connect 4 0 5 1;
#X connect 5 0 6 0;
#X connect 6 0 7 0;
#X connect 7 0 8 0;
#X connect 8 0 10 0;
#X connect 9 0 5 0;
#X connect 9 1 15 0;
#X connect 10 0 11 0;
#X connect 11 0 12 0;
#X connect 12 0 13 0;
#X connect 12 1 14 0;
#X connect 13 0 16 0;
#X connect 14 0 16 0;
#X connect 15 0 16 1;
#X connect 16 0 17 0;
#X connect 17 0 18 0;
#X connect 18 0 19 0;
#X restore 92 142 pd nearest;
#X floatatom 142 164 5 0 0 0 - - -;
#X text 39 172 offset;
#X obj 92 172 - 15;
#X obj 92 120 * 8;
#X obj 92 98 + 3;
#X msg 92 240 label_pos 5 \$1;
#X connect 0 0 1 0;
#X connect 1 0 9 0;
#X connect 3 0 10 0;
#X connect 4 0 5 0;
#X connect 4 0 7 0;
#X connect 7 0 3 0;
#X connect 8 0 4 0;
#X connect 9 0 8 0;
#X connect 10 0 2 0;
#X restore 318 215 pd labelPos;
#X obj 146 126 easyflow/searchIncomingLists 13;
#X obj 146 148 list length;
#X floatatom 146 170 5 0 0 0 - - -;
#N canvas 1100 121 331 582 canvasWidth 0;
#X obj 36 16 inlet;
#X floatatom 36 454 5 0 0 0 - - -;
#X obj 36 533 outlet;
#X obj 125 180 list length;
#X floatatom 125 202 5 0 0 0 - - -;
#X floatatom 125 264 5 0 0 0 - - -;
#X obj 36 305 f;
#N canvas 0 50 543 552 replace 0;
#X text 42 7 problem: spaces are counted two times (space = 194 160)
;
#X obj 50 61 inlet;
#X obj 194 181 select 194 160;
#X obj 194 204 bng 15 250 50 0 empty empty empty 17 7 0 10 -262144
-1 -1;
#X obj 241 204 bng 15 250 50 0 empty empty empty 17 7 0 10 -262144
-1 -1;
#X msg 194 336 194;
#X obj 194 314 trigger b b;
#X msg 194 368 add2 \$1;
#X msg 194 440 15;
#X msg 338 147 set;
#X obj 194 462 outlet;
#X obj 340 352 tgl 15 0 empty empty empty 17 7 0 10 -262144 -1 -1 1
1;
#X obj 301 372 spigot;
#X msg 267 335 0;
#X msg 301 269 160;
#X obj 301 291 t b f;
#X msg 301 313 1;
#X obj 289 205 t b f;
#X msg 289 227 1;
#X obj 194 123 trigger anything bang;
#X obj 50 83 trigger bang anything;
#X text 42 25 solution: do not pass 160 after 194;
#X obj 194 159 easyflow/left2right;
#X connect 1 0 20 0;
#X connect 2 0 3 0;
#X connect 2 1 4 0;
#X connect 2 2 17 0;
#X connect 3 0 6 0;
#X connect 4 0 14 0;
#X connect 5 0 7 0;
#X connect 6 0 5 0;
#X connect 6 1 13 0;
#X connect 7 0 8 0;
#X connect 8 0 10 0;
#X connect 9 0 8 0;
#X connect 11 0 12 1;
#X connect 12 0 7 0;
#X connect 13 0 11 0;
#X connect 14 0 15 0;
#X connect 15 0 16 0;
#X connect 15 1 12 0;
#X connect 16 0 11 0;
#X connect 17 0 18 0;
#X connect 17 1 7 0;
#X connect 18 0 11 0;
#X connect 19 0 22 0;
#X connect 19 1 9 0;
#X connect 20 0 8 0;
#X connect 20 1 19 0;
#X connect 22 0 2 0;
#X restore 125 144 pd replace spaces;
#X obj 36 370 * 8;
#X obj 36 432 + 5;
#X msg 36 495 50;
#X obj 36 473 moses 51;
#N canvas 0 50 450 300 getMax 0;
#X obj 74 43 inlet;
#X obj 268 43 inlet;
#X obj 74 65 trigger bang float;
#X obj 74 111 max;
#X obj 74 186 max;
#X floatatom 74 133 5 0 0 0 - - -;
#X floatatom 74 228 5 0 0 0 - - -;
#X obj 178 144 t f;
#X obj 268 65 bng 15 250 50 0 empty empty empty 17 7 0 10 -262144 -1
-1;
#X msg 268 87 0;
#X obj 74 247 outlet;
#X connect 0 0 2 0;
#X connect 1 0 8 0;
#X connect 2 0 3 0;
#X connect 2 1 4 1;
#X connect 3 0 5 0;
#X connect 4 0 6 0;
#X connect 5 0 4 0;
#X connect 6 0 7 0;
#X connect 6 0 10 0;
#X connect 7 0 3 1;
#X connect 8 0 9 0;
#X connect 9 0 3 1;
#X connect 9 0 4 1;
#X restore 125 242 pd getMax;
#X text 104 474 minimun width;
#X obj 36 78 trigger bang anything bang;
#X text 207 225 resets max;
#X text 187 261 gets the width of the longest line, f 15;
#X floatatom 36 327 5 0 0 0 - - -;
#X text 74 368 experimental value;
#X text 74 430 experimental value;
#X obj 125 118 listSplitOnChar 13;
#X connect 0 0 14 0;
#X connect 1 0 11 0;
#X connect 3 0 4 0;
#X connect 4 0 12 0;
#X connect 5 0 6 1;
#X connect 6 0 17 0;
#X connect 7 0 3 0;
#X connect 8 0 9 0;
#X connect 9 0 1 0;
#X connect 10 0 2 0;
#X connect 11 0 10 0;
#X connect 11 1 2 0;
#X connect 12 0 5 0;
#X connect 14 0 6 0;
#X connect 14 1 20 0;
#X connect 14 2 12 1;
#X connect 17 0 8 0;
#X connect 20 0 7 0;
#X restore 72 259 pd canvasWidth;
#N canvas 606 151 249 272 canvasHeight 0;
#X obj 36 36 inlet;
#X obj 36 106 f;
#X floatatom 36 224 5 0 0 0 - - -;
#X obj 36 128 + 1;
#X obj 36 71 trigger f f;
#X obj 36 246 outlet;
#X floatatom 110 103 5 0 0 0 - - -;
#X obj 36 150 * 16;
#X obj 36 202 - 10;
#X obj 36 172 expr rint($f1);
#X connect 0 0 4 0;
#X connect 1 0 3 0;
#X connect 2 0 5 0;
#X connect 3 0 7 0;
#X connect 4 0 1 0;
#X connect 4 1 6 0;
#X connect 7 0 9 0;
#X connect 8 0 2 0;
#X connect 9 0 8 0;
#X restore 232 243 pd canvasHeight;
#X obj 146 189 trigger float float float;
#X obj 72 405 s \$0-canvas;
#X floatatom 232 265 5 0 0 0 - - -;
#X floatatom 72 311 5 0 0 0 - - -;
#X obj 72 330 pack f f;
#X obj 72 88 trigger a a;
#X msg 72 362 vis_size \$1 \$2;
#X obj 239 347 cnv 10 10 17 empty empty empty 20 12 0 14 -159808 -159808
0;
#X obj 250 347 r \$0-clear;
#X obj 250 369 bng 15 250 50 0 empty empty empty 17 7 0 10 -262144
-1 -1;
#X msg 258 93 1;
#X obj 250 389 trigger bang bang;
#X obj 258 63 r \$0-resetHeight;
#X obj 32 194 r \$0-resetWidth;
#X obj 366 418 s \$0-resetHeight;
#X obj 250 447 s \$0-resetWidth;
#X msg 32 223 15;
#X obj 12 194 cnv 11 20 17 empty empty rW 2 9 0 14 -108745 -262144
0;
#X obj 237 63 cnv 11 20 17 empty empty rH 2 9 0 14 -108745 -262144
0;
#X obj 229 447 cnv 11 20 17 empty empty rH 2 9 0 14 -108745 -262144
0;
#X obj 353 188 cnv 11 124 17 empty \$0-cnv label position 2 9 0 14
-1 -262144 0;
#X connect 0 0 1 0;
#X connect 1 0 13 0;
#X connect 3 0 4 0;
#X connect 4 0 5 0;
#X connect 5 0 8 0;
#X connect 6 0 11 0;
#X connect 7 0 10 0;
#X connect 8 1 7 0;
#X connect 8 2 2 0;
#X connect 10 0 12 1;
#X connect 11 0 12 0;
#X connect 12 0 14 0;
#X connect 13 0 6 0;
#X connect 13 1 3 0;
#X connect 14 0 9 0;
#X connect 16 0 17 0;
#X connect 17 0 19 0;
#X connect 18 0 5 0;
#X connect 19 0 23 0;
#X connect 19 1 22 0;
#X connect 20 0 18 0;
#X connect 21 0 24 0;
#X connect 24 0 6 0;
#X restore 266 358 pd resizeCanvas setLabelPosition;
#N canvas 156 79 503 465 router (turn everything into a symbol)
0;
#X obj 64 35 inlet;
#X msg 64 229 symbol bang;
#X obj 64 381 outlet;
#X obj 64 117 route bang float symbol list clear;
#X obj 213 168 cnv 10 10 17 empty empty empty 20 12 0 14 -159808 -159808
0;
#X obj 224 168 s \$0-clear;
#N canvas 321 44 510 300 findSelector 0;
#X obj 40 18 inlet;
#X obj 40 190 outlet;
#X obj 40 40 trigger anything anything;
#X obj 187 67 route float symbol list, f 33;
#X symbolatom 251 246 10 0 0 0 - - -;
#X obj 240 270 cnv 10 10 17 empty empty empty 20 12 0 14 -181396 -159808
0;
#X obj 251 270 s \$0-selector;
#X msg 252 124 symbol symbol;
#X msg 317 196 symbol list;
#X msg 187 124 symbol;
#X text 108 121 floats are implicit, f 10;
#N canvas 963 153 434 242 check 1st elem 0;
#X obj 34 61 inlet;
#X obj 34 152 outlet;
#X text 35 14 List starting with an number are NOT displayed with an
"list" selector so we check for the 1st element here. If it is an number
we omit the "list" selector;
#X obj 83 153 outlet;
#X obj 34 82 list split 1;
#X obj 34 103 route float;
#X connect 0 0 4 0;
#X connect 4 0 5 0;
#X connect 5 0 3 0;
#X connect 5 1 1 0;
#X restore 317 167 pd check 1st elem;
#X msg 416 197 symbol;
#X text 401 113 pointer;
#X obj 382 91 bang;
#X text 254 11 the [bang] prevents bug when receiving "set" selectors
, f 30;
#X msg 382 133 symbol;
#X connect 0 0 2 0;
#X connect 2 0 1 0;
#X connect 2 1 3 0;
#X connect 3 0 9 0;
#X connect 3 1 7 0;
#X connect 3 2 11 0;
#X connect 3 3 14 0;
#X connect 4 0 6 0;
#X connect 7 0 4 0;
#X connect 8 0 4 0;
#X connect 9 0 4 0;
#X connect 11 0 8 0;
#X connect 11 1 12 0;
#X connect 12 0 4 0;
#X connect 14 0 16 0;
#X connect 16 0 4 0;
#X restore 64 71 pd findSelector;
#X obj 45 74 cnv 10 10 13 empty empty ● 1 5 0 15 -262144 -181396
0;
#X text 324 303 this is where you concatenate a list into a symbol
, f 21;
#X obj 184 221 list;
#X obj 104 178 numberSymbol;
#X obj 212 83 list;
#X text 252 81 custom selectors;
#X obj 184 318 easyflow/listToSymbol;
#X connect 0 0 6 0;
#X connect 1 0 2 0;
#X connect 3 0 1 0;
#X connect 3 1 10 0;
#X connect 3 2 2 0;
#X connect 3 3 9 0;
#X connect 3 4 5 0;
#X connect 3 5 11 0;
#X connect 6 0 3 0;
#X connect 9 0 13 0;
#X connect 10 0 2 0;
#X connect 11 0 3 0;
#X connect 13 0 2 0;
#X restore 95 72 pd router (turn everything into a symbol);
#X text 37 162 clear BEFORE saving, f 16;
#X msg 65 592 obj 102 452 cnv 15 50 22 empty \$0-canvas1 \$1 5 17 0
14 -1644 -262144 0 \;;
#N canvas 0 50 755 365 raute2sharp 0;
#X obj 33 47 inlet;
#X obj 33 318 outlet;
#X obj 33 68 trigger symbol symbol;
#X obj 156 116 easyflow/searchIncomingLists 35;
#X obj 156 93 list fromsymbol;
#X obj 156 137 list split 1;
#X floatatom 156 158 5 0 0 0 - - -;
#X obj 156 178 != -1;
#X obj 156 199 tgl 15 0 empty empty empty 17 7 0 10 -262144 -1 -1 1
1;
#X obj 33 229 easyflow/switch2;
#N canvas 0 50 545 625 make the replacement 0;
#X obj 49 39 inlet;
#X obj 49 521 outlet;
#X obj 49 79 trigger symbol symbol, f 41;
#X obj 49 133 easyflow/searchIncomingLists 35;
#X obj 49 110 list fromsymbol;
#X obj 259 227 symbol;
#X obj 49 154 list split 1;
#X obj 259 248 list fromsymbol;
#X obj 115 235 trigger bang float;
#X obj 259 329 list split;
#X obj 220 265 - 1;
#X obj 287 355 list split 1;
#X obj 259 477 list tosymbol;
#X symbolatom 259 498 40 0 0 0 - - -;
#X obj 259 430 list append;
#X obj 321 376 list prepend 226 153 175;
#X obj 49 175 moses 0, f 11;
#X obj 475 371 cnv 15 20 25 empty empty ♯ 2 13 0 30 -1 -262144 0
;
#X obj 49 474 easyflow/switch2;
#X obj 115 199 t f b;
#X msg 142 308 1;
#X obj 49 196 t b b;
#X msg 76 307 0;
#X obj 142 445 tgl 15 0 empty empty empty 17 7 0 10 -262144 -1 -1 0
1;
#X obj 125 546 cnv 10 10 12 empty empty ❴❵ -3 5 0 15 -262144 -260097
0;
#X obj 142 544 s \$0-printHereRauteSubstitutionRecursion;
#X obj 104 45 cnv 10 10 12 empty empty ❴❵ -3 5 0 15 -262144 -260097
0;
#X obj 121 43 r \$0-printHereRauteSubstitutionRecursion;
#X connect 0 0 2 0;
#X connect 2 0 4 0;
#X connect 2 1 5 1;
#X connect 3 0 6 0;
#X connect 4 0 3 0;
#X connect 5 0 7 0;
#X connect 6 0 16 0;
#X connect 7 0 9 0;
#X connect 8 0 5 0;
#X connect 8 1 10 0;
#X connect 9 0 14 0;
#X connect 9 1 11 0;
#X connect 10 0 9 1;
#X connect 11 1 15 0;
#X connect 12 0 13 0;
#X connect 13 0 18 0;
#X connect 14 0 12 0;
#X connect 15 0 14 1;
#X connect 16 0 21 0;
#X connect 16 1 19 0;
#X connect 18 0 1 0;
#X connect 18 1 25 0;
#X connect 19 0 8 0;
#X connect 19 1 20 0;
#X connect 20 0 23 0;
#X connect 21 0 13 0;
#X connect 21 1 22 0;
#X connect 22 0 23 0;
#X connect 23 0 18 1;
#X connect 27 0 2 0;
#X restore 126 256 pd make the replacement;
#X text 95 8 This is a special subpatch that replaces # with ♯.;
#X text 96 24 This is needed because rautes (#) are converted to dollars
($) inside labels. This is a deep stuff of PD's source.;
#X text 302 186 https://lists.puredata.info/pipermail/pd-dev/2018-09/021665.html
;
#X text 304 147 Last time i've seen this topic in the pd-dev mailing
list was when i sent this to the mailing list;
#X connect 0 0 2 0;
#X connect 2 0 9 0;
#X connect 2 1 4 0;
#X connect 3 0 5 0;
#X connect 4 0 3 0;
#X connect 5 0 6 0;
#X connect 6 0 7 0;
#X connect 7 0 8 0;
#X connect 8 0 9 1;
#X connect 9 0 1 0;
#X connect 9 1 10 0;
#X connect 10 0 1 0;
#X restore 114 319 pd raute2sharp;
#N canvas 0 50 489 469 flash 0;
#X obj 75 39 inlet;
#X obj 75 90 trigger bang bang, f 38;
#X obj 75 189 bng 15 250 50 0 empty empty empty 17 7 0 10 -262144 -1
-1;
#X obj 191 189 bng 15 250 50 0 empty empty empty 17 7 0 10 -262144
-1 -1;
#X obj 75 259 pack f f f;
#X obj 75 167 trigger bang bang;
#X msg 75 281 color \$1 \$2 \$3;
#X obj 75 387 s \$0-canvas1;
#X text 215 238 label;
#X text 45 216 bkg;
#X obj 191 217 hsb 0 0 255;
#X obj 75 217 rgb 0 103 172;
#X obj 46 388 cnv 11 28 17 empty empty cnv 2 9 0 14 -204773 -262144
0;
#X msg 300 285 color -1 0 0;
#X obj 75 121 del 75;
#X obj 300 113 del 17;
#X text 347 113 60 fps;
#X connect 0 0 1 0;
#X connect 1 0 14 0;
#X connect 1 1 15 0;
#X connect 2 0 11 0;
#X connect 3 0 10 0;
#X connect 4 0 6 0;
#X connect 5 0 2 0;
#X connect 5 1 3 0;
#X connect 6 0 7 0;
#X connect 10 0 4 2;
#X connect 10 0 4 1;
#X connect 11 0 4 0;
#X connect 13 0 7 0;
#X connect 14 0 5 0;
#X connect 15 0 13 0;
#X restore 157 364 pd flash;
#X obj 114 363 t a b;
#X obj 524 28 namecanvas \$0-this;
#X obj 522 123 s \$0-this;
#X obj 511 80 cnv 10 10 17 empty empty empty 20 12 0 14 -159808 -159808
0;
#X obj 522 80 r \$0-clear;
#X obj 665 419 s \$0-this;
#X msg 522 102 coords 0 1 1 -1 55 27 2 100 450 1;
#X msg 665 395 coords 0 1 1 -1 \$1 \$2 2 100 450 1;
#X obj 495 28 cnv 11 28 17 empty empty GOP 2 9 0 14 -1848 -262144 0
;
#X obj 493 123 cnv 11 28 17 empty empty GOP 2 9 0 14 -1848 -262144
0;
#X obj 637 419 cnv 11 28 17 empty empty GOP 2 9 0 14 -1848 -262144
0;
#X obj 498 156 r easyflowPrintHereClearAll;
#X obj 487 197 cnv 10 10 17 empty empty empty 20 12 0 14 -159808 -159808
0;
#X obj 498 197 s \$0-clear;
#X obj 498 177 bng 15 250 50 0 empty empty empty 17 7 0 10 -262144
-1 -1;
#X connect 0 0 28 0;
#X connect 2 0 62 0;
#X connect 3 1 4 0;
#X connect 3 2 6 0;
#X connect 4 0 8 0;
#X connect 5 0 4 1;
#X connect 7 0 8 1;
#X connect 8 0 10 0;
#X connect 10 0 60 0;
#X connect 10 1 56 0;
#X connect 10 2 9 0;
#X connect 12 0 26 0;
#X connect 14 0 19 0;
#X connect 15 0 16 0;
#X connect 16 0 17 0;
#X connect 16 1 18 0;
#X connect 17 0 24 0;
#X connect 18 0 25 0;
#X connect 19 0 15 0;
#X connect 19 1 20 0;
#X connect 21 0 22 0;
#X connect 21 0 69 0;
#X connect 22 0 23 0;
#X connect 24 0 21 0;
#X connect 25 0 21 1;
#X connect 26 0 1 0;
#X connect 27 0 57 0;
#X connect 28 0 27 0;
#X connect 28 1 29 0;
#X connect 46 0 45 0;
#X connect 57 0 3 0;
#X connect 60 0 2 0;
#X connect 62 0 1 0;
#X connect 62 1 61 0;
#X connect 66 0 68 0;
#X connect 68 0 64 0;
#X connect 69 0 67 0;
#X connect 73 0 76 0;
#X connect 76 0 75 0;
#X coords 0 1 1 -1 54 26 2 100 450;
