#N canvas 0 50 471 302 10;
#X obj 60 43 inlet;
#N canvas 487 50 431 229 getMember 0;
#X obj 34 66 list;
#X obj 34 31 inlet;
#N canvas 0 50 526 358 public 0;
#X obj 34 66 trigger anything anything;
#X msg 224 108 symbol \$2;
#X symbolatom 224 130 17 0 0 0 - - -;
#X msg 34 117 symbol \$1;
#X symbolatom 34 139 25 0 0 0 - - -;
#X obj 34 275 send;
#X obj 224 149 trigger symbol bang;
#X floatatom 335 203 5 0 0 0 - - -;
#X obj 224 171 pack s f;
#X symbolatom 224 283 35 0 0 0 - - -;
#X msg 224 261 symbol \$2-\$1EasyflowMember;
#X obj 335 181 f \$1;
#X msg 34 158 getMember \$1;
#X text 237 81 name of the member;
#X text 50 89 where to send it;
#X obj 34 24 inlet;
#X connect 0 0 3 0;
#X connect 0 1 1 0;
#X connect 1 0 2 0;
#X connect 2 0 6 0;
#X connect 3 0 4 0;
#X connect 4 0 12 0;
#X connect 6 0 8 0;
#X connect 6 1 11 0;
#X connect 7 0 8 1;
#X connect 8 0 10 0;
#X connect 9 0 5 1;
#X connect 10 0 9 0;
#X connect 11 0 7 0;
#X connect 12 0 5 0;
#X connect 15 0 0 0;
#X restore 34 120 pd public;
#X obj 34 88 trigger anything anything;
#N canvas 0 50 526 358 private 0;
#X obj 34 66 trigger anything anything;
#X msg 224 108 symbol \$2;
#X symbolatom 224 130 17 0 0 0 - - -;
#X msg 34 117 symbol \$1;
#X symbolatom 34 139 25 0 0 0 - - -;
#X obj 34 275 send;
#X obj 224 149 trigger symbol bang;
#X floatatom 335 203 5 0 0 0 - - -;
#X obj 224 171 pack s f;
#X symbolatom 224 283 35 0 0 0 - - -;
#X obj 335 181 f \$1;
#X msg 34 158 getMember \$1;
#X text 237 81 name of the member;
#X text 50 89 where to send it;
#X obj 34 24 inlet;
#X msg 224 261 symbol \$2-\$1EasyflowMemberPrivate;
#X connect 0 0 3 0;
#X connect 0 1 1 0;
#X connect 1 0 2 0;
#X connect 2 0 6 0;
#X connect 3 0 4 0;
#X connect 4 0 11 0;
#X connect 6 0 8 0;
#X connect 6 1 10 0;
#X connect 7 0 8 1;
#X connect 8 0 15 0;
#X connect 9 0 5 1;
#X connect 10 0 7 0;
#X connect 11 0 5 0;
#X connect 14 0 0 0;
#X connect 15 0 9 0;
#X restore 181 120 pd private;
#X connect 0 0 3 0;
#X connect 1 0 0 0;
#X connect 3 0 2 0;
#X connect 3 1 4 0;
#X restore 60 175 pd getMember;
#N canvas 468 147 507 252 setMember 1;
#X obj 34 66 list;
#X obj 34 31 inlet;
#X text 318 29 publicMembers/pd setMember;
#X obj 34 87 t l l;
#N canvas 0 50 475 365 public 0;
#X obj 43 47 inlet;
#X obj 43 76 trigger anything anything;
#X symbolatom 233 140 10 0 0 0 - - -;
#X obj 43 285 send;
#X obj 233 159 trigger symbol bang;
#X floatatom 344 213 5 0 0 0 - - -;
#X obj 233 181 pack s f;
#X symbolatom 233 293 30 0 0 0 - - -;
#X msg 233 271 symbol \$2-\$1EasyflowMember;
#X obj 344 191 f \$1;
#X text 234 86 name of the member;
#X msg 233 118 symbol \$1;
#X obj 43 138 list prepend setMember;
#X obj 43 160 list trim;
#X obj 43 98 list split 1;
#X connect 0 0 1 0;
#X connect 1 0 14 0;
#X connect 1 1 11 0;
#X connect 2 0 4 0;
#X connect 4 0 6 0;
#X connect 4 1 9 0;
#X connect 5 0 6 1;
#X connect 6 0 8 0;
#X connect 7 0 3 1;
#X connect 8 0 7 0;
#X connect 9 0 5 0;
#X connect 11 0 2 0;
#X connect 12 0 13 0;
#X connect 13 0 3 0;
#X connect 14 1 12 0;
#X restore 34 138 pd public;
#N canvas 273 140 475 365 private 1;
#X obj 43 47 inlet;
#X obj 43 76 trigger anything anything;
#X symbolatom 233 140 10 0 0 0 - - -;
#X obj 43 285 send;
#X obj 233 159 trigger symbol bang;
#X floatatom 344 213 5 0 0 0 - - -;
#X obj 233 181 pack s f;
#X symbolatom 233 293 35 0 0 0 - - -;
#X obj 344 191 f \$1;
#X text 234 86 name of the member;
#X msg 233 118 symbol \$1;
#X obj 43 138 list prepend setMember;
#X obj 43 160 list trim;
#X obj 43 98 list split 1;
#X msg 233 271 symbol \$2-\$1EasyflowMemberPrivate;
#X connect 0 0 1 0;
#X connect 1 0 13 0;
#X connect 1 1 10 0;
#X connect 2 0 4 0;
#X connect 4 0 6 0;
#X connect 4 1 8 0;
#X connect 5 0 6 1;
#X connect 6 0 14 0;
#X connect 7 0 3 1;
#X connect 8 0 5 0;
#X connect 10 0 2 0;
#X connect 11 0 12 0;
#X connect 12 0 3 0;
#X connect 13 1 11 0;
#X connect 14 0 7 0;
#X restore 61 112 pd private;
#X connect 0 0 3 0;
#X connect 1 0 0 0;
#X connect 3 0 4 0;
#X connect 3 1 5 0;
#X restore 131 146 pd setMember;
#X obj 60 76 route getMember setMember callMethod;
#N canvas 260 140 483 332 callMethod 0;
#X obj 34 66 list;
#X obj 34 31 inlet;
#X obj 34 88 trigger anything anything;
#N canvas 0 50 499 332 send 0;
#X obj 34 56 trigger anything anything;
#X symbolatom 224 120 10 0 0 0 - - -;
#X obj 34 265 send;
#X obj 224 139 trigger symbol bang;
#X floatatom 335 193 5 0 0 0 - - -;
#X obj 224 161 pack s f;
#X symbolatom 224 273 25 0 0 0 - - -;
#X obj 335 171 f \$1;
#X text 225 66 name of the member;
#X msg 224 98 symbol \$2;
#X obj 34 78 list trim;
#X msg 224 251 symbol easyflowMethodPrivate\$2-\$1;
#X obj 34 29 inlet;
#X connect 0 0 10 0;
#X connect 0 1 9 0;
#X connect 1 0 3 0;
#X connect 3 0 5 0;
#X connect 3 1 7 0;
#X connect 4 0 5 1;
#X connect 5 0 11 0;
#X connect 6 0 2 1;
#X connect 7 0 4 0;
#X connect 9 0 1 0;
#X connect 10 0 2 0;
#X connect 11 0 6 0;
#X connect 12 0 0 0;
#X restore 34 117 pd send to private;
#N canvas 0 50 499 332 send 0;
#X obj 34 56 trigger anything anything;
#X symbolatom 224 120 10 0 0 0 - - -;
#X obj 34 265 send;
#X obj 224 139 trigger symbol bang;
#X floatatom 335 193 5 0 0 0 - - -;
#X obj 224 161 pack s f;
#X symbolatom 224 273 25 0 0 0 - - -;
#X obj 335 171 f \$1;
#X text 225 66 name of the member;
#X msg 224 98 symbol \$2;
#X obj 34 78 list trim;
#X obj 34 29 inlet;
#X msg 224 251 symbol easyflowMethod\$2-\$1;
#X connect 0 0 10 0;
#X connect 0 1 9 0;
#X connect 1 0 3 0;
#X connect 3 0 5 0;
#X connect 3 1 7 0;
#X connect 4 0 5 1;
#X connect 5 0 12 0;
#X connect 6 0 2 1;
#X connect 7 0 4 0;
#X connect 9 0 1 0;
#X connect 10 0 2 0;
#X connect 11 0 0 0;
#X connect 12 0 6 0;
#X restore 206 119 pd send to public;
#X text 27 155 We try to call both a public and a private method.;
#X text 28 176 Why?;
#X text 26 270 You should NOT have two methods with the same name anyway!
;
#X text 25 220 Because if you have a [private] object you won't need
to worry about directing your calls sometimes to [public] and sometimes
to [private]. So send everything to [private].;
#X connect 0 0 2 0;
#X connect 1 0 0 0;
#X connect 2 0 3 0;
#X connect 2 1 4 0;
#X restore 202 123 pd callMethod;
#X text 39 247 Private is actually public but with an extra send name
for callMethod. (for private stuff);
#X connect 0 0 3 0;
#X connect 3 0 1 0;
#X connect 3 1 2 0;
#X connect 3 2 4 0;
