#N canvas 1318 135 430 277 10;
#X obj 50 29 inlet;
#N canvas 434 83 526 487 getMember 0;
#X obj 34 156 trigger anything anything;
#X obj 34 116 list;
#X msg 224 198 symbol \$2;
#X symbolatom 224 220 17 0 0 0 - - -;
#X msg 34 267 symbol \$1;
#X symbolatom 34 289 25 0 0 0 - - -;
#X obj 34 395 send;
#X obj 224 239 trigger symbol bang;
#X floatatom 335 293 5 0 0 0 - - -;
#X obj 224 261 pack s f;
#X symbolatom 224 403 35 0 0 0 - - -;
#X msg 224 381 symbol \$2-\$1EasyflowMember;
#X obj 335 271 f \$1;
#X obj 34 31 inlet;
#X msg 34 308 getMember \$1;
#X text 237 171 name of the member;
#X text 49 178 where to send it;
#N canvas 0 50 450 300 test for "this" 0;
#X obj 62 33 inlet;
#X obj 62 194 outlet;
#X obj 62 57 trigger anything anything;
#X obj 234 97 unpack s s;
#X obj 301 132 select this;
#X msg 301 156 1;
#X msg 375 156 0;
#X obj 62 151 easyflow/switch2;
#X obj 301 190 tgl 15 0 empty empty empty 17 7 0 10 -262144 -1 -1 0
1;
#X obj 171 192 outlet;
#X connect 0 0 2 0;
#X connect 2 0 7 0;
#X connect 2 1 3 0;
#X connect 3 1 4 0;
#X connect 4 0 5 0;
#X connect 4 1 6 0;
#X connect 5 0 8 0;
#X connect 6 0 8 0;
#X connect 7 0 1 0;
#X connect 7 1 9 0;
#X connect 8 0 7 1;
#X restore 34 69 pd test for "this";
#X text 28 6 public/getMember;
#X text 55 209 (the calling [getMember]'s receive), f 14;
#X text 246 325 receive of the [member] object of corresponding name
, f 28;
#N canvas 0 50 499 323 this 0;
#X obj 55 31 inlet;
#X obj 55 55 unpack s;
#X obj 55 79 trigger bang symbol;
#X symbolatom 185 112 24 0 0 0 - - -;
#X obj 55 113 f \$1;
#X obj 55 197 send;
#X text 51 251 This sends the \$0 value of the abstraction to the caller.
;
#X text 48 276 (remember that the \$0 was passed as an argument so
it is \$1 inside [public]);
#X msg 55 137 symbol &\$1;
#X connect 0 0 1 0;
#X connect 1 0 2 0;
#X connect 2 0 4 0;
#X connect 2 1 3 0;
#X connect 3 0 5 1;
#X connect 4 0 8 0;
#X connect 8 0 5 0;
#X restore 157 97 pd this;
#X connect 0 0 4 0;
#X connect 0 1 2 0;
#X connect 1 0 0 0;
#X connect 2 0 3 0;
#X connect 3 0 7 0;
#X connect 4 0 5 0;
#X connect 5 0 14 0;
#X connect 7 0 9 0;
#X connect 7 1 12 0;
#X connect 8 0 9 1;
#X connect 9 0 11 0;
#X connect 10 0 6 1;
#X connect 11 0 10 0;
#X connect 12 0 8 0;
#X connect 13 0 17 0;
#X connect 14 0 6 0;
#X connect 17 0 1 0;
#X connect 17 1 21 0;
#X restore 50 205 pd getMember;
#N canvas 468 147 529 455 setMember 0;
#X obj 34 106 trigger anything anything;
#X obj 34 66 list;
#X symbolatom 224 170 10 0 0 0 - - -;
#X obj 34 315 send;
#X obj 224 189 trigger symbol bang;
#X floatatom 335 243 5 0 0 0 - - -;
#X obj 224 211 pack s f;
#X symbolatom 224 323 25 0 0 0 - - -;
#X msg 224 301 symbol \$2-\$1EasyflowMember;
#X obj 335 221 f \$1;
#X obj 34 31 inlet;
#X text 225 116 name of the member;
#X msg 224 148 symbol \$1;
#X text 318 29 publicMembers/pd setMember;
#X obj 34 168 list prepend setMember;
#X obj 34 190 list trim;
#X obj 34 128 list split 1;
#X connect 0 0 16 0;
#X connect 0 1 12 0;
#X connect 1 0 0 0;
#X connect 2 0 4 0;
#X connect 4 0 6 0;
#X connect 4 1 9 0;
#X connect 5 0 6 1;
#X connect 6 0 8 0;
#X connect 7 0 3 1;
#X connect 8 0 7 0;
#X connect 9 0 5 0;
#X connect 10 0 1 0;
#X connect 12 0 2 0;
#X connect 14 0 15 0;
#X connect 15 0 3 0;
#X connect 16 1 14 0;
#X restore 133 176 pd setMember;
#N canvas 260 140 529 455 callMethod 1;
#X obj 34 106 trigger anything anything;
#X obj 34 66 list;
#X symbolatom 224 170 10 0 0 0 - - -;
#X obj 34 315 send;
#X obj 224 189 trigger symbol bang;
#X floatatom 335 243 5 0 0 0 - - -;
#X obj 224 211 pack s f;
#X symbolatom 224 323 25 0 0 0 - - -;
#X obj 335 221 f \$1;
#X obj 34 31 inlet;
#X text 225 116 name of the member;
#X text 333 8 publicMembers/pd callMethod;
#X msg 224 301 symbol easyflowMethod\$2-\$1;
#X msg 224 148 symbol \$2;
#X obj 34 128 list trim;
#X connect 0 0 14 0;
#X connect 0 1 13 0;
#X connect 1 0 0 0;
#X connect 2 0 4 0;
#X connect 4 0 6 0;
#X connect 4 1 8 0;
#X connect 5 0 6 1;
#X connect 6 0 12 0;
#X connect 7 0 3 1;
#X connect 8 0 5 0;
#X connect 9 0 1 0;
#X connect 12 0 7 0;
#X connect 13 0 2 0;
#X connect 14 0 3 0;
#X restore 216 148 pd callMethod;
#X obj 50 76 route getMember setMember callMethod;
#X obj 131 30 r easyflowPublicObjectAccess\$1;
#X obj 299 105 outlet;
#X connect 0 0 4 0;
#X connect 4 0 1 0;
#X connect 4 1 2 0;
#X connect 4 2 3 0;
#X connect 4 3 6 0;
#X connect 5 0 4 0;
