#N canvas 167 88 503 373 10;
#X floatatom 28 55 5 1 7 0 - - -;
#X obj 28 146 printHere;
#X obj 378 327 easyflow-info;
#X obj 28 124 randomList 10;
#X obj 278 146 printHere;
#X obj 278 124 randomList 3 5;
#X text 116 124 from 0 to 10;
#X text 371 124 from 3 to 5;
#X msg 73 89 seed 666;
#X msg 313 97 seed 666;
#X text 30 13 Takes a number and outputs a list of random. Range goes
from zero to the single argument or from the first to the second.;
#N canvas 166 443 372 167 random floats 0;
#X obj 57 44 randomList 10000;
#X obj 57 66 listOperator / 10000;
#X msg 57 23 3;
#X obj 57 87 printHere -s;
#X connect 0 0 1 0;
#X connect 1 0 3 0;
#X connect 2 0 0 0;
#X restore 28 243 pd random floats;
#X obj 43 74 bng 15 250 50 0 empty empty empty 17 7 0 10 -262144 -1
-1;
#X floatatom 278 55 5 1 7 0 - - -;
#X obj 293 74 bng 15 250 50 0 empty empty empty 17 7 0 10 -262144 -1
-1;
#X obj 28 95 f 1;
#X obj 278 95 f 1;
#X text 25 285 not to be confused with:;
#X obj 26 305 listRandom;
#X connect 0 0 15 0;
#X connect 3 0 1 0;
#X connect 5 0 4 0;
#X connect 8 0 3 0;
#X connect 9 0 5 0;
#X connect 12 0 15 0;
#X connect 13 0 16 0;
#X connect 14 0 16 0;
#X connect 15 0 3 0;
#X connect 16 0 5 0;
