#N canvas 716 173 646 541 10;
#X obj 385 33 inlet;
#X obj 472 35 inlet;
#X text 181 94 red;
#X text 383 8 green;
#X text 476 9 blue;
#X obj 487 141 f \$3;
#X obj 397 140 f \$2;
#X obj 288 88 loadbang;
#X obj 288 141 f \$1;
#X obj 385 341 pack f f f;
#X obj 385 271 t b f;
#X obj 472 272 t b f;
#X obj 385 363 expr $f1+$f2+$f3-1;
#X floatatom 385 385 5 0 0 0 - - -;
#X obj 32 22 inlet;
#X obj 32 426 outlet;
#X obj 32 374 float;
#X obj 95 144 unpack float float float;
#X obj 288 110 trigger bang bang bang;
#X obj 83 216 trigger bang float;
#X text 526 245 integers so the binary is correct!, f 18;
#X obj 413 293 * -256;
#X obj 385 249 i;
#X obj 472 250 i;
#X obj 497 293 * -1;
#X obj 288 250 i;
#X obj 288 294 * -65536;
#X obj 68 98 t b a;
#X obj 32 64 route bang list float set;
#X text 497 250 <--;
#X obj 385 54 route out;
#X obj 385 75 t b f;
#X obj 472 56 route out;
#X obj 472 78 t b f;
#X connect 0 0 30 0;
#X connect 1 0 32 0;
#X connect 5 0 23 0;
#X connect 6 0 22 0;
#X connect 7 0 18 0;
#X connect 8 0 25 0;
#X connect 9 0 12 0;
#X connect 10 0 9 0;
#X connect 10 1 21 0;
#X connect 11 0 9 0;
#X connect 11 1 24 0;
#X connect 12 0 13 0;
#X connect 13 0 16 1;
#X connect 14 0 28 0;
#X connect 16 0 15 0;
#X connect 17 0 19 0;
#X connect 17 1 22 0;
#X connect 17 2 23 0;
#X connect 18 0 8 0;
#X connect 18 1 6 0;
#X connect 18 2 5 0;
#X connect 19 0 16 0;
#X connect 19 1 25 0;
#X connect 21 0 9 1;
#X connect 22 0 10 0;
#X connect 23 0 11 0;
#X connect 24 0 9 2;
#X connect 25 0 26 0;
#X connect 26 0 9 0;
#X connect 27 0 16 0;
#X connect 27 1 17 0;
#X connect 28 0 16 0;
#X connect 28 1 27 0;
#X connect 28 2 27 0;
#X connect 28 3 25 0;
#X connect 30 0 31 0;
#X connect 30 1 6 0;
#X connect 31 0 16 0;
#X connect 31 1 6 0;
#X connect 32 0 33 0;
#X connect 32 1 5 0;
#X connect 33 0 16 0;
#X connect 33 1 5 0;
