#N canvas 1116 137 301 379 10;
#X obj 48 37 inlet;
#X obj 48 278 outlet;
#X obj 48 58 t b a;
#X obj 48 250 easyflow/any;
#X obj 48 227 until;
#X obj 69 85 inlet;
#X obj 69 109 moses 1;
#X obj 69 130 bang;
#X obj 69 151 f 1;
#X obj 48 206 f \$1;
#X connect 0 0 2 0;
#X connect 2 0 9 0;
#X connect 2 1 3 1;
#X connect 3 0 1 0;
#X connect 4 0 3 0;
#X connect 5 0 6 0;
#X connect 6 0 7 0;
#X connect 6 1 9 1;
#X connect 7 0 8 0;
#X connect 8 0 9 1;
#X connect 9 0 4 0;
