#N canvas 1186 232 389 152 10;
#X obj 35 32 inlet;
#X obj 35 64 easyflow/redGreenBlue \$1 \$2 \$3;
#X obj 35 86 outlet;
#X obj 104 32 inlet;
#X obj 173 32 inlet;
#X obj 242 32 inlet;
#X connect 0 0 1 0;
#X connect 1 0 2 0;
#X connect 3 0 1 1;
#X connect 4 0 1 2;
#X connect 5 0 1 3;
