#N canvas 207 50 423 651 10;
#X obj 60 26 inlet;
#X obj 60 48 trigger anything anything;
#X obj 158 347 list append;
#N canvas 363 348 282 197 for 0;
#X obj 76 28 inlet;
#X obj 76 100 until;
#X obj 76 133 f;
#X obj 76 50 trigger float bang;
#X obj 111 133 + 1;
#X msg 181 79 1;
#X obj 76 155 outlet;
#X connect 0 0 3 0;
#X connect 1 0 2 0;
#X connect 2 0 4 0;
#X connect 2 0 6 0;
#X connect 3 0 1 0;
#X connect 3 1 5 0;
#X connect 4 0 2 1;
#X connect 5 0 2 1;
#X restore 60 145 pd for;
#X obj 60 70 list length;
#X floatatom 60 92 5 0 0 0 - - -, f 5;
#X obj 93 288 trigger bang float;
#X floatatom 253 349 5 0 0 0 - - -, f 5;
#X obj 158 444 outlet;
#X obj 60 111 trigger f f;
#X obj 93 202 expr $f2+1-$f1;
#X obj 158 422 passNthElement;
#X connect 0 0 1 0;
#X connect 1 0 4 0;
#X connect 1 1 2 1;
#X connect 2 0 11 0;
#X connect 3 0 10 0;
#X connect 4 0 5 0;
#X connect 5 0 9 0;
#X connect 6 0 2 0;
#X connect 6 1 7 0;
#X connect 7 0 11 1;
#X connect 9 0 3 0;
#X connect 9 1 10 1;
#X connect 10 0 6 0;
#X connect 11 0 8 0;
