#N canvas 227 76 423 555 10;
#X obj 60 26 inlet;
#X obj 60 68 trigger anything anything;
#X obj 158 367 list append;
#N canvas 363 348 360 263 for 0;
#X obj 76 28 inlet;
#X obj 76 140 until;
#X obj 76 173 f;
#X obj 76 50 trigger float bang;
#X obj 111 173 + 1;
#X msg 181 79 1;
#X obj 76 195 outlet;
#X obj 103 87 inlet;
#X obj 103 109 bng 15 250 50 0 empty empty empty 17 7 0 10 -262144
-1 -1;
#X connect 0 0 3 0;
#X connect 1 0 2 0;
#X connect 2 0 4 0;
#X connect 2 0 6 0;
#X connect 3 0 1 0;
#X connect 3 1 5 0;
#X connect 4 0 2 1;
#X connect 5 0 2 1;
#X connect 7 0 8 0;
#X connect 8 0 1 1;
#X restore 60 205 pd for;
#X obj 60 90 list length;
#X floatatom 60 112 5 0 0 0 - - -;
#X obj 93 308 trigger bang float;
#X floatatom 253 369 5 0 0 0 - - -;
#X obj 158 464 outlet;
#X obj 60 131 trigger f f;
#X obj 93 262 expr $f2+1-$f1;
#X obj 158 442 passNthElement;
#X obj 93 174 inlet;
#X connect 0 0 1 0;
#X connect 1 0 4 0;
#X connect 1 1 2 1;
#X connect 2 0 11 0;
#X connect 3 0 10 0;
#X connect 4 0 5 0;
#X connect 5 0 9 0;
#X connect 6 0 2 0;
#X connect 6 1 7 0;
#X connect 7 0 11 1;
#X connect 9 0 3 0;
#X connect 9 1 10 1;
#X connect 10 0 6 0;
#X connect 11 0 8 0;
#X connect 12 0 3 1;
