#N canvas 871 223 837 429 10;
#X obj 59 24 inlet;
#X obj 59 66 trigger float float;
#X floatatom 189 116 10 0 0 0 - - -, f 10;
#X obj 189 94 expr modf($f1);
#X floatatom 189 257 5 0 0 0 - - -, f 5;
#X obj 189 225 <= 0.001;
#X obj 59 279 list prepend;
#X obj 59 301 route 0 1;
#X obj 59 371 outlet;
#X floatatom 59 344 5 0 0 0 - - -, f 5;
#X floatatom 123 352 5 0 0 0 - - -, f 5;
#X obj 189 137 t f f;
#X floatatom 295 256 5 0 0 0 - - -, f 5;
#X obj 189 276 ||;
#X floatatom 189 298 5 0 0 0 - - -, f 5;
#X obj 295 226 >= 0.999;
#X obj 123 330 expr rint($f1);
#X obj 385 13 loadbang;
#X obj 385 103 sel 0;
#X obj 543 101 sel 0;
#X text 589 99 remove 0;
#X obj 417 132 i;
#X obj 575 153 i;
#X obj 417 153 expr pow(10 \, -$i1);
#X floatatom 417 175 15 0 0 0 - - -, f 15;
#X obj 575 180 expr 1-pow(10 \, -$i1);
#X floatatom 575 202 5 0 0 0 - - -, f 5;
#X obj 385 35 float \$1;
#X obj 385 75 trigger float float, f 23;
#X text 92 226 default is 3;
#X obj 46 24 cnv 11 12 17 empty empty 1 2 9 0 14 -1 -262144 0;
#X obj 46 371 cnv 11 12 17 empty empty 1 2 9 0 14 -1 -262144 0;
#X obj 494 18 cnv 11 12 17 empty empty 2 2 9 0 14 -1 -262144 0;
#X obj 507 18 inlet;
#X floatatom 507 40 5 0 0 0 - - -, f 5;
#X connect 0 0 1 0;
#X connect 1 0 6 0;
#X connect 1 1 3 0;
#X connect 2 0 11 0;
#X connect 3 0 2 0;
#X connect 4 0 13 0;
#X connect 5 0 4 0;
#X connect 6 0 7 0;
#X connect 7 0 9 0;
#X connect 7 1 16 0;
#X connect 9 0 8 0;
#X connect 10 0 8 0;
#X connect 11 0 5 0;
#X connect 11 1 15 0;
#X connect 12 0 13 1;
#X connect 13 0 14 0;
#X connect 14 0 6 1;
#X connect 15 0 12 0;
#X connect 16 0 10 0;
#X connect 17 0 27 0;
#X connect 18 1 21 0;
#X connect 19 1 22 0;
#X connect 21 0 23 0;
#X connect 22 0 25 0;
#X connect 23 0 24 0;
#X connect 24 0 5 1;
#X connect 25 0 26 0;
#X connect 26 0 15 1;
#X connect 27 0 28 0;
#X connect 28 0 18 0;
#X connect 28 1 19 0;
#X connect 33 0 34 0;
#X connect 34 0 28 0;
