#N canvas 575 78 791 702 10;
#N canvas 0 50 450 250 (subpatch) 0;
#X array \$0-left 223892 float 0;
#X coords 0 1 223891 -1 100 70 1 0 0;
#X restore 511 73 graph;
#X obj 91 12 inlet;
#X obj 91 159 bng 15 250 50 0 empty empty empty 17 7 0 10 -262144 -1
-1;
#N canvas 0 50 450 250 (subpatch) 0;
#X array \$0-right 223892 float 0;
#X coords 0 1 223891 -1 100 70 1 0 0;
#X restore 623 74 graph;
#X obj 513 179 bng 15 250 50 0 \$0-loadLast empty empty 17 7 0 10 -262144
-1 -1;
#X text 532 179 load last;
#N canvas 0 50 483 739 openFile 0;
#X obj 47 44 openpanel;
#X obj 47 66 trigger symbol symbol;
#X obj 191 92 t s b;
#X msg 191 174 add2 \$1;
#X obj 44 436 soundfiler;
#X obj 44 392 list trim;
#X msg 44 348 read -resize \$1;
#X floatatom 44 523 10 0 0 0 - - -, f 10;
#X msg 223 114 set symbol;
#X obj 44 370 list append \$0-left \$0-right;
#N canvas 264 50 602 300 lastSample 0;
#X obj 45 42 inlet;
#X msg 112 174 symbol C:/Vst/Samples/musicradar-spiritual-samples/musicradar-spiritual-samples/Chords/Fake_Choir/Fake_Choir_D#.wav
;
#X obj 112 246 outlet;
#X obj 112 114 trigger anything anything;
#X obj 273 139 cnv 10 10 17 empty empty empty 20 12 0 14 -131136 -1
0;
#X obj 284 139 s \$0-lastFolder;
#X obj 45 64 route bang;
#X connect 0 0 6 0;
#X connect 1 0 2 0;
#X connect 3 0 1 0;
#X connect 3 1 5 0;
#X connect 6 0 1 0;
#X connect 6 1 3 0;
#X restore 191 217 pd lastSample;
#X obj 47 13 inlet;
#X obj 33 616 cnv 10 10 17 empty empty empty 20 12 0 14 -82680 -1 0
;
#X obj 44 616 s \$0-outlet;
#X msg 44 582 size \$1;
#N canvas 644 176 488 272 sub 0;
#X obj 27 22 inlet;
#X obj 27 44 list fromsymbol;
#X obj 27 88 list tosymbol;
#X obj 27 110 outlet;
#X obj 27 66 easyflow/listReplace 63 32;
#X text 27 143 this subpatch converts "?" again to whitespaces so;
#X text 28 169 [openpanel] can use the message to locate the files
;
#X connect 0 0 1 0;
#X connect 1 0 4 0;
#X connect 2 0 3 0;
#X connect 4 0 2 0;
#X restore 191 249 pd sub ? whitespace;
#N canvas 644 176 512 322 sub 0;
#X obj 27 22 inlet;
#X obj 27 44 list fromsymbol;
#X obj 27 88 list tosymbol;
#X obj 27 110 outlet;
#X obj 27 66 easyflow/listReplace 32 63;
#X text 27 143 this subpatch converts 32 to 63 or whitespaces to "?"
;
#X text 28 169 because 32s are lost in msgs when you save-close-reload
an patch;
#X text 28 206 so it replaces it with an ? (which is not accepted in
file paths \, so it wont be mistaken for anything that was there);
#X text 25 250 they will be converted to 32 again on demand;
#X connect 0 0 1 0;
#X connect 1 0 4 0;
#X connect 2 0 3 0;
#X connect 4 0 2 0;
#X restore 191 139 pd sub whitespace ?;
#X obj 119 15 cnv 10 10 17 empty empty empty 20 12 0 14 -36275 -1 0
;
#X obj 130 15 r \$0-openPanel;
#X obj 44 552 trigger float float;
#X obj 101 499 print [sample~];
#N canvas 0 50 450 300 updateSliders 0;
#X obj 40 36 inlet;
#X msg 40 58 range 0 \$1;
#X obj 40 190 s \$0-leftSlider;
#X obj 50 160 s \$0-leftSliderRead;
#X obj 85 126 s \$0-rightSlider;
#X obj 105 99 s \$0-rightSliderRead;
#X connect 0 0 1 0;
#X connect 1 0 2 0;
#X connect 1 0 3 0;
#X connect 1 0 4 0;
#X connect 1 0 5 0;
#X restore 155 580 pd updateSliders;
#X obj 130 475 cnv 10 10 17 empty empty empty 20 12 0 14 -248036 -1
0;
#X obj 141 475 s \$0-sampleRate;
#X obj 69 169 r \$0-loadLast;
#X msg 141 451 \$1;
#X obj 47 275 getFolder;
#X obj 98 301 s \$0-sampleName;
#X obj 69 300 cnv 11 28 17 empty empty gui 2 9 0 14 -1 -262144 0;
#X obj 47 251 t s s;
#X connect 0 0 1 0;
#X connect 1 0 29 0;
#X connect 1 1 2 0;
#X connect 2 0 16 0;
#X connect 2 1 8 0;
#X connect 3 0 10 0;
#X connect 4 0 7 0;
#X connect 4 1 20 0;
#X connect 4 1 25 0;
#X connect 5 0 4 0;
#X connect 6 0 9 0;
#X connect 7 0 19 0;
#X connect 8 0 10 0;
#X connect 9 0 5 0;
#X connect 10 0 15 0;
#X connect 11 0 0 0;
#X connect 14 0 13 0;
#X connect 15 0 29 0;
#X connect 16 0 3 0;
#X connect 18 0 0 0;
#X connect 19 0 14 0;
#X connect 19 1 21 0;
#X connect 24 0 10 0;
#X connect 25 0 23 0;
#X connect 26 1 27 0;
#X connect 29 0 26 0;
#X connect 29 1 6 0;
#X restore 139 127 pd openFile;
#X obj 362 391 outlet;
#X obj 350 391 cnv 11 12 17 empty \$0-canvas 3 2 9 0 14 -1 -262144
0;
#X obj 196 392 cnv 11 12 17 empty \$0-canvas 2 2 9 0 14 -1 -262144
0;
#X obj 209 392 outlet~;
#X obj 56 388 cnv 11 12 17 empty \$0-canvas 1 2 9 0 14 -1 -262144 0
;
#X obj 69 388 outlet~;
#X obj 332 13 cnv 11 12 17 empty \$0-canvas 2 2 9 0 14 -1 -262144 0
;
#X obj 78 12 cnv 11 12 17 empty \$0-canvas 1 2 9 0 14 -1 -262144 0
;
#X obj 345 13 inlet~;
#X obj 351 348 cnv 10 10 17 empty empty empty 20 12 0 14 -82680 -1
0;
#X obj 362 348 r \$0-outlet;
#N canvas 0 50 526 259 toggleTabRead 0;
#X obj 58 163 cnv 10 10 17 empty empty empty 20 12 0 14 -257348 -1
0;
#X obj 69 163 s \$0-toggleTabRead;
#X obj 69 31 inlet;
#X obj 69 53 route float;
#X msg 69 75 \$1 \$1;
#X obj 69 97 route 0 1;
#X obj 151 124 print [sample~] tabRead accepts 0 (off) or 1 (on);
#X connect 2 0 3 0;
#X connect 3 0 4 0;
#X connect 3 1 6 0;
#X connect 4 0 5 0;
#X connect 5 0 1 0;
#X connect 5 1 1 0;
#X connect 5 2 6 0;
#X restore 187 97 pd toggleTabRead;
#N canvas 20 50 505 484 tabRead 0;
#X obj 269 101 switch~;
#X obj 269 65 tgl 15 0 empty empty empty 17 7 0 10 -262144 -1 -1 0
1;
#X obj 37 289 tabread~ \$0-left;
#X obj 162 289 tabread~ \$0-right;
#X obj 38 102 inlet~;
#X obj 163 102 inlet~;
#X obj 258 35 cnv 10 10 17 empty empty empty 20 12 0 14 -257348 -1
0;
#X obj 269 35 r \$0-toggleTabRead;
#X obj 133 189 metro 100;
#X obj 66 168 snapshot~;
#X obj 220 164 snapshot~;
#X msg 66 190 set \$1;
#X obj 66 212 s \$0-leftSliderRead;
#X msg 220 186 set \$1;
#X obj 220 209 s \$0-rightSliderRead;
#X obj 37 395 throw~ \$0-leftOut;
#X obj 162 375 throw~ \$0-rightOut;
#X connect 1 0 0 0;
#X connect 1 0 8 0;
#X connect 2 0 15 0;
#X connect 3 0 16 0;
#X connect 4 0 2 0;
#X connect 4 0 9 0;
#X connect 5 0 3 0;
#X connect 5 0 10 0;
#X connect 7 0 1 0;
#X connect 8 0 9 0;
#X connect 8 0 10 0;
#X connect 9 0 11 0;
#X connect 10 0 13 0;
#X connect 11 0 12 0;
#X connect 13 0 14 0;
#X restore 344 50 pd tabRead;
#X obj 623 179 bng 15 250 50 0 \$0-lastFolder empty empty 17 7 0 10
-262144 -1 -1;
#X text 642 179 last folder;
#N canvas 0 50 308 355 lastFolderLogic 0;
#N canvas 644 176 488 272 sub 0;
#X obj 27 22 inlet;
#X obj 27 44 list fromsymbol;
#X obj 27 88 list tosymbol;
#X obj 27 110 outlet;
#X obj 27 66 easyflow/listReplace 63 32;
#X text 27 143 this subpatch converts "?" again to whitespaces so;
#X text 28 169 [openpanel] can use the message to locate the files
;
#X connect 0 0 1 0;
#X connect 1 0 4 0;
#X connect 2 0 3 0;
#X connect 4 0 2 0;
#X restore 62 180 pd sub ? whitespace;
#X obj 51 221 cnv 10 10 17 empty empty empty 20 12 0 14 -36275 -1 0
;
#X obj 62 221 s \$0-openPanel;
#X obj 51 94 cnv 10 10 17 empty empty empty 20 12 0 14 -131136 -1 0
;
#X obj 62 94 r \$0-lastFolder;
#N canvas 419 126 602 300 lastSample 0;
#X obj 45 42 inlet;
#X msg 45 124 symbol C:/Vst/Samples/musicradar-spiritual-samples/musicradar-spiritual-samples/Chords/Fake_Choir/Fake_Choir_D#.wav
;
#X obj 45 196 outlet;
#X connect 0 0 1 0;
#X connect 1 0 2 0;
#X restore 62 123 pd lastSample;
#X obj 62 149 getFolder;
#X connect 0 0 2 0;
#X connect 4 0 5 0;
#X connect 5 0 6 0;
#X connect 6 0 0 0;
#X restore 87 453 pd lastFolderLogic;
#X obj 64 455 cnv 10 10 17 empty empty ● 1 5 0 15 -262144 -131136
0;
#X obj 74 455 cnv 10 10 17 empty empty ● 1 5 0 15 -262144 -36275
0;
#X obj 172 98 cnv 10 10 17 empty empty ● 1 5 0 15 -262144 -257348
0;
#X obj 331 53 cnv 10 10 17 empty empty ● 1 5 0 15 -262144 -257348
0;
#X obj 115 131 cnv 10 10 17 empty empty ● 1 5 0 15 -262144 -131136
0;
#X obj 125 131 cnv 10 10 17 empty empty ● 1 5 0 15 -262144 -36275
0;
#X obj 661 645 easyflow-info;
#X obj 513 201 tgl 15 0 \$0-setTabReadFromGUI \$0-tabReadGUI empty
17 7 0 10 -262144 -1 -1 0 1;
#X obj 509 265 cnv 10 10 17 empty empty empty 20 12 0 14 -257348 -1
0;
#X obj 520 265 r \$0-toggleTabRead;
#X msg 520 287 set \$1;
#X obj 520 309 s \$0-tabReadGUI;
#X text 534 200 toggle tab read;
#X obj 517 357 r \$0-setTabReadFromGUI;
#X floatatom 517 379 5 0 0 0 - - -, f 5;
#X obj 506 404 cnv 10 10 17 empty empty empty 20 12 0 14 -257348 -1
0;
#X obj 517 404 s \$0-toggleTabRead;
#X obj 514 147 hsl 95 8 0 223892 0 0 empty \$0-leftSlider empty -2
-8 0 10 -262144 -1 -1 0 1;
#X obj 625 147 hsl 95 8 0 223892 0 0 empty \$0-rightSlider empty -2
-8 0 10 -262144 -1 -1 0 1;
#X obj 514 159 hsl 95 8 0 223892 0 0 empty \$0-leftSliderRead empty
-2 -8 0 10 -262144 -258113 -1 0 1;
#X obj 625 159 hsl 95 8 0 223892 0 0 empty \$0-rightSliderRead empty
-2 -8 0 10 -262144 -258113 -1 0 1;
#N canvas 655 87 590 587 tabplaySliders 0;
#X floatatom 59 163 15 0 0 0 - - -, f 15;
#X obj 59 141 expr size("$s1");
#X obj 59 97 f \$0;
#X msg 59 119 symbol \$1-left;
#X obj 59 284 pack f f;
#X obj 86 253 * 1000;
#X floatatom 59 403 30 0 0 0 - - -, f 30;
#X obj 59 452 s \$0-leftSlider;
#X msg 59 422 set \$1;
#X obj 47 49 cnv 11 12 17 empty \$0-canvas L 2 9 0 14 -225763 -262144
0;
#X obj 59 49 r \$0-tabplayLeft;
#X obj 59 380 line;
#X msg 59 306 set 0 \, \$1 \$2;
#X floatatom 329 163 15 0 0 0 - - -, f 15;
#X obj 329 141 expr size("$s1");
#X obj 329 97 f \$0;
#X msg 329 119 symbol \$1-left;
#X obj 329 284 pack f f;
#X obj 356 253 * 1000;
#X floatatom 329 403 30 0 0 0 - - -, f 30;
#X msg 329 422 set \$1;
#X obj 317 49 cnv 11 12 17 empty \$0-canvas R 2 9 0 14 -225763 -262144
0;
#X obj 329 380 line;
#X msg 329 306 set 0 \, \$1 \$2;
#X obj 329 49 r \$0-tabplayRight;
#X obj 59 71 bng 15 250 50 0 empty empty empty 17 7 0 10 -262144 -1
-1;
#X obj 329 71 bng 15 250 50 0 empty empty empty 17 7 0 10 -262144 -1
-1;
#X obj 329 452 s \$0-rightSlider;
#X obj 81 343 cnv 10 10 17 empty empty empty 20 12 0 14 -134351 -1
0;
#X obj 92 343 r \$0-stop;
#X obj 351 343 cnv 10 10 17 empty empty empty 20 12 0 14 -134351 -1
0;
#X obj 362 343 r \$0-stop;
#X obj 102 203 cnv 10 10 17 empty empty empty 20 12 0 14 -248036 -1
0;
#X obj 113 203 r \$0-sampleRate;
#X obj 59 182 t f f;
#X obj 86 231 / 1;
#X obj 377 203 cnv 10 10 17 empty empty empty 20 12 0 14 -248036 -1
0;
#X obj 388 203 r \$0-sampleRate;
#X obj 329 182 t f f;
#X obj 356 231 / 1;
#X connect 0 0 34 0;
#X connect 1 0 0 0;
#X connect 2 0 3 0;
#X connect 3 0 1 0;
#X connect 4 0 12 0;
#X connect 5 0 4 1;
#X connect 6 0 8 0;
#X connect 8 0 7 0;
#X connect 10 0 25 0;
#X connect 11 0 6 0;
#X connect 12 0 11 0;
#X connect 13 0 38 0;
#X connect 14 0 13 0;
#X connect 15 0 16 0;
#X connect 16 0 14 0;
#X connect 17 0 23 0;
#X connect 18 0 17 1;
#X connect 19 0 20 0;
#X connect 20 0 27 0;
#X connect 22 0 19 0;
#X connect 23 0 22 0;
#X connect 24 0 26 0;
#X connect 25 0 2 0;
#X connect 26 0 15 0;
#X connect 29 0 11 0;
#X connect 31 0 22 0;
#X connect 33 0 35 1;
#X connect 34 0 4 0;
#X connect 34 1 35 0;
#X connect 35 0 5 0;
#X connect 37 0 39 1;
#X connect 38 0 17 0;
#X connect 38 1 39 0;
#X connect 39 0 18 0;
#X restore 97 512 pd tabplaySliders;
#X obj 91 34 route bang open tabRead stop;
#X obj 220 73 cnv 10 10 17 empty empty ● 1 5 0 15 -262144 -134351
0;
#N canvas 0 50 348 166 stop 0;
#X obj 58 103 cnv 10 10 17 empty empty empty 20 12 0 14 -134351 -1
0;
#X obj 69 31 inlet;
#X obj 69 103 s \$0-stop;
#X obj 69 53 bng 15 250 50 0 empty empty empty 17 7 0 10 -262144 -1
-1;
#X msg 69 73 stop;
#X connect 1 0 3 0;
#X connect 3 0 4 0;
#X connect 4 0 2 0;
#X restore 235 71 pd stop;
#X obj 79 210 cnv 11 12 17 empty \$0-canvas L 2 9 0 14 -225763 -262144
0;
#X obj 105 186 cnv 11 12 17 empty \$0-canvas R 2 9 0 14 -225763 -262144
0;
#X obj 117 186 s \$0-tabplayRight;
#X obj 91 210 s \$0-tabplayLeft;
#X obj 70 514 cnv 11 12 17 empty \$0-canvas L 2 9 0 14 -262144 -225763
0;
#X obj 80 514 cnv 11 12 17 empty \$0-canvas R 2 9 0 14 -262144 -225763
0;
#X obj 71 492 cnv 11 12 17 empty \$0-canvas L 2 9 0 14 -262144 -225763
0;
#X obj 81 492 cnv 11 12 17 empty \$0-canvas R 2 9 0 14 -262144 -225763
0;
#X floatatom 691 202 7 0 0 0 - #0-sampleRateDisplay -, f 7;
#X obj 272 632 s \$0-sampleRateDisplay;
#X obj 261 498 cnv 10 10 17 empty empty empty 20 12 0 14 -248036 -1
0;
#X obj 272 498 r \$0-sampleRate;
#X text 664 201 SR:;
#X obj 68 349 catch~ \$0-leftOut;
#X obj 208 349 catch~ \$0-rightOut;
#N canvas 0 50 639 654 tabplay 0;
#X msg 343 415 endRight;
#X obj 332 438 cnv 10 10 17 empty empty empty 20 12 0 14 -82680 -1
0;
#X obj 343 438 s \$0-outlet;
#X obj 120 460 cnv 10 10 17 empty empty empty 20 12 0 14 -82680 -1
0;
#X obj 131 460 s \$0-outlet;
#X msg 131 437 endLeft;
#X obj 200 164 cnv 10 10 17 empty empty empty 20 12 0 14 -248036 -1
0;
#X obj 211 164 r \$0-sampleRate;
#X obj 66 317 vline~;
#N canvas 0 50 450 300 getLeftSampleSize 0;
#X floatatom 59 163 15 0 0 0 - - -, f 15;
#X obj 59 141 expr size("$s1");
#X obj 59 97 f \$0;
#X msg 59 119 symbol \$1-left;
#X obj 59 71 bng 15 250 50 0 empty empty empty 17 7 0 10 -262144 -1
-1;
#X obj 59 38 inlet;
#X obj 59 182 outlet;
#X connect 0 0 6 0;
#X connect 1 0 0 0;
#X connect 2 0 3 0;
#X connect 3 0 1 0;
#X connect 4 0 2 0;
#X connect 5 0 4 0;
#X restore 66 105 pd getLeftSampleSize;
#N canvas 0 50 450 300 getRightSampleSize 0;
#X floatatom 59 163 15 0 0 0 - - -, f 15;
#X obj 59 141 expr size("$s1");
#X obj 59 97 f \$0;
#X obj 59 71 bng 15 250 50 0 empty empty empty 17 7 0 10 -262144 -1
-1;
#X obj 59 38 inlet;
#X obj 59 182 outlet;
#X msg 59 119 symbol \$1-right;
#X connect 0 0 5 0;
#X connect 1 0 0 0;
#X connect 2 0 6 0;
#X connect 3 0 2 0;
#X connect 4 0 3 0;
#X connect 6 0 1 0;
#X restore 349 98 pd getRightSampleSize;
#X obj 54 39 cnv 11 12 17 empty \$0-canvas L 2 9 0 14 -225763 -262144
0;
#X obj 66 39 r \$0-tabplayLeft;
#X obj 337 39 cnv 11 12 17 empty \$0-canvas R 2 9 0 14 -225763 -262144
0;
#X obj 349 39 r \$0-tabplayRight;
#X obj 66 127 trigger float float;
#X obj 66 219 pack float float;
#X msg 66 245 0 \, \$1 \$2 0;
#X obj 196 193 / 1;
#X obj 196 215 * 1000;
#X obj 66 391 throw~ \$0-leftOut;
#X obj 483 164 cnv 10 10 17 empty empty empty 20 12 0 14 -248036 -1
0;
#X obj 494 164 r \$0-sampleRate;
#X obj 349 317 vline~;
#X obj 349 127 trigger float float;
#X obj 349 219 pack float float;
#X msg 349 245 0 \, \$1 \$2 0;
#X obj 479 193 / 1;
#X obj 479 215 * 1000;
#X obj 349 339 tabread4~ \$0-right;
#X obj 349 386 throw~ \$0-rightOut;
#X obj 66 339 tabread4~ \$0-left;
#X floatatom 81 167 0 0 0 0 - - -;
#X obj 201 244 cnv 10 10 17 empty empty empty 20 12 0 14 -134351 -1
0;
#X obj 212 244 r \$0-stop;
#X msg 212 265 0;
#X obj 66 360 hip~ 5;
#X obj 349 360 hip~ 5;
#X connect 0 0 2 0;
#X connect 5 0 4 0;
#X connect 7 0 18 1;
#X connect 8 0 31 0;
#X connect 9 0 15 0;
#X connect 10 0 24 0;
#X connect 12 0 9 0;
#X connect 14 0 10 0;
#X connect 15 0 16 0;
#X connect 15 0 32 0;
#X connect 15 1 18 0;
#X connect 16 0 17 0;
#X connect 17 0 8 0;
#X connect 18 0 19 0;
#X connect 19 0 16 1;
#X connect 22 0 27 1;
#X connect 23 0 29 0;
#X connect 24 0 25 0;
#X connect 24 1 27 0;
#X connect 25 0 26 0;
#X connect 26 0 23 0;
#X connect 27 0 28 0;
#X connect 28 0 25 1;
#X connect 29 0 37 0;
#X connect 31 0 36 0;
#X connect 34 0 35 0;
#X connect 35 0 8 0;
#X connect 35 0 23 0;
#X connect 36 0 20 0;
#X connect 37 0 30 0;
#X restore 100 490 pd tabplay;
#X obj 299 162 key;
#X obj 299 184 sel 27;
#X obj 272 519 trigger float float;
#X obj 372 596 cnv 10 10 17 empty empty empty 20 12 0 14 -82680 -1
0;
#X obj 383 596 s \$0-outlet;
#X obj 383 544 list prepend sampleRate;
#X obj 383 565 list trim;
#X symbolatom 614 38 18 0 0 0 - #0-sampleName -, f 18;
#X connect 1 0 45 0;
#X connect 2 0 51 0;
#X connect 2 0 50 0;
#X connect 15 0 19 0;
#X connect 15 0 19 1;
#X connect 17 0 7 0;
#X connect 32 0 33 0;
#X connect 33 0 34 0;
#X connect 36 0 37 0;
#X connect 37 0 39 0;
#X connect 45 0 2 0;
#X connect 45 1 6 0;
#X connect 45 2 18 0;
#X connect 45 3 47 0;
#X connect 59 0 66 0;
#X connect 61 0 12 0;
#X connect 62 0 10 0;
#X connect 64 0 65 0;
#X connect 65 0 2 0;
#X connect 66 0 57 0;
#X connect 66 1 69 0;
#X connect 69 0 70 0;
#X connect 70 0 68 0;
#X coords 0 -1 1 1 250 190 1 500 30;
