#N canvas 753 303 771 579 10;
#X obj 113 16 inlet;
#X obj 113 460 send;
#X symbolatom 224 365 30 0 0 0 - - -;
#N canvas 0 50 505 422 testForType 0;
#X obj 45 25 inlet;
#X obj 45 47 trigger symbol symbol;
#X obj 168 81 easyflow/substring 0 1;
#X symbolatom 168 103 10 0 0 0 - - -;
#X obj 45 224 easyflow/switch2;
#X obj 168 201 tgl 15 0 empty empty empty 17 7 0 10 -262144 -1 -1 0
1;
#X symbolatom 45 350 30 0 0 0 - - -;
#X obj 45 369 outlet;
#X obj 168 122 select *;
#X obj 138 252 easyflow/substring 1 L;
#X msg 168 144 1;
#X msg 213 145 0;
#X msg 138 289 symbol easyflowObjectAccess\$1;
#X connect 0 0 1 0;
#X connect 1 0 4 0;
#X connect 1 1 2 0;
#X connect 2 0 3 0;
#X connect 3 0 8 0;
#X connect 4 0 6 0;
#X connect 4 1 9 0;
#X connect 5 0 4 1;
#X connect 6 0 7 0;
#X connect 8 0 10 0;
#X connect 8 1 11 0;
#X connect 9 0 12 0;
#X connect 10 0 5 0;
#X connect 11 0 5 0;
#X connect 12 0 6 0;
#X restore 224 257 pd testForType;
#X obj 384 281 inlet;
#X obj 100 16 cnv 11 12 17 empty empty 1 2 9 0 14 -1 -262144 0;
#X obj 371 281 cnv 11 12 17 empty empty 3 2 9 0 14 -1 -262144 0;
#X obj 172 91 list;
#X text 223 415 no need to use list because we are not using $ 1 anymore
;
#X obj 384 313 easyflow/symbolize;
#X symbolatom 384 335 10 0 0 0 - - -;
#X obj 271 155 list split 1;
#X obj 172 113 trigger list list;
#X obj 172 135 list split 1;
#X obj 113 204 t a;
#X obj 113 409 list trim;
#X text 199 277 if * use [objAccess];
#X obj 113 387 list prepend setMember \$2;
#X obj 224 221 symbol \$1;
#X obj 224 186 loadbang;
#X obj 300 185 inlet;
#X obj 287 185 cnv 11 12 17 empty empty 2 2 9 0 14 -1 -262144 0;
#X text 304 107 old routine to pass stuff like |somePerson favoriteFood(
;
#X text 131 47 not our responsibility to route stuff here so we just
send them!;
#X connect 0 0 14 0;
#X connect 2 0 1 1;
#X connect 3 0 2 0;
#X connect 4 0 9 0;
#X connect 7 0 12 0;
#X connect 9 0 10 0;
#X connect 10 0 17 1;
#X connect 11 0 18 0;
#X connect 12 0 13 0;
#X connect 12 1 11 0;
#X connect 13 1 14 0;
#X connect 14 0 17 0;
#X connect 15 0 1 0;
#X connect 17 0 15 0;
#X connect 18 0 3 0;
#X connect 19 0 18 0;
#X connect 20 0 18 0;
