#N canvas 420 118 369 467 10;
#X obj 64 32 inlet~;
#X obj 64 389 outlet~;
#X obj 163 140 sel 0 1;
#X msg 163 162 0;
#X msg 192 162 1;
#X floatatom 143 53 5 0 0 0 - - -, f 5;
#X obj 163 108 inlet n3 on off;
#X obj 83 264 line~;
#X obj 64 357 *~;
#X obj 83 242 pack f \$1;
#X obj 188 220 loadbang;
#N canvas 0 50 492 399 getArgument 0;
#X obj 141 25 inlet;
#X obj 264 109 makefilename $%d-test;
#X obj 141 84 trigger bang float;
#X obj 141 134 sel s;
#X obj 173 158 b;
#X obj 141 109 symbol \$1-test;
#X obj 173 183 list append \$1;
#X msg 141 51 1;
#X msg 141 206 20;
#X floatatom 141 268 5 0 0 0 - - -, f 5;
#X text 48 206 no argument;
#X obj 141 287 outlet;
#X text 36 340 https://forum.pdpatchrepo.info/topic/10892/collect-all-arguments-as-a-list/4
;
#X connect 0 0 7 0;
#X connect 1 0 3 1;
#X connect 2 0 5 0;
#X connect 2 1 1 0;
#X connect 3 0 8 0;
#X connect 3 1 4 0;
#X connect 4 0 6 0;
#X connect 5 0 3 0;
#X connect 6 0 9 0;
#X connect 7 0 2 0;
#X connect 8 0 9 0;
#X connect 9 0 11 0;
#X restore 188 243 pd getArgument;
#X obj 143 31 inlet;
#X text 187 30 fade time;
#X connect 0 0 8 0;
#X connect 2 0 3 0;
#X connect 2 1 4 0;
#X connect 3 0 9 0;
#X connect 4 0 9 0;
#X connect 5 0 9 1;
#X connect 6 0 2 0;
#X connect 7 0 8 1;
#X connect 8 0 1 0;
#X connect 9 0 7 0;
#X connect 10 0 11 0;
#X connect 11 0 9 1;
#X connect 12 0 5 0;
