#N canvas 521 385 476 404 10;
#X obj 58 186 printHere -s;
#X obj 359 366 easyflow-info;
#X obj 127 122 loadbang;
#X msg 58 121 abc;
#X msg 127 143 symbol abcabcxyzABC;
#X obj 58 302 printHere -s;
#X obj 145 238 loadbang;
#X msg 58 239 abc;
#X msg 145 259 symbol abcabcxyzABC;
#X text 50 9 [stringSearch] lets you find substrings on a string.;
#N canvas 0 50 446 215 string indexes 0;
#X text 45 49 1st index is inclusive;
#X text 45 68 2nd index is exclusive;
#X text 28 121 It might help to think of a selection.;
#X obj 277 121 cnv 11 25 18 empty empty a 2 9 0 16 -1 -262144 0;
#X text 271 104 0;
#X text 286 104 1;
#X obj 293 121 cnv 11 25 18 empty empty b 2 9 0 16 -1 -262144 0;
#X obj 309 121 cnv 11 25 18 empty empty c 2 9 0 16 -2112 -262144 0
;
#X obj 324 121 cnv 11 25 18 empty empty d 2 9 0 16 -2112 -262144 0
;
#X obj 342 121 cnv 11 25 18 empty empty e 2 9 0 16 -1 -262144 0;
#X obj 358 121 cnv 11 25 18 empty empty f 2 9 0 16 -1 -262144 0;
#X obj 377 121 cnv 11 20 18 empty empty g 2 9 0 16 -1 -262144 0;
#X text 303 104 2;
#X text 318 104 3;
#X text 334 104 4;
#X text 351 104 5;
#X text 370 104 6;
#X text 389 104 7;
#X text 290 81 [substring 2 4];
#X restore 346 193 pd string indexes;
#X text 53 29 Output is a list of the found indexes. it outputs -1
if there were no matches.;
#X msg 89 121 ABC;
#X msg 88 239 ABC;
#X text 49 83 INLET 2: haystack;
#X text 49 67 INLET 1: needles;
#X text 246 66 if you need inverted inlets use;
#X obj 58 165 stringSearch;
#X obj 58 281 stringSearch -i;
#X obj 282 87 searchIncomingStrings;
#X text 161 282 use the -i flag for case [I]nsensivity;
#X connect 2 0 4 0;
#X connect 3 0 17 0;
#X connect 4 0 17 1;
#X connect 6 0 8 0;
#X connect 7 0 18 0;
#X connect 8 0 18 1;
#X connect 12 0 17 0;
#X connect 13 0 18 0;
#X connect 17 0 0 0;
#X connect 18 0 5 0;
