#N canvas 509 133 865 394 10;
#X symbolatom 127 115 0 0 0 0 - - -;
#X obj 127 15 tgl 15 0 empty empty empty 17 7 0 10 -262144 -1 -1 1
1;
#X obj 127 37 metro 600;
#X symbolatom 127 275 0 0 0 0 - - -;
#X obj 127 175 tgl 15 0 empty empty empty 17 7 0 10 -262144 -1 -1 1
1;
#X obj 127 197 metro 600;
#X symbolatom 327 275 0 0 0 0 - - -;
#X obj 327 175 tgl 15 0 empty empty empty 17 7 0 10 -262144 -1 -1 1
1;
#X obj 327 197 metro 600;
#X msg 327 231 symbol ABCDE;
#X msg 127 71 symbol DontYouLikeAndroidFriendOfMine;
#X msg 126 232 symbol ABCDEF;
#X obj 327 252 stringReplace BCD zzz;
#X obj 127 92 stringReplace Android Windows;
#X obj 127 252 stringReplace BCD zzz;
#X symbolatom 517 275 0 0 0 0 - - -;
#X obj 517 175 tgl 15 0 empty empty empty 17 7 0 10 -262144 -1 -1 1
1;
#X obj 517 197 metro 600;
#X obj 517 252 stringReplace test IHIHHI;
#X msg 517 231 symbol testhahahatesthahahtestT;
#X connect 1 0 2 0;
#X connect 2 0 10 0;
#X connect 4 0 5 0;
#X connect 5 0 11 0;
#X connect 7 0 8 0;
#X connect 8 0 9 0;
#X connect 9 0 12 0;
#X connect 10 0 13 0;
#X connect 11 0 14 0;
#X connect 12 0 6 0;
#X connect 13 0 0 0;
#X connect 14 0 3 0;
#X connect 16 0 17 0;
#X connect 17 0 19 0;
#X connect 18 0 15 0;
#X connect 19 0 18 0;
