#N canvas 0 50 757 602 10;
#X obj 71 21 inlet;
#X obj 71 379 list split 666;
#X obj 347 325 trigger f f;
#X obj 329 419 -;
#X obj 118 448 list split 666;
#X obj 118 492 outlet;
#X obj 351 120 inlet;
#X obj 489 120 inlet;
#X obj 59 21 cnv 11 12 17 empty empty 1 2 9 0 14 -1 -262144 0;
#X obj 339 120 cnv 11 12 17 empty empty 2 2 9 0 14 -1 -262144 0;
#X obj 476 120 cnv 11 12 17 empty empty 3 2 9 0 14 -1 -262144 0;
#X obj 105 492 cnv 11 12 17 empty empty 1 2 9 0 14 -1 -262144 0;
#N canvas 0 50 460 134 printError 0;
#X obj 30 47 print easyflow/substring: not a symbol;
#X obj 30 16 inlet;
#X connect 1 0 0 0;
#X restore 138 73 pd printError;
#X obj 71 249 trigger anything bang;
#X obj 329 232 list 666 \$2;
#X obj 329 55 trigger bang bang;
#X obj 445 209 list 666 \$1;
#X floatatom 329 281 5 0 0 0 - - -, f 5;
#X floatatom 445 281 5 0 0 0 - - -, f 5;
#X obj 351 161 list prepend 666;
#X obj 489 161 list prepend 666;
#X obj 71 115 trigger a a;
#X obj 145 139 list length;
#X obj 145 161 v \$0-length;
#X obj 133 161 cnv 11 12 17 empty empty empty 2 9 0 14 -74219 -262144
0;
#X obj 71 43 route list;
#N canvas 825 147 291 337 getMin 0;
#X obj 45 13 inlet;
#X msg 45 35 \$2;
#X obj 45 57 else/display;
#X obj 83 114 bng 15 250 50 0 empty empty empty 17 7 0 10 -262144 -1
-1;
#X obj 45 84 route float L l;
#X obj 45 266 outlet;
#X obj 83 135 v \$0-length;
#X obj 71 135 cnv 11 12 17 empty empty empty 2 9 0 14 -74219 -262144
0;
#X floatatom 83 157 5 0 0 0 - - -, f 5;
#N canvas 0 50 302 320 posAndNeg 0;
#X obj 34 263 outlet;
#X obj 34 27 inlet;
#X obj 34 49 moses 0;
#X floatatom 34 76 5 0 0 0 - - -, f 5;
#X floatatom 91 76 5 0 0 0 - - -, f 5;
#X obj 22 181 cnv 11 12 17 empty empty empty 2 9 0 14 -74219 -262144
0;
#X obj 34 181 v \$0-length;
#X obj 34 145 trigger b f;
#X obj 34 223 +;
#X obj 34 95 + 1;
#X text 65 96 make index 1-based;
#X connect 1 0 2 0;
#X connect 2 0 3 0;
#X connect 2 1 4 0;
#X connect 3 0 9 0;
#X connect 4 0 0 0;
#X connect 6 0 8 0;
#X connect 7 0 6 0;
#X connect 7 1 8 1;
#X connect 8 0 0 0;
#X connect 9 0 7 0;
#X restore 45 178 pd posAndNeg;
#X floatatom 45 200 5 0 0 0 - - -, f 5;
#X obj 45 239 - 1;
#X text 76 239 make index 1-based;
#X connect 0 0 1 0;
#X connect 1 0 2 0;
#X connect 2 0 4 0;
#X connect 3 0 6 0;
#X connect 4 0 9 0;
#X connect 4 1 3 0;
#X connect 4 2 3 0;
#X connect 6 0 8 0;
#X connect 8 0 5 0;
#X connect 9 0 10 0;
#X connect 10 0 11 0;
#X connect 11 0 5 0;
#X restore 445 259 pd getMin;
#N canvas 825 147 300 321 getMax 0;
#X obj 45 13 inlet;
#X msg 45 35 \$2;
#X obj 45 57 else/display;
#X obj 83 114 bng 15 250 50 0 empty empty empty 17 7 0 10 -262144 -1
-1;
#X obj 45 84 route float L l;
#X obj 45 256 outlet;
#X obj 83 135 v \$0-length;
#X obj 71 135 cnv 11 12 17 empty empty empty 2 9 0 14 -74219 -262144
0;
#X floatatom 83 157 5 0 0 0 - - -, f 5;
#N canvas 0 50 302 320 posAndNeg 0;
#X obj 34 263 outlet;
#X obj 34 27 inlet;
#X obj 34 49 moses 0;
#X floatatom 34 76 5 0 0 0 - - -, f 5;
#X floatatom 91 76 5 0 0 0 - - -, f 5;
#X obj 22 181 cnv 11 12 17 empty empty empty 2 9 0 14 -74219 -262144
0;
#X obj 34 181 v \$0-length;
#X obj 34 145 trigger b f;
#X obj 34 223 +;
#X obj 34 95 + 1;
#X text 77 94 make index 1-based;
#X connect 1 0 2 0;
#X connect 2 0 3 0;
#X connect 2 1 4 0;
#X connect 3 0 9 0;
#X connect 4 0 0 0;
#X connect 6 0 8 0;
#X connect 7 0 6 0;
#X connect 7 1 8 1;
#X connect 8 0 0 0;
#X connect 9 0 7 0;
#X restore 45 178 pd posAndNeg;
#X floatatom 45 200 5 0 0 0 - - -, f 5;
#X obj 45 229 - 1;
#X text 76 229 make index 1-based;
#X connect 0 0 1 0;
#X connect 1 0 2 0;
#X connect 2 0 4 0;
#X connect 3 0 6 0;
#X connect 4 0 9 0;
#X connect 4 1 3 0;
#X connect 4 2 3 0;
#X connect 6 0 8 0;
#X connect 8 0 5 0;
#X connect 9 0 10 0;
#X connect 10 0 11 0;
#X connect 11 0 5 0;
#X restore 329 259 pd getMax;
#X connect 0 0 25 0;
#X connect 1 1 4 0;
#X connect 2 0 3 1;
#X connect 2 1 1 1;
#X connect 3 0 4 1;
#X connect 4 0 5 0;
#X connect 6 0 19 0;
#X connect 7 0 20 0;
#X connect 13 0 1 0;
#X connect 13 1 15 0;
#X connect 14 0 27 0;
#X connect 15 0 14 0;
#X connect 15 1 16 0;
#X connect 16 0 26 0;
#X connect 17 0 3 0;
#X connect 18 0 2 0;
#X connect 19 0 16 1;
#X connect 20 0 14 1;
#X connect 21 0 13 0;
#X connect 21 1 22 0;
#X connect 22 0 23 0;
#X connect 25 0 21 0;
#X connect 25 1 12 0;
#X connect 26 0 18 0;
#X connect 27 0 17 0;
