#N canvas 209 262 546 413 10;
#X obj 71 21 inlet;
#X obj 71 43 route symbol;
#X msg 71 135 symbol \$1;
#X obj 246 22 loadbang;
#X obj 246 44 bng 15 250 50 0 empty empty empty 17 7 0 10 -262144 -1
-1;
#X obj 71 167 list fromsymbol;
#X obj 71 239 list split 666;
#X obj 246 140 f \$1;
#X obj 118 290 list tosymbol;
#X obj 118 312 outlet;
#X obj 266 87 inlet;
#X floatatom 266 109 5 0 0 0 - - -, f 5;
#X obj 59 21 cnv 11 12 17 empty empty 1 2 9 0 14 -1 -262144 0;
#X obj 254 87 cnv 11 12 17 empty empty 2 2 9 0 14 -1 -262144 0;
#X obj 105 312 cnv 11 12 17 empty empty 1 2 9 0 14 -1 -262144 0;
#N canvas 0 50 460 134 printError 0;
#X obj 30 16 inlet;
#X obj 30 47 print easyflow/substringFromStart: not a symbol;
#X connect 0 0 1 0;
#X restore 116 75 pd printError;
#X connect 0 0 1 0;
#X connect 1 0 2 0;
#X connect 1 1 15 0;
#X connect 2 0 5 0;
#X connect 3 0 4 0;
#X connect 4 0 7 0;
#X connect 5 0 6 0;
#X connect 6 1 8 0;
#X connect 7 0 6 1;
#X connect 8 0 9 0;
#X connect 10 0 11 0;
#X connect 11 0 7 0;
