#N canvas 44 258 686 585 10;
#X obj 71 21 inlet;
#X msg 71 155 symbol \$1;
#X obj 71 187 list fromsymbol;
#X obj 71 369 list split 666;
#X obj 329 379 -;
#X obj 111 434 list split 666;
#X obj 111 470 list tosymbol;
#X obj 111 492 outlet;
#X obj 351 80 inlet;
#X obj 489 80 inlet;
#X obj 59 21 cnv 11 12 17 empty empty 1 2 9 0 14 -1 -262144 0;
#X obj 339 80 cnv 11 12 17 empty empty 2 2 9 0 14 -1 -262144 0;
#X obj 476 80 cnv 11 12 17 empty empty 3 2 9 0 14 -1 -262144 0;
#X obj 98 492 cnv 11 12 17 empty empty 1 2 9 0 14 -1 -262144 0;
#X obj 71 95 trigger s s;
#N canvas 0 50 300 191 getLength 0;
#X obj 60 35 inlet;
#X obj 60 57 list fromsymbol;
#X obj 60 79 list length;
#X obj 60 101 v \$0-length;
#X obj 48 101 cnv 11 12 17 empty empty empty 2 9 0 14 -74219 -262144
0;
#X connect 0 0 1 0;
#X connect 1 0 2 0;
#X connect 2 0 3 0;
#X restore 134 130 pd getLength;
#X obj 121 134 cnv 10 10 17 empty empty ● 1 5 0 15 -262144 -74219
0;
#X obj 71 209 trigger anything bang;
#N canvas 475 62 622 448 get 0;
#X obj 45 13 inlet;
#X msg 45 35 \$2;
#X obj 83 114 bng 15 250 50 0 empty empty empty 17 7 0 10 -262144 -1
-1;
#X obj 45 84 route float L l;
#X obj 45 236 outlet;
#X obj 83 135 v \$0-length;
#X obj 71 135 cnv 11 12 17 empty empty empty 2 9 0 14 -74219 -262144
0;
#X floatatom 83 157 5 0 0 0 - - -;
#N canvas 0 50 302 320 posAndNeg 0;
#X obj 34 263 outlet;
#X obj 34 27 inlet;
#X obj 34 49 moses 0;
#X floatatom 34 76 5 0 0 0 - - -;
#X floatatom 91 76 5 0 0 0 - - -;
#X obj 22 181 cnv 11 12 17 empty empty empty 2 9 0 14 -74219 -262144
0;
#X obj 34 181 v \$0-length;
#X obj 34 145 trigger b f;
#X obj 34 223 +;
#X connect 1 0 2 0;
#X connect 2 0 3 0;
#X connect 2 1 4 0;
#X connect 3 0 7 0;
#X connect 4 0 0 0;
#X connect 6 0 8 0;
#X connect 7 0 6 0;
#X connect 7 1 8 1;
#X connect 8 0 0 0;
#X restore 45 178 pd posAndNeg;
#X floatatom 45 200 5 0 0 0 - - -;
#X connect 0 0 1 0;
#X connect 1 0 3 0;
#X connect 2 0 5 0;
#X connect 3 0 8 0;
#X connect 3 1 2 0;
#X connect 3 2 2 0;
#X connect 5 0 7 0;
#X connect 7 0 4 0;
#X connect 8 0 9 0;
#X connect 9 0 4 0;
#X restore 329 219 pd get;
#X obj 329 192 list 666 \$2;
#X obj 329 15 trigger bang bang;
#X obj 445 169 list 666 \$1;
#X floatatom 329 241 5 0 0 0 - - -;
#N canvas 825 147 622 448 get 0;
#X obj 45 13 inlet;
#X msg 45 35 \$2;
#X obj 83 114 bng 15 250 50 0 empty empty empty 17 7 0 10 -262144 -1
-1;
#X obj 45 84 route float L l;
#X obj 45 236 outlet;
#X obj 83 135 v \$0-length;
#X obj 71 135 cnv 11 12 17 empty empty empty 2 9 0 14 -74219 -262144
0;
#X floatatom 83 157 5 0 0 0 - - -;
#N canvas 0 50 302 320 posAndNeg 0;
#X obj 34 263 outlet;
#X obj 34 27 inlet;
#X obj 34 49 moses 0;
#X floatatom 34 76 5 0 0 0 - - -;
#X floatatom 91 76 5 0 0 0 - - -;
#X obj 22 181 cnv 11 12 17 empty empty empty 2 9 0 14 -74219 -262144
0;
#X obj 34 181 v \$0-length;
#X obj 34 145 trigger b f;
#X obj 34 223 +;
#X connect 1 0 2 0;
#X connect 2 0 3 0;
#X connect 2 1 4 0;
#X connect 3 0 7 0;
#X connect 4 0 0 0;
#X connect 6 0 8 0;
#X connect 7 0 6 0;
#X connect 7 1 8 1;
#X connect 8 0 0 0;
#X restore 45 178 pd posAndNeg;
#X floatatom 45 200 5 0 0 0 - - -;
#X connect 0 0 1 0;
#X connect 1 0 3 0;
#X connect 2 0 5 0;
#X connect 3 0 8 0;
#X connect 3 1 2 0;
#X connect 3 2 2 0;
#X connect 5 0 7 0;
#X connect 7 0 4 0;
#X connect 8 0 9 0;
#X connect 9 0 4 0;
#X restore 445 219 pd get;
#X floatatom 445 241 5 0 0 0 - - -;
#X obj 351 121 list prepend 666;
#X obj 489 121 list prepend 666;
#X obj 312 223 cnv 10 10 17 empty empty ● 1 5 0 15 -262144 -74219
0;
#X obj 430 223 cnv 10 10 17 empty empty ● 1 5 0 15 -262144 -74219
0;
#X obj 71 42 symbolize;
#X obj 71 63 trigger symbol symbol;
#X obj 182 88 cnv 11 12 17 empty empty empty 2 9 0 14 -35464 -262144
0;
#X obj 194 88 s \$0-input;
#X obj 352 451 cnv 11 12 17 empty empty empty 2 9 0 14 -35464 -262144
0;
#X obj 364 451 r \$0-input;
#X obj 331 472 symbol;
#X obj 140 395 cnv 11 12 17 empty empty empty 2 9 0 14 -258113 -262144
0;
#X obj 319 431 cnv 11 12 17 empty empty empty 2 9 0 14 -258113 -262144
0;
#X obj 331 431 r \$0-error;
#X obj 152 395 s \$0-error;
#X obj 344 275 t f f;
#X obj 331 452 bng 15 250 50 0 empty empty empty 17 7 0 10 -262144
-1 -1;
#X obj 331 494 outlet;
#X obj 318 494 cnv 11 12 17 empty empty 2 2 9 0 14 -1 -262144 0;
#X connect 0 0 29 0;
#X connect 1 0 2 0;
#X connect 2 0 17 0;
#X connect 3 1 5 0;
#X connect 3 2 39 0;
#X connect 4 0 5 1;
#X connect 5 0 6 0;
#X connect 5 2 39 0;
#X connect 6 0 7 0;
#X connect 8 0 25 0;
#X connect 9 0 26 0;
#X connect 14 0 1 0;
#X connect 14 1 15 0;
#X connect 17 0 3 0;
#X connect 17 1 20 0;
#X connect 18 0 22 0;
#X connect 19 0 18 0;
#X connect 20 0 19 0;
#X connect 20 1 21 0;
#X connect 21 0 23 0;
#X connect 22 0 4 0;
#X connect 23 0 24 0;
#X connect 24 0 40 0;
#X connect 25 0 21 1;
#X connect 26 0 19 1;
#X connect 29 0 30 0;
#X connect 30 0 14 0;
#X connect 30 1 32 0;
#X connect 34 0 35 1;
#X connect 35 0 42 0;
#X connect 38 0 41 0;
#X connect 40 0 4 1;
#X connect 40 1 3 1;
#X connect 41 0 35 0;
