#N canvas 149 50 582 601 10;
#N canvas 0 50 450 300 for 0;
#X obj 26 18 inlet;
#X obj 26 90 until;
#X obj 26 123 f;
#X obj 26 40 trigger float bang;
#X obj 61 123 + 1;
#X obj 26 221 outlet leftmost = bang;
#X obj 26 145 trigger bang float;
#X obj 131 176 outlet rightmost = index;
#X msg 131 69 1;
#X text 181 37 This is part of easyflow library of abstractions.;
#X text 181 67 Created by Henri Augusto - v1.0 - 11 July 2015;
#X text 181 86 henriaugusto.github.io;
#X connect 0 0 3 0;
#X connect 1 0 2 0;
#X connect 2 0 4 0;
#X connect 2 0 6 0;
#X connect 3 0 1 0;
#X connect 3 1 8 0;
#X connect 4 0 2 1;
#X connect 6 0 5 0;
#X connect 6 1 7 0;
#X connect 8 0 2 1;
#X restore 263 102 pd for;
#X obj 174 428 r \$0-Toggle1;
#X obj 382 459 tgl 15 0 empty empty empty 17 7 0 10 -262144 -1 -1 0
1;
#X obj 382 426 r \$0-Toggle2;
#X obj 343 335 send;
#X obj 296 158 route;
#X floatatom 323 78 5 0 0 0 - - -, f 5;
#X obj 263 56 trigger b f;
#X obj 296 210 t b f;
#X obj 343 180 t b f;
#N canvas 256 98 450 300 makeSendSymbol 0;
#X msg 74 57 symbol -Toggle\$1;
#X msg 74 171 1004-Toggle2;
#X obj 74 101 pack \$0 s;
#X obj 74 79 t b s;
#X msg 74 123 set \$1\$2;
#X obj 74 145 t b a;
#N canvas 0 50 450 300 Symbolyze 0;
#X obj 66 18 inlet;
#X obj 66 42 list prepend symbol;
#X obj 66 64 list trim;
#X obj 66 86 outlet;
#X connect 0 0 1 0;
#X connect 1 0 2 0;
#X connect 2 0 3 0;
#X restore 74 193 pd Symbolyze;
#X obj 74 26 inlet;
#X obj 74 215 outlet;
#X connect 0 0 3 0;
#X connect 1 0 6 0;
#X connect 2 0 4 0;
#X connect 3 0 2 0;
#X connect 3 1 2 1;
#X connect 4 0 5 0;
#X connect 5 0 1 0;
#X connect 5 1 1 0;
#X connect 6 0 8 0;
#X connect 7 0 0 0;
#X restore 375 234 pd makeSendSymbol;
#X msg 296 263 1;
#X msg 343 263 0;
#X symbolatom 368 312 15 0 0 0 - - -, f 15;
#X obj 251 132 pack f f;
#X obj 31 84 s~ \$0-spigots;
#X obj 72 394 r~ \$0-spigots;
#X obj 280 399 r~ \$0-spigots;
#X obj 174 450 tgl 15 0 empty empty empty 17 7 0 10 -262144 -1 -1 1
1;
#X obj 157 42 loadbang;
#X obj 263 26 + 1;
#X msg 157 64 1;
#X obj 72 518 outlet~;
#X obj 280 513 outlet~;
#X msg 263 78 2;
#X obj 72 476 spigot~ \$1;
#X obj 280 481 spigot~ \$1;
#X obj 19 42 cnv 11 12 17 empty empty 1 2 9 0 14 -1 -262144 0;
#X obj 200 342 cnv 11 12 17 empty empty 2 2 9 0 14 -1 -262144 0;
#X obj 250 4 cnv 11 12 17 empty empty 3 2 9 0 14 -1 -262144 0;
#X obj 31 42 inlet~;
#X obj 263 4 inlet;
#X obj 213 342 inlet;
#X floatatom 213 364 5 0 0 0 - - -, f 5;
#X connect 0 1 14 1;
#X connect 0 1 14 0;
#X connect 1 0 18 0;
#X connect 2 0 26 2;
#X connect 3 0 2 0;
#X connect 5 0 8 0;
#X connect 5 1 9 0;
#X connect 6 0 5 1;
#X connect 7 0 24 0;
#X connect 7 1 6 0;
#X connect 8 0 11 0;
#X connect 8 1 10 0;
#X connect 9 0 12 0;
#X connect 9 1 10 0;
#X connect 10 0 13 0;
#X connect 11 0 4 0;
#X connect 12 0 4 0;
#X connect 13 0 4 1;
#X connect 14 0 5 0;
#X connect 16 0 25 0;
#X connect 17 0 26 0;
#X connect 18 0 25 2;
#X connect 19 0 21 0;
#X connect 20 0 7 0;
#X connect 21 0 7 0;
#X connect 24 0 0 0;
#X connect 25 0 22 0;
#X connect 26 0 23 0;
#X connect 30 0 15 0;
#X connect 31 0 20 0;
#X connect 32 0 33 0;
#X connect 33 0 25 1;
#X connect 33 0 26 1;
