#N canvas 228 54 306 393 10;
#X floatatom 89 70 5 0 0 0 - - -;
#X obj 149 27 loadbang;
#X msg 149 49 0;
#X obj 41 28 inlet;
#X obj 89 28 inlet;
#X obj 41 184 send;
#X obj 51 306 outlet;
#X obj 121 306 outlet;
#X obj 89 90 clip 0 1;
#X obj 89 111 list prepend \$0;
#X msg 89 132 symbol \$1-out\$2;
#X symbolatom 89 158 19 0 0 0 - - -;
#X obj 51 276 r \$0-out0;
#X obj 121 276 r \$0-out1;
#X connect 0 0 8 0;
#X connect 1 0 2 0;
#X connect 2 0 0 0;
#X connect 3 0 5 0;
#X connect 4 0 0 0;
#X connect 8 0 9 0;
#X connect 9 0 10 0;
#X connect 10 0 11 0;
#X connect 11 0 5 1;
#X connect 12 0 6 0;
#X connect 13 0 7 0;
