#N canvas 0 50 563 402 10;
#X floatatom 89 70 5 0 0 0 - - -, f 5;
#X obj 149 27 loadbang;
#X msg 149 49 0;
#X obj 41 28 inlet;
#X obj 89 28 inlet;
#X obj 41 184 send;
#X obj 51 306 outlet;
#X obj 121 306 outlet;
#X obj 89 111 list prepend \$0;
#X msg 89 132 symbol \$1-out\$2;
#X symbolatom 89 158 10 0 0 0 - - -, f 10;
#X obj 51 276 r \$0-out0;
#X obj 121 276 r \$0-out1;
#X obj 191 306 outlet;
#X obj 261 306 outlet;
#X obj 191 276 r \$0-out2;
#X obj 261 276 r \$0-out3;
#X obj 328 306 outlet;
#X obj 328 276 r \$0-out4;
#X obj 398 306 outlet;
#X obj 398 276 r \$0-out5;
#X obj 89 90 clip 0 5;
#X connect 0 0 21 0;
#X connect 1 0 2 0;
#X connect 2 0 0 0;
#X connect 3 0 5 0;
#X connect 4 0 0 0;
#X connect 8 0 9 0;
#X connect 9 0 10 0;
#X connect 10 0 5 1;
#X connect 11 0 6 0;
#X connect 12 0 7 0;
#X connect 15 0 13 0;
#X connect 16 0 14 0;
#X connect 18 0 17 0;
#X connect 20 0 19 0;
#X connect 21 0 8 0;
