#N canvas 293 54 631 403 10;
#X obj 41 53 inlet left;
#X obj 147 26 inlet right;
#X floatatom 147 48 5 0 0 0 - - -, f 5;
#X obj 147 67 sel 0;
#X obj 41 224 spigot;
#X obj 74 199 tgl 15 0 empty empty empty 17 7 0 10 -262144 -1 -1 1
1;
#X obj 111 224 spigot;
#X obj 144 199 tgl 15 0 empty empty empty 17 7 0 10 -262144 -1 -1 0
1;
#X msg 137 141 0;
#X msg 74 141 1;
#X obj 74 119 trigger b b;
#X msg 237 143 0;
#X msg 174 143 1;
#X obj 174 121 trigger b b;
#X obj 41 75 t a a;
#X obj 41 286 outlet left;
#X obj 111 256 outlet right;
#X obj 200 54 loadbang;
#X msg 200 76 0;
#X connect 0 0 14 0;
#X connect 1 0 2 0;
#X connect 2 0 3 0;
#X connect 3 0 10 0;
#X connect 3 1 13 0;
#X connect 4 0 15 0;
#X connect 5 0 4 1;
#X connect 6 0 16 0;
#X connect 7 0 6 1;
#X connect 8 0 7 0;
#X connect 9 0 5 0;
#X connect 10 0 9 0;
#X connect 10 1 8 0;
#X connect 11 0 5 0;
#X connect 12 0 7 0;
#X connect 13 0 12 0;
#X connect 13 1 11 0;
#X connect 14 0 4 0;
#X connect 14 1 6 0;
#X connect 17 0 18 0;
#X connect 18 0 2 0;
