#N canvas 637 54 548 549 10;
#X obj 435 508 easyflow-info;
#X obj 106 141 tgl 15 0 empty empty empty 17 7 0 10 -262144 -1 -1 0
1;
#X floatatom 106 163 5 0 0 0 - - -, f 5;
#X obj 60 71 loadbang;
#X obj 60 93 metro 333;
#X floatatom 60 211 5 0 0 0 - - -, f 5;
#X floatatom 106 211 5 0 0 0 - - -, f 5;
#N canvas 0 50 450 300 counter 0;
#X obj 109 111 inlet rightmost - set counter;
#X obj 63 244 outlet;
#X obj 63 191 + 1;
#X obj 51 29 cnv 8 11 17 empty empty 1 2 9 0 14 -1 -262144 0;
#X obj 63 29 inlet bang to number;
#X obj 97 111 cnv 8 11 17 empty empty 2 2 9 0 14 -1 -262144 0;
#X obj 63 51 route float bang set increment;
#X obj 270 77 print -n [easyflow/counter] error! invalid input:;
#X obj 52 244 cnv 8 11 17 empty empty 1 2 9 0 14 -1 -262144 0;
#X obj 63 213 trigger float float;
#X obj 63 163 float 0;
#X connect 0 0 10 1;
#X connect 2 0 9 0;
#X connect 4 0 6 0;
#X connect 6 0 10 0;
#X connect 6 1 10 0;
#X connect 6 2 10 1;
#X connect 6 3 2 1;
#X connect 6 4 7 0;
#X connect 9 0 1 0;
#X connect 9 1 10 1;
#X connect 10 0 2 0;
#X restore 60 117 pd counter;
#X obj 122 286 switch3;
#X text 37 286 see also:;
#X obj 123 313 switch4;
#X obj 123 343 switch5, f 9;
#X obj 123 373 switch6, f 11;
#X obj 123 401 switch7, f 13;
#X text 237 366 numbers from 0 to n-1 and have n outlets.;
#X text 124 430 enter edit mode and drag the right-edge of;
#X text 122 448 the objects to make them wider;
#X floatatom 332 213 5 0 0 0 - - -, f 5;
#X obj 332 237 switch3, f 9;
#X floatatom 332 269 5 0 0 0 - - -, f 5;
#X floatatom 357 293 5 0 0 0 - - -, f 5;
#X floatatom 383 270 5 0 0 0 - - -, f 5;
#X obj 383 192 hradio 15 1 0 3 empty empty empty 0 -8 0 10 -262144
-1 -1 0;
#X obj 129 477 switch7;
#X obj 128 503 switch7, f 13;
#X text 55 20 [switch2] passes it's input through it's left or right
outlet depending on what you send on it's cold inlet.;
#X obj 60 189 switch2;
#X text 151 143 0 - passes through left inlet;
#X text 151 163 1 - passes through it's right inlet.;
#X text 152 118 Cold inlet:;
#X text 236 330 The rest of the switch family;
#X text 238 348 works exactly the same way but accepts;
#X floatatom 383 212 5 0 0 0 - - -, f 5;
#X connect 1 0 2 0;
#X connect 2 0 26 1;
#X connect 3 0 4 0;
#X connect 4 0 7 0;
#X connect 7 0 26 0;
#X connect 17 0 18 0;
#X connect 18 0 19 0;
#X connect 18 1 20 0;
#X connect 18 2 21 0;
#X connect 22 0 32 0;
#X connect 26 0 5 0;
#X connect 26 1 6 0;
#X connect 32 0 18 1;
