#N canvas 109 256 995 617 10;
#X obj 74 459 tgl 15 0 empty empty empty 17 7 0 10 -262144 -1 -1 1
1;
#N canvas 0 50 450 300 for 0;
#X obj 26 18 inlet;
#X obj 26 90 until;
#X obj 26 123 f;
#X obj 26 40 trigger float bang;
#X obj 61 123 + 1;
#X obj 26 221 outlet leftmost = bang;
#X obj 26 145 trigger bang float;
#X obj 131 176 outlet rightmost = index;
#X msg 131 69 1;
#X text 181 37 This is part of EasyFlow library of abstractions.;
#X text 181 67 Created by Henri Augusto - v1.0 - 11 July 2015;
#X text 181 86 henriaugusto.github.io;
#X connect 0 0 3 0;
#X connect 1 0 2 0;
#X connect 2 0 4 0;
#X connect 2 0 6 0;
#X connect 3 0 1 0;
#X connect 3 1 8 0;
#X connect 4 0 2 1;
#X connect 6 0 5 0;
#X connect 6 1 7 0;
#X connect 8 0 2 1;
#X restore 263 112 pd for;
#X obj 74 426 r \$0-Toggle1;
#X obj 224 459 tgl 15 0 empty empty empty 17 7 0 10 -262144 -1 -1 0
1;
#X obj 224 426 r \$0-Toggle2;
#X obj 344 459 tgl 15 0 empty empty empty 17 7 0 10 -262144 -1 -1 0
1;
#X obj 464 459 tgl 15 0 empty empty empty 17 7 0 10 -262144 -1 -1 0
1;
#X obj 584 459 tgl 15 0 empty empty empty 17 7 0 10 -262144 -1 -1 0
1;
#X obj 704 459 tgl 15 0 empty empty empty 17 7 0 10 -262144 -1 -1 0
1;
#X obj 834 459 tgl 15 0 empty empty empty 17 7 0 10 -262144 -1 -1 0
1;
#X obj 344 426 r \$0-Toggle3;
#X obj 464 426 r \$0-Toggle4;
#X obj 584 426 r \$0-Toggle5;
#X obj 704 426 r \$0-Toggle6;
#X obj 834 426 r \$0-Toggle7;
#X obj 323 345 send;
#X msg 263 88 7;
#X obj 296 168 route;
#X floatatom 323 88 5 0 0 0 - - -, f 5;
#X obj 263 66 trigger b f;
#X obj 296 220 t b f;
#X obj 323 190 t b f;
#N canvas 256 98 450 300 makeSendSymbol 0;
#X msg 74 57 symbol -Toggle\$1;
#X msg 74 171 1003-Toggle7;
#X obj 74 101 pack \$0 s;
#X obj 74 79 t b s;
#X msg 74 123 set \$1\$2;
#X obj 74 145 t b a;
#N canvas 0 50 450 300 Symbolyze 0;
#X obj 66 18 inlet;
#X obj 66 42 list prepend symbol;
#X obj 66 64 list trim;
#X obj 66 86 outlet;
#X connect 0 0 1 0;
#X connect 1 0 2 0;
#X connect 2 0 3 0;
#X restore 74 193 pd Symbolyze;
#X obj 74 26 inlet;
#X obj 74 215 outlet;
#X connect 0 0 3 0;
#X connect 1 0 6 0;
#X connect 2 0 4 0;
#X connect 3 0 2 0;
#X connect 3 1 2 1;
#X connect 4 0 5 0;
#X connect 5 0 1 0;
#X connect 5 1 1 0;
#X connect 6 0 8 0;
#X connect 7 0 0 0;
#X restore 350 244 pd makeSendSymbol;
#X msg 296 273 1;
#X msg 323 273 0;
#X symbolatom 348 322 15 0 0 0 - - -, f 15;
#X obj 251 142 pack f f;
#X obj 111 450 loadbang;
#X msg 111 472 1;
#X obj 263 44 + 1;
#X obj 795 565 easyflow-info;
#X obj 41 73 inlet~;
#X obj 40 114 s~ \$0-spigots;
#X obj 41 402 r~ \$0-spigots;
#X obj 191 402 r~ \$0-spigots;
#X obj 311 402 r~ \$0-spigots;
#X obj 431 402 r~ \$0-spigots;
#X obj 551 402 r~ \$0-spigots;
#X obj 671 402 r~ \$0-spigots;
#X obj 801 402 r~ \$0-spigots;
#X obj 41 516 outlet~;
#X obj 191 516 outlet~;
#X obj 311 516 outlet~;
#X obj 431 516 outlet~;
#X obj 551 516 outlet~;
#X obj 671 516 outlet~;
#X obj 801 516 outlet~;
#X obj 41 484 spigot~;
#X obj 191 484 spigot~;
#X obj 311 484 spigot~;
#X obj 431 484 spigot~;
#X obj 551 484 spigot~;
#X obj 671 484 spigot~;
#X obj 801 484 spigot~;
#X obj 263 22 inlet;
#X connect 0 0 47 2;
#X connect 1 1 26 1;
#X connect 1 1 26 0;
#X connect 2 0 0 0;
#X connect 3 0 48 2;
#X connect 4 0 3 0;
#X connect 5 0 49 2;
#X connect 6 0 50 2;
#X connect 7 0 51 2;
#X connect 8 0 52 2;
#X connect 9 0 53 2;
#X connect 10 0 5 0;
#X connect 11 0 6 0;
#X connect 12 0 7 0;
#X connect 13 0 8 0;
#X connect 14 0 9 0;
#X connect 16 0 1 0;
#X connect 17 0 20 0;
#X connect 17 1 21 0;
#X connect 18 0 17 1;
#X connect 19 0 16 0;
#X connect 19 1 18 0;
#X connect 20 0 23 0;
#X connect 20 1 22 0;
#X connect 21 0 24 0;
#X connect 21 1 22 0;
#X connect 22 0 25 0;
#X connect 23 0 15 0;
#X connect 24 0 15 0;
#X connect 25 0 15 1;
#X connect 26 0 17 0;
#X connect 27 0 28 0;
#X connect 28 0 0 0;
#X connect 29 0 19 0;
#X connect 31 0 32 0;
#X connect 33 0 47 0;
#X connect 34 0 48 0;
#X connect 35 0 49 0;
#X connect 36 0 50 0;
#X connect 37 0 51 0;
#X connect 38 0 52 0;
#X connect 39 0 53 0;
#X connect 47 0 40 0;
#X connect 48 0 41 0;
#X connect 49 0 42 0;
#X connect 50 0 43 0;
#X connect 51 0 44 0;
#X connect 52 0 45 0;
#X connect 53 0 46 0;
#X connect 54 0 29 0;
