#N canvas 945 107 491 524 10;
#X obj 78 26 inlet;
#X obj 65 26 cnv 11 12 17 empty empty 1 2 9 0 14 -1 -262144 0;
#X symbolatom 167 108 15 0 0 0 - - -, f 15;
#X obj 167 127 list fromsymbol;
#X obj 167 341 easyflow/listSplit;
#X obj 290 170 loadbang;
#X obj 290 192 bng 15 250 50 0 empty empty empty 17 7 0 10 -262144
-1 -1;
#X obj 290 263 list fromsymbol;
#X msg 290 285 \$1;
#X floatatom 290 307 5 0 0 0 - - -, f 5;
#X obj 167 473 outlet;
#X obj 167 366 list tosymbol;
#X obj 78 48 trigger bang anything bang;
#X msg 257 80 set;
#X msg 167 388 add2 \$1;
#X msg 167 440;
#X obj 290 212 list append \$1;
#X obj 290 234 route symbol;
#X connect 0 0 12 0;
#X connect 2 0 3 0;
#X connect 3 0 4 0;
#X connect 4 0 11 0;
#X connect 5 0 6 0;
#X connect 6 0 16 0;
#X connect 7 0 8 0;
#X connect 8 0 9 0;
#X connect 9 0 4 1;
#X connect 11 0 14 0;
#X connect 12 0 15 0;
#X connect 12 1 2 0;
#X connect 12 2 13 0;
#X connect 13 0 15 0;
#X connect 14 0 15 0;
#X connect 15 0 10 0;
#X connect 16 0 17 0;
#X connect 17 0 7 0;
