#N canvas 836 134 371 249 10;
#X msg 59 82 symbol C:/Vst/Samples;
#X obj 59 142 symbolSplit /;
#X msg 69 112 symbol a/b/c/1/2/3;
#X text 59 23 splits a symbol in a specified char;
#X obj 229 209 easyflow-info;
#X obj 59 163 easyflow/printHere;
#X connect 0 0 1 0;
#X connect 1 0 5 0;
#X connect 2 0 1 0;
