#N canvas 945 107 491 524 10;
#X obj 78 26 inlet;
#X obj 65 26 cnv 11 12 17 empty empty 1 2 9 0 14 -1 -262144 0;
#X symbolatom 167 108 15 0 0 0 - - -;
#X obj 167 127 list fromsymbol;
#X obj 308 170 loadbang;
#X obj 308 192 bng 15 250 50 0 empty empty empty 17 7 0 10 -262144
-1 -1;
#X obj 308 263 list fromsymbol;
#X msg 308 285 \$1;
#X floatatom 308 307 5 0 0 0 - - -;
#X obj 167 493 outlet;
#X obj 167 366 list tosymbol;
#X obj 78 48 trigger bang anything bang;
#X msg 257 80 set;
#X msg 167 388 add2 \$1;
#X msg 167 440 7 8;
#X obj 308 212 list append \$1;
#X obj 308 234 route symbol;
#X obj 167 341 easyflow/listSplitOnChar;
#X text 190 465 <- should i put a [list] object here?;
#X connect 0 0 11 0;
#X connect 2 0 3 0;
#X connect 3 0 17 0;
#X connect 4 0 5 0;
#X connect 5 0 15 0;
#X connect 6 0 7 0;
#X connect 7 0 8 0;
#X connect 8 0 17 1;
#X connect 10 0 13 0;
#X connect 11 0 14 0;
#X connect 11 1 2 0;
#X connect 11 2 12 0;
#X connect 12 0 14 0;
#X connect 13 0 14 0;
#X connect 14 0 9 0;
#X connect 15 0 16 0;
#X connect 16 0 6 0;
#X connect 17 0 10 0;
