#N canvas 979 63 367 242 10;
#X obj 41 41 inlet;
#X obj 29 41 cnv 8 11 17 empty empty 1 2 9 0 14 -1 -262144 0;
#X obj 41 63 route bang;
#X obj 41 87 list append \$1;
#X obj 41 117 expr size("$s1") \;;
#X obj 41 150 trigger float float;
#N canvas 0 50 316 339 copy 0;
#X floatatom 46 79 5 0 0 0 - - -, f 5;
#X obj 46 156 trigger float float;
#X msg 46 98 set 0 \, \$1;
#X obj 46 120 easyflow/counter;
#X obj 46 35 inlet;
#X obj 46 189 tabread \$1;
#X obj 46 246 tabwrite \$2;
#X connect 0 0 2 0;
#X connect 1 0 5 0;
#X connect 1 1 6 1;
#X connect 2 0 3 0;
#X connect 3 0 1 0;
#X connect 4 0 0 0;
#X connect 5 0 6 0;
#X restore 41 182 pd copy;
#X obj 219 41 loadbang;
#X msg 219 85 symbol \$2;
#X obj 219 107 route float;
#X obj 171 181 array size;
#X obj 219 63 list append \$1 \$2;
#X connect 0 0 2 0;
#X connect 2 0 3 0;
#X connect 3 0 4 0;
#X connect 4 0 5 0;
#X connect 5 0 6 0;
#X connect 5 1 10 0;
#X connect 7 0 11 0;
#X connect 8 0 9 0;
#X connect 9 1 10 1;
#X connect 11 0 8 0;
