#N canvas 979 63 397 341 10;
#X obj 41 41 inlet;
#X obj 29 41 cnv 8 11 17 empty empty 1 2 9 0 14 -1 -262144 0;
#X obj 41 63 route bang;
#X obj 41 117 list append \$1;
#X obj 41 157 expr size("$s1") \;;
#X obj 206 207 array size \$0-tab;
#X obj 123 241 tabReverseCopy \$1 \$0-tab;
#N canvas 0 50 316 339 reverse 0;
#X floatatom 46 79 5 0 0 0 - - -, f 5;
#X obj 46 156 trigger float float;
#X msg 46 98 set 0 \, \$1;
#X obj 46 120 easyflow/counter;
#X obj 46 35 inlet;
#X obj 46 246 tabwrite \$1;
#X obj 46 189 tabread \$0-tab;
#X connect 0 0 2 0;
#X connect 1 0 6 0;
#X connect 1 1 5 1;
#X connect 2 0 3 0;
#X connect 3 0 1 0;
#X connect 4 0 0 0;
#X connect 6 0 5 0;
#X restore 41 262 pd reverse;
#X obj 41 179 trigger float bang float;
#X obj 208 39 array define \$0-tab;
#X connect 0 0 2 0;
#X connect 2 0 3 0;
#X connect 3 0 4 0;
#X connect 4 0 8 0;
#X connect 8 0 7 0;
#X connect 8 1 6 0;
#X connect 8 2 5 0;
