#N canvas 0 50 450 300 10;
#X obj 247 81 loadbang;
#X msg 247 102 0;
#X obj 57 79 bng 15 250 50 0 empty empty empty 17 7 0 10 -262144 -1
-1;
#X floatatom 57 125 5 0 0 0 - - -, f 5;
#X obj 60 170 bng 15 250 50 0 empty empty empty 17 7 0 10 -262144 -1
-1;
#X obj 60 190 v \$0-apple;
#X obj 247 123 value \$0-apple;
#X floatatom 60 211 5 0 0 0 - - -, f 5;
#X obj 299 251 easyflow-info;
#X obj 57 104 value-- \$0-apple;
#X text 48 15 [value--] provides a post-decrement operator to work
on [value] objects;
#X text 52 253 shorthand:;
#X obj 131 254 v--;
#X connect 0 0 1 0;
#X connect 1 0 6 0;
#X connect 2 0 9 0;
#X connect 4 0 5 0;
#X connect 5 0 7 0;
#X connect 9 0 3 0;
