#N canvas 961 492 344 245 10;
#X obj 87 40 inlet;
#X msg 87 61 bang;
#X obj 87 82 v \$1;
#X obj 198 132 + 1;
#X obj 198 153 v \$1;
#X obj 87 103 trigger float float;
#X obj 87 154 outlet;
#X connect 0 0 1 0;
#X connect 1 0 2 0;
#X connect 2 0 5 0;
#X connect 3 0 4 0;
#X connect 5 0 6 0;
#X connect 5 1 3 0;
