#N canvas 362 235 315 292 12;
#X obj 71 37 inlet;
#X msg 71 68 bang;
#X obj 71 203 outlet;
#X obj 71 168 \$1;
#X obj 71 134 v \$2;
#X obj 187 132 v \$3;
#X obj 71 98 trigger bang bang;
#X connect 0 0 1 0;
#X connect 1 0 6 0;
#X connect 3 0 2 0;
#X connect 4 0 3 0;
#X connect 5 0 3 1;
#X connect 6 0 4 0;
#X connect 6 1 5 0;
