#N canvas 0 50 450 300 12;
#X obj 71 37 inlet;
#X msg 71 68 bang;
#X obj 71 98 trigger bang bang bang;
#X obj 146 242 outlet;
#X obj 146 177 \$1;
#X obj 146 143 v \$2;
#X obj 146 211 v \$2;
#X obj 222 127 v \$3;
#X connect 0 0 1 0;
#X connect 1 0 2 0;
#X connect 2 0 6 0;
#X connect 2 1 5 0;
#X connect 2 2 7 0;
#X connect 4 0 6 0;
#X connect 5 0 4 0;
#X connect 6 0 3 0;
#X connect 7 0 4 1;
