#N canvas 0 50 259 244 10;
#X obj 87 40 inlet;
#X msg 87 61 bang;
#X obj 87 82 v \$1;
#X obj 114 147 v \$1;
#X obj 87 177 outlet;
#X obj 114 126 - 1;
#X obj 87 103 t f f;
#X connect 0 0 1 0;
#X connect 1 0 2 0;
#X connect 2 0 6 0;
#X connect 5 0 3 0;
#X connect 6 0 4 0;
#X connect 6 1 5 0;
