#N canvas 856 156 591 371 10;
#X obj 51 198 weightedRandom;
#X obj 465 331 easyflow-info;
#X floatatom 51 221 5 0 0 0 - - -;
#N canvas 0 50 450 250 (subpatch) 0;
#X array \$0-metrics 4 float 2;
#X coords 0 301 4 -0.1 200 140 1 0 0;
#X restore 338 28 graph;
#X text 286 210 weight;
#X text 350 210 4;
#X text 400 210 3;
#X text 453 210 1;
#X text 509 210 2;
#N canvas 0 50 568 674 metrics 1;
#X obj 160 290 weightedRandom;
#X msg 250 378 0;
#X msg 283 378 1;
#X msg 317 378 2;
#X msg 351 378 3;
#X obj 331 472 array get \$0-metrics;
#X msg 331 449 \$1 1;
#X floatatom 331 493 5 0 0 0 - - -;
#X msg 118 164 const 0;
#X obj 118 185 s \$0-metrics;
#X obj 250 419 t f f, f 14;
#X obj 250 473 pack f f;
#X obj 250 585 array set \$0-metrics;
#X obj 331 513 + 1;
#N canvas 225 122 324 340 normalize 0;
#X obj 37 37 inlet;
#X floatatom 37 90 10 0 0 0 - - -;
#X obj 37 171 s \$0-metrics;
#X floatatom 155 94 5 0 0 0 - - -;
#X obj 37 69 array max \$0-metrics;
#X msg 37 150 bounds 0 \$1 4 -0.1;
#X obj 37 120 + 10;
#X connect 0 0 4 0;
#X connect 1 0 6 0;
#X connect 4 0 1 0;
#X connect 4 1 3 0;
#X connect 5 0 2 0;
#X connect 6 0 5 0;
#X restore 160 361 pd normalize;
#X obj 250 534 unpack f f;
#X floatatom 250 555 5 0 0 0 - - -;
#X floatatom 306 556 5 0 0 0 - - -;
#X msg 250 494 \$2 \$1;
#X obj 91 139 t f b;
#X obj 91 24 inlet;
#X obj 250 351 sel A B C D, f 23;
#X msg 160 264 A 4 B 3 C 1 D 2;
#X obj 160 331 t b s;
#X obj 91 230 easyflow/for;
#X obj 91 45 sel 0;
#X msg 91 76 stop;
#X obj 91 251 bng 15 250 50 0 empty empty empty 17 7 0 10 -262144 -1
-1;
#X msg 91 113 750;
#X obj 19 139 del 1000;
#X connect 0 0 23 0;
#X connect 1 0 10 0;
#X connect 2 0 10 0;
#X connect 3 0 10 0;
#X connect 4 0 10 0;
#X connect 5 0 7 0;
#X connect 6 0 5 0;
#X connect 7 0 13 0;
#X connect 8 0 9 0;
#X connect 10 0 11 0;
#X connect 10 1 6 0;
#X connect 11 0 18 0;
#X connect 13 0 11 1;
#X connect 15 0 16 0;
#X connect 15 1 17 0;
#X connect 16 0 12 0;
#X connect 17 0 12 1;
#X connect 18 0 15 0;
#X connect 19 0 24 0;
#X connect 19 1 8 0;
#X connect 20 0 25 0;
#X connect 21 0 1 0;
#X connect 21 1 2 0;
#X connect 21 2 3 0;
#X connect 21 3 4 0;
#X connect 22 0 0 0;
#X connect 23 0 14 0;
#X connect 23 1 21 0;
#X connect 24 0 27 0;
#X connect 24 0 29 0;
#X connect 24 1 22 0;
#X connect 25 0 26 0;
#X connect 25 1 28 0;
#X connect 26 0 29 0;
#X connect 28 0 19 0;
#X connect 29 0 28 0;
#X restore 388 290 pd metrics;
#X text 40 29 [weightedRandom] takes a list of the form;
#X msg 42 64 elem1 weight1 elem2 weight2 ...;
#X text 44 98 and outputs a random element \, weights considered,
f 37;
#X msg 51 171 A 4 B 3 C 1 D 2;
#X text 348 185 A;
#X text 400 185 B;
#X text 453 185 C;
#X text 508 185 D;
#X obj 388 252 tgl 25 0 empty empty run metrics 30 12 0 14 -262144
-1 -1 1 1;
#X connect 0 0 2 0;
#X connect 13 0 0 0;
#X connect 18 0 9 0;
